<svg width="197" height="177" viewBox="0 0 197 177" fill="none" xmlns="http://www.w3.org/2000/svg">
<g id="Logo">
<path id="&#208;&#164;&#208;&#190;&#208;&#189; &#208;&#186;&#208;&#176;&#209;&#129;&#208;&#191;&#208;&#181;&#209;&#128;&#208;&#176; &#208;&#189;&#208;&#184;&#208;&#183;" d="M157.406 75.95L85.765 121.319L87.3476 121.847L88.9302 123.113L87.0311 126.384L84.3933 130.182L78.1683 134.508L77.4297 135.774V136.618L85.765 141.26L94.1002 143.793L102.963 145.903L120.478 144.426L134.616 138.728L141.474 133.136L151.603 121.425L157.406 109.291L158.356 103.805V101.589L163.948 100.323L166.796 99.2676L169.012 99.7952L172.177 101.589L177.347 105.071L181.04 106.653H183.678L184.628 105.598V103.805L183.361 101.589L180.618 99.2676L178.297 97.1574L178.614 95.7858L181.357 94.9417L185.683 95.4693L191.064 95.7858L194.545 94.9417L195.601 93.0425L194.545 91.2489L191.591 89.6662L183.678 87.7671L179.141 86.6065L176.714 85.9734V85.0238L177.875 82.4916L179.669 80.1704L183.678 76.372L187.898 72.4681V70.1469L186.738 68.9863L183.15 69.4084L177.875 71.6241L170.278 75.6334L163.948 77.8491H160.993H158.461L157.723 77.3216L157.406 75.95Z" fill="#FEFEFE"/>
<path id="&#208;&#145;&#208;&#147; &#208;&#189;&#208;&#184;&#208;&#183; &#208;&#186;&#208;&#190;&#208;&#187;&#208;&#181;&#209;&#129;&#208;&#176;" d="M125.542 12.1175L118.157 11.3789L116.679 13.1726L111.615 15.1773L107.711 16.5489L107.078 19.7142V27.3109L107.711 33.8525C108.626 35.6813 110.94 39.6977 112.459 41.1326C128.708 44.0869 133.772 47.5687 143.69 55.904C151.344 62.3368 158.778 88.0845 157.934 103.172C157.09 118.26 138.942 144.11 110.032 144.954C94.6383 145.404 77.1133 136.443 71.2048 130.816L58.3326 109.081L57.383 100.957L46.41 104.122L35.9645 108.553L27.5238 106.654L26.6797 110.875L29.845 120.265L33.6433 130.816L38.8133 138.835L47.3596 149.913L55.0618 157.299L62.6585 162.469L71.2048 166.9L79.329 170.804L92.9398 173.758L103.069 175.13H114.78L125.542 173.758L140.208 168.377L152.236 162.469L162.576 154.45L170.595 145.904L177.137 137.674L181.146 128.6L185.577 119.104L188.426 108.764L188.848 100.429L190.009 96.9473V89.6671L187.266 86.7128L188.848 84.4971V81.2263L188.426 73.9462L185.472 67.7211L182.201 60.0189L179.036 52.8442L175.554 47.3577L172.811 43.5594L168.485 37.6508L162.787 31.8478L152.553 24.7786L144.429 19.7142L137.254 16.5489L130.607 14.2277L125.542 12.1175Z" fill="url(#paint0_linear_544_7428)"/>
<g id="&#208;&#154;&#208;&#190;&#208;&#187;&#208;&#181;&#209;&#129;&#208;&#190;">
<path id="&#208;&#145;&#208;&#147; &#208;&#178;&#208;&#181;&#209;&#128;&#209;&#133; &#208;&#186;&#208;&#190;&#208;&#187;&#208;&#181;&#209;&#129;&#208;&#176;" d="M27.1025 73.8397L24.7812 84.6017L29.0016 87.1339L35.0157 89.5606L37.0204 87.8725L43.2455 82.0694L50.6311 74.4727L56.4342 66.665L60.6546 63.3942L58.8609 59.8069L56.4342 55.27V51.6826V48.9394L62.4482 37.8609L69.8339 27.9429L71.6276 20.1352L70.9945 18.9746L66.1411 21.7179L59.0719 26.2548L50.6311 33.4294L44.6171 39.2325L38.603 47.2512L33.7496 56.0085L29.0016 66.665L27.1025 73.8397Z" fill="url(#paint1_linear_544_7428)"/>
</g>
<g id="&#208;&#167;&#208;&#181;&#209;&#128;&#208;&#189;&#209;&#139;&#208;&#185; &#208;&#177;&#208;&#179;">
<path id="Vector 11" d="M85.8689 121.321C84.9404 120.984 75.8103 127.371 71.6251 130.501L71.4141 131.134C73.1022 132.787 77.1538 135.819 77.3226 135.143C77.5336 134.299 82.1761 130.817 82.5981 130.501C83.0201 130.184 85.3413 128.813 85.9744 128.391C86.6075 127.969 88.6122 123.432 88.7177 123.221C88.8232 123.01 87.0295 121.744 85.8689 121.321Z" fill="#161616"/>
<path id="Vector 3" d="M58.3328 109.186C58.4172 109.101 57.1018 104.368 56.4336 102.011C58.2062 99.901 63.4324 98.6701 65.824 98.3184C66.5274 99.9362 67.9131 103.256 67.8286 103.594C67.7231 104.016 58.2273 109.291 58.3328 109.186Z" fill="#161616"/>
<path id="Vector 1" d="M143.481 55.7989C132.17 44.0663 118.088 41.2034 112.461 41.2386C116.154 46.1975 115.943 49.9959 115.837 50.5234C121.535 49.8904 125.243 49.8578 130.82 51.6841C135.779 53.3079 139.893 56.1155 141.16 57.3816C141.511 57.1706 142.468 56.5586 143.481 55.7989Z" fill="#161616" stroke="#161616" stroke-width="0.181581"/>
</g>
<path id="&#208;&#158;&#208;&#177;&#208;&#178;&#208;&#190;&#208;&#180;&#208;&#186;&#208;&#176;" fill-rule="evenodd" clip-rule="evenodd" d="M68.19 18.713C72.4971 16.1772 104.441 8.68599 123.964 10.6959C125.968 10.9021 127.999 11.3128 128.753 12.5934C129.019 12.5934 129.246 12.5854 129.457 12.578C130.331 12.5473 130.933 12.5261 132.973 13.121C134.999 13.7118 138.389 14.985 139.831 15.5477C140.605 15.7587 142.152 16.4762 142.152 17.6579C143.207 17.5524 153.969 21.2452 154.708 25.0436C156.607 25.1491 166.42 31.4797 166.103 34.4339C167.264 34.5394 174.438 39.9205 175.493 45.3014C176.865 46.251 182.668 53.3202 182.563 57.6461C183.407 58.4902 185.895 61.6519 186.106 65.3447C187.477 67.0293 189.165 70.7257 188.385 73.68C190.326 74.8406 191.487 84.0235 190.265 85.7116C191.803 87.1888 192.436 97.1031 190.792 99.5334C190.627 99.6992 190.523 100.959 190.381 102.693C190.071 106.479 189.575 112.529 187.838 114.41C187.944 115.149 185.833 127.388 182.774 127.916C182.774 129.076 178.553 140.471 175.493 140.682C175.282 142.159 170.007 151.233 166.209 151.55C165.681 153.238 158.295 161.151 154.919 161.151C154.286 162.628 145.951 168.537 142.469 168.431C141.625 169.592 132.129 174.656 128.964 173.285C127.909 174.129 118.413 177.189 114.72 175.923C113.454 176.661 102.586 177.822 100.159 175.923C98.7878 176.45 88.8699 176.134 85.7046 173.285C83.9109 173.496 73.9931 171.491 72.1994 168.326C70.8278 168.326 61.4374 165.055 59.8548 161.257C58.3776 160.94 48.8817 155.137 48.5652 151.655C46.9826 151.233 39.8079 144.481 39.3859 140.788C38.0142 140.049 31.5781 132.453 32.1057 128.021C30.8396 127.494 25.8806 117.259 26.7247 114.41C22.46 105.016 23.6078 104.491 24.6145 80.3306C24.72 77.7984 25.2476 72.7339 27.0412 71.4678C26.6192 70.0962 28.2018 60.6004 32.0002 57.8571C32.0002 55.9579 36.2206 45.618 39.2804 45.407C39.3859 43.7188 44.5558 35.5945 48.4597 34.3284C48.7762 33.1678 56.1619 24.727 59.8548 25.0436C60.0658 23.883 65.5079 20.2921 68.19 18.713ZM74.6873 18.0763L71.944 19.659C68.4622 20.8196 63.7586 24.7059 62.9146 25.0436C62.0705 25.3812 62.9849 27.2241 63.5476 28.1033L61.0154 29.7915C60.7692 29.5101 60.0869 28.7364 59.3272 27.8923C58.6357 27.1239 55.4259 30.2168 53.2843 32.2804C52.4852 33.0504 51.8349 33.677 51.5195 33.9064C50.591 34.5816 52.3284 35.8759 53.3132 36.4386L50.5699 38.7598C50.1479 38.3026 49.135 37.346 48.4597 37.1772C47.7774 37.0066 44.8892 40.9723 43.2497 43.2232C42.8609 43.7571 42.5424 44.1944 42.3401 44.4574C41.4961 45.5547 43.1139 46.4621 44.0283 46.7786L41.8126 49.4163C41.3906 49.0998 40.3988 48.4245 39.8079 48.2557C39.2471 48.0955 37.5307 51.4631 36.2288 54.0174C35.816 54.8273 35.4449 55.5554 35.1655 56.0634C34.237 57.7516 35.904 58.3143 36.8536 58.3847L35.3765 61.3389C34.9545 61.1279 33.8783 60.6848 32.9498 60.6004C32.1218 60.5251 30.9179 64.6919 30.1043 67.5079C29.7775 68.6393 29.5136 69.5525 29.3624 69.8852C28.9404 70.8137 30.9451 71.1865 32.0002 71.2568L31.1561 74.4221C30.5582 74.2462 29.1936 73.8734 28.5184 73.789C27.8802 73.7093 27.3626 78.0325 27.0113 80.9671C26.8979 81.9139 26.8019 82.7161 26.7247 83.1794C26.4715 84.6987 28.3777 84.6565 29.3624 84.4455L27.9908 109.24C28.0963 110.049 28.3917 111.73 28.7294 111.984C29.067 112.237 30.5582 111.878 31.2616 111.667L31.8947 114.938C31.4023 115.043 30.2487 115.36 29.5735 115.782C28.7294 116.309 32.6332 124.539 33.1608 125.067C33.5828 125.489 34.8841 124.891 35.482 124.539L37.0647 127.599C36.3964 127.845 34.9334 128.443 34.4269 128.865C33.9398 129.271 36.6381 133.237 38.2929 135.669C38.7889 136.398 39.1912 136.99 39.3859 137.306C40.0611 138.403 41.4961 137.2 42.1291 136.462L44.2393 139.311C44.0635 139.451 43.4374 139.88 42.3401 140.471C41.3599 140.999 44.3671 144.275 46.4328 146.525C47.2577 147.424 47.9324 148.159 48.1432 148.49C48.734 149.418 50.1479 148.103 50.7809 147.329L52.9966 149.651C52.4691 150.073 51.3929 151.064 51.3085 151.655C51.2237 152.248 55.9717 155.837 58.1718 157.499C58.711 157.907 59.0971 158.199 59.2217 158.302C59.7282 158.724 60.7692 157.282 61.2264 156.509L63.6531 158.302C63.2662 158.724 62.4925 159.737 62.4925 160.413C62.4925 161.187 69.4136 164.534 70.8873 165.247C71.0206 165.311 71.1093 165.354 71.1443 165.372C71.4819 165.54 72.3401 164.035 72.7269 163.261L75.5757 164.738C75.435 165.196 75.0693 166.279 74.7316 166.954C74.4118 167.594 79.1815 169.082 82.1076 169.995C83.0429 170.286 83.7898 170.519 84.122 170.647C84.7128 171.238 85.4233 169.416 85.7046 168.431L88.3424 169.17C88.3072 169.838 88.2579 171.301 88.3424 171.808C88.4479 172.441 97.6272 173.285 98.4713 173.285C99.1466 173.285 98.8933 171.878 98.6823 171.175L102.059 171.28C102.023 171.913 101.995 173.306 102.164 173.812C102.375 174.445 111.555 173.918 112.399 173.812C113.074 173.728 112.891 172.019 112.715 171.175H115.986C115.986 171.772 116.049 173.095 116.302 173.601C116.535 174.067 121.392 172.934 124.28 172.261C125.319 172.018 126.103 171.836 126.326 171.808C127.001 171.723 126.396 169.944 126.009 169.064L129.175 168.22C129.21 168.889 129.449 170.309 130.124 170.647C130.968 171.069 139.515 167.482 139.831 166.743C140.084 166.152 139.304 165.161 138.882 164.738L141.941 163.472C142.117 163.754 142.595 164.527 143.102 165.372C143.735 166.427 151.965 160.94 152.176 160.413C152.345 159.991 151.472 158.76 151.015 158.197L153.758 156.298C154.145 156.896 155.067 158.112 155.658 158.197C156.396 158.302 162.727 152.183 163.149 151.55C163.486 151.043 162.305 149.932 161.672 149.44L163.993 147.224C164.485 147.646 165.618 148.511 166.209 148.595C166.947 148.701 172.012 141.737 172.328 140.999C172.581 140.408 171.238 139.557 170.534 139.205L172.539 136.462C173.032 136.919 174.164 137.855 174.755 137.939C175.493 138.045 179.925 129.287 180.136 128.654C180.305 128.148 178.659 127.669 177.815 127.494L179.081 124.539C179.643 124.75 180.959 125.151 181.718 125.067C182.668 124.961 184.989 116.309 185.095 115.571C185.179 114.98 183.512 114.832 182.668 114.832L183.618 111.667C184.216 111.878 185.538 112.237 186.044 111.984C186.677 111.667 187.838 102.699 187.627 101.96C187.458 101.369 186.08 101.362 185.411 101.433L185.622 98.2673C186.326 98.2321 187.817 98.1407 188.155 98.0563C188.491 97.9721 188.425 97.2165 188.385 96.7536C188.374 96.6362 188.366 96.5377 188.366 96.4736C188.366 96.2204 186.863 87.1852 187.266 84.5475L185.411 84.7585L184.778 79.9051C185.411 79.7996 186.528 79.884 186.95 79.7996C187.402 79.7091 187.319 80.352 186.863 78.4681C186.787 78.1548 186.723 77.8885 186.677 77.6929C186.424 76.5956 185.306 71.4678 184.778 69.0411L184.356 67.8805C183.512 65.5944 181.74 60.9169 181.402 60.4949C181.064 60.0728 179.714 60.8817 179.081 61.3389L177.498 58.3847C178.166 58.033 179.566 57.2451 179.819 56.9075C180.136 56.4855 175.071 48.3612 174.544 48.1502C174.122 47.9814 172.891 48.8536 172.328 49.3108L170.64 46.7786C171.132 46.3565 172.159 45.4281 172.328 45.0904C172.539 44.6684 166.736 37.7047 165.998 37.2827C165.407 36.9451 164.274 38.0564 163.782 38.6543L161.672 36.2276C162.059 35.9462 162.917 35.2147 163.254 34.5394C163.676 33.6954 155.552 28.1033 155.13 27.8923C154.792 27.7235 153.934 29.0881 153.547 29.7915L150.91 27.6813C151.156 27.3296 151.712 26.4574 151.965 25.7821C152.281 24.9381 144.157 20.7177 143.418 20.5067C142.828 20.3378 142.328 21.9134 142.152 22.7224L138.882 21.2452C139.198 20.6825 139.831 19.4094 139.831 18.8185C139.831 18.2259 134.6 16.8181 131.607 16.0123C130.869 15.8139 130.268 15.6519 129.913 15.5477C130.251 16.3074 129.28 17.271 128.753 17.6579C127.662 17.4469 125.587 16.9826 126.009 16.8138C126.537 16.6028 126.115 14.5981 126.009 14.1761C125.925 13.8384 120.277 12.9803 117.463 12.5934L115.88 14.1761V15.5477H114.825L114.403 14.5981L116.936 12.5934C112.776 10.3741 84.2444 17.1267 74.6873 18.0763Z" fill="#161616"/>
<path id="&#208;&#164;&#208;&#190;&#208;&#189; &#208;&#186;&#208;&#176;&#209;&#129;&#208;&#191;&#208;&#181;&#209;&#128;&#208;&#176;" d="M58.1236 58.3306L64.6652 67.2989L61.8164 64.4501L60.1283 64.2391L55.8024 67.2989L51.371 74.0515L37.9712 86.9237L34.9114 89.7725L30.3745 87.7678L16.8693 81.2262L9.16706 77.8499L5.57972 77.2168L1.78137 78.905L1.46484 81.0152L4.52463 82.4923L9.16706 84.8135L10.5387 86.3961L6.74033 88.9284L2.73096 92.3047L1.78137 94.7314L4.94667 96.2086L9.80011 95.7865L12.6489 97.1581L10.5387 100.745L8.00645 104.333L8.85053 106.232L12.8599 105.81L15.1811 104.755L16.2362 103.067L17.3968 103.911L25.5211 107.604L27.9478 108.448L28.6864 107.076L30.3745 107.92L35.9665 113.723L41.1365 116.888L42.9302 115.411L41.9806 111.507L41.6641 108.975L45.7789 107.92L50.5269 105.493L60.3393 99.1628L65.6148 98.1077L66.7754 99.3738L68.4635 103.594L140.421 57.9085L138.839 56.7479L133.774 54.0047L128.815 51.8945L118.792 51.2614H115.415L114.677 49.9953L113.622 45.5639L110.984 41.027L108.557 36.3845L107.291 31.4256L107.608 25.8336L106.764 21.0856L107.291 16.7597L110.456 15.5991L117.42 12.5393L118.159 9.79608L116.47 8.21344L112.883 9.79608H111.3L108.557 6.52528L105.919 2.62142L101.91 1.77734L97.4787 2.93795L90.304 6.7363L84.3955 9.26854L77.9594 12.5393L73.317 17.8148L69.8352 27.0997L67.0919 32.7972L62.0274 37.9672L56.8575 47.041L55.9079 51.2614L58.1236 58.3306Z" fill="#FEFEFE"/>
<path id="&#208;&#158;&#208;&#177;&#208;&#178;&#208;&#190;&#208;&#180;&#208;&#186;&#208;&#176; &#208;&#186;&#208;&#176;&#209;&#129;&#208;&#191;&#208;&#181;&#209;&#128;&#208;&#176; &#208;&#178;&#208;&#181;&#209;&#128;&#209;&#133;" d="M139.47 58.3301L140.841 57.275C140.841 57.2046 140.736 56.7685 140.314 55.5868C139.786 54.1097 131.029 51.2609 126.703 49.6783C122.377 48.0956 117.735 50.1003 115.73 50.6279C116.891 46.935 111.51 40.4989 110.349 38.0722C109.211 35.6926 107.5 28.8929 108.133 27.5212C108.766 26.1496 108.133 24.4615 107.5 21.8237C106.867 19.186 107.5 16.8648 108.133 16.8648C110.177 17.2868 116.257 13.805 118.051 12.7499C119.845 11.6948 118.895 9.26807 117.524 7.79094C116.426 6.60923 113.62 8.28331 112.354 9.26807C112.002 9.40875 110.855 8.88823 109.083 5.68074C106.867 1.67137 106.762 1.56586 102.119 0.932804C97.4767 0.299746 90.6186 4.57125 89.036 5.62637C87.6988 6.51782 87.2722 7.79094 88.1919 7.79094C88.7194 7.79094 85.0266 8.5295 83.2329 9.26807C78.8645 11.0668 74.1591 15.0711 72.3654 17.7089C70.5718 20.3466 68.6726 27.0992 68.2505 28.8929C67.8285 30.6865 65.4018 33.0078 62.131 36.3841C58.8602 39.7604 56.539 44.8248 55.4839 48.8342C54.4288 52.8436 57.172 59.4907 58.3326 60.7568C59.4932 62.0229 59.9153 62.9725 59.7043 63.289C57.383 63.078 50.2084 73.629 49.6808 74.3676C49.1533 75.1061 45.0384 79.8541 44.1943 80.2761C43.3503 80.6982 36.0701 87.2397 35.5425 88.1893C35.015 89.1389 33.9599 88.5059 33.4323 88.5059C32.9048 88.5059 24.1475 83.7579 22.5648 83.0194C20.9822 82.2808 10.6422 77.4273 8.00449 76.6888C5.36675 75.9502 3.36207 76.8998 1.14636 78.3769C-1.06934 79.8541 1.04085 81.7532 2.09595 82.2808C4.58343 83.5245 9.27061 85.4461 9.79816 86.0791C9.27061 86.0791 3.15105 91.1436 2.51799 91.5657C1.88493 91.9877 -0.119758 93.7813 1.25187 95.6805C2.6235 97.5797 4.10063 97.2632 7.37143 96.9466C10.6422 96.6301 11.5918 96.9466 11.9084 97.5797C12.2249 98.2128 8.00449 102.644 7.79347 103.277C7.58245 103.91 6.63287 105.176 8.32102 106.759C10.0092 108.342 15.1792 105.176 15.9177 105.176C16.6563 105.176 16.4453 103.805 16.7618 103.699C17.8591 104.881 24.7454 108.201 28.0513 109.713C28.1569 109.186 28.4945 108.088 29.0009 107.92C29.634 107.709 30.3726 108.447 35.1205 113.723C39.8284 118.954 41.8635 117.498 42.6962 116.903L42.7172 116.888C45.6715 114.778 43.1392 111.507 42.7172 110.03C46.5155 110.03 51.6855 105.387 55.6949 102.433C59.7043 99.4789 65.4018 98.6348 65.7183 98.6348C65.9715 98.6348 67.2306 102.011 67.8285 103.699L68.9891 102.855C68.2857 101.519 66.8367 98.677 66.6679 98.0017C69.3056 98.2128 68.7781 97.2632 68.3561 97.0522C58.4381 97.0522 54.0067 102.011 48.2037 106.02C47.023 106.836 45.2494 107.603 41.9786 107.92C42.2248 107.357 42.675 106.126 42.5062 105.704C40.9235 106.443 39.9739 108.447 40.818 110.03C42.9282 114.567 41.7676 115.928 41.1345 116.149C39.0244 116.888 32.3772 109.186 31.6387 108.447C31.0756 107.884 28.8954 106.231 28.3679 106.231C27.5238 106.231 27.7559 106.569 27.8403 107.498C26.9118 108.426 19.294 104.367 15.6012 102.222V103.805C14.3351 104.121 10.2202 106.443 8.84857 105.282C7.65118 104.269 10.7477 101.167 12.4359 99.6899C13.2534 98.9746 12.7524 97.0522 13.1745 97.5797C13.5965 98.1073 16.5508 99.2679 16.8673 99.0568C13.8075 94.6254 9.58714 94.942 5.8943 95.2585C2.20146 95.575 1.9586 94.5559 2.51799 93.7813C3.88961 91.8822 10.4312 87.2397 10.9588 87.1342C11.4863 87.0287 13.069 89.561 13.8075 89.8775C11.2753 82.7028 7.26592 82.7028 3.67859 81.4367C0.0912619 80.1706 2.83452 79.01 5.8943 78.0604C8.95408 77.1108 17.0783 81.8588 21.9318 84.391C26.7852 86.9232 35.5425 90.6161 36.4921 90.9326C37.2518 91.1858 38.4265 90.8271 38.9188 90.6161C38.4968 90.3347 37.4206 89.6665 36.4921 89.2444C39.9739 87.2397 55.5894 70.5692 56.2224 68.67C56.7289 67.1507 60.0208 65.5047 61.6034 64.8717L65.1908 68.459V67.0874C64.9798 66.7709 62.553 63.1835 58.3326 56.853C54.1122 50.5224 61.6034 40.1824 62.342 39.0218C63.0806 37.8612 69.6222 33.0078 71.3103 25.3056C72.9985 17.6033 77.8519 14.3325 80.3842 12.3279C82.9164 10.3232 92.8343 9.26807 93.6784 9.26807C93.8894 8.63501 91.6737 8.5295 90.6186 8.5295C89.5635 8.5295 90.7241 7.68542 95.261 5.15319C99.798 2.62096 102.119 2.93749 104.229 3.043C106.34 3.14851 107.395 6.20829 107.5 7.05237C109.821 11.1672 113.62 11.5893 114.253 11.4838C112.459 10.4095 113.62 9.5846 115.413 9.26807C117.207 8.95154 117.524 8.63501 116.996 11.1672C116.468 13.6995 110.982 14.3325 109.083 14.6491C107.184 14.9656 105.918 16.7593 105.601 16.8648C105.01 15.5142 103.385 14.8249 102.647 14.6491C104.335 17.1813 107.521 22.8577 106.762 25.3055C105.812 28.3653 106.34 31.7416 106.762 33.6408C107.171 35.4811 108.867 38.4111 111.084 42.2389L111.299 42.6091C113.62 46.6185 113.198 46.4075 113.831 51.472C114.464 56.5364 106.973 66.4543 106.973 66.9819C111.826 64.6607 115.519 52.7381 115.73 51.9995C118.157 51.0499 122.588 52.5271 127.125 52.7381C130.755 52.9069 136.867 56.5364 139.47 58.3301Z" fill="#221E1F" stroke="#242021" stroke-width="0.181581"/>
<g id="&#208;&#155;&#208;&#184;&#209;&#134;&#208;&#190;">
<path id="Vector 4" d="M80.0671 21.4018C79.1803 22.9981 78.3789 22.0349 78.6955 20.9798C79.5818 18.0255 81.8608 17.8145 82.9159 17.8145C82.1773 18.4475 81.1222 19.5026 80.0671 21.4018Z" fill="#221E1F"/>
<path id="Vector 5" d="M95.2627 18.2359C94.3131 17.3918 93.1876 17.8139 92.8359 18.1304C94.9461 20.8736 97.4784 22.0343 97.5839 22.0343C97.6894 22.0343 97.7949 21.4012 97.5839 20.9792C97.2146 20.2406 96.4894 19.3264 95.2627 18.2359Z" fill="#221E1F"/>
<path id="Vector 6" d="M82.5986 24.4608C83.6537 24.9883 83.8648 25.9379 83.6537 26.782C83.4427 26.2544 81.6491 24.1442 82.4931 27.0985C83.2736 29.8301 82.2821 30.5803 80.805 30.3693C79.3278 30.1583 79.4333 27.415 79.5389 26.3599C79.6862 24.8864 81.1612 23.742 82.5986 24.4608Z" fill="#221E1F"/>
<path id="Vector 7" d="M95.1551 25.7273C95.7882 26.3604 96.1047 27.943 95.8937 28.6816C95.1551 28.3651 95.3662 27.521 95.0496 27.3099C94.6772 27.0616 94.8386 28.6816 94.1 31.3193C93.9092 32.0009 92.5996 32.2957 91.9899 31.7414C90.8292 30.6863 91.4623 27.732 91.8843 26.7824C92.6241 25.118 94.3482 24.9203 95.1551 25.7273Z" fill="#221E1F"/>
<path id="Vector 8" d="M88.9292 40.709C87.7686 42.6082 86.186 42.6082 85.6585 42.5027C85.1309 42.3971 83.6538 40.709 83.7593 42.0806C83.854 43.3119 85.8694 44.7184 88.0852 43.9798C89.5183 43.5021 89.4568 40.8145 88.9292 40.709Z" fill="#221E1F"/>
<path id="Vector 9" d="M84.9238 51.0488C83.2357 51.0488 82.512 52.9033 82.2861 53.8976C81.7585 56.2188 82.4971 59.7006 85.4514 59.7006C88.3001 59.7006 88.0891 54.7417 87.9836 53.8976C87.8385 52.737 86.823 51.0488 84.9238 51.0488Z" fill="#221E1F"/>
<path id="Vector 10" d="M85.8687 66.7703C85.2136 66.934 83.9695 66.9813 81.9648 65.7152C82.7034 67.8254 83.9695 68.6431 86.1852 68.4584C88.7175 68.2474 89.5615 66.0317 89.1395 64.8711C88.4009 66.0317 87.1348 66.4537 85.8687 66.7703Z" fill="#221E1F"/>
</g>
<path id="&#208;&#160;&#209;&#131;&#208;&#186;&#208;&#176; &#208;&#177;&#208;&#181;&#208;&#187;&#209;&#139;&#208;&#185;" d="M155.613 78.1657L154.558 78.0602L153.503 77.7437L146.434 80.5924L136.199 87.9781L141.369 91.0379L143.268 92.304L141.053 94.9418L138.837 98.5291L137.993 101.061L138.52 103.277L141.686 104.227L145.484 103.805L150.443 101.8L154.136 101.272L157.09 101.589L159.622 101.483L166.481 99.4787L167.958 99.2677L169.857 100.217L172.811 101.694L175.554 103.91L178.72 106.126L181.146 106.759L183.89 106.548L184.628 105.493V104.332L184.101 102.749L182.835 101.061L180.83 99.6897L179.247 98.1071L178.087 96.7354L178.72 95.7858L179.775 95.3638L181.146 95.2583H183.046L185.894 95.5748L190.431 95.8914L192.858 95.5748L194.546 94.7307L195.285 93.3591L194.968 91.671L193.597 90.2993L191.064 89.1387L186.738 88.2947L179.036 86.712L177.559 86.29L176.609 85.6569L177.031 84.1798L178.087 82.4916L179.88 79.9594L182.412 77.5327L185.156 75.1059L187.582 72.5737L188.427 70.8855L187.582 69.3029L185.156 68.8809L181.041 70.0415L175.976 72.5737L167.43 77.0051L164.792 77.5327L161.522 77.7437L158.778 77.8492L155.613 78.1657Z" fill="#FEFEFE"/>
<path id="&#208;&#158;&#208;&#177;&#208;&#178;&#208;&#190;&#208;&#180;&#208;&#186;&#208;&#176; &#208;&#186;&#208;&#176;&#209;&#129;&#208;&#191;&#208;&#181;&#209;&#128;&#208;&#176; &#208;&#189;&#208;&#184;&#208;&#183;" d="M78.063 135.669C77.8722 135.808 77.4299 135.563 76.7969 135.141C76.9024 135.036 78.5122 133.093 80.1732 131.976C85.9762 128.072 85.6597 127.439 87.8754 123.324C88.0991 122.909 85.9428 122.119 85.6597 121.742C85.3432 121.32 87.3478 119.842 87.6644 120.264C101.064 127.545 102.225 125.955 112.881 127.861C113.092 127.899 113.409 128.705 113.092 128.811C112.197 129.109 111.615 129.127 106.023 128.811C100.431 128.494 95.4721 126.49 93.2564 125.434C91.0407 124.379 89.5755 123.641 89.458 123.957C87.0313 130.499 83.3044 131.9 81.1228 133.242C79.7511 134.086 79.2236 134.825 78.063 135.669Z" fill="#221E1F"/>
<path id="&#208;&#158;&#208;&#177;&#208;&#178;&#208;&#190;&#208;&#180;&#208;&#186;&#208;&#176; &#208;&#186;&#208;&#176;&#209;&#129;&#208;&#191;&#208;&#181;&#209;&#128;&#208;&#176; &#209;&#128;&#209;&#131;&#208;&#186;&#208;&#176;" d="M144.322 89.5609C145.082 89.4765 144.709 90.7919 144.428 91.4601C144.111 92.5193 140.313 96.9466 139.891 97.8962C137.148 105.282 142.74 103.594 144.322 103.594C145.905 103.594 155.612 98.0017 157.406 98.8458C159.199 99.6898 155.928 100.217 155.084 100.639C154.24 101.061 157.406 101.061 158.777 101.061C160.149 101.061 164.58 98.9513 167.112 98.8458C169.645 98.7403 174.393 101.906 177.558 104.438C180.723 106.97 182.833 106.653 183.677 106.126C186.843 103.383 179.563 99.4788 178.824 98.5292C178.085 97.5796 176.925 96.8411 177.241 96.419C178.402 94.5199 182.728 94.3088 186.315 94.9419C189.902 95.575 193.342 95.2041 193.912 94.6254C197.499 90.9837 188.32 89.0334 186.526 88.7168C184.733 88.4003 178.085 86.6066 177.241 86.3956C176.397 86.1846 177.03 87.1342 176.925 88.0838C176.819 89.0334 180.301 90.7215 177.241 89.7719C174.182 88.8223 176.186 85.235 177.98 81.6477C179.774 78.0603 190.008 72.2573 187.265 69.9361C184.521 67.6149 170.911 75.7391 168.695 77.3218C166.479 78.9044 161.52 79.854 159.621 79.854C157.722 79.854 162.998 78.5879 163.103 78.2714C163.209 77.9548 162.998 77.5328 159.41 78.5879C155.823 79.643 155.084 78.6934 155.295 78.1659C157.933 77.5328 155.823 78.1659 156.561 76.7942C157.3 75.4226 158.144 76.2667 158.566 77.0052C158.988 77.7438 163.103 77.4273 165.635 77.0052C168.167 76.5832 178.507 70.3581 182.622 69.092C186.737 67.8259 188.109 68.7755 189.058 70.0416C190.008 71.3077 188.003 74.051 186.21 74.7896C184.416 75.5281 177.874 82.5973 177.241 84.4965C176.608 86.3956 179.141 86.5011 180.09 86.8177C181.04 87.1342 191.775 87.9918 194.756 90.616C196.972 92.5663 196.022 95.0986 194.756 95.8371C192.886 96.928 185.471 95.786 181.567 95.575C177.663 95.364 178.507 97.5797 181.04 99.1623C183.572 100.745 185.049 102.222 185.26 105.176C185.471 108.131 180.09 106.865 178.929 106.548C177.769 106.231 172.493 101.8 169.539 100.323C166.585 98.8458 161.52 101.906 160.465 102.222C159.41 102.539 155.401 102.644 153.185 102.222C150.969 101.8 150.969 102.644 146.327 104.649C141.685 106.653 137.781 105.176 137.253 102.433C136.726 99.6899 138.519 97.6852 138.625 97.2631C138.73 96.8411 141.474 93.4648 141.896 92.9372C142.318 92.4097 140.629 91.9876 139.152 91.0381C137.675 90.0885 137.148 89.5609 138.203 88.8224C139.258 88.0838 142.951 91.3546 143.373 91.2491C143.795 91.1436 143.373 89.6664 144.322 89.5609Z" fill="#221E1F"/>
<path id="&#208;&#154;&#209;&#128;&#208;&#176;&#209;&#129;&#208;&#189;&#208;&#176;&#209;&#143; &#208;&#191;&#208;&#190;&#208;&#187;&#208;&#190;&#209;&#129;&#208;&#176;" d="M144 54.9987C141 55.9987 58 108.999 58 108.999C58 108.999 71 131.999 72 131.999C73 131.999 153 78.9988 155 77.9989C153 68.9988 147 53.9987 144 54.9987Z" fill="url(#paint2_linear_544_7428)"/>
<g id="Txt">
<mask id="path-21-outside-1_544_7428" maskUnits="userSpaceOnUse" x="46.6016" y="54.7168" width="117" height="78" fill="black">
<rect fill="white" x="46.6016" y="54.7168" width="117" height="78"/>
<path d="M61.1495 126.443C60.7325 127.875 59.6064 129.175 57.7711 130.345C55.9404 131.511 54.2857 131.982 52.8071 131.758C51.3255 131.529 50.0104 130.513 48.8618 128.71C47.7133 126.907 47.3498 125.288 47.7714 123.853C48.193 122.418 49.3191 121.118 51.1498 119.951C52.9851 118.782 54.6398 118.311 56.1138 118.538C57.5924 118.763 58.906 119.776 60.0546 121.579C61.2032 123.382 61.5681 125.003 61.1495 126.443ZM55.1504 121.214C54.328 120.956 53.3931 121.161 52.3456 121.828C51.3028 122.493 50.7222 123.254 50.6038 124.111C50.49 124.965 50.7844 125.944 51.4872 127.047C52.1869 128.145 52.948 128.824 53.7705 129.082C54.5946 129.332 55.528 129.125 56.5708 128.461C57.6183 127.793 58.2003 127.035 58.3171 126.185C58.4309 125.331 58.1379 124.354 57.4381 123.256C56.7354 122.153 55.9728 121.472 55.1504 121.214Z"/>
<path d="M63.2464 123.612C63.2163 123.59 63.1884 123.559 63.1625 123.519C63.1349 123.475 63.1276 123.413 63.1407 123.331L63.3767 120.365L60.694 119.27C60.5238 119.207 60.4497 119.104 60.4718 118.959C60.4807 118.897 60.5171 118.845 60.5808 118.805L61.5236 118.204C61.8046 118.025 62.1118 118.008 62.4451 118.154L63.8639 118.79L63.8876 117.235C63.8961 116.872 64.0409 116.6 64.3218 116.421L65.2647 115.821C65.3284 115.78 65.3906 115.769 65.4512 115.787C65.5914 115.828 65.6538 115.939 65.6387 116.12L65.4971 119.014L68.2852 120.054C68.3648 120.076 68.4193 120.111 68.4489 120.157C68.4765 120.201 68.492 120.238 68.4951 120.268C68.5292 120.373 68.4955 120.457 68.3941 120.522L67.4686 121.111C67.2021 121.281 66.895 121.298 66.5472 121.161L64.9933 120.563L64.8744 122.227C64.8543 122.598 64.711 122.868 64.4445 123.038L63.519 123.628C63.4176 123.692 63.3267 123.687 63.2464 123.612Z"/>
<path d="M69.7797 118.882C69.0621 118.752 68.4449 118.282 67.9282 117.471C67.4096 116.657 67.2443 115.899 67.4323 115.197C67.6185 114.492 68.1345 113.87 68.9803 113.331C69.829 112.791 70.6122 112.585 71.3298 112.714C72.0456 112.84 72.6628 113.311 73.1813 114.125C73.698 114.936 73.8633 115.694 73.6772 116.399C73.491 117.104 72.9736 117.727 72.1248 118.267C71.279 118.806 70.4973 119.011 69.7797 118.882ZM68.9856 115.209C68.9555 115.558 69.1047 115.991 69.4331 116.506C69.7616 117.022 70.0913 117.341 70.4222 117.464C70.7531 117.588 71.1112 117.526 71.4965 117.281C71.8846 117.034 72.0929 116.734 72.1211 116.382C72.1523 116.028 72.0036 115.594 71.6752 115.078C71.3467 114.562 71.0165 114.245 70.6845 114.127C70.3554 114.007 69.9968 114.07 69.6087 114.318C69.2234 114.563 69.0157 114.86 68.9856 115.209Z"/>
<path d="M72.9687 112.018L72.6393 111.501C72.5895 111.423 72.5735 111.344 72.5914 111.263C72.6103 111.178 72.6589 111.11 72.7371 111.06L77.0169 108.334C77.0952 108.284 77.1755 108.269 77.258 108.29C77.3386 108.308 77.4038 108.356 77.4536 108.434L77.783 108.951C77.831 109.026 77.847 109.106 77.8309 109.189C77.8131 109.27 77.765 109.335 77.6868 109.385L76.3008 110.268L78.4959 113.714C78.5438 113.789 78.5584 113.869 78.5394 113.955C78.5216 114.035 78.4735 114.101 78.3953 114.15L77.4264 114.768C77.3482 114.817 77.2673 114.834 77.1838 114.818C77.1013 114.798 77.0361 114.75 76.9881 114.674L74.793 111.229L73.407 112.112C73.3288 112.161 73.2479 112.178 73.1644 112.162C73.0819 112.142 73.0167 112.093 72.9687 112.018Z"/>
<path d="M81.3109 111.92L78.6176 107.693C78.5677 107.614 78.5518 107.535 78.5696 107.454C78.5886 107.369 78.6357 107.302 78.711 107.254L79.6843 106.634C79.7625 106.584 79.8428 106.57 79.9253 106.591C80.0059 106.609 80.0711 106.657 80.1209 106.735L81.1119 108.29L83.015 107.078L82.0241 105.522C81.9742 105.444 81.9582 105.365 81.9761 105.284C81.995 105.199 82.0436 105.131 82.1218 105.081L83.0908 104.464C83.169 104.414 83.2493 104.4 83.3318 104.421C83.4124 104.438 83.4776 104.486 83.5274 104.565L86.2208 108.792C86.2706 108.871 86.2866 108.95 86.2687 109.031C86.2508 109.111 86.2028 109.176 86.1246 109.226L85.1556 109.844C85.0774 109.893 84.9966 109.91 84.9131 109.894C84.8306 109.873 84.7654 109.825 84.7174 109.75L83.6849 108.129L81.7818 109.342L82.8143 110.963C82.8641 111.041 82.8786 111.121 82.8579 111.204C82.84 111.284 82.7934 111.348 82.7181 111.396L81.7448 112.016C81.6666 112.066 81.5872 112.082 81.5066 112.064C81.4259 112.047 81.3607 111.998 81.3109 111.92Z"/>
<path d="M87.8236 107.771L85.1302 103.544C85.0804 103.465 85.0644 103.386 85.0823 103.305C85.1012 103.22 85.1483 103.153 85.2236 103.105L86.1318 102.527C86.21 102.477 86.2903 102.462 86.3728 102.483C86.4563 102.499 86.5229 102.546 86.5728 102.625L88.3914 105.479L88.1299 101.694C88.119 101.574 88.1429 101.455 88.2016 101.336C88.2585 101.215 88.3318 101.125 88.4216 101.068L89.6382 100.293C89.7164 100.243 89.7967 100.229 89.8792 100.249C89.9627 100.265 90.0294 100.312 90.0792 100.391L92.7725 104.618C92.8224 104.697 92.8369 104.777 92.8161 104.859C92.7983 104.94 92.7502 105.005 92.672 105.055L91.7639 105.634C91.6857 105.683 91.6063 105.699 91.5257 105.682C91.4432 105.661 91.378 105.613 91.33 105.537L89.5141 102.687L89.7701 106.464C89.7773 106.578 89.7534 106.697 89.6984 106.821C89.6415 106.943 89.5682 107.032 89.4784 107.09L88.2575 107.867C88.1793 107.917 88.0998 107.933 88.0192 107.915C87.9386 107.898 87.8734 107.849 87.8236 107.771Z"/>
<path d="M99.2193 100.615C99.3005 100.743 99.2658 100.854 99.1152 100.95L98.2939 101.474C98.0159 101.651 97.7075 101.656 97.369 101.489L96.2441 100.941C95.7612 100.707 95.2938 100.734 94.8419 101.022L95.8744 102.642C95.9242 102.721 95.9387 102.801 95.918 102.883C95.9001 102.964 95.8535 103.028 95.7782 103.076L94.8049 103.696C94.7267 103.746 94.6473 103.762 94.5667 103.744C94.486 103.726 94.4208 103.678 94.371 103.6L91.6776 99.3724C91.6278 99.2942 91.6118 99.2148 91.6297 99.1342C91.6486 99.0488 91.6958 98.9821 91.7711 98.9341L92.7444 98.3141C92.8226 98.2643 92.9029 98.2497 92.9854 98.2705C93.066 98.2884 93.1312 98.3364 93.181 98.4146L94.2107 100.031C94.7148 99.7099 94.9349 99.2948 94.8712 98.7856L94.7236 97.6335C94.7022 97.472 94.724 97.3176 94.789 97.1704C94.854 97.0231 94.9516 96.9079 95.082 96.8249L95.9032 96.3017C96.048 96.2094 96.1564 96.2198 96.2284 96.3327C96.269 96.3965 96.2975 96.4923 96.3139 96.6204L96.5063 98.1593C96.5362 98.4172 96.5138 98.6697 96.4391 98.9168C96.3644 99.1639 96.2444 99.3686 96.0791 99.531C96.5036 99.4112 96.9782 99.4754 97.5028 99.7235L99.0027 100.448C99.1054 100.5 99.1776 100.556 99.2193 100.615Z"/>
<path d="M100.336 99.7998L97.6428 95.5721C97.593 95.4939 97.577 95.4145 97.5949 95.3339C97.6138 95.2485 97.6609 95.1819 97.7363 95.1339L98.6444 94.5554C98.7226 94.5055 98.8029 94.491 98.8854 94.5118C98.9689 94.5278 99.0356 94.5749 99.0854 94.6531L100.904 97.5078L100.643 93.7222C100.632 93.6029 100.656 93.4838 100.714 93.365C100.771 93.2433 100.844 93.1538 100.934 93.0966L102.151 92.3215C102.229 92.2717 102.309 92.2572 102.392 92.2779C102.475 92.294 102.542 92.3411 102.592 92.4193L105.285 96.647C105.335 96.7252 105.35 96.8055 105.329 96.888C105.311 96.9686 105.263 97.0338 105.185 97.0837L104.277 97.6622C104.198 97.712 104.119 97.728 104.038 97.7101C103.956 97.6894 103.891 97.6413 103.843 97.566L102.027 94.7157L102.283 98.4926C102.29 98.6061 102.266 98.7252 102.211 98.8498C102.154 98.9715 102.081 99.061 101.991 99.1182L100.77 99.896C100.692 99.9459 100.612 99.9618 100.532 99.944C100.451 99.9261 100.386 99.8781 100.336 99.7998Z"/>
<path d="M109.572 92.5721C109.522 92.4939 109.506 92.4145 109.524 92.3339C109.545 92.2514 109.593 92.1862 109.668 92.1382L110.32 91.723C110.517 91.5975 110.733 91.5982 110.969 91.7251C111.205 91.8472 111.482 91.8077 111.797 91.6065L112.679 91.0446C113.099 90.777 113.2 90.4709 112.98 90.1262C112.76 89.7814 112.441 89.7443 112.023 90.0148L110.946 90.7013C110.867 90.7511 110.787 90.768 110.703 90.752C110.621 90.7312 110.554 90.6817 110.505 90.6035L110.217 90.1516C110.167 90.0734 110.151 89.994 110.169 89.9134C110.188 89.828 110.236 89.7605 110.315 89.7106L111.31 89.0767C111.501 88.9549 111.617 88.8216 111.659 88.6767C111.703 88.5271 111.679 88.3813 111.589 88.2393C111.498 88.0974 111.376 88.0143 111.222 87.9902C111.071 87.9642 110.9 88.0121 110.709 88.1339L109.909 88.6432C109.808 88.7078 109.72 88.8003 109.646 88.9207C109.571 89.0382 109.537 89.1614 109.546 89.2902C109.558 89.5592 109.465 89.7549 109.266 89.8775L108.619 90.29C108.541 90.3398 108.46 90.3567 108.376 90.3407C108.296 90.3228 108.231 90.2747 108.181 90.1965C107.932 89.8055 107.92 89.3689 108.146 88.8867C108.376 88.4027 108.76 87.9891 109.298 87.6458L110.172 87.0894C110.783 86.7 111.339 86.5048 111.839 86.5038C112.34 86.498 112.737 86.724 113.028 87.1816C113.32 87.6393 113.323 88.1015 113.038 88.5681C113.704 88.5019 114.213 88.744 114.564 89.2944C114.87 89.7752 114.922 90.2346 114.721 90.6725C114.52 91.1057 114.084 91.5363 113.412 91.9645L112.443 92.5818C111.861 92.9527 111.3 93.143 110.76 93.1528C110.221 93.1625 109.825 92.969 109.572 92.5721Z"/>
<path d="M116.785 89.2537C116.233 89.2308 115.802 88.976 115.492 88.4894C115.182 88.0028 115.135 87.5073 115.351 87.003C115.57 86.4969 115.982 86.0509 116.588 85.6653L118.026 84.749C117.81 84.4101 117.589 84.2192 117.362 84.1764C117.135 84.1336 116.844 84.2257 116.487 84.4527C116.134 84.6778 115.941 84.9248 115.909 85.1938C115.878 85.458 115.758 85.6566 115.549 85.7895L114.902 86.2019C114.823 86.2517 114.743 86.2686 114.659 86.2526C114.577 86.2318 114.511 86.1838 114.463 86.1085C113.934 85.2771 114.458 84.3586 116.037 83.3528C116.726 82.9136 117.378 82.7161 117.993 82.7604C118.606 82.8017 119.118 83.1453 119.529 83.7913L121.243 86.4808C121.293 86.559 121.309 86.6385 121.291 86.7191C121.273 86.7997 121.225 86.8649 121.147 86.9147L120.308 87.449C120.23 87.4988 120.15 87.5148 120.07 87.4969C119.987 87.4761 119.922 87.4281 119.874 87.3528L119.788 87.2181C119.539 87.837 119.114 88.336 118.512 88.7151C117.916 89.0952 117.34 89.2748 116.785 89.2537ZM117.32 86.5851C117.118 86.7143 116.988 86.866 116.932 87.0401C116.879 87.2124 116.902 87.3768 117.002 87.5332C117.102 87.6896 117.245 87.7798 117.431 87.8037C117.617 87.8275 117.822 87.7684 118.045 87.6263C118.491 87.3421 118.838 86.9378 119.086 86.4132L118.654 85.7353L117.32 86.5851Z"/>
<path d="M126.504 83.1293L123.81 78.9016C123.76 78.8234 123.744 78.744 123.762 78.6634C123.781 78.578 123.828 78.5114 123.904 78.4634L127.154 76.3929C127.229 76.3449 127.308 76.3313 127.39 76.3521C127.474 76.3681 127.541 76.4152 127.59 76.4934L127.92 77.0105C127.968 77.0858 127.982 77.1661 127.963 77.2515C127.946 77.3321 127.899 77.3964 127.824 77.4444L125.812 78.726L128.007 82.1716C128.055 82.2469 128.07 82.3272 128.051 82.4126C128.033 82.4932 127.986 82.5575 127.911 82.6055L126.938 83.2255C126.862 83.2735 126.783 83.2895 126.699 83.2735C126.617 83.2527 126.552 83.2047 126.504 83.1293Z"/>
<path d="M132.376 81.4466L128.75 75.7547C128.7 75.6765 128.684 75.597 128.702 75.5164C128.721 75.4311 128.768 75.3644 128.843 75.3164L129.682 74.7822C129.757 74.7342 129.836 74.7206 129.919 74.7414C130.002 74.7574 130.069 74.8045 130.119 74.8827L130.202 75.0131C130.453 74.3971 130.881 73.8962 131.486 73.5105C132.092 73.1249 132.734 73.0172 133.412 73.1875C134.089 73.355 134.681 73.837 135.189 74.6336C135.695 75.4273 135.872 76.1694 135.721 76.8599C135.571 77.5504 135.139 78.1226 134.427 78.5766C134.059 78.8109 133.593 79.0037 133.03 79.155L133.88 80.4889C133.929 80.5671 133.944 80.6474 133.923 80.7299C133.907 80.8134 133.862 80.8791 133.786 80.9271L132.813 81.5472C132.738 81.5952 132.657 81.6097 132.572 81.5908C132.491 81.5729 132.426 81.5249 132.376 81.4466ZM132.39 78.1513C132.84 78.032 133.192 77.8911 133.447 77.7287C133.844 77.4759 134.053 77.1839 134.074 76.8528C134.098 76.5198 133.952 76.1057 133.637 75.6104C133.321 75.115 133.012 74.8066 132.711 74.685C132.411 74.5587 132.103 74.5962 131.787 74.7973C131.474 74.9966 131.194 75.3586 130.945 75.8832L132.39 78.1513Z"/>
<path d="M139.164 76.0714L139.781 75.7826C140.189 75.5224 140.283 75.0409 140.064 74.3379C139.571 74.6516 139.066 74.7659 138.547 74.6809C138.027 74.5929 137.406 74.2451 136.685 73.6375L134.701 71.9513C134.678 71.9336 134.657 71.9103 134.638 71.8814C134.618 71.8495 134.611 71.8008 134.618 71.7352C134.628 71.6677 134.669 71.6095 134.739 71.5605L135.647 70.9819C135.731 70.9284 135.829 70.9066 135.942 70.9166C136.055 70.9218 136.15 70.959 136.227 71.0283L137.969 72.5079C138.399 72.8694 138.742 73.0909 138.997 73.1724C139.256 73.2521 139.485 73.2283 139.685 73.101L138.612 69.5086C138.582 69.4098 138.582 69.3117 138.614 69.2142C138.646 69.112 138.705 69.0341 138.789 68.9806L139.705 68.3965C139.778 68.3504 139.846 68.3394 139.911 68.3636C139.975 68.3878 140.017 68.4159 140.037 68.4477C140.056 68.4767 140.069 68.5032 140.076 68.5271L141.523 73.3106C141.778 74.1582 141.852 74.8314 141.747 75.3304C141.644 75.8275 141.356 76.2265 140.884 76.5273C140.412 76.8281 140.067 77.0239 139.847 77.1146C139.631 77.2035 139.482 77.2375 139.399 77.2168C139.319 77.1989 139.257 77.1566 139.215 77.09L138.91 76.6121C138.86 76.5338 138.844 76.453 138.86 76.3695C138.877 76.2889 138.926 76.2236 139.004 76.1738L139.164 76.0714Z"/>
<path d="M142.973 71.2931C142.924 71.2149 142.908 71.1355 142.925 71.0549C142.946 70.9724 142.994 70.9072 143.07 70.8592L143.721 70.444C143.918 70.3185 144.135 70.3192 144.37 70.446C144.607 70.5681 144.883 70.5286 145.199 70.3275L146.081 69.7656C146.501 69.498 146.601 69.1918 146.381 68.8471C146.162 68.5024 145.843 68.4653 145.425 68.7358L144.347 69.4223C144.269 69.4721 144.188 69.489 144.104 69.473C144.022 69.4522 143.956 69.4027 143.906 69.3245L143.618 68.8726C143.568 68.7944 143.552 68.715 143.57 68.6344C143.589 68.549 143.638 68.4814 143.716 68.4316L144.711 67.7977C144.902 67.6759 145.019 67.5426 145.061 67.3977C145.104 67.248 145.08 67.1022 144.99 66.9603C144.899 66.8184 144.777 66.7353 144.623 66.7112C144.473 66.6852 144.301 66.7331 144.11 66.8548L143.311 67.3642C143.209 67.4288 143.122 67.5213 143.048 67.6417C142.972 67.7592 142.938 67.8824 142.947 68.0112C142.96 68.2801 142.867 68.4759 142.668 68.5985L142.02 69.0109C141.942 69.0608 141.861 69.0777 141.778 69.0616C141.697 69.0438 141.632 68.9957 141.582 68.9175C141.333 68.5265 141.322 68.0898 141.548 67.6077C141.777 67.1237 142.161 66.71 142.7 66.3668L143.573 65.8104C144.184 65.421 144.74 65.2258 145.24 65.2248C145.742 65.219 146.138 65.4449 146.43 65.9026C146.721 66.3603 146.724 66.8224 146.439 67.2891C147.106 67.2229 147.614 67.465 147.965 68.0154C148.271 68.4962 148.324 68.9556 148.122 69.3935C147.922 69.8267 147.485 70.2573 146.813 70.6854L145.844 71.3027C145.262 71.6736 144.701 71.864 144.162 71.8737C143.622 71.8835 143.226 71.6899 142.973 71.2931Z"/>
<path d="M150.147 67.6823C149.429 67.5531 148.812 67.0829 148.295 66.2718C147.777 65.4579 147.611 64.6998 147.799 63.9977C147.985 63.2927 148.501 62.6708 149.347 62.1319C150.196 61.5912 150.979 61.3855 151.697 61.5148C152.412 61.6411 153.03 62.1113 153.548 62.9252C154.065 63.7363 154.23 64.4943 154.044 65.1993C153.858 65.9043 153.34 66.5272 152.492 67.0679C151.646 67.6067 150.864 67.8115 150.147 67.6823ZM149.352 64.01C149.322 64.359 149.472 64.7914 149.8 65.307C150.128 65.8226 150.458 66.1419 150.789 66.2651C151.12 66.3882 151.478 66.327 151.863 66.0816C152.252 65.8343 152.46 65.5347 152.488 65.1827C152.519 64.8289 152.371 64.3942 152.042 63.8786C151.714 63.363 151.383 63.046 151.051 62.9277C150.722 62.8075 150.364 62.871 149.976 63.1183C149.59 63.3637 149.383 63.6609 149.352 64.01Z"/>
<path d="M156.234 64.189L153.541 59.9613C153.491 59.8831 153.475 59.8037 153.493 59.7231C153.512 59.6377 153.559 59.571 153.634 59.5231L155.129 58.5708C155.3 58.462 155.498 58.4861 155.725 58.6433L158.435 60.5575L157.845 57.2924C157.798 57.0209 157.86 56.8306 158.031 56.7218L159.526 55.7695C159.604 55.7197 159.684 55.7052 159.767 55.726C159.85 55.742 159.917 55.7891 159.967 55.8673L162.66 60.095C162.71 60.1732 162.725 60.2536 162.704 60.336C162.686 60.4166 162.638 60.4819 162.56 60.5317L161.617 61.1324C161.539 61.1822 161.459 61.1982 161.379 61.1803C161.296 61.1595 161.231 61.1115 161.183 61.0362L159.453 58.3205L160.046 61.7057C160.085 61.9657 160.012 62.1547 159.827 62.2728L159.401 62.5441C159.218 62.6603 159.018 62.6457 158.799 62.5001L155.981 60.5322L157.711 63.2479C157.761 63.3261 157.776 63.4064 157.755 63.4889C157.737 63.5695 157.689 63.6347 157.611 63.6845L156.668 64.2852C156.59 64.335 156.51 64.351 156.43 64.3331C156.349 64.3153 156.284 64.2672 156.234 64.189Z"/>
<path fill-rule="evenodd" clip-rule="evenodd" d="M54.0501 131.152C57.1967 131.152 60.0546 127.92 60.0546 125.064C60.0546 122.209 57.5037 119.894 54.3571 119.894C51.2104 119.894 48.6595 122.209 48.6595 125.064C48.6595 127.92 50.9034 131.152 54.0501 131.152ZM52.3456 121.828C53.3931 121.161 54.328 120.956 55.1504 121.214C55.9728 121.472 56.7354 122.153 57.4381 123.256C58.1379 124.354 58.4309 125.331 58.3171 126.185C58.2003 127.035 57.6183 127.793 56.5708 128.461C55.528 129.125 54.5946 129.332 53.7705 129.082C52.948 128.824 52.1869 128.145 51.4872 127.047C50.7844 125.944 50.49 124.965 50.6038 124.111C50.7222 123.254 51.3028 122.493 52.3456 121.828Z"/>
</mask>
<path d="M61.1495 126.443C60.7325 127.875 59.6064 129.175 57.7711 130.345C55.9404 131.511 54.2857 131.982 52.8071 131.758C51.3255 131.529 50.0104 130.513 48.8618 128.71C47.7133 126.907 47.3498 125.288 47.7714 123.853C48.193 122.418 49.3191 121.118 51.1498 119.951C52.9851 118.782 54.6398 118.311 56.1138 118.538C57.5924 118.763 58.906 119.776 60.0546 121.579C61.2032 123.382 61.5681 125.003 61.1495 126.443ZM55.1504 121.214C54.328 120.956 53.3931 121.161 52.3456 121.828C51.3028 122.493 50.7222 123.254 50.6038 124.111C50.49 124.965 50.7844 125.944 51.4872 127.047C52.1869 128.145 52.948 128.824 53.7705 129.082C54.5946 129.332 55.528 129.125 56.5708 128.461C57.6183 127.793 58.2003 127.035 58.3171 126.185C58.4309 125.331 58.1379 124.354 57.4381 123.256C56.7354 122.153 55.9728 121.472 55.1504 121.214Z" fill="#FEFEFE"/>
<path d="M63.2464 123.612C63.2163 123.59 63.1884 123.559 63.1625 123.519C63.1349 123.475 63.1276 123.413 63.1407 123.331L63.3767 120.365L60.694 119.27C60.5238 119.207 60.4497 119.104 60.4718 118.959C60.4807 118.897 60.5171 118.845 60.5808 118.805L61.5236 118.204C61.8046 118.025 62.1118 118.008 62.4451 118.154L63.8639 118.79L63.8876 117.235C63.8961 116.872 64.0409 116.6 64.3218 116.421L65.2647 115.821C65.3284 115.78 65.3906 115.769 65.4512 115.787C65.5914 115.828 65.6538 115.939 65.6387 116.12L65.4971 119.014L68.2852 120.054C68.3648 120.076 68.4193 120.111 68.4489 120.157C68.4765 120.201 68.492 120.238 68.4951 120.268C68.5292 120.373 68.4955 120.457 68.3941 120.522L67.4686 121.111C67.2021 121.281 66.895 121.298 66.5472 121.161L64.9933 120.563L64.8744 122.227C64.8543 122.598 64.711 122.868 64.4445 123.038L63.519 123.628C63.4176 123.692 63.3267 123.687 63.2464 123.612Z" fill="#FEFEFE"/>
<path d="M69.7797 118.882C69.0621 118.752 68.4449 118.282 67.9282 117.471C67.4096 116.657 67.2443 115.899 67.4323 115.197C67.6185 114.492 68.1345 113.87 68.9803 113.331C69.829 112.791 70.6122 112.585 71.3298 112.714C72.0456 112.84 72.6628 113.311 73.1813 114.125C73.698 114.936 73.8633 115.694 73.6772 116.399C73.491 117.104 72.9736 117.727 72.1248 118.267C71.279 118.806 70.4973 119.011 69.7797 118.882ZM68.9856 115.209C68.9555 115.558 69.1047 115.991 69.4331 116.506C69.7616 117.022 70.0913 117.341 70.4222 117.464C70.7531 117.588 71.1112 117.526 71.4965 117.281C71.8846 117.034 72.0929 116.734 72.1211 116.382C72.1523 116.028 72.0036 115.594 71.6752 115.078C71.3467 114.562 71.0165 114.245 70.6845 114.127C70.3554 114.007 69.9968 114.07 69.6087 114.318C69.2234 114.563 69.0157 114.86 68.9856 115.209Z" fill="#FEFEFE"/>
<path d="M72.9687 112.018L72.6393 111.501C72.5895 111.423 72.5735 111.344 72.5914 111.263C72.6103 111.178 72.6589 111.11 72.7371 111.06L77.0169 108.334C77.0952 108.284 77.1755 108.269 77.258 108.29C77.3386 108.308 77.4038 108.356 77.4536 108.434L77.783 108.951C77.831 109.026 77.847 109.106 77.8309 109.189C77.8131 109.27 77.765 109.335 77.6868 109.385L76.3008 110.268L78.4959 113.714C78.5438 113.789 78.5584 113.869 78.5394 113.955C78.5216 114.035 78.4735 114.101 78.3953 114.15L77.4264 114.768C77.3482 114.817 77.2673 114.834 77.1838 114.818C77.1013 114.798 77.0361 114.75 76.9881 114.674L74.793 111.229L73.407 112.112C73.3288 112.161 73.2479 112.178 73.1644 112.162C73.0819 112.142 73.0167 112.093 72.9687 112.018Z" fill="#FEFEFE"/>
<path d="M81.3109 111.92L78.6176 107.693C78.5677 107.614 78.5518 107.535 78.5696 107.454C78.5886 107.369 78.6357 107.302 78.711 107.254L79.6843 106.634C79.7625 106.584 79.8428 106.57 79.9253 106.591C80.0059 106.609 80.0711 106.657 80.1209 106.735L81.1119 108.29L83.015 107.078L82.0241 105.522C81.9742 105.444 81.9582 105.365 81.9761 105.284C81.995 105.199 82.0436 105.131 82.1218 105.081L83.0908 104.464C83.169 104.414 83.2493 104.4 83.3318 104.421C83.4124 104.438 83.4776 104.486 83.5274 104.565L86.2208 108.792C86.2706 108.871 86.2866 108.95 86.2687 109.031C86.2508 109.111 86.2028 109.176 86.1246 109.226L85.1556 109.844C85.0774 109.893 84.9966 109.91 84.9131 109.894C84.8306 109.873 84.7654 109.825 84.7174 109.75L83.6849 108.129L81.7818 109.342L82.8143 110.963C82.8641 111.041 82.8786 111.121 82.8579 111.204C82.84 111.284 82.7934 111.348 82.7181 111.396L81.7448 112.016C81.6666 112.066 81.5872 112.082 81.5066 112.064C81.4259 112.047 81.3607 111.998 81.3109 111.92Z" fill="#FEFEFE"/>
<path d="M87.8236 107.771L85.1302 103.544C85.0804 103.465 85.0644 103.386 85.0823 103.305C85.1012 103.22 85.1483 103.153 85.2236 103.105L86.1318 102.527C86.21 102.477 86.2903 102.462 86.3728 102.483C86.4563 102.499 86.5229 102.546 86.5728 102.625L88.3914 105.479L88.1299 101.694C88.119 101.574 88.1429 101.455 88.2016 101.336C88.2585 101.215 88.3318 101.125 88.4216 101.068L89.6382 100.293C89.7164 100.243 89.7967 100.229 89.8792 100.249C89.9627 100.265 90.0294 100.312 90.0792 100.391L92.7725 104.618C92.8224 104.697 92.8369 104.777 92.8161 104.859C92.7983 104.94 92.7502 105.005 92.672 105.055L91.7639 105.634C91.6857 105.683 91.6063 105.699 91.5257 105.682C91.4432 105.661 91.378 105.613 91.33 105.537L89.5141 102.687L89.7701 106.464C89.7773 106.578 89.7534 106.697 89.6984 106.821C89.6415 106.943 89.5682 107.032 89.4784 107.09L88.2575 107.867C88.1793 107.917 88.0998 107.933 88.0192 107.915C87.9386 107.898 87.8734 107.849 87.8236 107.771Z" fill="#FEFEFE"/>
<path d="M99.2193 100.615C99.3005 100.743 99.2658 100.854 99.1152 100.95L98.2939 101.474C98.0159 101.651 97.7075 101.656 97.369 101.489L96.2441 100.941C95.7612 100.707 95.2938 100.734 94.8419 101.022L95.8744 102.642C95.9242 102.721 95.9387 102.801 95.918 102.883C95.9001 102.964 95.8535 103.028 95.7782 103.076L94.8049 103.696C94.7267 103.746 94.6473 103.762 94.5667 103.744C94.486 103.726 94.4208 103.678 94.371 103.6L91.6776 99.3724C91.6278 99.2942 91.6118 99.2148 91.6297 99.1342C91.6486 99.0488 91.6958 98.9821 91.7711 98.9341L92.7444 98.3141C92.8226 98.2643 92.9029 98.2497 92.9854 98.2705C93.066 98.2884 93.1312 98.3364 93.181 98.4146L94.2107 100.031C94.7148 99.7099 94.9349 99.2948 94.8712 98.7856L94.7236 97.6335C94.7022 97.472 94.724 97.3176 94.789 97.1704C94.854 97.0231 94.9516 96.9079 95.082 96.8249L95.9032 96.3017C96.048 96.2094 96.1564 96.2198 96.2284 96.3327C96.269 96.3965 96.2975 96.4923 96.3139 96.6204L96.5063 98.1593C96.5362 98.4172 96.5138 98.6697 96.4391 98.9168C96.3644 99.1639 96.2444 99.3686 96.0791 99.531C96.5036 99.4112 96.9782 99.4754 97.5028 99.7235L99.0027 100.448C99.1054 100.5 99.1776 100.556 99.2193 100.615Z" fill="#FEFEFE"/>
<path d="M100.336 99.7998L97.6428 95.5721C97.593 95.4939 97.577 95.4145 97.5949 95.3339C97.6138 95.2485 97.6609 95.1819 97.7363 95.1339L98.6444 94.5554C98.7226 94.5055 98.8029 94.491 98.8854 94.5118C98.9689 94.5278 99.0356 94.5749 99.0854 94.6531L100.904 97.5078L100.643 93.7222C100.632 93.6029 100.656 93.4838 100.714 93.365C100.771 93.2433 100.844 93.1538 100.934 93.0966L102.151 92.3215C102.229 92.2717 102.309 92.2572 102.392 92.2779C102.475 92.294 102.542 92.3411 102.592 92.4193L105.285 96.647C105.335 96.7252 105.35 96.8055 105.329 96.888C105.311 96.9686 105.263 97.0338 105.185 97.0837L104.277 97.6622C104.198 97.712 104.119 97.728 104.038 97.7101C103.956 97.6894 103.891 97.6413 103.843 97.566L102.027 94.7157L102.283 98.4926C102.29 98.6061 102.266 98.7252 102.211 98.8498C102.154 98.9715 102.081 99.061 101.991 99.1182L100.77 99.896C100.692 99.9459 100.612 99.9618 100.532 99.944C100.451 99.9261 100.386 99.8781 100.336 99.7998Z" fill="#FEFEFE"/>
<path d="M109.572 92.5721C109.522 92.4939 109.506 92.4145 109.524 92.3339C109.545 92.2514 109.593 92.1862 109.668 92.1382L110.32 91.723C110.517 91.5975 110.733 91.5982 110.969 91.7251C111.205 91.8472 111.482 91.8077 111.797 91.6065L112.679 91.0446C113.099 90.777 113.2 90.4709 112.98 90.1262C112.76 89.7814 112.441 89.7443 112.023 90.0148L110.946 90.7013C110.867 90.7511 110.787 90.768 110.703 90.752C110.621 90.7312 110.554 90.6817 110.505 90.6035L110.217 90.1516C110.167 90.0734 110.151 89.994 110.169 89.9134C110.188 89.828 110.236 89.7605 110.315 89.7106L111.31 89.0767C111.501 88.9549 111.617 88.8216 111.659 88.6767C111.703 88.5271 111.679 88.3813 111.589 88.2393C111.498 88.0974 111.376 88.0143 111.222 87.9902C111.071 87.9642 110.9 88.0121 110.709 88.1339L109.909 88.6432C109.808 88.7078 109.72 88.8003 109.646 88.9207C109.571 89.0382 109.537 89.1614 109.546 89.2902C109.558 89.5592 109.465 89.7549 109.266 89.8775L108.619 90.29C108.541 90.3398 108.46 90.3567 108.376 90.3407C108.296 90.3228 108.231 90.2747 108.181 90.1965C107.932 89.8055 107.92 89.3689 108.146 88.8867C108.376 88.4027 108.76 87.9891 109.298 87.6458L110.172 87.0894C110.783 86.7 111.339 86.5048 111.839 86.5038C112.34 86.498 112.737 86.724 113.028 87.1816C113.32 87.6393 113.323 88.1015 113.038 88.5681C113.704 88.5019 114.213 88.744 114.564 89.2944C114.87 89.7752 114.922 90.2346 114.721 90.6725C114.52 91.1057 114.084 91.5363 113.412 91.9645L112.443 92.5818C111.861 92.9527 111.3 93.143 110.76 93.1528C110.221 93.1625 109.825 92.969 109.572 92.5721Z" fill="#FEFEFE"/>
<path d="M116.785 89.2537C116.233 89.2308 115.802 88.976 115.492 88.4894C115.182 88.0028 115.135 87.5073 115.351 87.003C115.57 86.4969 115.982 86.0509 116.588 85.6653L118.026 84.749C117.81 84.4101 117.589 84.2192 117.362 84.1764C117.135 84.1336 116.844 84.2257 116.487 84.4527C116.134 84.6778 115.941 84.9248 115.909 85.1938C115.878 85.458 115.758 85.6566 115.549 85.7895L114.902 86.2019C114.823 86.2517 114.743 86.2686 114.659 86.2526C114.577 86.2318 114.511 86.1838 114.463 86.1085C113.934 85.2771 114.458 84.3586 116.037 83.3528C116.726 82.9136 117.378 82.7161 117.993 82.7604C118.606 82.8017 119.118 83.1453 119.529 83.7913L121.243 86.4808C121.293 86.559 121.309 86.6385 121.291 86.7191C121.273 86.7997 121.225 86.8649 121.147 86.9147L120.308 87.449C120.23 87.4988 120.15 87.5148 120.07 87.4969C119.987 87.4761 119.922 87.4281 119.874 87.3528L119.788 87.2181C119.539 87.837 119.114 88.336 118.512 88.7151C117.916 89.0952 117.34 89.2748 116.785 89.2537ZM117.32 86.5851C117.118 86.7143 116.988 86.866 116.932 87.0401C116.879 87.2124 116.902 87.3768 117.002 87.5332C117.102 87.6896 117.245 87.7798 117.431 87.8037C117.617 87.8275 117.822 87.7684 118.045 87.6263C118.491 87.3421 118.838 86.9378 119.086 86.4132L118.654 85.7353L117.32 86.5851Z" fill="#FEFEFE"/>
<path d="M126.504 83.1293L123.81 78.9016C123.76 78.8234 123.744 78.744 123.762 78.6634C123.781 78.578 123.828 78.5114 123.904 78.4634L127.154 76.3929C127.229 76.3449 127.308 76.3313 127.39 76.3521C127.474 76.3681 127.541 76.4152 127.59 76.4934L127.92 77.0105C127.968 77.0858 127.982 77.1661 127.963 77.2515C127.946 77.3321 127.899 77.3964 127.824 77.4444L125.812 78.726L128.007 82.1716C128.055 82.2469 128.07 82.3272 128.051 82.4126C128.033 82.4932 127.986 82.5575 127.911 82.6055L126.938 83.2255C126.862 83.2735 126.783 83.2895 126.699 83.2735C126.617 83.2527 126.552 83.2047 126.504 83.1293Z" fill="#FEFEFE"/>
<path d="M132.376 81.4466L128.75 75.7547C128.7 75.6765 128.684 75.597 128.702 75.5164C128.721 75.4311 128.768 75.3644 128.843 75.3164L129.682 74.7822C129.757 74.7342 129.836 74.7206 129.919 74.7414C130.002 74.7574 130.069 74.8045 130.119 74.8827L130.202 75.0131C130.453 74.3971 130.881 73.8962 131.486 73.5105C132.092 73.1249 132.734 73.0172 133.412 73.1875C134.089 73.355 134.681 73.837 135.189 74.6336C135.695 75.4273 135.872 76.1694 135.721 76.8599C135.571 77.5504 135.139 78.1226 134.427 78.5766C134.059 78.8109 133.593 79.0037 133.03 79.155L133.88 80.4889C133.929 80.5671 133.944 80.6474 133.923 80.7299C133.907 80.8134 133.862 80.8791 133.786 80.9271L132.813 81.5472C132.738 81.5952 132.657 81.6097 132.572 81.5908C132.491 81.5729 132.426 81.5249 132.376 81.4466ZM132.39 78.1513C132.84 78.032 133.192 77.8911 133.447 77.7287C133.844 77.4759 134.053 77.1839 134.074 76.8528C134.098 76.5198 133.952 76.1057 133.637 75.6104C133.321 75.115 133.012 74.8066 132.711 74.685C132.411 74.5587 132.103 74.5962 131.787 74.7973C131.474 74.9966 131.194 75.3586 130.945 75.8832L132.39 78.1513Z" fill="#FEFEFE"/>
<path d="M139.164 76.0714L139.781 75.7826C140.189 75.5224 140.283 75.0409 140.064 74.3379C139.571 74.6516 139.066 74.7659 138.547 74.6809C138.027 74.5929 137.406 74.2451 136.685 73.6375L134.701 71.9513C134.678 71.9336 134.657 71.9103 134.638 71.8814C134.618 71.8495 134.611 71.8008 134.618 71.7352C134.628 71.6677 134.669 71.6095 134.739 71.5605L135.647 70.9819C135.731 70.9284 135.829 70.9066 135.942 70.9166C136.055 70.9218 136.15 70.959 136.227 71.0283L137.969 72.5079C138.399 72.8694 138.742 73.0909 138.997 73.1724C139.256 73.2521 139.485 73.2283 139.685 73.101L138.612 69.5086C138.582 69.4098 138.582 69.3117 138.614 69.2142C138.646 69.112 138.705 69.0341 138.789 68.9806L139.705 68.3965C139.778 68.3504 139.846 68.3394 139.911 68.3636C139.975 68.3878 140.017 68.4159 140.037 68.4477C140.056 68.4767 140.069 68.5032 140.076 68.5271L141.523 73.3106C141.778 74.1582 141.852 74.8314 141.747 75.3304C141.644 75.8275 141.356 76.2265 140.884 76.5273C140.412 76.8281 140.067 77.0239 139.847 77.1146C139.631 77.2035 139.482 77.2375 139.399 77.2168C139.319 77.1989 139.257 77.1566 139.215 77.09L138.91 76.6121C138.86 76.5338 138.844 76.453 138.86 76.3695C138.877 76.2889 138.926 76.2236 139.004 76.1738L139.164 76.0714Z" fill="#FEFEFE"/>
<path d="M142.973 71.2931C142.924 71.2149 142.908 71.1355 142.925 71.0549C142.946 70.9724 142.994 70.9072 143.07 70.8592L143.721 70.444C143.918 70.3185 144.135 70.3192 144.37 70.446C144.607 70.5681 144.883 70.5286 145.199 70.3275L146.081 69.7656C146.501 69.498 146.601 69.1918 146.381 68.8471C146.162 68.5024 145.843 68.4653 145.425 68.7358L144.347 69.4223C144.269 69.4721 144.188 69.489 144.104 69.473C144.022 69.4522 143.956 69.4027 143.906 69.3245L143.618 68.8726C143.568 68.7944 143.552 68.715 143.57 68.6344C143.589 68.549 143.638 68.4814 143.716 68.4316L144.711 67.7977C144.902 67.6759 145.019 67.5426 145.061 67.3977C145.104 67.248 145.08 67.1022 144.99 66.9603C144.899 66.8184 144.777 66.7353 144.623 66.7112C144.473 66.6852 144.301 66.7331 144.11 66.8548L143.311 67.3642C143.209 67.4288 143.122 67.5213 143.048 67.6417C142.972 67.7592 142.938 67.8824 142.947 68.0112C142.96 68.2801 142.867 68.4759 142.668 68.5985L142.02 69.0109C141.942 69.0608 141.861 69.0777 141.778 69.0616C141.697 69.0438 141.632 68.9957 141.582 68.9175C141.333 68.5265 141.322 68.0898 141.548 67.6077C141.777 67.1237 142.161 66.71 142.7 66.3668L143.573 65.8104C144.184 65.421 144.74 65.2258 145.24 65.2248C145.742 65.219 146.138 65.4449 146.43 65.9026C146.721 66.3603 146.724 66.8224 146.439 67.2891C147.106 67.2229 147.614 67.465 147.965 68.0154C148.271 68.4962 148.324 68.9556 148.122 69.3935C147.922 69.8267 147.485 70.2573 146.813 70.6854L145.844 71.3027C145.262 71.6736 144.701 71.864 144.162 71.8737C143.622 71.8835 143.226 71.6899 142.973 71.2931Z" fill="#FEFEFE"/>
<path d="M150.147 67.6823C149.429 67.5531 148.812 67.0829 148.295 66.2718C147.777 65.4579 147.611 64.6998 147.799 63.9977C147.985 63.2927 148.501 62.6708 149.347 62.1319C150.196 61.5912 150.979 61.3855 151.697 61.5148C152.412 61.6411 153.03 62.1113 153.548 62.9252C154.065 63.7363 154.23 64.4943 154.044 65.1993C153.858 65.9043 153.34 66.5272 152.492 67.0679C151.646 67.6067 150.864 67.8115 150.147 67.6823ZM149.352 64.01C149.322 64.359 149.472 64.7914 149.8 65.307C150.128 65.8226 150.458 66.1419 150.789 66.2651C151.12 66.3882 151.478 66.327 151.863 66.0816C152.252 65.8343 152.46 65.5347 152.488 65.1827C152.519 64.8289 152.371 64.3942 152.042 63.8786C151.714 63.363 151.383 63.046 151.051 62.9277C150.722 62.8075 150.364 62.871 149.976 63.1183C149.59 63.3637 149.383 63.6609 149.352 64.01Z" fill="#FEFEFE"/>
<path d="M156.234 64.189L153.541 59.9613C153.491 59.8831 153.475 59.8037 153.493 59.7231C153.512 59.6377 153.559 59.571 153.634 59.5231L155.129 58.5708C155.3 58.462 155.498 58.4861 155.725 58.6433L158.435 60.5575L157.845 57.2924C157.798 57.0209 157.86 56.8306 158.031 56.7218L159.526 55.7695C159.604 55.7197 159.684 55.7052 159.767 55.726C159.85 55.742 159.917 55.7891 159.967 55.8673L162.66 60.095C162.71 60.1732 162.725 60.2536 162.704 60.336C162.686 60.4166 162.638 60.4819 162.56 60.5317L161.617 61.1324C161.539 61.1822 161.459 61.1982 161.379 61.1803C161.296 61.1595 161.231 61.1115 161.183 61.0362L159.453 58.3205L160.046 61.7057C160.085 61.9657 160.012 62.1547 159.827 62.2728L159.401 62.5441C159.218 62.6603 159.018 62.6457 158.799 62.5001L155.981 60.5322L157.711 63.2479C157.761 63.3261 157.776 63.4064 157.755 63.4889C157.737 63.5695 157.689 63.6347 157.611 63.6845L156.668 64.2852C156.59 64.335 156.51 64.351 156.43 64.3331C156.349 64.3153 156.284 64.2672 156.234 64.189Z" fill="#FEFEFE"/>
<path fill-rule="evenodd" clip-rule="evenodd" d="M54.0501 131.152C57.1967 131.152 60.0546 127.92 60.0546 125.064C60.0546 122.209 57.5037 119.894 54.3571 119.894C51.2104 119.894 48.6595 122.209 48.6595 125.064C48.6595 127.92 50.9034 131.152 54.0501 131.152ZM52.3456 121.828C53.3931 121.161 54.328 120.956 55.1504 121.214C55.9728 121.472 56.7354 122.153 57.4381 123.256C58.1379 124.354 58.4309 125.331 58.3171 126.185C58.2003 127.035 57.6183 127.793 56.5708 128.461C55.528 129.125 54.5946 129.332 53.7705 129.082C52.948 128.824 52.1869 128.145 51.4872 127.047C50.7844 125.944 50.49 124.965 50.6038 124.111C50.7222 123.254 51.3028 122.493 52.3456 121.828Z" fill="#FEFEFE"/>
<path d="M61.1495 126.443C60.7325 127.875 59.6064 129.175 57.7711 130.345C55.9404 131.511 54.2857 131.982 52.8071 131.758C51.3255 131.529 50.0104 130.513 48.8618 128.71C47.7133 126.907 47.3498 125.288 47.7714 123.853C48.193 122.418 49.3191 121.118 51.1498 119.951C52.9851 118.782 54.6398 118.311 56.1138 118.538C57.5924 118.763 58.906 119.776 60.0546 121.579C61.2032 123.382 61.5681 125.003 61.1495 126.443ZM55.1504 121.214C54.328 120.956 53.3931 121.161 52.3456 121.828C51.3028 122.493 50.7222 123.254 50.6038 124.111C50.49 124.965 50.7844 125.944 51.4872 127.047C52.1869 128.145 52.948 128.824 53.7705 129.082C54.5946 129.332 55.528 129.125 56.5708 128.461C57.6183 127.793 58.2003 127.035 58.3171 126.185C58.4309 125.331 58.1379 124.354 57.4381 123.256C56.7354 122.153 55.9728 121.472 55.1504 121.214Z" stroke="#161616" stroke-width="1.08948" mask="url(#path-21-outside-1_544_7428)"/>
<path d="M63.2464 123.612C63.2163 123.59 63.1884 123.559 63.1625 123.519C63.1349 123.475 63.1276 123.413 63.1407 123.331L63.3767 120.365L60.694 119.27C60.5238 119.207 60.4497 119.104 60.4718 118.959C60.4807 118.897 60.5171 118.845 60.5808 118.805L61.5236 118.204C61.8046 118.025 62.1118 118.008 62.4451 118.154L63.8639 118.79L63.8876 117.235C63.8961 116.872 64.0409 116.6 64.3218 116.421L65.2647 115.821C65.3284 115.78 65.3906 115.769 65.4512 115.787C65.5914 115.828 65.6538 115.939 65.6387 116.12L65.4971 119.014L68.2852 120.054C68.3648 120.076 68.4193 120.111 68.4489 120.157C68.4765 120.201 68.492 120.238 68.4951 120.268C68.5292 120.373 68.4955 120.457 68.3941 120.522L67.4686 121.111C67.2021 121.281 66.895 121.298 66.5472 121.161L64.9933 120.563L64.8744 122.227C64.8543 122.598 64.711 122.868 64.4445 123.038L63.519 123.628C63.4176 123.692 63.3267 123.687 63.2464 123.612Z" stroke="#161616" stroke-width="1.08948" mask="url(#path-21-outside-1_544_7428)"/>
<path d="M69.7797 118.882C69.0621 118.752 68.4449 118.282 67.9282 117.471C67.4096 116.657 67.2443 115.899 67.4323 115.197C67.6185 114.492 68.1345 113.87 68.9803 113.331C69.829 112.791 70.6122 112.585 71.3298 112.714C72.0456 112.84 72.6628 113.311 73.1813 114.125C73.698 114.936 73.8633 115.694 73.6772 116.399C73.491 117.104 72.9736 117.727 72.1248 118.267C71.279 118.806 70.4973 119.011 69.7797 118.882ZM68.9856 115.209C68.9555 115.558 69.1047 115.991 69.4331 116.506C69.7616 117.022 70.0913 117.341 70.4222 117.464C70.7531 117.588 71.1112 117.526 71.4965 117.281C71.8846 117.034 72.0929 116.734 72.1211 116.382C72.1523 116.028 72.0036 115.594 71.6752 115.078C71.3467 114.562 71.0165 114.245 70.6845 114.127C70.3554 114.007 69.9968 114.07 69.6087 114.318C69.2234 114.563 69.0157 114.86 68.9856 115.209Z" stroke="#161616" stroke-width="1.08948" mask="url(#path-21-outside-1_544_7428)"/>
<path d="M72.9687 112.018L72.6393 111.501C72.5895 111.423 72.5735 111.344 72.5914 111.263C72.6103 111.178 72.6589 111.11 72.7371 111.06L77.0169 108.334C77.0952 108.284 77.1755 108.269 77.258 108.29C77.3386 108.308 77.4038 108.356 77.4536 108.434L77.783 108.951C77.831 109.026 77.847 109.106 77.8309 109.189C77.8131 109.27 77.765 109.335 77.6868 109.385L76.3008 110.268L78.4959 113.714C78.5438 113.789 78.5584 113.869 78.5394 113.955C78.5216 114.035 78.4735 114.101 78.3953 114.15L77.4264 114.768C77.3482 114.817 77.2673 114.834 77.1838 114.818C77.1013 114.798 77.0361 114.75 76.9881 114.674L74.793 111.229L73.407 112.112C73.3288 112.161 73.2479 112.178 73.1644 112.162C73.0819 112.142 73.0167 112.093 72.9687 112.018Z" stroke="#161616" stroke-width="1.08948" mask="url(#path-21-outside-1_544_7428)"/>
<path d="M81.3109 111.92L78.6176 107.693C78.5677 107.614 78.5518 107.535 78.5696 107.454C78.5886 107.369 78.6357 107.302 78.711 107.254L79.6843 106.634C79.7625 106.584 79.8428 106.57 79.9253 106.591C80.0059 106.609 80.0711 106.657 80.1209 106.735L81.1119 108.29L83.015 107.078L82.0241 105.522C81.9742 105.444 81.9582 105.365 81.9761 105.284C81.995 105.199 82.0436 105.131 82.1218 105.081L83.0908 104.464C83.169 104.414 83.2493 104.4 83.3318 104.421C83.4124 104.438 83.4776 104.486 83.5274 104.565L86.2208 108.792C86.2706 108.871 86.2866 108.95 86.2687 109.031C86.2508 109.111 86.2028 109.176 86.1246 109.226L85.1556 109.844C85.0774 109.893 84.9966 109.91 84.9131 109.894C84.8306 109.873 84.7654 109.825 84.7174 109.75L83.6849 108.129L81.7818 109.342L82.8143 110.963C82.8641 111.041 82.8786 111.121 82.8579 111.204C82.84 111.284 82.7934 111.348 82.7181 111.396L81.7448 112.016C81.6666 112.066 81.5872 112.082 81.5066 112.064C81.4259 112.047 81.3607 111.998 81.3109 111.92Z" stroke="#161616" stroke-width="1.08948" mask="url(#path-21-outside-1_544_7428)"/>
<path d="M87.8236 107.771L85.1302 103.544C85.0804 103.465 85.0644 103.386 85.0823 103.305C85.1012 103.22 85.1483 103.153 85.2236 103.105L86.1318 102.527C86.21 102.477 86.2903 102.462 86.3728 102.483C86.4563 102.499 86.5229 102.546 86.5728 102.625L88.3914 105.479L88.1299 101.694C88.119 101.574 88.1429 101.455 88.2016 101.336C88.2585 101.215 88.3318 101.125 88.4216 101.068L89.6382 100.293C89.7164 100.243 89.7967 100.229 89.8792 100.249C89.9627 100.265 90.0294 100.312 90.0792 100.391L92.7725 104.618C92.8224 104.697 92.8369 104.777 92.8161 104.859C92.7983 104.94 92.7502 105.005 92.672 105.055L91.7639 105.634C91.6857 105.683 91.6063 105.699 91.5257 105.682C91.4432 105.661 91.378 105.613 91.33 105.537L89.5141 102.687L89.7701 106.464C89.7773 106.578 89.7534 106.697 89.6984 106.821C89.6415 106.943 89.5682 107.032 89.4784 107.09L88.2575 107.867C88.1793 107.917 88.0998 107.933 88.0192 107.915C87.9386 107.898 87.8734 107.849 87.8236 107.771Z" stroke="#161616" stroke-width="1.08948" mask="url(#path-21-outside-1_544_7428)"/>
<path d="M99.2193 100.615C99.3005 100.743 99.2658 100.854 99.1152 100.95L98.2939 101.474C98.0159 101.651 97.7075 101.656 97.369 101.489L96.2441 100.941C95.7612 100.707 95.2938 100.734 94.8419 101.022L95.8744 102.642C95.9242 102.721 95.9387 102.801 95.918 102.883C95.9001 102.964 95.8535 103.028 95.7782 103.076L94.8049 103.696C94.7267 103.746 94.6473 103.762 94.5667 103.744C94.486 103.726 94.4208 103.678 94.371 103.6L91.6776 99.3724C91.6278 99.2942 91.6118 99.2148 91.6297 99.1342C91.6486 99.0488 91.6958 98.9821 91.7711 98.9341L92.7444 98.3141C92.8226 98.2643 92.9029 98.2497 92.9854 98.2705C93.066 98.2884 93.1312 98.3364 93.181 98.4146L94.2107 100.031C94.7148 99.7099 94.9349 99.2948 94.8712 98.7856L94.7236 97.6335C94.7022 97.472 94.724 97.3176 94.789 97.1704C94.854 97.0231 94.9516 96.9079 95.082 96.8249L95.9032 96.3017C96.048 96.2094 96.1564 96.2198 96.2284 96.3327C96.269 96.3965 96.2975 96.4923 96.3139 96.6204L96.5063 98.1593C96.5362 98.4172 96.5138 98.6697 96.4391 98.9168C96.3644 99.1639 96.2444 99.3686 96.0791 99.531C96.5036 99.4112 96.9782 99.4754 97.5028 99.7235L99.0027 100.448C99.1054 100.5 99.1776 100.556 99.2193 100.615Z" stroke="#161616" stroke-width="1.08948" mask="url(#path-21-outside-1_544_7428)"/>
<path d="M100.336 99.7998L97.6428 95.5721C97.593 95.4939 97.577 95.4145 97.5949 95.3339C97.6138 95.2485 97.6609 95.1819 97.7363 95.1339L98.6444 94.5554C98.7226 94.5055 98.8029 94.491 98.8854 94.5118C98.9689 94.5278 99.0356 94.5749 99.0854 94.6531L100.904 97.5078L100.643 93.7222C100.632 93.6029 100.656 93.4838 100.714 93.365C100.771 93.2433 100.844 93.1538 100.934 93.0966L102.151 92.3215C102.229 92.2717 102.309 92.2572 102.392 92.2779C102.475 92.294 102.542 92.3411 102.592 92.4193L105.285 96.647C105.335 96.7252 105.35 96.8055 105.329 96.888C105.311 96.9686 105.263 97.0338 105.185 97.0837L104.277 97.6622C104.198 97.712 104.119 97.728 104.038 97.7101C103.956 97.6894 103.891 97.6413 103.843 97.566L102.027 94.7157L102.283 98.4926C102.29 98.6061 102.266 98.7252 102.211 98.8498C102.154 98.9715 102.081 99.061 101.991 99.1182L100.77 99.896C100.692 99.9459 100.612 99.9618 100.532 99.944C100.451 99.9261 100.386 99.8781 100.336 99.7998Z" stroke="#161616" stroke-width="1.08948" mask="url(#path-21-outside-1_544_7428)"/>
<path d="M109.572 92.5721C109.522 92.4939 109.506 92.4145 109.524 92.3339C109.545 92.2514 109.593 92.1862 109.668 92.1382L110.32 91.723C110.517 91.5975 110.733 91.5982 110.969 91.7251C111.205 91.8472 111.482 91.8077 111.797 91.6065L112.679 91.0446C113.099 90.777 113.2 90.4709 112.98 90.1262C112.76 89.7814 112.441 89.7443 112.023 90.0148L110.946 90.7013C110.867 90.7511 110.787 90.768 110.703 90.752C110.621 90.7312 110.554 90.6817 110.505 90.6035L110.217 90.1516C110.167 90.0734 110.151 89.994 110.169 89.9134C110.188 89.828 110.236 89.7605 110.315 89.7106L111.31 89.0767C111.501 88.9549 111.617 88.8216 111.659 88.6767C111.703 88.5271 111.679 88.3813 111.589 88.2393C111.498 88.0974 111.376 88.0143 111.222 87.9902C111.071 87.9642 110.9 88.0121 110.709 88.1339L109.909 88.6432C109.808 88.7078 109.72 88.8003 109.646 88.9207C109.571 89.0382 109.537 89.1614 109.546 89.2902C109.558 89.5592 109.465 89.7549 109.266 89.8775L108.619 90.29C108.541 90.3398 108.46 90.3567 108.376 90.3407C108.296 90.3228 108.231 90.2747 108.181 90.1965C107.932 89.8055 107.92 89.3689 108.146 88.8867C108.376 88.4027 108.76 87.9891 109.298 87.6458L110.172 87.0894C110.783 86.7 111.339 86.5048 111.839 86.5038C112.34 86.498 112.737 86.724 113.028 87.1816C113.32 87.6393 113.323 88.1015 113.038 88.5681C113.704 88.5019 114.213 88.744 114.564 89.2944C114.87 89.7752 114.922 90.2346 114.721 90.6725C114.52 91.1057 114.084 91.5363 113.412 91.9645L112.443 92.5818C111.861 92.9527 111.3 93.143 110.76 93.1528C110.221 93.1625 109.825 92.969 109.572 92.5721Z" stroke="#161616" stroke-width="1.08948" mask="url(#path-21-outside-1_544_7428)"/>
<path d="M116.785 89.2537C116.233 89.2308 115.802 88.976 115.492 88.4894C115.182 88.0028 115.135 87.5073 115.351 87.003C115.57 86.4969 115.982 86.0509 116.588 85.6653L118.026 84.749C117.81 84.4101 117.589 84.2192 117.362 84.1764C117.135 84.1336 116.844 84.2257 116.487 84.4527C116.134 84.6778 115.941 84.9248 115.909 85.1938C115.878 85.458 115.758 85.6566 115.549 85.7895L114.902 86.2019C114.823 86.2517 114.743 86.2686 114.659 86.2526C114.577 86.2318 114.511 86.1838 114.463 86.1085C113.934 85.2771 114.458 84.3586 116.037 83.3528C116.726 82.9136 117.378 82.7161 117.993 82.7604C118.606 82.8017 119.118 83.1453 119.529 83.7913L121.243 86.4808C121.293 86.559 121.309 86.6385 121.291 86.7191C121.273 86.7997 121.225 86.8649 121.147 86.9147L120.308 87.449C120.23 87.4988 120.15 87.5148 120.07 87.4969C119.987 87.4761 119.922 87.4281 119.874 87.3528L119.788 87.2181C119.539 87.837 119.114 88.336 118.512 88.7151C117.916 89.0952 117.34 89.2748 116.785 89.2537ZM117.32 86.5851C117.118 86.7143 116.988 86.866 116.932 87.0401C116.879 87.2124 116.902 87.3768 117.002 87.5332C117.102 87.6896 117.245 87.7798 117.431 87.8037C117.617 87.8275 117.822 87.7684 118.045 87.6263C118.491 87.3421 118.838 86.9378 119.086 86.4132L118.654 85.7353L117.32 86.5851Z" stroke="#161616" stroke-width="1.08948" mask="url(#path-21-outside-1_544_7428)"/>
<path d="M126.504 83.1293L123.81 78.9016C123.76 78.8234 123.744 78.744 123.762 78.6634C123.781 78.578 123.828 78.5114 123.904 78.4634L127.154 76.3929C127.229 76.3449 127.308 76.3313 127.39 76.3521C127.474 76.3681 127.541 76.4152 127.59 76.4934L127.92 77.0105C127.968 77.0858 127.982 77.1661 127.963 77.2515C127.946 77.3321 127.899 77.3964 127.824 77.4444L125.812 78.726L128.007 82.1716C128.055 82.2469 128.07 82.3272 128.051 82.4126C128.033 82.4932 127.986 82.5575 127.911 82.6055L126.938 83.2255C126.862 83.2735 126.783 83.2895 126.699 83.2735C126.617 83.2527 126.552 83.2047 126.504 83.1293Z" stroke="#161616" stroke-width="1.08948" mask="url(#path-21-outside-1_544_7428)"/>
<path d="M132.376 81.4466L128.75 75.7547C128.7 75.6765 128.684 75.597 128.702 75.5164C128.721 75.4311 128.768 75.3644 128.843 75.3164L129.682 74.7822C129.757 74.7342 129.836 74.7206 129.919 74.7414C130.002 74.7574 130.069 74.8045 130.119 74.8827L130.202 75.0131C130.453 74.3971 130.881 73.8962 131.486 73.5105C132.092 73.1249 132.734 73.0172 133.412 73.1875C134.089 73.355 134.681 73.837 135.189 74.6336C135.695 75.4273 135.872 76.1694 135.721 76.8599C135.571 77.5504 135.139 78.1226 134.427 78.5766C134.059 78.8109 133.593 79.0037 133.03 79.155L133.88 80.4889C133.929 80.5671 133.944 80.6474 133.923 80.7299C133.907 80.8134 133.862 80.8791 133.786 80.9271L132.813 81.5472C132.738 81.5952 132.657 81.6097 132.572 81.5908C132.491 81.5729 132.426 81.5249 132.376 81.4466ZM132.39 78.1513C132.84 78.032 133.192 77.8911 133.447 77.7287C133.844 77.4759 134.053 77.1839 134.074 76.8528C134.098 76.5198 133.952 76.1057 133.637 75.6104C133.321 75.115 133.012 74.8066 132.711 74.685C132.411 74.5587 132.103 74.5962 131.787 74.7973C131.474 74.9966 131.194 75.3586 130.945 75.8832L132.39 78.1513Z" stroke="#161616" stroke-width="1.08948" mask="url(#path-21-outside-1_544_7428)"/>
<path d="M139.164 76.0714L139.781 75.7826C140.189 75.5224 140.283 75.0409 140.064 74.3379C139.571 74.6516 139.066 74.7659 138.547 74.6809C138.027 74.5929 137.406 74.2451 136.685 73.6375L134.701 71.9513C134.678 71.9336 134.657 71.9103 134.638 71.8814C134.618 71.8495 134.611 71.8008 134.618 71.7352C134.628 71.6677 134.669 71.6095 134.739 71.5605L135.647 70.9819C135.731 70.9284 135.829 70.9066 135.942 70.9166C136.055 70.9218 136.15 70.959 136.227 71.0283L137.969 72.5079C138.399 72.8694 138.742 73.0909 138.997 73.1724C139.256 73.2521 139.485 73.2283 139.685 73.101L138.612 69.5086C138.582 69.4098 138.582 69.3117 138.614 69.2142C138.646 69.112 138.705 69.0341 138.789 68.9806L139.705 68.3965C139.778 68.3504 139.846 68.3394 139.911 68.3636C139.975 68.3878 140.017 68.4159 140.037 68.4477C140.056 68.4767 140.069 68.5032 140.076 68.5271L141.523 73.3106C141.778 74.1582 141.852 74.8314 141.747 75.3304C141.644 75.8275 141.356 76.2265 140.884 76.5273C140.412 76.8281 140.067 77.0239 139.847 77.1146C139.631 77.2035 139.482 77.2375 139.399 77.2168C139.319 77.1989 139.257 77.1566 139.215 77.09L138.91 76.6121C138.86 76.5338 138.844 76.453 138.86 76.3695C138.877 76.2889 138.926 76.2236 139.004 76.1738L139.164 76.0714Z" stroke="#161616" stroke-width="1.08948" mask="url(#path-21-outside-1_544_7428)"/>
<path d="M142.973 71.2931C142.924 71.2149 142.908 71.1355 142.925 71.0549C142.946 70.9724 142.994 70.9072 143.07 70.8592L143.721 70.444C143.918 70.3185 144.135 70.3192 144.37 70.446C144.607 70.5681 144.883 70.5286 145.199 70.3275L146.081 69.7656C146.501 69.498 146.601 69.1918 146.381 68.8471C146.162 68.5024 145.843 68.4653 145.425 68.7358L144.347 69.4223C144.269 69.4721 144.188 69.489 144.104 69.473C144.022 69.4522 143.956 69.4027 143.906 69.3245L143.618 68.8726C143.568 68.7944 143.552 68.715 143.57 68.6344C143.589 68.549 143.638 68.4814 143.716 68.4316L144.711 67.7977C144.902 67.6759 145.019 67.5426 145.061 67.3977C145.104 67.248 145.08 67.1022 144.99 66.9603C144.899 66.8184 144.777 66.7353 144.623 66.7112C144.473 66.6852 144.301 66.7331 144.11 66.8548L143.311 67.3642C143.209 67.4288 143.122 67.5213 143.048 67.6417C142.972 67.7592 142.938 67.8824 142.947 68.0112C142.96 68.2801 142.867 68.4759 142.668 68.5985L142.02 69.0109C141.942 69.0608 141.861 69.0777 141.778 69.0616C141.697 69.0438 141.632 68.9957 141.582 68.9175C141.333 68.5265 141.322 68.0898 141.548 67.6077C141.777 67.1237 142.161 66.71 142.7 66.3668L143.573 65.8104C144.184 65.421 144.74 65.2258 145.24 65.2248C145.742 65.219 146.138 65.4449 146.43 65.9026C146.721 66.3603 146.724 66.8224 146.439 67.2891C147.106 67.2229 147.614 67.465 147.965 68.0154C148.271 68.4962 148.324 68.9556 148.122 69.3935C147.922 69.8267 147.485 70.2573 146.813 70.6854L145.844 71.3027C145.262 71.6736 144.701 71.864 144.162 71.8737C143.622 71.8835 143.226 71.6899 142.973 71.2931Z" stroke="#161616" stroke-width="1.08948" mask="url(#path-21-outside-1_544_7428)"/>
<path d="M150.147 67.6823C149.429 67.5531 148.812 67.0829 148.295 66.2718C147.777 65.4579 147.611 64.6998 147.799 63.9977C147.985 63.2927 148.501 62.6708 149.347 62.1319C150.196 61.5912 150.979 61.3855 151.697 61.5148C152.412 61.6411 153.03 62.1113 153.548 62.9252C154.065 63.7363 154.23 64.4943 154.044 65.1993C153.858 65.9043 153.34 66.5272 152.492 67.0679C151.646 67.6067 150.864 67.8115 150.147 67.6823ZM149.352 64.01C149.322 64.359 149.472 64.7914 149.8 65.307C150.128 65.8226 150.458 66.1419 150.789 66.2651C151.12 66.3882 151.478 66.327 151.863 66.0816C152.252 65.8343 152.46 65.5347 152.488 65.1827C152.519 64.8289 152.371 64.3942 152.042 63.8786C151.714 63.363 151.383 63.046 151.051 62.9277C150.722 62.8075 150.364 62.871 149.976 63.1183C149.59 63.3637 149.383 63.6609 149.352 64.01Z" stroke="#161616" stroke-width="1.08948" mask="url(#path-21-outside-1_544_7428)"/>
<path d="M156.234 64.189L153.541 59.9613C153.491 59.8831 153.475 59.8037 153.493 59.7231C153.512 59.6377 153.559 59.571 153.634 59.5231L155.129 58.5708C155.3 58.462 155.498 58.4861 155.725 58.6433L158.435 60.5575L157.845 57.2924C157.798 57.0209 157.86 56.8306 158.031 56.7218L159.526 55.7695C159.604 55.7197 159.684 55.7052 159.767 55.726C159.85 55.742 159.917 55.7891 159.967 55.8673L162.66 60.095C162.71 60.1732 162.725 60.2536 162.704 60.336C162.686 60.4166 162.638 60.4819 162.56 60.5317L161.617 61.1324C161.539 61.1822 161.459 61.1982 161.379 61.1803C161.296 61.1595 161.231 61.1115 161.183 61.0362L159.453 58.3205L160.046 61.7057C160.085 61.9657 160.012 62.1547 159.827 62.2728L159.401 62.5441C159.218 62.6603 159.018 62.6457 158.799 62.5001L155.981 60.5322L157.711 63.2479C157.761 63.3261 157.776 63.4064 157.755 63.4889C157.737 63.5695 157.689 63.6347 157.611 63.6845L156.668 64.2852C156.59 64.335 156.51 64.351 156.43 64.3331C156.349 64.3153 156.284 64.2672 156.234 64.189Z" stroke="#161616" stroke-width="1.08948" mask="url(#path-21-outside-1_544_7428)"/>
<path fill-rule="evenodd" clip-rule="evenodd" d="M54.0501 131.152C57.1967 131.152 60.0546 127.92 60.0546 125.064C60.0546 122.209 57.5037 119.894 54.3571 119.894C51.2104 119.894 48.6595 122.209 48.6595 125.064C48.6595 127.92 50.9034 131.152 54.0501 131.152ZM52.3456 121.828C53.3931 121.161 54.328 120.956 55.1504 121.214C55.9728 121.472 56.7354 122.153 57.4381 123.256C58.1379 124.354 58.4309 125.331 58.3171 126.185C58.2003 127.035 57.6183 127.793 56.5708 128.461C55.528 129.125 54.5946 129.332 53.7705 129.082C52.948 128.824 52.1869 128.145 51.4872 127.047C50.7844 125.944 50.49 124.965 50.6038 124.111C50.7222 123.254 51.3028 122.493 52.3456 121.828Z" stroke="#161616" stroke-width="1.08948" mask="url(#path-21-outside-1_544_7428)"/>
</g>
</g>
<defs>
<linearGradient id="paint0_linear_544_7428" x1="26.6797" y1="94.9964" x2="190.009" y2="94.9964" gradientUnits="userSpaceOnUse">
<stop stop-color="#FB3A42"/>
<stop offset="0.51616" stop-color="#B5040B"/>
<stop offset="0.994791" stop-color="#830005"/>
</linearGradient>
<linearGradient id="paint1_linear_544_7428" x1="24.7813" y1="55.0185" x2="71.6276" y2="55.0185" gradientUnits="userSpaceOnUse">
<stop stop-color="#FB3A42"/>
<stop offset="0.51616" stop-color="#B5040B"/>
<stop offset="0.994791" stop-color="#830005"/>
</linearGradient>
<linearGradient id="paint2_linear_544_7428" x1="56.9995" y1="131.998" x2="174" y2="56.998" gradientUnits="userSpaceOnUse">
<stop stop-color="#E0262D"/>
<stop offset="0.51616" stop-color="#B5040B"/>
<stop offset="0.994791" stop-color="#9C0209"/>
</linearGradient>
</defs>
</svg>
