<svg width="80" height="80" viewBox="0 0 80 80" fill="none" xmlns="http://www.w3.org/2000/svg">
<g id="Group">
<g id="Vector" style="mix-blend-mode:multiply" opacity="0.3">
<path d="M0.642171 76.0312C1.66716 74.7058 3.01357 73.6784 4.54726 73.0514C6.08096 72.4244 7.74841 72.2196 9.3835 72.4575C11.1832 72.7421 12.9232 73.5707 14.7398 73.4411C16.0682 73.3464 17.2926 72.7498 18.5358 72.2383L10.032 67.1768L59.5977 38.8711L67.6429 43.6568C67.9567 43.1513 68.3457 42.6991 68.7959 42.3164C70.0494 41.2666 71.9359 40.9087 73.3217 41.7667C74.827 42.6987 74.7034 44.2102 74.4344 45.7157C74.0806 47.6953 75.5717 48.2039 77.0153 49.0548C77.657 49.4332 78.2626 50.042 78.2826 50.7997C78.2695 51.1269 78.1727 51.4449 78.0018 51.7217C77.831 51.9986 77.5921 52.2247 77.309 52.3774C76.7391 52.6754 76.1145 52.8478 75.4755 52.8837C73.9023 53.0584 72.3145 53.0449 70.7444 52.8434C70.0701 52.7703 69.4074 52.6118 68.7712 52.3716L32.5054 73.7939C31.8301 74.1826 31.1109 74.4853 30.3638 74.6954C30.2539 75.8313 29.3728 76.9877 28.1135 77.581C25.4402 78.8407 22.4321 79.1338 19.4893 79.168C16.5464 79.2022 13.5917 78.9963 10.6672 79.333C7.58152 79.6881 4.32776 80.6209 1.47658 79.3616C0.80901 79.0666 0.132168 78.5736 0.00474244 77.8409C-0.0157398 77.5107 0.0302706 77.1796 0.13992 76.8683C0.24957 76.557 0.420514 76.2721 0.642171 76.0312Z" fill="#EEEEEE"/>
</g>
<g id="Group_2">
<path id="Vector_2" d="M71.5231 46.7803L71.126 47.4457C70.7052 48.1088 70.3307 48.8015 70.0052 49.5187C69.9549 49.6634 69.9408 49.8187 69.964 49.9705C69.9872 50.1223 70.047 50.2657 70.138 50.3878C70.2464 50.5449 70.3864 50.6765 70.5486 50.7736C70.7107 50.8707 70.8914 50.9311 71.0783 50.9508C71.2998 50.9589 71.5215 50.9498 71.7416 50.9237C72.5466 50.9476 73.3452 51.0782 74.1174 51.3124C74.8976 51.5456 75.7347 51.4744 76.4667 51.1127C76.6138 51.0314 76.7434 50.9205 76.8477 50.7867C76.952 50.653 77.0289 50.499 77.0737 50.3342C77.1027 50.1714 77.0866 50.0036 77.0274 49.8497C76.9681 49.6958 76.868 49.5619 76.7384 49.4631C76.4701 49.2535 76.1409 49.142 75.8034 49.1464C75.4685 49.152 75.1354 49.1976 74.8109 49.2824C74.6341 49.1735 74.4222 49.0968 74.2453 48.9879C73.9586 48.8577 73.732 48.6192 73.6131 48.3221C73.533 48.0019 73.7099 47.646 73.5874 47.3402C73.5101 47.2086 73.4046 47.0967 73.279 47.0129C73.1533 46.929 73.0107 46.8754 72.8619 46.856C72.4172 46.8074 71.9704 46.7821 71.5231 46.7803Z" fill="black"/>
<path id="Vector_3" d="M68.7 43.408C68.549 44.1801 68.4493 44.9618 68.4014 45.7477C68.2601 47.0161 69.546 46.8168 69.975 46.4377C70.3672 46.0911 70.6396 45.6238 71.011 45.2541C71.41 44.9012 71.8409 44.5879 72.2979 44.3186C72.7567 44.0475 73.1407 43.6616 73.4138 43.1971C73.5212 43.0046 73.5709 42.7839 73.5566 42.5627C73.5118 42.1415 72.961 41.9187 72.5471 41.9102C72.1319 41.9287 71.7265 42.0455 71.3628 42.2514C71.0002 42.4571 70.6116 42.6105 70.2079 42.707C70.0195 42.7396 69.8267 42.7433 69.6402 42.786C69.2833 42.8678 68.7828 43.0432 68.7 43.408Z" fill="black"/>
<path id="Vector_4" d="M68.4403 44.1958C68.4995 44.2773 68.5809 44.3392 68.6742 44.3736C68.7676 44.408 68.8688 44.4135 68.9652 44.3894C69.5997 44.3043 70.1955 44.029 70.6774 43.598C71.0903 43.2026 71.3624 42.6774 71.4505 42.1057C71.4566 40.5476 71.3447 39.0876 71.7382 37.5826C71.8328 37.2266 71.9213 36.8675 71.9975 36.5053C72.2904 35.3507 72.3352 34.1449 72.1288 32.9708C72.037 32.5381 71.8936 32.1186 71.7017 31.7217C70.4418 32.7958 69.249 34.0822 68.0867 35.2625C68.0569 36.131 68.1693 36.9985 68.4192 37.829C68.4989 38.1686 68.559 38.5127 68.5992 38.8594C68.7789 40.6456 67.6533 42.5908 68.4403 44.1958Z" fill="#303030"/>
<path id="Vector_5" d="M69.6406 27.5196C69.6742 28.1004 70.144 28.5404 70.568 28.9278C72.6006 30.7751 74.4324 32.8416 76.0316 35.0914C75.4821 35.6668 74.9696 36.278 74.4972 36.9211C74.2897 37.1941 74.105 37.4844 73.945 37.7891C73.5924 38.6286 73.3622 39.5164 73.2617 40.4244C73.2555 40.4775 73.2433 40.5305 73.2342 40.5836C72.8776 42.2145 72.3867 43.8116 71.7668 45.3577C71.5044 46.0665 70.8211 46.7441 70.934 47.4934C70.9674 47.6648 71.0369 47.8267 71.1375 47.968C71.2381 48.1092 71.3674 48.2264 71.5167 48.3114C71.8165 48.4797 72.1511 48.5728 72.4929 48.5831C73.2065 48.5907 73.9134 48.4416 74.5659 48.1456C75.2493 46.4814 78.103 38.5977 79.2165 37.1615C79.8314 36.2898 80.1007 35.212 79.9699 34.1452C79.834 33.0886 79.5548 32.0566 79.1402 31.0791C78.8046 30.1923 78.4538 29.3118 78.0694 28.4469C77.8457 27.9238 77.5951 27.4131 77.3189 26.9169C76.4892 25.4556 75.3023 24.1537 74.8999 22.5113C74.6127 22.3597 74.298 22.2704 73.9756 22.249C73.4158 22.3834 72.9137 22.7 72.5448 23.1514C72.2459 23.4574 71.9591 23.7728 71.6815 24.1006C71.0845 24.8022 70.5409 25.5496 70.0555 26.3362C69.8009 26.6772 69.6559 27.0907 69.6406 27.5196Z" fill="#161616"/>
<g id="Vector_6" style="mix-blend-mode:multiply" opacity="0.5">
<path d="M73.9451 37.7886C73.5925 38.6281 73.3623 39.516 73.2617 40.4239C74.6314 38.7753 76.0002 37.1256 77.3679 35.4749C77.4316 35.4277 77.4848 35.3672 77.5243 35.2976C77.5637 35.2279 77.5884 35.1505 77.5967 35.0704C77.605 34.9904 77.5968 34.9094 77.5727 34.8328C77.5485 34.7562 77.5089 34.6856 77.4563 34.6257C76.4221 32.874 75.1623 31.2441 74.4087 29.3488C74.4087 28.5901 73.8838 27.6878 73.8261 26.879C73.7651 26.036 74.0732 25.2804 74.0762 24.4717C74.0793 22.8574 72.7614 23.4632 71.6815 24.1001C71.0845 24.8017 70.5409 25.5491 70.0555 26.3357C69.8009 26.6767 69.6559 27.0902 69.6406 27.5191C69.6742 28.0999 70.144 28.5399 70.568 28.9273C72.6006 30.7746 74.4324 32.8411 76.0316 35.0908C75.4821 35.6662 74.9696 36.2774 74.4972 36.9206C74.2897 37.1936 74.105 37.484 73.9451 37.7886Z" fill="#303030"/>
</g>
<g id="Vector_7" style="mix-blend-mode:multiply" opacity="0.5">
<path d="M68.419 37.8292C68.5489 37.8527 68.6809 37.8621 68.8127 37.8573C69.3411 37.8195 69.8561 37.6707 70.3258 37.4202C70.9026 37.1543 71.4612 36.8486 71.9976 36.5053C72.2904 35.3507 72.3352 34.1449 72.1288 32.9708C72.037 32.5381 71.8936 32.1186 71.7017 31.7217C70.4419 32.7958 69.249 34.0822 68.0867 35.2625C68.0569 36.131 68.1692 36.9986 68.419 37.8292Z" fill="#303030"/>
</g>
<path id="Vector_8" d="M59.9766 14.0277C60.79 14.7857 61.7209 15.3998 62.7313 15.845C63.1676 14.9333 63.4968 14.2807 63.7532 13.7155C64.0147 13.1658 64.2212 12.5904 64.3694 11.9982C64.5952 10.9546 64.7451 9.89528 64.8179 8.829C64.882 8.13583 65.4646 7.08358 64.345 7.38647C62.9479 7.76426 61.8191 9.75942 61.4897 10.2903C61.2212 10.7241 61.1632 10.9333 59.9766 14.0277Z" fill="#161616"/>
<path id="Vector_9" d="M71.4153 9.76029L71.3048 6.42293L68.2771 5.01465L67.4805 7.78411C68.3204 8.2223 70.8094 9.08274 71.4153 9.76029Z" fill="#FFB294"/>
<g id="Group_3">
<path id="Vector_10" d="M70.7184 7.40356L72.0929 7.07995C72.2443 7.0448 72.3854 6.97301 72.5042 6.87059C72.623 6.76817 72.716 6.6381 72.7756 6.49127C73.1746 5.30314 73.3316 4.04396 73.2369 2.79135C73.0427 0.903148 71.0224 0.39153 69.8066 0.724684C69.1478 0.866548 68.5529 1.2262 68.1135 1.74822C67.6741 2.27024 67.4146 2.92567 67.375 3.61351C67.3797 4.68923 67.7566 5.72847 68.4388 6.54679L70.7184 7.40356Z" fill="#FFB294"/>
<path id="Vector_11" d="M73.2679 3.40649C73.0073 3.83525 72.6478 4.19194 72.221 4.44522C72.0818 4.53294 71.9822 4.67348 71.9439 4.83613L71.796 5.42126L71.2171 5.93978L71.1169 6.28578C71.0226 6.61195 70.6499 7.22444 70.3188 7.25399C69.3542 7.18152 68.4492 6.74869 67.7761 6.03783C67.7761 6.03783 66.5432 4.12303 67.5997 2.17694C68.6895 0.169648 70.8697 0.402064 71.5862 0.630181C72.3027 0.858298 74.0975 1.9251 73.2679 3.40649Z" fill="black"/>
</g>
<path id="Vector_12" d="M69.6941 1.68476C71.2168 0.784832 73.6735 0.483423 74.9051 1.44098C76.4618 2.65136 74.621 3.48575 73.2512 3.81178C73.2159 3.82526 73.1824 3.84349 73.1518 3.866C71.6816 1.12573 69.1948 1.97986 69.6941 1.68476Z" fill="#3B3B3B"/>
<path id="Vector_13" d="M73.2511 3.81149C73.2511 3.81149 73.803 1.02551 71.6393 0.28895C67.2275 -1.21304 67.1737 3.62953 67.1737 3.62953C67.0861 4.88008 70.091 6.0623 73.2511 3.81149Z" fill="#161616"/>
<path id="Vector_14" d="M71.0483 6.1026C71.2071 6.4512 71.6662 6.30787 71.7751 5.85444C71.8332 5.61273 71.9388 5.22675 71.8112 5.05675C71.5166 4.66437 70.6177 5.15509 71.0483 6.1026Z" fill="#FFB294"/>
<path id="Vector_15" d="M63.7546 13.7155C64.4227 15.8825 64.2702 17.4749 63.9956 19.2265C63.7452 20.57 63.573 21.9275 63.4801 23.2919C64.4867 24.1037 70.3806 26.1489 69.1023 26.2111C68.7972 26.2267 72.2628 26.7856 75.0693 23.2324C75.0114 20.2692 74.8101 17.3841 75.0175 14.4304C75.1059 13.1939 74.3769 12.0605 73.5837 11.1238C72.2272 9.42802 70.4355 8.15314 68.4099 7.4425C67.6308 7.19597 66.8213 7.06455 66.0059 7.05222C65.5006 7.02142 64.9947 7.10346 64.5233 7.29265C64.4628 7.32074 64.4038 7.352 64.3464 7.38631C63.4251 7.91396 62.9614 9.06927 62.9492 10.1527C62.949 10.5844 62.995 11.0147 63.0865 11.436C63.2523 12.1423 63.456 12.8387 63.6968 13.5221C63.718 13.5875 63.7394 13.65 63.7546 13.7155Z" fill="#303030"/>
<g id="Vector_16" style="mix-blend-mode:multiply" opacity="0.5">
<path d="M62.0803 15.845C62.4159 16.0448 62.3798 15.6889 62.7337 15.845C63.1699 14.9333 63.4992 14.2807 63.7556 13.7155C64.4237 15.8825 64.2712 17.4749 63.9966 19.2266C64.1389 19.4647 64.2683 19.7107 64.384 19.9634C64.5695 20.4558 64.7834 20.9365 65.0247 21.4028C65.5744 22.2252 66.3954 22.8171 67.337 23.0702C68.2722 23.3165 69.2329 23.4465 70.1985 23.4573C70.8544 23.4917 72.6788 23.9257 73.2308 23.5666C73.8196 23.1826 72.9959 21.5183 72.8495 20.8907C72.6053 19.8432 72.429 18.7804 72.3217 17.7091C72.2699 17.2031 71.855 14.9332 72.1997 14.5742C71.7958 15.0075 71.3101 15.3524 70.7721 15.588C70.2341 15.8237 69.655 15.9451 69.0698 15.9449C66.4189 15.9237 63.975 14.0013 63.7199 11.8535C63.7561 13.4059 62.7387 14.0482 62.3217 14.9577C62.0275 15.6 61.9241 15.168 62.0803 15.845Z" fill="#4F3685"/>
</g>
<g id="Group_4">
<path id="Vector_17" d="M54.707 10.029L57.9325 8.12452C58.1852 7.97363 58.4724 7.89394 58.765 7.89356C59.0575 7.89317 59.345 7.97211 59.598 8.12233L69.0948 13.7711L69.133 27.5835L57.1405 20.4505L57.1143 10.8831L54.707 10.029Z" fill="#E6472A"/>
<path id="Vector_18" d="M9.17188 36.9385L11.5808 37.7941L11.6058 47.3594L23.5999 54.493L23.5667 44.0381L23.5583 40.6748L17.4246 36.9976L12.2969 35.7207L10.0327 36.4304L9.17188 36.9385Z" fill="#E6472A"/>
<path id="Vector_19" d="M53.875 11.5038L53.9051 22.3621L65.8974 29.4952L65.8591 15.6828L56.3623 10.0341C56.1104 9.88425 55.8243 9.80511 55.5329 9.80469C55.2415 9.80427 54.9552 9.88257 54.7028 10.0317C54.4504 10.1808 54.241 10.3954 54.0957 10.6539C53.9503 10.9124 53.8742 11.2056 53.875 11.5038Z" fill="#C21B22"/>
<g id="Group_5">
<path id="Vector_20" d="M67.2388 31.4157L67.2006 17.6034C67.1987 16.9082 66.7521 16.2135 65.8594 15.6826L65.8976 29.495C66.7904 30.0259 67.237 30.7206 67.2388 31.4157Z" fill="#F15A24"/>
<path id="Vector_21" d="M67.2388 31.4157L67.2006 17.6034C67.1987 16.9082 66.7521 16.2135 65.8594 15.6826L65.8976 29.495C66.7904 30.0259 67.237 30.7206 67.2388 31.4157Z" fill="#C21B22"/>
</g>
<path id="Vector_22" d="M15.082 38.0305L54.5176 14.7268C54.795 14.5629 55.1096 14.4766 55.43 14.4766C55.7503 14.4766 56.065 14.5629 56.3424 14.7268L69.024 22.2207V28.7299L24.3787 55.112L15.082 49.6184V38.0305Z" fill="#E6472A"/>
<g id="Group_6">
<path id="Vector_23" d="M72.2638 31.4003L72.2255 17.5879C72.2289 18.8154 71.4373 20.0452 69.8516 20.9823L69.8898 34.7947C71.4755 33.8576 72.267 32.6278 72.2638 31.4003Z" fill="#F15A24"/>
<path id="Vector_24" d="M72.2638 31.4003L72.2255 17.5879C72.2289 18.8154 71.4373 20.0452 69.8516 20.9823L69.8898 34.7947C71.4755 33.8576 72.267 32.6278 72.2638 31.4003Z" fill="#C21B22"/>
</g>
<g id="Group_7">
<path id="Vector_25" d="M8.36719 38.3954L8.39728 49.2538L21.1877 56.8615L21.1494 43.0492L10.8545 36.9257C10.6026 36.7758 10.3165 36.6967 10.0251 36.6963C9.73367 36.6959 9.44734 36.7742 9.19499 36.9233C8.94263 37.0724 8.7332 37.287 8.58785 37.5455C8.4425 37.804 8.36639 38.0972 8.36719 38.3954Z" fill="#F15A24"/>
<path id="Vector_26" d="M8.36719 38.3954L8.39728 49.2538L21.1877 56.8615L21.1494 43.0492L10.8545 36.9257C10.6026 36.7758 10.3165 36.6967 10.0251 36.6963C9.73367 36.6959 9.44734 36.7742 9.19499 36.9233C8.94263 37.0724 8.7332 37.287 8.58785 37.5455C8.4425 37.804 8.36639 38.0972 8.36719 38.3954Z" fill="#C21B22"/>
</g>
<g id="Group_8">
<path id="Vector_27" d="M32.5078 43.0495L32.5459 56.8624L69.8891 34.7948L69.8511 20.9824L32.5078 43.0495Z" fill="#F15A24"/>
<path id="Vector_28" d="M32.5078 43.0495L32.5459 56.8624L69.8891 34.7948L69.8511 20.9824L32.5078 43.0495Z" fill="#C21B22"/>
</g>
<path id="Vector_29" d="M65.8619 15.6813L56.3594 10.0303L59.5959 8.12402L69.8932 14.2495C70.867 14.7583 71.6326 15.6045 72.0536 16.6373L67.182 17.7262C67.2378 16.9899 66.8089 16.244 65.8619 15.6813Z" fill="#E6472A"/>
<g id="Group_9">
<path id="Vector_30" d="M44.582 26.7016L45.4823 34.5938L65.7182 22.6314C65.8107 22.5754 65.8897 22.4988 65.9493 22.4073C66.009 22.3157 66.0477 22.2116 66.0626 22.1026L67.2053 13.3291L44.582 26.7016Z" fill="#CC3F25"/>
<path id="Vector_31" d="M44.1055 22.5196L44.583 26.702L67.2064 13.3295L67.2299 13.1532C67.2645 12.8734 67.2279 12.5892 67.1237 12.3281C67.0195 12.067 66.8511 11.8379 66.6349 11.6629L65.3433 10.6293C65.2004 10.5196 65.0289 10.4557 64.8506 10.4457C64.6722 10.4357 64.495 10.4801 64.3412 10.5732C64.3412 10.5653 44.1055 22.5196 44.1055 22.5196Z" fill="#FF6447"/>
<g id="Group_10">
<path id="Vector_32" d="M46.3993 23.6184L45.1075 22.5894C44.9833 22.4905 44.8357 22.4269 44.6798 22.405C44.5238 22.3831 44.365 22.4037 44.2193 22.4647C44.0737 22.5258 43.9463 22.6251 43.8502 22.7526C43.754 22.8801 43.6924 23.0314 43.6716 23.1911L42.5445 31.8548C42.5096 32.1236 42.544 32.3972 42.6444 32.6482C42.7448 32.8992 42.9076 33.1189 43.1167 33.2854L44.6863 34.5355C44.7852 34.6144 44.9028 34.6651 45.0271 34.6825C45.1513 34.7 45.2779 34.6836 45.394 34.6349C45.51 34.5863 45.6115 34.5071 45.6882 34.4055C45.7648 34.3039 45.8139 34.1834 45.8304 34.0561L46.9946 25.1069C47.031 24.8272 46.9952 24.5426 46.8908 24.2814C46.7863 24.0203 46.6169 23.7917 46.3993 23.6184Z" fill="#F15A24"/>
<g id="Group_11">
<path id="Vector_33" d="M46.3993 23.6184L45.1075 22.5894C44.9833 22.4905 44.8357 22.4269 44.6798 22.405C44.5238 22.3831 44.365 22.4037 44.2193 22.4647C44.0737 22.5258 43.9463 22.6251 43.8502 22.7526C43.754 22.8801 43.6924 23.0314 43.6716 23.1911L42.5445 31.8548C42.5096 32.1236 42.544 32.3972 42.6444 32.6482C42.7448 32.8992 42.9076 33.1189 43.1167 33.2854L44.6863 34.5355C44.7852 34.6144 44.9028 34.6651 45.0271 34.6825C45.1513 34.7 45.2779 34.6836 45.394 34.6349C45.51 34.5863 45.6115 34.5071 45.6882 34.4055C45.7648 34.3039 45.8139 34.1834 45.8304 34.0561L46.9946 25.1069C47.031 24.8272 46.9952 24.5426 46.8908 24.2814C46.7863 24.0203 46.6169 23.7917 46.3993 23.6184Z" fill="#C21B22"/>
</g>
</g>
</g>
<g id="Group_12">
<path id="Vector_34" d="M24.0469 38.8246L24.9471 46.7168L45.183 34.7544C45.2755 34.6984 45.3546 34.6218 45.4142 34.5303C45.4738 34.4387 45.5125 34.3346 45.5275 34.2256L46.6704 25.4521L24.0469 38.8246Z" fill="#CC3F25"/>
<path id="Vector_35" d="M23.5703 34.6426L24.0478 38.825L46.6713 25.4525L46.6947 25.2762C46.7293 24.9964 46.6928 24.7122 46.5885 24.4511C46.4843 24.19 46.316 23.9609 46.0998 23.786L44.8081 22.7523C44.6652 22.6426 44.4938 22.5787 44.3154 22.5688C44.1371 22.5588 43.9598 22.6031 43.8061 22.6963C43.8061 22.6883 23.5703 34.6426 23.5703 34.6426Z" fill="#FF6447"/>
<g id="Group_13">
<path id="Vector_36" d="M25.8641 35.7414L24.5722 34.7125C24.448 34.6135 24.3005 34.5499 24.1445 34.528C23.9886 34.5061 23.8298 34.5267 23.6841 34.5878C23.5384 34.6488 23.4111 34.7481 23.3149 34.8757C23.2188 35.0032 23.1572 35.1544 23.1364 35.3141L22.0094 43.9779C21.9744 44.2468 22.0088 44.5203 22.1092 44.7713C22.2096 45.0223 22.3725 45.242 22.5816 45.4086L24.1511 46.6587C24.2501 46.7375 24.3677 46.7882 24.4919 46.8057C24.6162 46.8231 24.7427 46.8067 24.8588 46.7581C24.9749 46.7094 25.0764 46.6303 25.153 46.5287C25.2296 46.427 25.2787 46.3065 25.2953 46.1793L26.4595 37.23C26.4959 36.9503 26.4601 36.6657 26.3556 36.4045C26.2511 36.1433 26.0817 35.9147 25.8641 35.7414Z" fill="#F15A24"/>
<g id="Group_14">
<path id="Vector_37" d="M25.8641 35.7414L24.5722 34.7125C24.448 34.6135 24.3005 34.5499 24.1445 34.528C23.9886 34.5061 23.8298 34.5267 23.6841 34.5878C23.5384 34.6488 23.4111 34.7481 23.3149 34.8757C23.2188 35.0032 23.1572 35.1544 23.1364 35.3141L22.0094 43.9779C21.9744 44.2468 22.0088 44.5203 22.1092 44.7713C22.2096 45.0223 22.3725 45.242 22.5816 45.4086L24.1511 46.6587C24.2501 46.7375 24.3677 46.7882 24.4919 46.8057C24.6162 46.8231 24.7427 46.8067 24.8588 46.7581C24.9749 46.7094 25.0764 46.6303 25.153 46.5287C25.2296 46.427 25.2787 46.3065 25.2953 46.1793L26.4595 37.23C26.4959 36.9503 26.4601 36.6657 26.3556 36.4045C26.2511 36.1433 26.0817 35.9147 25.8641 35.7414Z" fill="#C21B22"/>
</g>
</g>
</g>
<path id="Vector_38" d="M12.3986 35.0322C12.6682 34.8735 12.9733 34.7888 13.2843 34.7865C13.4914 34.7848 13.6968 34.8251 13.8885 34.9051C13.8969 34.9051 17.423 36.9977 17.423 36.9977L23.5815 40.6662C24.5918 41.1925 25.7093 41.4669 26.8429 41.4669C27.9764 41.4669 29.0939 41.1925 30.1042 40.6662L65.8466 19.545C66.696 19.0402 67.1331 18.3871 67.1831 17.7266L72.0547 16.6377C72.5799 18.1571 71.8485 19.8028 69.8529 20.9851L32.5047 43.0469C30.0794 44.4788 26.5118 44.8092 23.565 44.0381C22.7192 43.8211 21.9062 43.4876 21.148 43.0469L10.0312 36.4301L12.3986 35.0322Z" fill="#E6472A"/>
<g id="Group_15">
<path id="Vector_39" d="M21.1484 43.0498L21.1867 56.8622C24.3108 58.7202 29.3994 58.7202 32.544 56.8622L32.5057 43.0498C29.3612 44.9081 24.2725 44.9081 21.1484 43.0498Z" fill="#F15A24"/>
<path id="Vector_40" d="M21.1484 43.0498L21.1867 56.8622C24.3108 58.7202 29.3994 58.7202 32.544 56.8622L32.5057 43.0498C29.3612 44.9081 24.2725 44.9081 21.1484 43.0498Z" fill="#C21B22"/>
</g>
</g>
<path id="Vector_41" d="M72.6447 29.5694C72.6098 29.7981 72.5949 30.0296 72.6003 30.261C72.6409 30.6028 72.7036 30.9414 72.7882 31.2745C72.8907 32.0513 72.8644 32.8401 72.7104 33.6079C72.6999 33.6897 72.6876 33.8972 72.6278 33.9526C72.5457 34.0287 72.4312 34.0282 72.3303 34.0743C72.1854 34.1403 72.1155 34.3345 71.9609 34.3711C71.8453 34.3985 71.7163 34.3259 71.6092 34.3784C71.5205 34.4219 71.4844 34.5346 71.4029 34.5911C71.3116 34.6336 71.2116 34.6527 71.1114 34.6467C70.9204 34.6929 70.7348 34.7598 70.5576 34.8462C70.4668 34.8816 70.3672 34.886 70.2738 34.8587C70.1803 34.8315 70.098 34.774 70.0391 34.6949L70.5497 34.3949C70.5743 34.1217 70.5657 33.8464 70.5243 33.5753C70.4356 32.971 70.4421 32.3561 70.5434 31.7539C70.7828 31.2548 70.9642 30.7286 71.0836 30.1862C71.0963 29.8285 72.6025 29.5693 72.6025 29.5693L72.6447 29.5694Z" fill="#FFB294"/>
<path id="Vector_42" d="M72.6941 30.1721C72.6782 30.2692 72.6392 30.3607 72.5805 30.4387C72.5219 30.5166 72.4453 30.5785 72.3576 30.619C72.0957 30.7227 71.8063 30.7273 71.5414 30.6319C71.2783 30.5356 71.0436 30.3723 70.8594 30.1573C70.9635 28.0348 71.2627 25.9103 71.3635 23.7876C71.4118 22.7705 71.2716 21.737 71.2238 20.7197C71.147 19.0752 71.1996 17.4269 71.3813 15.791C71.4366 15.2937 71.3126 14.7702 71.3319 14.2702C71.3325 13.767 71.4586 13.2724 71.6981 12.833C71.9421 12.4293 72.3167 12.1259 72.7567 11.9759C74.7056 11.3193 75.3787 13.4277 74.9584 15.3741C74.838 16.0477 74.7822 16.7318 74.7919 17.4166C74.7601 18.9873 74.3702 20.618 74.1351 22.1706C73.7309 24.8388 73.2458 27.5186 72.6941 30.1721Z" fill="#161616"/>
<path id="Vector_43" d="M2.57405 74.3652C2.41226 74.8405 2.19644 75.2946 1.93102 75.7183C1.66552 76.1422 1.46134 76.6032 1.32482 77.087C1.20946 77.5757 1.06039 78.2724 1.49104 78.5145C3.49372 79.6413 3.62286 78.0451 4.92577 78.5101C6.16905 78.9539 7.27289 77.0589 6.56074 76.5484C6.18707 76.2587 5.72234 76.1197 5.25503 76.158C5.13224 75.8302 4.97914 75.501 4.85635 75.1732L2.57405 74.3652Z" fill="black"/>
<path id="Vector_44" d="M21.2071 75.092C21.2495 75.4061 21.2441 75.7249 21.1911 76.0372C21.1457 76.2408 21.0602 76.4324 21.0005 76.6321C20.8366 77.2193 20.8877 77.8476 21.1444 78.3989C21.6075 78.5574 22.1095 78.5503 22.5682 78.3787C23.0309 78.2329 23.4655 78.0056 23.9255 77.8513C24.2415 77.7453 24.5677 77.6744 24.8985 77.6398C25.5678 77.5698 26.2665 77.6454 26.8933 77.3956C27.1157 77.2992 27.3294 77.183 27.5319 77.0484C27.7659 76.9216 27.9752 76.7519 28.1494 76.5479C28.3712 76.1853 28.4838 75.7639 28.4731 75.3362C28.4927 75.028 28.069 74.8756 27.7753 74.805C27.4775 74.7509 27.1732 74.7466 26.8741 74.7924L25.6314 74.913C25.2093 75.0171 24.7696 75.0224 24.3452 74.9284C23.9208 74.8344 23.5227 74.6436 23.1804 74.3701L21.2071 75.092Z" fill="black"/>
<path id="Vector_45" d="M5.59682 75.9687C5.88824 74.764 6.35778 73.612 6.9892 72.5525L8.04168 70.6791C8.68566 69.5964 9.2476 68.4649 9.72257 67.2943C9.88081 66.7776 10.1043 66.2842 10.3875 65.8268C10.7196 65.3951 11.0155 64.9355 11.2721 64.4529C11.3637 64.2687 11.446 64.0751 11.5254 63.8815C12.1211 62.4135 12.5807 60.8914 12.8981 59.3353C13.2032 59.5383 17.6418 62.6825 19.0604 64.2437C19.3105 64.5185 19.6003 64.8463 19.8414 65.1305C19.7254 66.0082 19.6643 66.8926 19.6583 67.7782C19.631 68.5945 19.7068 69.4111 19.884 70.2075C20.0518 70.8756 20.3008 71.7033 20.4034 72.3874C20.609 73.7579 20.6455 74.6758 20.8409 75.8404C21.1324 76.6118 23.8469 75.7339 23.8469 74.713C23.8469 72.5236 23.7218 70.3387 23.6303 68.1529C23.5723 66.7447 23.5072 65.3365 23.435 63.9283C23.4071 63.5647 23.3151 63.2093 23.1636 62.8792C21.7025 59.4541 19.7987 56.9061 17.5504 54.3427L15.232 53.5183L8.69446 51.1953C8.17721 52.3291 7.83554 53.5384 7.6817 54.7798C7.65277 55.4912 7.68644 56.2039 7.78232 56.9093C7.91653 58.1395 7.97146 59.4227 8.1911 60.6436C8.25761 61.0175 8.27097 61.3992 8.23077 61.777C8.21287 61.9831 8.16132 62.1847 8.07824 62.3734C8.01435 62.4939 7.94087 62.6087 7.85856 62.7169C7.54435 63.1509 7.23303 63.5849 6.91899 64.0189C6.39735 64.7402 6.0616 65.605 5.59792 66.3638C4.91191 67.5043 4.39901 68.7448 4.07674 70.0429C3.58699 71.7928 2.95302 73.497 2.18166 75.1372C1.9038 75.7626 4.99972 76.9065 5.59682 75.9687Z" fill="#303030"/>
<g id="Vector_46" style="mix-blend-mode:multiply" opacity="0.5">
<path d="M21.7434 62.0873C22.2116 62.8498 22.5972 63.6623 22.8935 64.5103C23.1312 65.2964 23.3086 66.1002 23.4243 66.9145C23.4943 67.3267 23.5616 67.742 23.6318 68.1541C23.5738 66.7459 23.5087 65.3377 23.4365 63.9295C23.4086 63.5659 23.3166 63.2105 23.165 62.8804C21.704 59.4553 19.8002 56.9073 17.5519 54.3438L14.5195 53.7568C14.5195 53.7568 19.0374 57.4861 21.7434 62.0873Z" fill="#4F3685"/>
</g>
<g id="Vector_47" style="mix-blend-mode:multiply" opacity="0.5">
<path d="M6.99219 72.5534L8.04467 70.68C8.68865 69.5973 9.25059 68.4657 9.72556 67.2952C9.8838 66.7784 10.1073 66.2851 10.3905 65.8277C10.7226 65.396 11.0185 64.9364 11.2751 64.4538C11.3667 64.2696 11.449 64.076 11.5283 63.8824C12.1241 62.4144 12.5837 60.8923 12.9011 59.3362C12.1549 58.8605 11.4876 58.266 10.9243 57.5752C11.2111 60.866 10.5521 62.6211 10.2379 63.4421C10.0443 63.9055 9.8264 64.3579 9.5851 64.7973C8.38461 67.2518 7.51248 69.8606 6.99219 72.5534Z" fill="#4F3685"/>
</g>
<path id="Vector_48" d="M17.0221 39.0813L17.508 35.8975L14.4803 34.4893L13.5742 37.2036C14.4139 37.6418 16.4161 38.4038 17.0221 39.0813Z" fill="#FFB294"/>
<g id="Group_16">
<path id="Vector_49" d="M16.9216 36.8782L18.296 36.5546C18.4475 36.5194 18.5885 36.4476 18.7073 36.3452C18.8261 36.2428 18.9192 36.1127 18.9788 35.9659C19.3778 34.7778 19.5347 33.5186 19.4401 32.2659C19.2459 30.3778 17.2255 29.8661 16.0098 30.1993C15.351 30.3412 14.756 30.7008 14.3166 31.2228C13.8772 31.7449 13.6177 32.4003 13.5781 33.0881C13.5828 34.1639 13.9597 35.2031 14.6419 36.0214L16.9216 36.8782Z" fill="#FFB294"/>
<path id="Vector_50" d="M19.4711 32.8811C19.2105 33.3098 18.851 33.6665 18.4241 33.9198C18.285 34.0075 18.1854 34.1481 18.1471 34.3107L17.9991 34.8959L17.4202 35.4144L17.3201 35.7604C17.2257 36.0865 16.8529 36.699 16.5219 36.7286C15.5573 36.6561 14.6524 36.2233 13.9792 35.5124C13.9792 35.5124 12.7463 33.5976 13.8028 31.6516C14.8926 29.6443 17.0728 29.8767 17.7893 30.1048C18.5058 30.3329 20.3006 31.3997 19.4711 32.8811Z" fill="black"/>
</g>
<path id="Vector_51" d="M15.8972 31.1584C17.4199 30.2584 19.8766 29.9571 21.1082 30.9146C22.6649 32.125 20.8241 32.9594 19.4543 33.2854C19.419 33.2989 19.3856 33.3171 19.355 33.3397C17.8848 30.5992 15.398 31.4533 15.8972 31.1584Z" fill="#3B3B3B"/>
<path id="Vector_52" d="M19.4542 33.2861C19.4542 33.2861 20.0061 30.5001 17.8425 29.7636C13.4306 28.2616 13.3769 33.1041 13.3769 33.1041C13.2892 34.3547 16.2944 35.5369 19.4542 33.2861Z" fill="#161616"/>
<path id="Vector_53" d="M17.2553 35.5772C17.4141 35.9258 17.8732 35.7825 17.9822 35.329C18.0402 35.0875 18.1458 34.7013 18.0182 34.5313C17.7237 34.139 16.8248 34.6298 17.2553 35.5772Z" fill="#FFB294"/>
<path id="Vector_54" d="M8.92238 49.7406C8.70937 50.8026 8.42733 51.849 8.07812 52.8726C8.43814 52.9943 9.37421 52.7443 9.73422 52.8692C10.3657 53.0816 10.895 53.1026 11.5113 53.3524C12.5028 53.7583 13.5654 53.2657 14.5202 53.7559C15.1243 54.0682 15.7313 54.3773 16.3506 54.652C16.8147 54.8892 17.3361 54.9836 17.8515 54.9237C18.0846 54.2605 18.1922 53.558 18.1688 52.8536C18.3477 50.5092 18.7899 48.1938 19.4866 45.9531C19.6026 45.5441 19.7185 45.1383 19.8344 44.7323C20.1385 43.8204 20.3431 42.8769 20.4445 41.919C20.4574 41.8186 20.4502 41.7166 20.4232 41.6192C20.374 41.5039 20.2999 41.4014 20.2066 41.3195C19.2887 40.3401 18.2826 39.4515 17.2017 38.6655C15.6307 37.6008 13.7149 37.0574 11.9181 36.483C9.97787 35.7492 8.71188 37.7538 8.60204 38.247C8.19632 40.0955 8.92234 40.695 9.03218 41.2664C9.52323 44.0725 9.48596 46.9488 8.92238 49.7406Z" fill="#303030"/>
<path id="Vector_55" d="M25.5579 54.2227C26.2525 55.582 26.7455 56.7644 26.7488 58.1385C26.7597 58.2632 26.756 58.3888 26.738 58.5127C26.678 58.6358 26.4915 58.6307 26.3788 58.5648C26.2383 58.4826 26.165 58.7775 26.0352 58.8099C25.9123 58.8149 25.7918 58.7732 25.6971 58.6927C25.5981 58.6169 25.4845 58.7568 25.3971 58.7992C25.2662 58.8627 25.1074 58.6959 24.9627 58.5754C24.8431 58.6223 24.713 58.634 24.5871 58.6092C24.4347 58.5622 24.2967 58.4754 24.1869 58.3574C24.0771 58.2393 23.9993 58.0941 23.9609 57.9359C24.0775 57.9592 24.2526 57.9941 24.4015 58.028C24.3025 57.7154 24.234 57.3935 24.1969 57.067C24.126 56.6423 24.1295 56.208 24.2072 55.7845C24.2409 55.6255 24.2896 55.4739 24.3088 55.308C24.3332 55.1292 24.3069 54.947 24.2331 54.7831L25.5579 54.2227Z" fill="#FFB294"/>
<g id="Vector_56" style="mix-blend-mode:multiply" opacity="0.5">
<path d="M14.5195 53.7558C15.1235 54.068 15.7306 54.3771 16.3499 54.6519C16.814 54.8891 17.3354 54.9834 17.8508 54.9235C18.0838 54.2603 18.1915 53.5578 18.1681 52.8534C18.3469 50.5091 18.7892 48.1937 19.4859 45.9529C19.2986 45.2204 19.0034 44.5213 18.6104 43.8797C18.3603 43.48 18.0888 43.0304 17.8691 43.6892C17.754 44.1843 17.6745 44.6873 17.6312 45.1942C17.2929 47.2149 16.7247 49.1881 15.9383 51.0736C15.5406 52.0073 15.066 52.9046 14.5195 53.7558Z" fill="#4F3685"/>
</g>
<path id="Vector_57" d="M17.9055 44.9247C18.462 46.722 20.0822 48.0562 20.8299 49.7792C21.4202 51.1393 22.1352 52.4389 22.9653 53.6608C23.3704 54.2193 23.7115 54.8236 23.9817 55.4618C24.3603 55.506 24.7436 55.4472 25.0928 55.2913C25.2497 55.2268 25.3915 55.1293 25.5093 55.0052C25.5741 54.9478 25.6244 54.8752 25.6559 54.7937C25.6874 54.7121 25.6992 54.6239 25.6903 54.5367C25.3031 53.081 24.6851 52.1238 24.3747 50.8717C24.1654 49.9358 23.8583 49.0258 23.4586 48.1572C22.9015 46.9565 22.5496 45.7501 22.0588 44.5195C21.647 43.487 21.0415 41.714 20.0434 41.1786C18.2737 40.2295 17.2526 42.817 17.9055 44.9247Z" fill="#161616"/>
</g>
</g>
</svg>
