<svg width="80" height="80" viewBox="0 0 80 80" fill="none" xmlns="http://www.w3.org/2000/svg">
<g id="42589 [&#208;&#191;&#209;&#128;&#208;&#181;&#208;&#190;&#208;&#177;&#209;&#128;&#208;&#176;&#208;&#183;&#208;&#190;&#208;&#178;&#208;&#176;&#208;&#189;&#208;&#189;&#209;&#139;&#208;&#185;] 1" clip-path="url(#clip0_344_9582)">
<g id="borrow money">
<g id="Group">
<path id="Vector" d="M79.5 40.0002C79.5 61.8151 61.8153 79.4992 40 79.4992C18.1846 79.4992 0.5 61.8151 0.5 40.0002C0.5 18.1847 18.1847 0.5 40 0.5C61.8153 0.5 79.5 18.1847 79.5 40.0002Z" fill="#FEFEFE" stroke="#303030"/>
<path id="Vector_2" d="M64.1445 32.2943L79.3286 32.7395C77.8717 24.942 74.2718 17.9449 68.9973 12.4473H64.1445V32.2943Z" fill="#C21B22"/>
<path id="Vector_3" d="M22.6154 50.2663L0.34375 45.2812C1.28222 52.3808 4.11702 59.0962 8.54984 64.7206L18.5024 68.2556L22.6154 50.2663Z" fill="#303030"/>
<path id="Vector_4" d="M38.6889 30.8374C38.618 31.5505 39.2688 32.1981 40.1413 32.2849C41.0131 32.3709 41.7777 31.8633 41.8487 31.15L42.9695 19.8301C43.0404 19.1173 42.3895 18.4688 41.5178 18.3826C40.6443 18.2963 39.8802 18.8037 39.81 19.5175L38.6889 30.8374Z" fill="#F6B968"/>
<path id="Vector_5" d="M38.7317 30.8742L38.7266 19.072C38.7634 18.6895 40.1304 18.2394 40.4763 18.0352L39.4118 31.0569C39.397 31.2142 39.2068 31.7974 39.24 31.9455C39.0714 31.8246 38.9363 31.6629 38.8474 31.4755C38.7585 31.2881 38.7187 31.0812 38.7317 30.8742Z" fill="#EEAA59"/>
<path id="Vector_6" d="M35.6971 32.6216C35.6557 33.3364 36.3311 33.959 37.2068 34.0098C38.082 34.0607 38.8261 33.5218 38.8678 32.807L39.599 21.2821C39.6403 20.5671 38.8987 20.1142 38.0233 20.0629C37.1481 20.0121 36.4047 20.5502 36.3626 21.2658L35.6971 32.6216Z" fill="#F6B968"/>
<path id="Vector_7" d="M35.7016 32.5717L36.3386 20.9331C36.376 20.5515 37.1001 20.5511 37.4468 20.3467L36.1751 33.1847C36.1622 33.3385 36.1739 33.4934 36.2098 33.6435C36.0413 33.5225 35.9062 33.3607 35.8173 33.1732C35.7284 32.9858 35.6886 32.7788 35.7016 32.5717Z" fill="#EEAA59"/>
<path id="Vector_8" d="M32.5019 32.8855C32.459 33.6009 33.1354 34.2234 34.0106 34.2745C34.8863 34.3258 35.6312 33.7873 35.6726 33.0714L36.3364 21.7169C36.3797 21.0003 35.7033 20.3786 34.8276 20.3276C33.9529 20.2765 33.209 20.8149 33.1666 21.5302L32.5019 32.8855Z" fill="#F6B968"/>
<path id="Vector_9" d="M70.0886 29.6083C70.2004 29.5052 70.3344 29.4294 70.4803 29.3865L70.5363 28.4482C70.5388 28.4022 70.5504 28.3571 70.5704 28.3156C70.5903 28.274 70.6183 28.2368 70.6527 28.2061C70.6871 28.1754 70.7272 28.1518 70.7707 28.1367C70.8142 28.1215 70.8603 28.1151 70.9063 28.1178C70.9523 28.1205 70.9973 28.1322 71.0388 28.1524C71.0802 28.1725 71.1173 28.2006 71.1479 28.2351C71.1784 28.2696 71.2019 28.3098 71.2169 28.3534C71.2319 28.3969 71.2381 28.443 71.2353 28.489L71.1793 29.425C71.3061 29.4799 71.4201 29.5607 71.5139 29.6622C71.6496 29.8085 71.7389 29.9917 71.7704 30.1887C71.802 30.3858 71.7744 30.5877 71.6911 30.769C71.6079 30.9504 71.4727 31.1029 71.3028 31.2075C71.1328 31.312 70.9357 31.3638 70.7363 31.3562C70.5369 31.3487 70.3443 31.2822 70.1827 31.1652C70.0211 31.0481 69.8978 30.8858 69.8285 30.6987C69.7591 30.5116 69.7469 30.3082 69.7932 30.1141C69.8395 29.92 69.9423 29.744 70.0886 29.6083Z" fill="#33302F"/>
<path id="Vector_10" d="M73.4725 29.3407L73.5275 28.4008C73.533 28.3081 73.575 28.2214 73.6444 28.1597C73.7138 28.098 73.8049 28.0664 73.8976 28.0719C73.9903 28.0773 74.077 28.1194 74.1387 28.1888C74.2004 28.2582 74.232 28.3493 74.2265 28.442L74.1715 29.3786C74.2982 29.4335 74.4121 29.5141 74.5061 29.6153C74.6417 29.7616 74.7308 29.9448 74.7623 30.1417C74.7938 30.3386 74.7662 30.5404 74.683 30.7217C74.5998 30.9029 74.4647 31.0554 74.2949 31.1599C74.125 31.2644 73.928 31.3162 73.7287 31.3088C73.5294 31.3013 73.3368 31.235 73.1753 31.1181C73.0137 31.0012 72.8904 30.839 72.8209 30.6521C72.7515 30.4651 72.739 30.2618 72.7851 30.0678C72.8312 29.8738 72.9338 29.6978 73.0799 29.562C73.1922 29.4593 73.3265 29.3836 73.4725 29.3407Z" fill="#33302F"/>
<path id="Vector_11" d="M76.5006 29.2822L76.5556 28.3431C76.5583 28.2972 76.5701 28.2523 76.5901 28.2109C76.6102 28.1695 76.6382 28.1325 76.6726 28.102C76.707 28.0715 76.747 28.048 76.7905 28.033C76.8339 28.0179 76.8799 28.0116 76.9258 28.0143C76.9717 28.017 77.0166 28.0287 77.058 28.0488C77.0993 28.0689 77.1363 28.0969 77.1669 28.1313C77.1974 28.1657 77.2209 28.2057 77.2359 28.2492C77.251 28.2926 77.2573 28.3386 77.2546 28.3845L77.2 29.3202C77.3264 29.3757 77.4402 29.4562 77.5346 29.5568C77.6705 29.7032 77.7598 29.8865 77.7915 30.0837C77.8231 30.2808 77.7956 30.4829 77.7123 30.6644C77.6291 30.8459 77.4939 30.9986 77.3239 31.1033C77.1538 31.208 76.9566 31.2599 76.757 31.2524C76.5575 31.245 76.3647 31.1785 76.2029 31.0615C76.0411 30.9444 75.9177 30.782 75.8482 30.5948C75.7788 30.4077 75.7664 30.2041 75.8126 30.0098C75.8588 29.8156 75.9616 29.6394 76.108 29.5036C76.2201 29.4007 76.3545 29.3249 76.5006 29.2822Z" fill="#33302F"/>
<path id="Vector_12" d="M74.3806 29.7238C74.5151 29.8684 74.6036 30.0495 74.6351 30.2444C74.6665 30.4393 74.6395 30.6391 74.5573 30.8186C74.4752 30.9981 74.3416 31.1492 74.1736 31.2528C74.0055 31.3564 73.8105 31.4078 73.6132 31.4005C73.416 31.3932 73.2253 31.3275 73.0653 31.2118C72.9054 31.0961 72.7833 30.9356 72.7147 30.7505C72.646 30.5654 72.6338 30.3641 72.6795 30.1721C72.7253 29.9801 72.827 29.8059 72.9717 29.6717C73.0677 29.5826 73.1802 29.5133 73.3029 29.4677C73.4256 29.4221 73.5561 29.4011 73.687 29.406C73.8178 29.4108 73.9464 29.4413 74.0654 29.4959C74.1844 29.5504 74.2915 29.6279 74.3806 29.7238Z" fill="#22201F"/>
<path id="Vector_13" d="M77.3882 29.6876C77.5228 29.8322 77.6114 30.0133 77.6429 30.2083C77.6744 30.4032 77.6474 30.6031 77.5653 30.7826C77.4832 30.9622 77.3496 31.1133 77.1815 31.2169C77.0134 31.3205 76.8184 31.3719 76.6211 31.3646C76.4238 31.3574 76.233 31.2917 76.0731 31.1759C75.9131 31.0602 75.7911 30.8996 75.7224 30.7145C75.6538 30.5293 75.6416 30.328 75.6874 30.136C75.7332 29.9439 75.835 29.7698 75.9799 29.6356C76.1738 29.4562 76.4308 29.361 76.6948 29.3708C76.9587 29.3806 77.2081 29.4945 77.3882 29.6876Z" fill="#22201F"/>
<path id="Vector_14" d="M71.4039 29.7619C71.5382 29.9064 71.6266 30.0875 71.6579 30.2823C71.6892 30.4771 71.6621 30.6767 71.58 30.8561C71.4978 31.0355 71.3643 31.1864 71.1963 31.2899C71.0284 31.3934 70.8335 31.4447 70.6363 31.4374C70.4392 31.4301 70.2486 31.3646 70.0888 31.249C69.9289 31.1334 69.8069 30.973 69.7382 30.788C69.6695 30.6031 69.6572 30.402 69.7028 30.21C69.7485 30.0181 69.85 29.844 69.9946 29.7098C70.0904 29.6204 70.2029 29.5508 70.3257 29.5051C70.4485 29.4593 70.5791 29.4382 70.71 29.4431C70.841 29.4479 70.9697 29.4786 71.0888 29.5333C71.2078 29.588 71.3149 29.6657 71.4039 29.7619Z" fill="#22201F"/>
<path id="Vector_15" d="M43.2058 14.8116C42.32 15.1241 31.936 20.7233 31.6483 22.2209C31.4031 23.493 31.4958 31.3994 31.5613 33.5742C31.5631 33.6432 31.5613 33.8469 31.5613 33.8469C31.5613 34.7104 32.3532 35.4089 33.3317 35.4089C34.3086 35.4089 35.101 34.7104 35.101 33.8469V24.7645C35.1569 24.5518 35.2576 24.3534 35.3964 24.1828C36.0002 23.6645 41.0504 21.2969 43.4711 21.1355L46.4835 17.7795L43.3144 14.7891C43.2777 14.7936 43.2414 14.8011 43.2058 14.8116Z" fill="#FFCC90"/>
<path id="Vector_16" d="M32.7637 34.0312C32.5931 34.1076 32.4087 34.1483 32.2219 34.1507C32.2214 34.1514 32.2204 34.1502 32.2194 34.1519C32.2179 34.1507 32.2174 34.1519 32.2164 34.1507C32.027 34.1502 31.8395 34.1127 31.6646 34.04C31.6302 33.3039 31.5724 32.2024 31.7648 31.774C31.7863 31.7028 31.8301 31.6405 31.8898 31.5962C31.9495 31.5518 32.0218 31.5279 32.0962 31.5279L32.0974 31.5263C32.0977 31.5254 32.0986 31.5269 32.0992 31.5269C32.1001 31.5269 32.1019 31.5269 32.1026 31.5254V31.5274C32.179 31.5273 32.2537 31.5502 32.3169 31.5931C32.3802 31.636 32.429 31.697 32.4571 31.768C32.6878 32.1921 32.7297 33.2946 32.7637 34.0312Z" fill="#FFE0BC"/>
<path id="Vector_17" d="M31.9549 21.8794C31.9388 21.9064 31.9336 21.9385 31.9405 21.9691C31.9473 21.9998 31.9657 22.0266 31.9918 22.044L32.6229 22.4748C32.6353 22.4837 32.6493 22.4899 32.6642 22.4932C32.6791 22.4965 32.6945 22.4967 32.7094 22.4939C32.7244 22.4911 32.7387 22.4853 32.7514 22.4769C32.764 22.4684 32.7749 22.4575 32.7833 22.4448C32.7993 22.4178 32.8043 22.3856 32.7971 22.3549C32.79 22.3243 32.7712 22.2976 32.7449 22.2805L32.1157 21.8497C32.1034 21.8407 32.0893 21.8343 32.0744 21.8309C32.0594 21.8275 32.044 21.8272 32.0289 21.83C32.0139 21.8328 31.9996 21.8386 31.9868 21.8471C31.9741 21.8556 31.9633 21.8666 31.9549 21.8794Z" fill="#FFE0BC"/>
<path id="Vector_18" d="M31.7011 22.2831C31.685 22.3102 31.6798 22.3423 31.6864 22.3731C31.693 22.4039 31.711 22.431 31.7368 22.4492L32.3673 22.8795C32.3798 22.8884 32.3939 22.8947 32.4088 22.898C32.4237 22.9013 32.4391 22.9016 32.4542 22.8988C32.4692 22.896 32.4835 22.8901 32.4962 22.8817C32.5089 22.8732 32.5198 22.8622 32.5282 22.8495C32.5441 22.8224 32.549 22.7903 32.5419 22.7597C32.5348 22.7291 32.5162 22.7024 32.49 22.6851L31.8602 22.2538C31.8479 22.2449 31.834 22.2386 31.8193 22.2352C31.8045 22.2318 31.7892 22.2315 31.7743 22.2343C31.7595 22.237 31.7453 22.2427 31.7327 22.2511C31.7201 22.2595 31.7093 22.2704 31.7011 22.2831Z" fill="#FFE0BC"/>
<path id="Vector_19" d="M22.5035 24.0157L19.7773 39.0605L52.7992 45.0441L55.5253 29.9992L22.5035 24.0157Z" fill="#C1E4EA"/>
<path id="Vector_20" d="M51.5996 43.6548L21.3828 38.1803L23.6976 25.4053L53.9141 30.88L51.5996 43.6548ZM22.7386 37.2404L50.6598 42.2996L52.5594 31.8194L24.6377 26.7598L22.7386 37.2404Z" fill="#2A7B6D"/>
<path id="Vector_21" d="M30.068 33.1565C29.9988 33.5383 29.8179 33.8909 29.5483 34.1699C29.2786 34.4489 28.9323 34.6417 28.5531 34.7239C28.1739 34.806 27.7788 34.7739 27.4179 34.6316C27.0569 34.4892 26.7463 34.2431 26.5253 33.9242C26.3042 33.6053 26.1827 33.228 26.1761 32.8401C26.1694 32.4521 26.278 32.0709 26.488 31.7447C26.698 31.4184 27.0001 31.1618 27.3559 31.0072C27.7118 30.8526 28.1055 30.807 28.4873 30.8762C28.7409 30.9221 28.9829 31.0175 29.1995 31.1569C29.4162 31.2963 29.6033 31.4771 29.75 31.6889C29.8968 31.9006 30.0004 32.1392 30.055 32.391C30.1096 32.6429 30.114 32.903 30.068 33.1565Z" fill="#2A7B6D"/>
<path id="Vector_22" d="M49.0923 36.6045C49.023 36.9863 48.8421 37.339 48.5724 37.6181C48.3027 37.8971 47.9563 38.0899 47.577 38.1721C47.1978 38.2542 46.8026 38.2221 46.4416 38.0797C46.0806 37.9374 45.7699 37.6912 45.5488 37.3722C45.3277 37.0533 45.2062 36.676 45.1995 36.288C45.1928 35.9 45.3014 35.5187 45.5114 35.1923C45.7214 34.866 46.0235 34.6093 46.3794 34.4546C46.7353 34.2999 47.1291 34.2543 47.511 34.3234C47.7646 34.3692 48.0068 34.4646 48.2235 34.6041C48.4403 34.7435 48.6275 34.9244 48.7743 35.1362C48.9212 35.3481 49.0249 35.5868 49.0794 35.8387C49.134 36.0906 49.1383 36.3508 49.0923 36.6045Z" fill="#2A7B6D"/>
<path id="Vector_23" d="M42.1541 35.3454C41.9927 36.2365 41.5707 37.0597 40.9415 37.711C40.3123 38.3622 39.5041 38.8123 38.6191 39.0042C37.7341 39.1961 36.8121 39.1213 35.9696 38.7891C35.1271 38.457 34.4021 37.8825 33.8861 37.1383C33.3702 36.3941 33.0865 35.5136 33.071 34.6082C33.0555 33.7027 33.3088 32.813 33.7989 32.0516C34.2891 31.2901 34.994 30.6911 35.8246 30.3303C36.6551 29.9695 37.5741 29.8631 38.4651 30.0245C39.6599 30.241 40.7197 30.9231 41.4115 31.921C42.1034 32.9189 42.3704 34.1507 42.1541 35.3454Z" fill="#2A7B6D"/>
<path id="Vector_24" d="M43.3171 14.7889L43.4738 21.1353C43.9754 21.1026 44.3665 21.1616 44.5787 21.3535C46.2002 22.8218 46.0238 24.0232 44.8563 25.9002C44.1752 26.9963 43.2522 28.0775 42.1478 30.1404C39.7123 34.6951 41.3695 34.8689 42.2187 35.4087C43.7455 36.3806 46.2906 30.7192 48.3969 29.1619C51.2458 27.0566 55.0257 24.4429 55.0257 24.4429H64.1461V14.8114C64.1461 14.8114 45.1176 14.5152 43.3171 14.7889Z" fill="#FFCC90"/>
<path id="Vector_25" d="M43.3171 34.5301C42.9841 34.3709 42.6686 34.1775 42.3757 33.9529C42.3732 33.9517 42.3732 33.9507 42.3712 33.9497C42.3707 33.9477 42.3682 33.9477 42.3673 33.9457C42.0746 33.7213 41.8062 33.4668 41.5664 33.1865C42.0143 32.6006 42.6736 31.716 43.2705 31.6357C43.3955 31.6242 43.5215 31.6383 43.6409 31.6771C43.7603 31.7159 43.8706 31.7785 43.965 31.8612H43.9669C43.9689 31.8612 43.9689 31.863 43.97 31.8642C43.9715 31.8656 43.9733 31.8665 43.9754 31.8669L43.9749 31.8684C44.0794 31.9382 44.1687 32.0285 44.2372 32.1339C44.3057 32.2393 44.3521 32.3575 44.3734 32.4814C44.4503 33.0786 43.7657 33.9449 43.3171 34.5301Z" fill="#FFE0BC"/>
<path id="Vector_26" d="M45.0444 28.2636C45.0107 28.3174 45.0717 28.418 45.1837 28.4909L46.4701 29.3232C46.5812 29.3951 46.6997 29.4097 46.7334 29.3577C46.7691 29.3041 46.7056 29.2025 46.5936 29.1304L45.3101 28.2978C45.1986 28.2247 45.0797 28.2101 45.0444 28.2636Z" fill="#FFE0BC"/>
<path id="Vector_27" d="M44.7872 28.6643C44.7519 28.7186 44.8148 28.8202 44.9244 28.8921L46.2099 29.7244C46.3219 29.7963 46.4409 29.8122 46.4751 29.7596C46.5093 29.7053 46.4468 29.6035 46.3353 29.5311L45.0503 28.6983C44.9388 28.6269 44.8199 28.6113 44.7872 28.6643Z" fill="#FFE0BC"/>
<path id="Vector_28" d="M64.1439 12.9814H59.1484V28.2059H64.1439V12.9814Z" fill="#F2EBEC"/>
<path id="Vector_29" d="M43.6108 57.6089C43.4297 57.9075 43.1374 58.122 42.7982 58.2052C42.459 58.2884 42.1007 58.2335 41.8019 58.0526C41.5032 57.8712 41.2887 57.5786 41.2057 57.2391C41.1227 56.8996 41.1779 56.541 41.3592 56.2422L43.9553 51.9636C44.045 51.8157 44.1629 51.6868 44.3024 51.5845C44.4419 51.4821 44.6001 51.4082 44.7681 51.367C44.9361 51.3258 45.1106 51.3181 45.2816 51.3443C45.4526 51.3706 45.6168 51.4302 45.7647 51.5199C46.0633 51.7011 46.2777 51.9934 46.3607 52.3327C46.4437 52.6719 46.3886 53.0302 46.2074 53.3288L43.6108 57.6089Z" fill="#F6B968"/>
<path id="Vector_30" d="M38.2191 60.2291C37.5491 60.5131 35.0809 60.9052 34.7978 60.234L34.2146 59.6128C33.9306 58.9437 33.0149 56.7754 33.6125 57.1898C36.653 59.2991 41.8036 55.8538 41.8036 55.8538C41.9629 55.7865 42.1339 55.7512 42.3068 55.75C42.4797 55.7488 42.6512 55.7817 42.8114 55.8468C42.9716 55.9119 43.1174 56.0079 43.2405 56.1294C43.3636 56.2509 43.4616 56.3954 43.5288 56.5547C43.5962 56.714 43.6317 56.885 43.633 57.0579C43.6344 57.2309 43.6016 57.4024 43.5366 57.5627C43.4716 57.7229 43.3756 57.8688 43.2541 57.992C43.1327 58.1151 42.9882 58.2131 42.8288 58.2803L38.2191 60.2291Z" fill="#F6B968"/>
<path id="Vector_31" d="M39.6894 59.0609L44.0265 56.6621C44.1691 56.584 44.2953 56.4791 44.3983 56.3533C44.536 56.2384 44.6471 56.0949 44.724 55.9329L46.2483 52.0707C46.3529 51.8526 44.0943 55.5834 44.0943 55.5834L37.418 59.6905C38.2034 59.6008 38.9698 59.3884 39.6894 59.0609Z" fill="#EEAA59"/>
<path id="Vector_32" d="M46.8524 57.1099C46.7077 57.4278 46.4427 57.6752 46.1156 57.7977C45.7886 57.9202 45.4263 57.9078 45.1084 57.7633C44.9509 57.6917 44.809 57.5898 44.6908 57.4634C44.5727 57.337 44.4806 57.1886 44.4199 57.0266C44.3591 56.8646 44.3308 56.6922 44.3367 56.5193C44.3425 56.3464 44.3824 56.1763 44.454 56.0188L46.5252 51.4621C46.6698 51.1443 46.9346 50.8969 47.2615 50.7743C47.5885 50.6517 47.9507 50.6639 48.2686 50.8082C48.5868 50.9527 48.8346 51.2177 48.9575 51.5448C49.0803 51.8719 49.0683 52.2345 48.924 52.5527L46.8524 57.1099Z" fill="#F6B968"/>
<path id="Vector_33" d="M41.8063 60.3498C41.1743 60.7107 38.7707 61.3923 38.4106 60.7608L37.7572 60.212C37.3971 59.58 38.0301 59.4149 38.6617 59.053L44.8481 55.581C44.9983 55.4951 45.1639 55.4396 45.3355 55.4178C45.5072 55.3959 45.6814 55.4081 45.8484 55.4537C46.0153 55.4993 46.1715 55.5774 46.3082 55.6834C46.445 55.7895 46.5594 55.9214 46.6451 56.0718C46.7309 56.222 46.7863 56.3876 46.8081 56.5592C46.8299 56.7308 46.8176 56.9051 46.772 57.0719C46.7265 57.2388 46.6484 57.3951 46.5425 57.5318C46.4365 57.6685 46.3046 57.783 46.1543 57.8687L41.8063 60.3498Z" fill="#F6B968"/>
<path id="Vector_34" d="M41.8461 59.2013L46.1838 56.804C46.4677 56.615 46.7061 56.3652 46.8817 56.0728L48.9637 51.6985C49.063 51.4904 49.1004 51.2581 49.0713 51.0293L46.2516 55.7243L39.5742 59.8313C40.3599 59.7418 41.1266 59.5292 41.8461 59.2013Z" fill="#EEAA59"/>
<path id="Vector_35" d="M49.1299 57.1353C48.9849 57.4529 48.7199 57.7001 48.393 57.8226C48.066 57.9451 47.7038 57.9329 47.3859 57.7886C47.0678 57.6442 46.8202 57.3793 46.6974 57.0522C46.5746 56.7252 46.5867 56.3628 46.7311 56.0447L48.8027 51.4886C48.8741 51.331 48.9759 51.189 49.1022 51.0708C49.2286 50.9526 49.377 50.8605 49.539 50.7997C49.7009 50.7389 49.8733 50.7107 50.0462 50.7166C50.2191 50.7225 50.3892 50.7625 50.5466 50.8342C50.7042 50.9058 50.846 51.0076 50.9642 51.134C51.0823 51.2604 51.1744 51.4089 51.2352 51.5709C51.2959 51.7329 51.3242 51.9052 51.3183 52.0782C51.3125 52.2511 51.2726 52.4211 51.201 52.5786L49.1299 57.1353Z" fill="#F6B968"/>
<path id="Vector_36" d="M44.0886 60.3747C43.4561 60.7356 41.0528 61.4177 40.6914 60.7852L40.0385 60.2359C39.6782 59.6049 40.3117 59.4383 40.9427 59.0789L47.1294 55.606C47.2795 55.5202 47.445 55.4648 47.6166 55.4431C47.7881 55.4213 47.9622 55.4336 48.129 55.4792C48.2958 55.5249 48.4519 55.6029 48.5885 55.709C48.7251 55.815 48.8394 55.947 48.9249 56.0972C49.0108 56.2473 49.0662 56.4129 49.0881 56.5844C49.1099 56.756 49.0978 56.9301 49.0523 57.097C49.0068 57.2638 48.9289 57.4201 48.823 57.5568C48.7171 57.6935 48.5853 57.808 48.4351 57.8937L44.0886 60.3747Z" fill="#F6B968"/>
<path id="Vector_37" d="M47.8968 60.7529C47.2042 61.3245 46.0928 61.1198 45.4132 60.2963C44.7355 59.4734 44.8986 58.4433 45.5911 57.8717L51.3624 53.4439C52.2244 52.8718 53.3924 52.4767 53.9783 53.2362C54.7382 54.2182 53.8672 55.2712 52.8892 56.1902L47.8968 60.7529Z" fill="#FFCC90"/>
<path id="Vector_38" d="M45.593 57.872C44.8489 58.2453 38.0791 59.5371 37.272 58.3335C36.2121 56.7586 36.6125 55.7841 37.9879 54.4471C38.7902 53.6663 39.7945 52.9495 41.1558 51.4415C44.1594 48.1162 42.8784 47.5228 42.1983 46.9904C40.9604 46.0237 37.7893 50.0887 35.6879 50.9601C32.8489 52.136 29.1181 53.5478 29.1181 53.5478L22.6177 52.0146L20.8633 60.1305C20.8633 60.1305 36.2463 64.2074 37.0571 64.1305C37.7871 64.0606 45.7824 62.2349 47.8763 60.774L45.7744 57.7045C45.725 57.7713 45.6635 57.8281 45.593 57.872Z" fill="#FFCC90"/>
<path id="Vector_39" d="M22.5079 50.752L19.3516 64.5508L23.8787 65.5863L27.035 51.7875L22.5079 50.752Z" fill="#F2EBEC"/>
<path id="Vector_40" d="M16.0455 64.3972C15.9733 64.2754 15.8745 64.1715 15.7565 64.0933L15.9611 63.2442C15.9715 63.2025 15.9736 63.1591 15.9671 63.1167C15.9607 63.0742 15.946 63.0334 15.9237 62.9967C15.9014 62.9599 15.8721 62.928 15.8374 62.9026C15.8028 62.8772 15.7634 62.859 15.7217 62.8489C15.6799 62.8388 15.6366 62.8371 15.5941 62.8439C15.5517 62.8506 15.511 62.8657 15.4745 62.8883C15.4379 62.9108 15.4062 62.9404 15.3811 62.9753C15.356 63.0101 15.3381 63.0496 15.3283 63.0915L15.1238 63.9377C14.9963 63.9529 14.8732 63.9939 14.762 64.0581C14.6019 64.1515 14.473 64.2903 14.3918 64.4569C14.3105 64.6235 14.2805 64.8104 14.3054 64.9941C14.3303 65.1778 14.4092 65.3499 14.5319 65.4888C14.6546 65.6277 14.8158 65.7271 14.995 65.7745C15.1742 65.8218 15.3634 65.815 15.5387 65.7548C15.7141 65.6947 15.8676 65.5839 15.98 65.4366C16.0924 65.2892 16.1586 65.1118 16.1703 64.9268C16.1819 64.7418 16.1385 64.5575 16.0455 64.3972Z" fill="#A83A48"/>
<path id="Vector_41" d="M13.1153 63.2417L13.3213 62.3916C13.3313 62.3499 13.3331 62.3068 13.3264 62.2645C13.3197 62.2222 13.3048 62.1816 13.2825 62.1451C13.2601 62.1086 13.2308 62.0768 13.1962 62.0517C13.1616 62.0265 13.1224 62.0083 13.0807 61.9983C13.0391 61.9883 12.9959 61.9866 12.9537 61.9932C12.9114 61.9999 12.8708 62.0148 12.8343 62.0372C12.7978 62.0595 12.766 62.0888 12.7408 62.1234C12.7156 62.158 12.6975 62.1973 12.6875 62.2389L12.483 63.0865C12.3557 63.1005 12.2327 63.1412 12.1221 63.206C11.9434 63.3078 11.8027 63.4651 11.7215 63.654C11.6402 63.8429 11.6228 64.0532 11.6718 64.253C11.7209 64.4527 11.8337 64.631 11.9933 64.7608C12.1528 64.8906 12.3503 64.9648 12.5559 64.9722C12.7614 64.9796 12.9637 64.9197 13.1322 64.8017C13.3006 64.6837 13.426 64.514 13.4893 64.3183C13.5525 64.1226 13.5503 63.9116 13.4828 63.7173C13.4153 63.5231 13.2863 63.3561 13.1153 63.2417Z" fill="#A83A48"/>
<path id="Vector_42" d="M10.4338 62.3676L10.6397 61.5184C10.65 61.4768 10.652 61.4337 10.6455 61.3913C10.6391 61.349 10.6243 61.3083 10.6021 61.2717C10.5799 61.2351 10.5506 61.2033 10.5161 61.178C10.4815 61.1527 10.4423 61.1345 10.4007 61.1244C10.3591 61.1143 10.3158 61.1125 10.2735 61.1192C10.2312 61.1258 10.1907 61.1408 10.1542 61.1632C10.1176 61.1855 10.0859 61.2149 10.0608 61.2496C10.0356 61.2843 10.0176 61.3236 10.0077 61.3652L9.80249 62.2119C9.67467 62.226 9.55121 62.2667 9.44009 62.3314C9.27952 62.4245 9.1502 62.5633 9.06848 62.7299C8.98675 62.8966 8.95631 63.0838 8.98099 63.2678C9.00566 63.4518 9.08436 63.6244 9.20711 63.7636C9.32987 63.9029 9.49117 64.0026 9.67062 64.0502C9.85007 64.0978 10.0396 64.0911 10.2152 64.031C10.3909 63.9708 10.5447 63.8599 10.6573 63.7123C10.7699 63.5647 10.8362 63.387 10.8478 63.2018C10.8594 63.0165 10.8158 62.8319 10.7225 62.6714C10.6512 62.5491 10.5524 62.445 10.4338 62.3676Z" fill="#A83A48"/>
<path id="Vector_43" d="M12.1991 63.3357C12.0406 63.4279 11.913 63.5651 11.8325 63.7299C11.7519 63.8947 11.7221 64.0796 11.7466 64.2614C11.7712 64.4431 11.8492 64.6135 11.9706 64.751C12.092 64.8884 12.2515 64.9868 12.4288 65.0336C12.6061 65.0804 12.7934 65.0736 12.9668 65.014C13.1403 64.9544 13.2922 64.8447 13.4033 64.6988C13.5144 64.5528 13.5797 64.3772 13.591 64.1942C13.6023 64.0111 13.559 63.8288 13.4667 63.6703C13.3429 63.458 13.1398 63.3034 12.9022 63.2407C12.6645 63.1779 12.4116 63.2121 12.1991 63.3357Z" fill="#702730"/>
<path id="Vector_44" d="M9.53653 62.487C9.37785 62.579 9.25 62.7159 9.16916 62.8806C9.08831 63.0452 9.05811 63.2301 9.08236 63.4119C9.10662 63.5937 9.18424 63.7642 9.30541 63.9019C9.42658 64.0396 9.58586 64.1382 9.76311 64.1854C9.94035 64.2325 10.1276 64.2261 10.3012 64.1668C10.4747 64.1075 10.6268 63.9981 10.7382 63.8524C10.8496 63.7067 10.9152 63.5312 10.9269 63.3481C10.9385 63.1651 10.8956 62.9827 10.8036 62.8241C10.6801 62.6115 10.4773 62.4567 10.2398 62.3935C10.0022 62.3303 9.74931 62.3639 9.53653 62.487Z" fill="#702730"/>
<path id="Vector_45" d="M14.8381 64.177C14.6792 64.269 14.5512 64.406 14.4702 64.5707C14.3892 64.7355 14.3589 64.9205 14.3831 65.1025C14.4073 65.2844 14.485 65.4551 14.6062 65.593C14.7275 65.7308 14.8869 65.8295 15.0643 65.8767C15.2417 65.9239 15.4291 65.9174 15.6028 65.8581C15.7765 65.7987 15.9287 65.6892 16.0402 65.5433C16.1516 65.3974 16.2172 65.2218 16.2288 65.0386C16.2404 64.8554 16.1974 64.6728 16.1052 64.5141C16.0442 64.4087 15.963 64.3164 15.8663 64.2424C15.7695 64.1684 15.6592 64.1142 15.5415 64.0829C15.4238 64.0516 15.3011 64.0438 15.1804 64.0599C15.0597 64.0761 14.9434 64.1159 14.8381 64.177Z" fill="#702730"/>
<path id="Vector_46" d="M42.3396 48.669C42.1768 48.434 41.9901 48.2165 41.7825 48.02C41.7814 48.0191 41.7804 48.0191 41.78 48.0175C41.7784 48.0175 41.778 48.0156 41.7755 48.0146C41.5681 47.8185 41.3404 47.6451 41.0964 47.4971C40.7038 47.9115 40.1099 48.5247 40.1213 48.9906C40.1278 49.0876 40.1542 49.1823 40.1988 49.2688C40.2434 49.3553 40.3052 49.4317 40.3805 49.4933V49.4942C40.3805 49.4967 40.3815 49.4967 40.3825 49.4977L40.386 49.5017L40.3869 49.5007C40.4532 49.5719 40.5333 49.6289 40.6222 49.6683C40.7112 49.7077 40.8072 49.7286 40.9045 49.7297C41.3695 49.715 41.948 49.0849 42.3396 48.669Z" fill="#FFE0BC"/>
<path id="Vector_47" d="M53.8487 54.8897C53.7633 54.7318 53.6524 54.5891 53.5205 54.4674C53.5195 54.4674 53.519 54.4674 53.519 54.4649C53.517 54.4649 53.517 54.4639 53.5155 54.4639C53.3816 54.342 53.2287 54.2427 53.0629 54.1699C52.6673 54.5814 52.07 55.1926 51.9921 55.5698C51.9751 55.6346 51.9768 55.7029 51.997 55.7667C52.0173 55.8305 52.0553 55.8872 52.1067 55.9302H52.1062C52.1067 55.9327 52.1077 55.9317 52.1082 55.9327C52.1091 55.9332 52.1091 55.9332 52.1091 55.9352L52.1102 55.9342C52.1589 55.9819 52.2198 56.0153 52.2862 56.0308C52.3527 56.0462 52.4221 56.0432 52.4869 56.0219C52.8672 55.9238 53.4531 55.3017 53.8487 54.8897Z" fill="#FFE0BC"/>
<path id="Vector_48" d="M37.5468 50.9092C37.5914 50.8701 37.6938 50.9117 37.7763 51.0029L38.7314 52.0598C38.8142 52.1515 38.8447 52.2576 38.8015 52.2978C38.7578 52.3369 38.655 52.2953 38.5725 52.2026L37.6179 51.1472C37.5346 51.0565 37.5036 50.9484 37.5468 50.9092Z" fill="#FFE0BC"/>
<path id="Vector_49" d="M37.8751 50.6128C37.9199 50.5732 38.0226 50.6139 38.1048 50.7046L39.0598 51.7614C39.1421 51.8532 39.1739 51.9598 39.1302 51.9994C39.0861 52.0396 38.983 51.9964 38.8997 51.9047L37.9462 50.8478C37.8629 50.7576 37.8314 50.65 37.8751 50.6128Z" fill="#FFE0BC"/>
<path id="Vector_50" d="M46.6036 59.6885C46.6532 59.6578 46.7345 59.695 46.785 59.7713L47.364 60.6606C47.4135 60.7375 47.4135 60.8262 47.3644 60.8569C47.3144 60.8901 47.2331 60.851 47.183 60.7741L46.604 59.8863C46.5535 59.8105 46.5545 59.7207 46.6036 59.6885Z" fill="#FFE0BC"/>
<path id="Vector_51" d="M46.9784 59.4526C47.029 59.4214 47.1103 59.4576 47.1604 59.5344L47.7389 60.4232C47.7895 60.5007 47.7895 60.5888 47.7394 60.6201C47.6893 60.6518 47.6081 60.6146 47.558 60.5373L46.979 59.6489C46.929 59.5711 46.9289 59.4834 46.9784 59.4526Z" fill="#FFE0BC"/>
</g>
</g>
</g>
<defs>
<clipPath id="clip0_344_9582">
<rect width="80" height="79.9992" fill="white"/>
</clipPath>
</defs>
</svg>
