<svg width="233" height="640" viewBox="0 0 233 640" fill="none" xmlns="http://www.w3.org/2000/svg">
<path d="M75.4062 630.987C76.5259 632.643 78.7912 633.054 80.4082 631.878C130.671 595.332 170.657 545.81 196.297 488.3C222.438 429.666 232.702 364.892 226.011 300.784C219.32 236.676 195.92 175.599 158.27 123.969C121.344 73.3334 72.0479 33.6178 15.3867 8.81378C13.5543 8.01162 11.428 8.89229 10.6784 10.7468C9.9476 12.5548 10.8014 14.6134 12.5879 15.3952C68.1374 39.7016 116.466 78.6315 152.664 128.27C189.562 178.867 212.493 238.722 219.051 301.548C225.608 364.374 215.55 427.852 189.931 485.314C164.79 541.704 125.576 590.257 76.2821 626.077C74.7182 627.214 74.3234 629.385 75.4062 630.987Z" fill="#303030"/>
<circle cx="79" cy="630" r="10" fill="white"/>
<circle cx="79" cy="630" r="10" fill="url(#paint0_radial_320_195364)"/>
<circle cx="180" cy="513" r="10" fill="white"/>
<circle cx="180" cy="513" r="10" fill="url(#paint1_radial_320_195364)"/>
<circle cx="223" cy="365" r="10" fill="white"/>
<circle cx="223" cy="365" r="10" fill="url(#paint2_radial_320_195364)"/>
<circle cx="212" cy="246" r="10" fill="white"/>
<circle cx="212" cy="246" r="10" fill="url(#paint3_radial_320_195364)"/>
<circle cx="157" cy="128" r="10" fill="white"/>
<circle cx="157" cy="128" r="10" fill="url(#paint4_radial_320_195364)"/>
<circle cx="10" cy="10" r="10" fill="white"/>
<circle cx="10" cy="10" r="10" fill="url(#paint5_radial_320_195364)"/>
<defs>
<radialGradient id="paint0_radial_320_195364" cx="0" cy="0" r="1" gradientUnits="userSpaceOnUse" gradientTransform="translate(79 630) rotate(90) scale(7)">
<stop stop-color="#C21B22"/>
<stop offset="0.484375" stop-color="white" stop-opacity="0"/>
<stop offset="1" stop-color="#C21B22"/>
</radialGradient>
<radialGradient id="paint1_radial_320_195364" cx="0" cy="0" r="1" gradientUnits="userSpaceOnUse" gradientTransform="translate(180 513) rotate(90) scale(7)">
<stop stop-color="#C21B22"/>
<stop offset="0.484375" stop-color="white" stop-opacity="0"/>
<stop offset="1" stop-color="#C21B22"/>
</radialGradient>
<radialGradient id="paint2_radial_320_195364" cx="0" cy="0" r="1" gradientUnits="userSpaceOnUse" gradientTransform="translate(223 365) rotate(90) scale(7)">
<stop stop-color="#C21B22"/>
<stop offset="0.484375" stop-color="white" stop-opacity="0"/>
<stop offset="1" stop-color="#C21B22"/>
</radialGradient>
<radialGradient id="paint3_radial_320_195364" cx="0" cy="0" r="1" gradientUnits="userSpaceOnUse" gradientTransform="translate(212 246) rotate(90) scale(7)">
<stop stop-color="#C21B22"/>
<stop offset="0.484375" stop-color="white" stop-opacity="0"/>
<stop offset="1" stop-color="#C21B22"/>
</radialGradient>
<radialGradient id="paint4_radial_320_195364" cx="0" cy="0" r="1" gradientUnits="userSpaceOnUse" gradientTransform="translate(157 128) rotate(90) scale(7)">
<stop stop-color="#C21B22"/>
<stop offset="0.484375" stop-color="white" stop-opacity="0"/>
<stop offset="1" stop-color="#C21B22"/>
</radialGradient>
<radialGradient id="paint5_radial_320_195364" cx="0" cy="0" r="1" gradientUnits="userSpaceOnUse" gradientTransform="translate(10 10) rotate(90) scale(7)">
<stop stop-color="#C21B22"/>
<stop offset="0.484375" stop-color="white" stop-opacity="0"/>
<stop offset="1" stop-color="#C21B22"/>
</radialGradient>
</defs>
</svg>
