<svg width="290" height="560" viewBox="0 0 290 560" fill="none" xmlns="http://www.w3.org/2000/svg">
<path d="M101.222 519.401C102.318 520.617 104.153 520.823 105.483 519.868C147.926 489.425 181.729 450.608 204.168 406.517C227.019 361.618 237.426 312.547 234.525 263.378C231.625 214.209 215.501 166.361 187.492 123.808C159.98 82.0093 121.78 46.5043 75.9685 20.1292C74.5572 19.3166 72.7616 19.7094 71.8077 21.0293C70.6907 22.5748 71.1677 24.7477 72.8181 25.7028C117.416 51.5103 154.614 86.1628 181.442 126.922C208.891 168.624 224.692 215.514 227.535 263.7C230.377 311.886 220.178 359.976 197.785 403.976C175.914 446.951 143.027 484.813 101.751 514.574C100.178 515.708 99.9233 517.96 101.222 519.401Z" fill="#303030"/>
<rect x="2" y="442" width="116" height="116" rx="38" fill="#FEFEFE"/>
<rect x="2" y="442" width="116" height="116" rx="38" stroke="#161616" stroke-width="4"/>
<g clip-path="url(#clip0_320_193607)">
<path d="M97.7458 496.429H81.763L74.6202 503.572H87.143C87.806 503.576 88.4588 503.736 89.0488 504.039L97.7458 496.429ZM91.4286 507.857V534.152L99.5714 526.009C99.7071 525.878 99.8149 525.721 99.8886 525.548C99.9622 525.375 100 525.188 100 525V498.253L91.0386 506.094C91.2939 506.647 91.4269 507.248 91.4286 507.857ZM88.4286 537.449L88.4544 537.424C88.7131 537.158 88.8576 536.8 88.8572 536.429V507.857C88.8572 507.478 88.7067 507.115 88.4388 506.847C88.1709 506.579 87.8075 506.429 87.4286 506.429H21.4286C21.0497 506.429 20.6863 506.579 20.4184 506.847C20.1505 507.115 20 507.478 20 507.857V536.429C20 536.808 20.1505 537.171 20.4184 537.439C20.6863 537.707 21.0497 537.857 21.4286 537.857H87.4286C87.8028 537.858 88.1621 537.711 88.4286 537.449ZM34.2858 532.143C34.2858 533.721 33.0066 535 31.4286 535H25.7142C24.1363 535 22.857 533.721 22.857 532.143V529.286C22.857 527.708 24.1363 526.429 25.7142 526.429H31.4284C33.0064 526.429 34.2856 527.708 34.2856 529.286L34.2858 532.143ZM48.5714 535H44.2856C43.9067 535 43.5434 534.85 43.2755 534.582C43.0075 534.314 42.857 533.95 42.857 533.572C42.857 533.193 43.0075 532.829 43.2755 532.561C43.5434 532.293 43.9067 532.143 44.2856 532.143H48.5714C48.9503 532.143 49.3137 532.293 49.5816 532.561C49.8495 532.829 50 533.193 50 533.572C50 533.95 49.8495 534.314 49.5816 534.582C49.3137 534.85 48.9503 535 48.5714 535ZM48.5714 529.286H44.2856C43.9067 529.286 43.5434 529.135 43.2755 528.867C43.0075 528.6 42.857 528.236 42.857 527.857C42.857 527.478 43.0075 527.115 43.2755 526.847C43.5434 526.579 43.9067 526.429 44.2856 526.429H48.5714C48.9503 526.429 49.3137 526.579 49.5816 526.847C49.8495 527.115 50 527.478 50 527.857C50 528.236 49.8495 528.6 49.5816 528.867C49.3137 529.135 48.9503 529.286 48.5714 529.286Z" fill="#C21B22"/>
<path d="M71.906 469.753L80.6032 462.143H69.0618L59.879 469.285H70.0002C70.6633 469.29 71.3161 469.45 71.906 469.753ZM53.2945 462.554C53.2328 462.617 53.1654 462.675 53.093 462.725L43.753 469.285H55.2245L64.4073 462.143H54.2859C54.1016 462.142 53.919 462.178 53.7488 462.249C53.5786 462.319 53.4241 462.423 53.2945 462.554ZM82.4288 491.714C82.5635 491.584 82.6707 491.429 82.7444 491.257C82.818 491.086 82.8564 490.901 82.8574 490.714V463.967L73.896 471.808C74.1513 472.361 74.2843 472.962 74.286 473.571V499.87L82.4288 491.714ZM34.723 496.84C34.6614 496.903 34.5939 496.96 34.5216 497.011L25.1816 503.571H35.9774C35.8082 503.114 35.7193 502.63 35.7146 502.143V496.428C35.5303 496.428 35.3477 496.464 35.1774 496.534C35.0072 496.605 34.8527 496.709 34.723 496.84Z" fill="#C21B22"/>
<path d="M40.0009 503.571H70.0009C70.3748 503.572 70.7342 503.426 71.0009 503.164L71.0295 503.135C71.2872 502.869 71.4308 502.513 71.4295 502.143V473.571C71.4295 473.192 71.2789 472.829 71.011 472.561C70.7431 472.293 70.3797 472.143 70.0009 472.143H40.0009C39.622 472.143 39.2586 472.293 38.9907 472.561C38.7228 472.829 38.5723 473.192 38.5723 473.571V502.143C38.5723 502.521 38.7228 502.885 38.9907 503.153C39.2586 503.421 39.622 503.571 40.0009 503.571ZM62.858 492.143H67.1438C67.5227 492.143 67.8861 492.293 68.154 492.561C68.4219 492.829 68.5724 493.192 68.5724 493.571C68.5724 493.95 68.4219 494.313 68.154 494.581C67.8861 494.849 67.5227 495 67.1438 495H62.858C62.4792 495 62.1158 494.849 61.8479 494.581C61.58 494.313 61.4295 493.95 61.4295 493.571C61.4295 493.192 61.58 492.829 61.8479 492.561C62.1158 492.293 62.4792 492.143 62.858 492.143ZM62.858 497.857H67.1438C67.5227 497.857 67.8861 498.007 68.154 498.275C68.4219 498.543 68.5724 498.907 68.5724 499.286C68.5724 499.664 68.4219 500.028 68.154 500.296C67.8861 500.564 67.5227 500.714 67.1438 500.714H62.858C62.4792 500.714 62.1158 500.564 61.8479 500.296C61.58 500.028 61.4295 499.664 61.4295 499.286C61.4295 498.907 61.58 498.543 61.8479 498.275C62.1158 498.007 62.4792 497.857 62.858 497.857ZM41.4295 495C41.4295 493.422 42.7087 492.143 44.2866 492.143H50.0009C51.5788 492.143 52.858 493.422 52.858 495V497.857C52.858 499.435 51.5788 500.714 50.0009 500.714H44.2866C42.7087 500.714 41.4295 499.435 41.4295 497.857V495Z" fill="#C21B22"/>
</g>
<rect x="172" y="312" width="116" height="116" rx="38" fill="#FEFEFE"/>
<rect x="172" y="312" width="116" height="116" rx="38" stroke="#161616" stroke-width="4"/>
<path fill-rule="evenodd" clip-rule="evenodd" d="M235.536 366.381L230.499 363.473C230.189 363.294 229.808 363.294 229.499 363.473L221.357 368.174C220.69 368.559 220.69 369.521 221.357 369.906L229.499 374.607C229.808 374.785 230.189 374.785 230.499 374.607L238.641 369.906C239.308 369.521 239.308 368.559 238.641 368.174L235.536 366.381ZM253.089 378.626C253.089 379.178 252.641 379.626 252.089 379.626H243.949C243.397 379.626 242.949 379.178 242.949 378.626V369.04H242.947C242.944 368.701 242.772 368.402 242.48 368.23L230.477 361.3C230.334 361.215 230.171 361.17 230.004 361.169C229.838 361.168 229.674 361.211 229.53 361.295L217.577 368.196C217.419 368.273 217.285 368.393 217.192 368.542C217.098 368.691 217.049 368.864 217.049 369.04V378.626C217.049 379.178 216.601 379.626 216.049 379.626H207.911C207.359 379.626 206.911 379.178 206.911 378.626L206.91 369.292C207.068 365.513 208.857 362.466 211.639 360.157C214.823 357.513 219.307 355.815 224.166 355.065C225.935 355.903 227.912 356.372 229.999 356.372C232.086 356.372 234.063 355.903 235.831 355.065C240.69 355.815 245.174 357.513 248.359 360.157C251.149 362.474 252.941 365.532 253.089 369.327L253.089 378.626ZM230.936 377.091C230.936 376.734 231.127 376.404 231.436 376.225L239.574 371.527C240.241 371.142 241.074 371.623 241.074 372.393V381.795C241.074 382.152 240.883 382.482 240.574 382.661L232.436 387.359C231.77 387.744 230.936 387.263 230.936 386.493V377.091ZM238.318 334.412C233.724 329.817 226.273 329.817 221.679 334.412C217.085 339.006 217.085 346.456 221.679 351.051C226.274 355.645 233.724 355.645 238.318 351.051C242.913 346.456 242.913 339.006 238.318 334.412ZM208.411 392.334C207.744 391.949 206.911 392.43 206.911 393.2V402.602C206.911 402.959 207.101 403.289 207.411 403.468C210.124 405.035 212.835 406.601 215.548 408.168C216.215 408.553 217.048 408.072 217.048 407.302V397.321L208.411 392.334ZM218.923 407.3C218.923 408.07 219.757 408.551 220.423 408.166C223.136 406.6 225.848 405.036 228.561 403.47C228.87 403.291 229.061 402.961 229.061 402.604V393.198C229.061 392.428 228.228 391.947 227.561 392.332C224.681 393.995 221.804 395.657 218.923 397.321V407.3ZM232.436 392.332C231.769 391.947 230.936 392.428 230.936 393.198V402.604C230.936 402.961 231.127 403.291 231.436 403.47L239.574 408.166C240.24 408.551 241.074 408.07 241.074 407.3V397.898C241.074 397.541 240.883 397.211 240.574 397.032L232.436 392.332ZM242.949 407.302C242.949 408.072 243.782 408.553 244.449 408.168L252.587 403.468C252.896 403.289 253.086 402.959 253.086 402.602V393.2C253.086 392.43 252.253 391.949 251.586 392.334L243.449 397.032C243.139 397.211 242.949 397.541 242.949 397.898V407.302ZM229.061 386.493C229.061 387.263 228.228 387.744 227.561 387.359L219.423 382.661C219.114 382.482 218.923 382.152 218.923 381.795V372.393C218.923 371.623 219.757 371.142 220.423 371.527L228.561 376.225C228.87 376.404 229.061 376.734 229.061 377.091V386.493ZM242.511 384.279C242.202 384.101 241.821 384.101 241.511 384.279L233.367 388.981C232.701 389.366 232.701 390.329 233.368 390.713L241.511 395.413C241.821 395.592 242.202 395.592 242.511 395.413L250.653 390.712C251.32 390.328 251.32 389.365 250.653 388.98L242.511 384.279ZM226.63 388.981C227.296 389.366 227.296 390.329 226.63 390.713C223.915 392.28 221.201 393.846 218.486 395.413C218.176 395.592 217.795 395.592 217.486 395.413L209.343 390.712C208.677 390.328 208.677 389.365 209.343 388.98L217.486 384.279C217.795 384.101 218.176 384.101 218.486 384.279L226.63 388.981Z" fill="#C21B22"/>
<rect x="172" y="132" width="116" height="116" rx="38" fill="#FEFEFE"/>
<rect x="172" y="132" width="116" height="116" rx="38" stroke="#161616" stroke-width="4"/>
<g clip-path="url(#clip1_320_193607)">
<path d="M262.635 180.125H260.937C260.385 178.398 259.689 176.72 258.855 175.11L260.058 173.907C262.974 170.994 262.896 166.325 260.059 163.491L256.51 159.942C253.678 157.106 249.008 157.024 246.094 159.941L244.89 161.145C243.28 160.312 241.602 159.615 239.875 159.063V157.365C239.875 153.304 236.571 150 232.51 150H227.49C223.429 150 220.125 153.304 220.125 157.365V159.063C218.398 159.615 216.72 160.311 215.11 161.145L213.907 159.942C210.999 157.03 206.329 157.099 203.491 159.941L199.942 163.49C197.106 166.323 197.024 170.992 199.941 173.906L201.145 175.11C200.311 176.72 199.615 178.398 199.063 180.125H197.365C193.304 180.125 190 183.429 190 187.49V192.51C190 196.571 193.304 199.875 197.365 199.875H199.063C199.615 201.602 200.311 203.28 201.145 204.89L199.942 206.093C197.026 209.006 197.104 213.675 199.941 216.509L203.49 220.058C206.322 222.894 210.992 222.976 213.906 220.059L215.11 218.855C216.72 219.688 218.398 220.385 220.125 220.937V222.635C220.125 226.696 223.429 230 227.49 230H232.51C236.571 230 239.875 226.696 239.875 222.635V220.937C241.602 220.385 243.28 219.689 244.89 218.855L246.093 220.058C249.001 222.97 253.671 222.901 256.509 220.059L260.058 216.51C262.894 213.677 262.976 209.008 260.059 206.094L258.855 204.89C259.689 203.28 260.385 201.602 260.937 199.875H262.635C266.696 199.875 270 196.571 270 192.51V187.489C270 183.429 266.696 180.125 262.635 180.125ZM230 207.406C220.402 207.406 212.594 199.598 212.594 190C212.594 180.402 220.402 172.594 230 172.594C239.598 172.594 247.406 180.402 247.406 190C247.406 199.598 239.598 207.406 230 207.406Z" fill="#C21B22"/>
<path d="M258 189.5C258 204.688 245.688 217 230.5 217C215.312 217 203 204.688 203 189.5C203 174.312 215.312 162 230.5 162C245.688 162 258 174.312 258 189.5ZM204.853 189.5C204.853 203.665 216.335 215.147 230.5 215.147C244.665 215.147 256.147 203.665 256.147 189.5C256.147 175.335 244.665 163.853 230.5 163.853C216.335 163.853 204.853 175.335 204.853 189.5Z" fill="#FEFEFE"/>
</g>
<rect x="2" y="2" width="116" height="116" rx="38" fill="#FEFEFE"/>
<rect x="2" y="2" width="116" height="116" rx="38" stroke="#161616" stroke-width="4"/>
<g clip-path="url(#clip2_320_193607)">
<path d="M83.5936 20C74.5481 20 67.1873 27.3608 67.1873 36.4062C67.1873 39.5466 68.0777 42.7561 69.76 45.3881L81.6184 63.9391C82.0488 64.6142 82.7948 65.0217 83.5938 65.0217C84.3927 65.0217 85.1387 64.6144 85.5691 63.9391L97.4252 45.3859C99.1095 42.7561 99.9998 39.5487 99.9998 36.4062C99.9998 27.3608 92.6391 20 83.5936 20ZM83.5936 45.9375C78.4231 45.9375 74.2186 41.5767 74.2186 36.4062C74.2186 31.2358 78.4231 27.0312 83.5936 27.0312C88.7641 27.0312 92.9686 31.2358 92.9686 36.4062C92.9686 41.5767 88.7641 45.9375 83.5936 45.9375ZM38.0478 48.8122C38.3159 49.0322 38.5319 49.3089 38.6803 49.6223C38.8287 49.9358 38.9058 50.2782 38.9061 50.625V58.7458L48.2811 64.9966V55.3125C48.2811 54.9486 48.3658 54.5892 48.5283 54.2642L52.9686 45.3836V37.3767L43.1887 27.5969C33.053 31.852 25.0092 40.5887 21.6992 51.1761L36.1022 48.327C36.7981 48.2011 37.5077 48.3705 38.0478 48.8122Z" fill="#C21B22"/>
<path d="M40.8952 95.9972L43.715 87.5393C43.8121 87.2474 43.9658 86.9775 44.1673 86.745C44.3688 86.5125 44.6141 86.322 44.8892 86.1843L52.4469 82.2492L48.6569 70.8792L35.2625 61.9496C34.9415 61.7356 34.6783 61.4457 34.4962 61.1055C34.3141 60.7653 34.2188 60.3855 34.2188 59.9996V53.4834L20.5505 56.1853C20.2166 58.1937 20 60.2417 20 62.3434C20 76.9925 28.6192 89.8287 40.8952 95.9972Z" fill="#C21B22"/>
<path d="M56.3617 85.6905L47.8542 89.9432L45.2227 97.8361C49.1208 99.2122 53.2941 100 57.6572 100C64.4908 100 71.04 98.1332 76.5634 94.9261V80.1989L68.9783 76.4064H60.0009C59.6371 76.4065 59.2782 76.3219 58.9527 76.1593L54.6383 74.001L57.5359 82.6961C57.9067 83.8039 57.4055 85.1686 56.3617 85.6905Z" fill="#C21B22"/>
<path d="M57.6554 36.4062V45.9375C57.6554 46.3014 57.5708 46.6603 57.4082 46.9858L52.9679 55.8664V67.9263L60.7093 71.7188H69.5304C69.8943 71.7188 70.2537 71.8034 70.5787 71.9659L79.9537 76.6534C80.3429 76.8482 80.6703 77.1475 80.8991 77.5178C81.1279 77.8881 81.2491 78.3147 81.2491 78.75V91.7267C89.8099 84.8478 95.3116 74.1547 95.3116 62.3438C95.3116 60.8414 95.1895 59.3494 95.0127 57.8669L89.5187 66.4638C88.2232 68.4939 86.0076 69.7092 83.5929 69.7092C81.1782 69.7092 78.9626 68.4939 77.6649 66.4591L65.8088 47.9128C63.6435 44.523 62.4991 40.4438 62.4991 36.4062C62.4991 32.4406 63.6651 28.7694 65.5755 25.597C63.027 25.0583 60.2863 24.6875 57.6554 24.6875C54.3735 24.6875 51.2059 25.1547 48.1699 25.9503L56.9687 34.7491C57.1864 34.9666 57.3591 35.225 57.477 35.5093C57.5948 35.7937 57.6554 36.0984 57.6554 36.4062Z" fill="#C21B22"/>
</g>
<defs>
<clipPath id="clip0_320_193607">
<rect width="80" height="80" fill="white" transform="translate(20 460)"/>
</clipPath>
<clipPath id="clip1_320_193607">
<rect width="80" height="80" fill="white" transform="translate(190 150)"/>
</clipPath>
<clipPath id="clip2_320_193607">
<rect width="80" height="80" fill="white" transform="translate(20 20)"/>
</clipPath>
</defs>
</svg>
