<svg width="40" height="40" viewBox="0 0 40 40" fill="none" xmlns="http://www.w3.org/2000/svg">
<rect width="40" height="40" rx="4" fill="#F3F3F3"/>
<path opacity="0.8" d="M30 19.3333C30 18.781 29.5523 18.3333 29 18.3333H21.6667V11C21.6667 10.4477 21.219 10 20.6667 10H19.3333C18.781 10 18.3333 10.4477 18.3333 11V18.3333H11C10.4477 18.3333 10 18.781 10 19.3333V20.6667C10 21.219 10.4477 21.6667 11 21.6667H18.3333V29C18.3333 29.5523 18.781 30 19.3333 30H20.6667C21.219 30 21.6667 29.5523 21.6667 29V21.6667H29C29.5523 21.6667 30 21.219 30 20.6667V19.3333Z" fill="#161616"/>
</svg>
