<svg width="99" height="89" viewBox="0 0 99 89" fill="none" xmlns="http://www.w3.org/2000/svg">
<path d="M78.704 37.9755L42.8835 60.6601L43.6748 60.9238L44.4661 61.5569L43.5165 63.1923L42.1976 65.0915L39.0851 67.2544L38.7158 67.8875V68.3095L42.8835 70.6307L47.0511 71.8968L51.4825 72.9519L60.2398 72.2134L67.309 69.3646L70.738 66.5686L75.8025 60.7128L78.704 54.646L79.1788 51.9028V50.7949L81.9748 50.1618L83.3992 49.6343L84.507 49.8981L86.0897 50.7949L88.6747 52.5358L90.5211 53.3271H91.84L92.3148 52.7996V51.9028L91.6817 50.7949L90.3101 49.6343L89.1495 48.5792L89.3077 47.8934L90.6794 47.4713L92.8423 47.7351L95.5328 47.8934L97.2737 47.4713L97.8013 46.5218L97.2737 45.6249L95.7966 44.8336L91.84 43.884L89.5715 43.3037L88.3581 42.9872V42.5124L88.9384 41.2463L89.8353 40.0857L91.84 38.1865L93.9502 36.2346V35.074L93.3699 34.4937L91.5762 34.7047L88.9384 35.8125L85.1401 37.8172L81.9748 38.9251H80.4977H79.2316L78.8623 38.6613L78.704 37.9755Z" fill="#FEFEFE"/>
<path d="M62.7721 6.05874L59.0793 5.68945L58.3407 6.58629L55.8085 7.58863L53.8566 8.27444L53.54 9.85709V13.6554L53.8566 16.9262C54.3138 17.8407 55.4709 19.8489 56.2305 20.5663C64.3548 22.0435 66.887 23.7844 71.846 27.952C75.6731 31.1684 79.3899 44.0422 78.9679 51.5862C78.5458 59.1301 69.472 72.0551 55.0172 72.4771C47.3201 72.7018 38.5576 68.2215 35.6034 65.408L29.1673 54.5405L28.6925 50.4783L23.206 52.061L17.9832 54.2767L13.7629 53.3271L13.3408 55.4373L14.9235 60.1325L16.8226 65.408L19.4076 69.4173L23.6808 74.9566L27.5319 78.6494L31.3302 81.2344L35.6034 83.4501L39.6655 85.402L46.4709 86.8792L51.5353 87.565H57.3911L62.7721 86.8792L70.1051 84.1887L76.1191 81.2344L81.2891 77.225L85.2985 72.9519L88.5693 68.837L90.574 64.3001L92.7897 59.5522L94.214 54.3822L94.4251 50.2146L95.0054 48.4736V44.8336L93.6337 43.3564L94.4251 42.2486V40.6132L94.214 36.9731L92.7369 33.8605L91.1015 30.0094L89.5189 26.4221L87.7779 23.6789L86.4063 21.7797L84.2434 18.8254L81.3946 15.9239L76.2774 12.3893L72.2153 9.85709L68.6279 8.27444L65.3044 7.11383L62.7721 6.05874Z" fill="url(#paint0_linear_379_163)"/>
<path d="M13.5512 36.9203L12.3906 42.3013L14.5008 43.5674L17.5078 44.7808L18.5102 43.9367L21.6227 41.0352L25.3156 37.2369L28.2171 33.333L30.3273 31.6976L29.4305 29.9039L28.2171 27.6355V25.8418V24.4702L31.2241 18.9309L34.917 13.972L35.8138 10.0681L35.4973 9.48779L33.0705 10.8594L29.536 13.1279L25.3156 16.7152L22.3085 19.6167L19.3015 23.6261L16.8748 28.0048L14.5008 33.333L13.5512 36.9203Z" fill="url(#paint1_linear_379_163)"/>
<path d="M42.9354 60.6602C42.4712 60.4914 37.9061 63.6849 35.8135 65.25L35.708 65.5665C36.5521 66.393 38.5779 67.9088 38.6623 67.5712C38.7678 67.1492 41.089 65.4082 41.3 65.25C41.511 65.0917 42.6717 64.4059 42.9882 64.1949C43.3047 63.9839 44.3071 61.7154 44.3598 61.6099C44.4126 61.5044 43.5157 60.8713 42.9354 60.6602Z" fill="#161616"/>
<path d="M29.1664 54.5934C29.2086 54.5512 28.5509 52.1843 28.2168 51.0061C29.1031 49.951 31.7162 49.3355 32.912 49.1597C33.2637 49.9686 33.9565 51.6286 33.9143 51.7974C33.8616 52.0084 29.1136 54.6462 29.1664 54.5934Z" fill="#161616"/>
<path d="M71.7404 27.8995C66.0851 22.0331 59.0441 20.6017 56.2305 20.6193C58.0769 23.0988 57.9714 24.9979 57.9186 25.2617C60.7674 24.9452 62.6213 24.9289 65.4098 25.842C67.8893 26.6539 69.9467 28.0577 70.5798 28.6908C70.7556 28.5853 71.234 28.2793 71.7404 27.8995Z" fill="#161616" stroke="#161616" stroke-width="0.0907903"/>
<path fill-rule="evenodd" clip-rule="evenodd" d="M34.096 9.35698C36.2495 8.08908 52.2215 4.34349 61.9832 5.34843C62.9849 5.45156 64.0006 5.6569 64.3773 6.2972C64.5107 6.2972 64.6241 6.29321 64.7296 6.28949C65.1666 6.27412 65.4676 6.26352 66.4875 6.56097C67.5004 6.8564 69.1955 7.49298 69.9165 7.77433C70.3034 7.87984 71.0771 8.23858 71.0771 8.82943C71.6047 8.77668 76.9857 10.6231 77.355 12.5223C78.3046 12.575 83.2108 15.7403 83.0525 17.2175C83.6328 17.2702 87.2201 19.9607 87.7477 22.6512C88.4335 23.126 91.335 26.6606 91.2823 28.8235C91.7043 29.2456 92.9483 30.8264 93.0538 32.6728C93.7396 33.5152 94.5837 35.3633 94.1932 36.8405C95.164 37.4208 95.7443 42.0122 95.1334 42.8563C95.9025 43.5949 96.2191 48.5521 95.3971 49.7672C95.3143 49.8501 95.2626 50.4798 95.1915 51.3471C95.0363 53.2401 94.7883 56.265 93.92 57.2056C93.9728 57.5749 92.9177 63.6945 91.3878 63.9583C91.3878 64.5386 89.2776 70.2361 87.7477 70.3416C87.6422 71.0802 85.0044 75.6171 83.1053 75.7754C82.8415 76.6195 79.1486 80.5761 77.4605 80.5761C77.144 81.3146 72.9763 84.2689 71.2354 84.2162C70.8134 84.7965 66.0654 87.3287 64.4828 86.6429C63.9552 87.0649 59.2073 88.5948 57.3609 87.9617C56.7278 88.331 51.2941 88.9113 50.0807 87.9617C49.3949 88.2255 44.4359 88.0673 42.8533 86.6429C41.9564 86.7484 36.9975 85.746 36.1007 84.1634C35.4149 84.1634 30.7197 82.528 29.9284 80.6288C29.1898 80.4706 24.4418 77.569 24.2836 75.8281C23.4923 75.6171 19.9049 72.2408 19.6939 70.3944C19.0081 70.0251 15.79 66.2267 16.0538 64.011C15.4208 63.7473 12.9413 58.63 13.3633 57.2056C11.231 52.5087 11.8049 52.2462 12.3082 40.1658C12.361 38.8997 12.6248 36.3675 13.5216 35.7344C13.3106 35.0486 14.1019 30.3007 16.0011 28.929C16.0011 27.9795 18.1113 22.8095 19.6412 22.704C19.6939 21.8599 22.2789 17.7978 24.2308 17.1647C24.3891 16.5844 28.0819 12.364 29.9284 12.5223C30.0339 11.942 32.755 10.1465 34.096 9.35698ZM37.3446 9.03866L35.973 9.82998C34.2321 10.4103 31.8803 12.3535 31.4583 12.5223C31.0362 12.6911 31.4934 13.6125 31.7748 14.0522L30.5087 14.8962C30.3856 14.7556 30.0444 14.3687 29.6646 13.9467C29.3188 13.5625 27.7139 15.1089 26.6431 16.1407C26.2436 16.5257 25.9184 16.839 25.7607 16.9537C25.2965 17.2913 26.1652 17.9384 26.6576 18.2198L25.2859 19.3804C25.0749 19.1518 24.5685 18.6735 24.2308 18.5891C23.8897 18.5038 22.4456 20.4866 21.6258 21.6121C21.4315 21.879 21.2722 22.0977 21.171 22.2292C20.749 22.7778 21.5579 23.2315 22.0151 23.3898L20.9073 24.7087C20.6963 24.5504 20.2004 24.2128 19.9049 24.1283C19.6245 24.0482 18.7663 25.732 18.1154 27.0092C17.909 27.4141 17.7234 27.7782 17.5837 28.0322C17.1195 28.8763 17.953 29.1576 18.4278 29.1928L17.6892 30.67C17.4782 30.5644 16.9401 30.3429 16.4759 30.3007C16.0619 30.263 15.4599 32.3464 15.0532 33.7545C14.8897 34.3201 14.7578 34.7768 14.6822 34.9431C14.4712 35.4073 15.4735 35.5937 16.0011 35.6289L15.579 37.2115C15.2801 37.1236 14.5978 36.9372 14.2602 36.895C13.9411 36.8551 13.6823 39.0167 13.5066 40.4841C13.4499 40.9574 13.4019 41.3586 13.3633 41.5902C13.2367 42.3499 14.1898 42.3288 14.6822 42.2232L13.9964 54.6206C14.0491 55.0251 14.1969 55.8657 14.3657 55.9923C14.5345 56.1189 15.2801 55.9395 15.6318 55.834L15.9483 57.4694C15.7021 57.5222 15.1253 57.6804 14.7877 57.8914C14.3657 58.1552 16.3176 62.2701 16.5814 62.5339C16.7924 62.7449 17.443 62.446 17.742 62.2701L18.5333 63.8C18.1992 63.9231 17.4677 64.2221 17.2144 64.4331C16.9709 64.636 18.32 66.619 19.1474 67.8352C19.3954 68.1997 19.5966 68.4953 19.6939 68.6535C20.0315 69.2021 20.749 68.6007 21.0655 68.2314L22.1206 69.6558C22.0327 69.7262 21.7197 69.9407 21.171 70.2361C20.6809 70.5 22.1845 72.1379 23.2174 73.2631C23.6298 73.7123 23.9672 74.0799 24.0726 74.2455C24.368 74.7097 25.0749 74.052 25.3914 73.6652L26.4993 74.8258C26.2355 75.0368 25.6974 75.5327 25.6552 75.8281C25.6128 76.1247 27.9868 77.9188 29.0869 78.7501C29.3565 78.9539 29.5495 79.0998 29.6118 79.1517C29.8651 79.3627 30.3856 78.6417 30.6142 78.2549L31.8275 79.1517C31.6341 79.3627 31.2472 79.8691 31.2472 80.2068C31.2472 80.5938 34.7078 82.2674 35.4446 82.6238C35.5113 82.6561 35.5556 82.6775 35.5731 82.6863C35.7419 82.7707 36.171 82.018 36.3644 81.6312L37.7888 82.3697C37.7185 82.5983 37.5356 83.14 37.3668 83.4776C37.2069 83.7974 39.5917 84.5414 41.0548 84.9977C41.5224 85.1436 41.8959 85.2601 42.062 85.324C42.3574 85.6194 42.7126 84.7085 42.8533 84.2162L44.1722 84.5854C44.1546 84.9196 44.13 85.6511 44.1722 85.9043C44.2249 86.2208 48.8146 86.6429 49.2366 86.6429C49.5743 86.6429 49.4476 85.9395 49.3421 85.5878L51.0303 85.6405C51.0127 85.9571 50.9986 86.6534 51.083 86.9067C51.1886 87.2232 55.7782 86.9594 56.2003 86.9067C56.5379 86.8644 56.4465 86.0098 56.3585 85.5878H57.9939C57.9939 85.8867 58.0256 86.5479 58.1522 86.8011C58.2686 87.034 60.697 86.4676 62.1412 86.1308C62.6604 86.0097 63.0523 85.9183 63.1639 85.9043C63.5015 85.8621 63.1991 84.9723 63.0056 84.5327L64.5883 84.1106C64.6059 84.4448 64.7254 85.1552 65.0631 85.324C65.4851 85.535 69.7583 83.7414 69.9165 83.3721C70.0431 83.0766 69.6528 82.5807 69.4417 82.3697L70.9716 81.7367C71.0596 81.8773 71.2987 82.2642 71.5519 82.6863C71.8685 83.2138 75.9833 80.4706 76.0889 80.2068C76.1733 79.9958 75.7372 79.3803 75.5086 79.0989L76.8802 78.1493C77.0736 78.4483 77.5343 79.0567 77.8298 79.0989C78.1991 79.1517 81.3643 76.0919 81.5754 75.7754C81.7442 75.5221 81.1533 74.9665 80.8368 74.7203L81.9974 73.6124C82.2436 73.8234 82.8098 74.256 83.1053 74.2982C83.4745 74.351 86.0068 70.8692 86.165 70.4999C86.2916 70.2045 85.6199 69.7789 85.2682 69.6031L86.2705 68.2314C86.5167 68.46 87.083 68.9278 87.3784 68.97C87.7477 69.0228 89.9634 64.6441 90.0689 64.3276C90.1533 64.0743 89.3303 63.8352 88.9083 63.7473L89.5414 62.2701C89.8227 62.3756 90.4804 62.5761 90.8602 62.5339C91.335 62.4811 92.4956 58.1552 92.5484 57.7859C92.5906 57.4905 91.7571 57.4167 91.335 57.4167L91.8098 55.834C92.1087 55.9395 92.7699 56.1189 93.0232 55.9923C93.3397 55.834 93.92 51.3498 93.8145 50.9806C93.7301 50.6851 93.0408 50.6816 92.7066 50.7168L92.8121 49.1341C93.1638 49.1166 93.9095 49.0708 94.0783 49.0286C94.2466 48.9865 94.2135 48.6087 94.1932 48.3773C94.1881 48.3186 94.1838 48.2693 94.1838 48.2373C94.1838 48.1107 93.4324 43.5931 93.6341 42.2742L92.7066 42.3797L92.3901 39.953C92.7066 39.9003 93.2648 39.9425 93.4758 39.9003C93.702 39.855 93.6603 40.1765 93.4324 39.2345C93.3945 39.0779 93.3623 38.9447 93.3397 38.8469C93.2131 38.2983 92.6539 35.7344 92.3901 34.521L92.1791 33.9407C91.7571 32.7977 90.8708 30.4589 90.702 30.2479C90.5331 30.0369 89.8579 30.4413 89.5414 30.67L88.75 29.1928C89.0841 29.017 89.784 28.6231 89.9106 28.4542C90.0689 28.2432 87.5367 24.1811 87.2729 24.0756C87.0619 23.9912 86.4464 24.4273 86.165 24.6559L85.321 23.3898C85.5671 23.1788 86.0806 22.7145 86.165 22.5457C86.2705 22.3347 83.369 18.8529 82.9997 18.6418C82.7043 18.473 82.1381 19.0287 81.8919 19.3277L80.8368 18.1143C81.0302 17.9736 81.4593 17.6078 81.6281 17.2702C81.8391 16.8482 77.777 14.0522 77.566 13.9467C77.3972 13.8622 76.9681 14.5445 76.7747 14.8962L75.4558 13.8411C75.5789 13.6653 75.8567 13.2292 75.9833 12.8916C76.1416 12.4695 72.0795 10.3593 71.7102 10.2538C71.4148 10.1694 71.1651 10.9572 71.0771 11.3617L69.4417 10.6231C69.6 10.3417 69.9165 9.70517 69.9165 9.40974C69.9165 9.11343 67.3012 8.40954 65.8043 8.00665C65.4356 7.90743 65.1348 7.82646 64.9576 7.77433C65.1264 8.15417 64.641 8.636 64.3773 8.82943C63.8321 8.72392 62.7946 8.4918 63.0056 8.40739C63.2694 8.30188 63.0584 7.29954 63.0056 7.08852C62.9634 6.9197 60.1393 6.49063 58.7325 6.2972L57.9412 7.08852V7.77433H57.4136L57.2026 7.29954L58.4687 6.2972C56.3891 5.18756 42.1232 8.56386 37.3446 9.03866Z" fill="#161616"/>
<path d="M29.0618 29.1658L32.3326 33.6499L30.9082 32.2256L30.0641 32.12L27.9012 33.6499L25.6855 37.0262L18.9856 43.4623L17.4557 44.8867L15.1873 43.8844L8.43463 40.6136L4.58353 38.9254L2.78986 38.6089L0.890686 39.453L0.732422 40.5081L2.26231 41.2466L4.58353 42.4072L5.26934 43.1986L3.37017 44.4647L1.36548 46.1528L0.890686 47.3662L2.47333 48.1048L4.90006 47.8937L6.32444 48.5796L5.26934 50.3732L4.00322 52.1669L4.42526 53.1165L6.42995 52.9055L7.59056 52.3779L8.1181 51.5338L8.69841 51.9559L12.7605 53.8023L13.9739 54.2243L14.3432 53.5385L15.1873 53.9606L17.9833 56.8621L20.5683 58.4447L21.4651 57.7062L20.9903 55.7542L20.832 54.4881L22.8895 53.9606L25.2634 52.7472L30.1696 49.5819L32.8074 49.0544L33.3877 49.6874L34.2318 51.7976L70.2106 28.9548L69.4193 28.3744L66.887 27.0028L64.4076 25.9477L59.3958 25.6312H57.7077L57.3384 24.9981L56.8109 22.7824L55.492 20.514L54.2786 18.1928L53.6456 15.7133L53.8038 12.9173L53.3818 10.5433L53.6456 8.38035L55.2282 7.80005L58.71 6.27016L59.0793 4.89853L58.2352 4.10721L56.4416 4.89853H55.6502L54.2786 3.26313L52.9597 1.3112L50.9551 0.88916L48.7394 1.46946L45.152 3.36864L42.1978 4.63476L38.9797 6.27016L36.6585 8.9079L34.9176 13.5503L33.546 16.3991L31.0137 18.9841L28.4287 23.521L27.9539 25.6312L29.0618 29.1658Z" fill="#FEFEFE"/>
<path d="M69.7358 29.1655L70.4216 28.638C70.4216 28.6028 70.3688 28.3848 70.1578 27.7939C69.8941 27.0553 65.5154 25.631 63.3524 24.8396C61.1895 24.0483 58.8683 25.0507 57.8659 25.3144C58.4462 23.468 55.7557 20.25 55.1754 19.0366C54.6064 17.8468 53.7511 14.4469 54.0676 13.7611C54.3841 13.0753 54.0676 12.2312 53.7511 10.9124C53.4345 9.59348 53.7511 8.43287 54.0676 8.43287C55.0896 8.6439 58.1297 6.90298 59.0266 6.37543C59.9234 5.84788 59.4486 4.63452 58.7628 3.89596C58.2141 3.3051 56.8108 4.14215 56.1778 4.63452C56.0019 4.70486 55.4287 4.4446 54.5424 2.84086C53.4345 0.836171 53.3818 0.783419 51.0606 0.46689C48.7393 0.150361 45.3103 2.28612 44.519 2.81367C43.8504 3.2594 43.6371 3.89596 44.0969 3.89596C44.3607 3.89596 42.5143 4.26524 41.6174 4.63452C39.4333 5.5339 37.0805 7.53604 36.1837 8.85491C35.2869 10.1738 34.3373 13.5501 34.1263 14.4469C33.9152 15.3438 32.7019 16.5044 31.0665 18.1925C29.4311 19.8807 28.2705 22.4129 27.7429 24.4176C27.2154 26.4223 28.587 29.7458 29.1673 30.3789C29.7476 31.012 29.9586 31.4867 29.8531 31.645C28.6925 31.5395 25.1052 36.815 24.8414 37.1843C24.5776 37.5536 22.5202 39.9275 22.0981 40.1385C21.6761 40.3496 18.036 43.6204 17.7722 44.0952C17.5085 44.57 16.9809 44.2534 16.7171 44.2534C16.4534 44.2534 12.0747 41.8795 11.2834 41.5102C10.4921 41.1409 5.32209 38.7142 4.00322 38.3449C2.68435 37.9756 1.68201 38.4504 0.574157 39.189C-0.533695 39.9275 0.521401 40.8771 1.04895 41.1409C2.29269 41.7628 4.63628 42.7235 4.90006 43.0401C4.63628 43.0401 1.5765 45.5723 1.25997 45.7833C0.94344 45.9943 -0.0589024 46.8912 0.626911 47.8407C1.31272 48.7903 2.05129 48.6321 3.68669 48.4738C5.32209 48.3155 5.79689 48.4738 5.95515 48.7903C6.11342 49.1069 4.00322 51.3226 3.89771 51.6391C3.7922 51.9556 3.31741 52.5887 4.16149 53.38C5.00557 54.1713 7.59055 52.5887 7.95984 52.5887C8.32912 52.5887 8.22361 51.9029 8.38188 51.8501C8.93053 52.441 12.3737 54.101 14.0266 54.8571C14.0794 54.5934 14.2482 54.0447 14.5014 53.9603C14.818 53.8548 15.1873 54.2241 17.5612 56.8618C19.9152 59.4773 20.9327 58.7497 21.3491 58.452L21.3596 58.4445C22.8367 57.3894 21.5706 55.754 21.3596 55.0154C23.2587 55.0154 25.8437 52.6942 27.8484 51.2171C29.8531 49.7399 32.7019 49.3179 32.8601 49.3179C32.9867 49.3179 33.6163 51.006 33.9152 51.8501L34.4955 51.4281C34.1438 50.7599 33.4193 49.339 33.3349 49.0014C34.6538 49.1069 34.39 48.6321 34.179 48.5266C29.22 48.5266 27.0043 51.006 24.1028 53.0107C23.5125 53.4186 22.6257 53.802 20.9903 53.9603C21.1134 53.679 21.3385 53.0635 21.2541 52.8525C20.4627 53.2217 19.9879 54.2241 20.41 55.0154C21.4651 57.2839 20.8848 57.9644 20.5683 58.0752C19.5132 58.4445 16.1896 54.5934 15.8203 54.2241C15.5388 53.9426 14.4487 53.1162 14.1849 53.1162C13.7629 53.1162 13.8789 53.2851 13.9211 53.7493C13.4569 54.2135 9.64799 52.1842 7.80157 51.1116V51.9029C7.16851 52.0611 5.11107 53.2217 4.42526 52.6414C3.82657 52.1349 5.37485 50.584 6.21893 49.8454C6.62769 49.4878 6.37719 48.5266 6.58821 48.7903C6.79923 49.0541 8.27637 49.6344 8.43463 49.5289C6.90474 47.3132 4.79455 47.4715 2.94813 47.6297C1.1017 47.788 0.980274 47.2784 1.25997 46.8912C1.94578 45.9416 5.21658 43.6204 5.48036 43.5676C5.74413 43.5149 6.53546 44.781 6.90474 44.9392C5.63862 41.3519 3.63394 41.3519 1.84027 40.7188C0.0466075 40.0858 1.41823 39.5055 2.94813 39.0307C4.47802 38.5559 8.54014 40.9299 10.9669 42.196C13.3936 43.4621 17.7722 45.3085 18.247 45.4668C18.6269 45.5934 19.2142 45.414 19.4604 45.3085C19.2494 45.1678 18.7113 44.8337 18.247 44.6227C19.9879 43.6204 27.7957 35.2851 28.1122 34.3355C28.3654 33.5758 30.0114 32.7529 30.8027 32.4363L32.5964 34.23V33.5442C32.4909 33.3859 31.2775 31.5923 29.1673 28.427C27.0571 25.2617 30.8027 20.0917 31.172 19.5114C31.5413 18.9311 34.8121 16.5044 35.6561 12.6533C36.5002 8.80216 38.9269 7.16676 40.1931 6.16442C41.4592 5.16207 46.4181 4.63452 46.8402 4.63452C46.9457 4.31799 45.8378 4.26524 45.3103 4.26524C44.7827 4.26524 45.363 3.8432 47.6315 2.57708C49.9 1.31097 51.0606 1.46923 52.1157 1.52199C53.1708 1.57474 53.6983 3.10463 53.7511 3.52667C54.9117 5.58411 56.8108 5.79513 57.1274 5.74238C56.2305 5.20523 56.8108 4.79279 57.7077 4.63452C58.6045 4.47626 58.7628 4.31799 58.499 5.58411C58.2352 6.85023 55.492 7.16676 54.5424 7.32502C53.5928 7.48329 52.9597 8.38012 52.8015 8.43287C52.5061 7.75761 51.6936 7.41295 51.3243 7.32502C52.1684 8.59114 53.7616 11.4294 53.3818 12.6533C52.907 14.1832 53.1708 15.8713 53.3818 16.8209C53.5863 17.741 54.4347 19.2061 55.543 21.1199L55.6502 21.3051C56.8108 23.3097 56.5998 23.2042 56.9164 25.7365C57.2329 28.2687 53.4873 33.2277 53.4873 33.4914C55.914 32.3308 57.7604 26.3695 57.8659 26.0002C59.0793 25.5254 61.295 26.264 63.5635 26.3695C65.3782 26.4539 68.4345 28.2687 69.7358 29.1655Z" fill="#221E1F" stroke="#242021" stroke-width="0.0907903"/>
<path d="M40.0355 10.7014C39.5921 11.4995 39.1914 11.0179 39.3497 10.4904C39.7928 9.01325 40.9324 8.90771 41.4599 8.90771C41.0906 9.22424 40.5631 9.75179 40.0355 10.7014Z" fill="#221E1F"/>
<path d="M47.6323 9.11895C47.1575 8.69688 46.5948 8.90793 46.4189 9.06619C47.474 10.4378 48.7402 11.0181 48.7929 11.0181C48.8457 11.0181 48.8984 10.7016 48.7929 10.4906C48.6083 10.1213 48.2457 9.66419 47.6323 9.11895Z" fill="#221E1F"/>
<path d="M41.3023 12.2314C41.8298 12.4951 41.9353 12.9699 41.8298 13.392C41.7243 13.1282 40.8275 12.0731 41.2495 13.5502C41.6397 14.916 41.144 15.2911 40.4054 15.1856C39.6669 15.0801 39.7196 13.7085 39.7724 13.1809C39.846 12.4442 40.5835 11.872 41.3023 12.2314Z" fill="#221E1F"/>
<path d="M47.5795 12.8641C47.8961 13.1807 48.0543 13.972 47.9488 14.3413C47.5795 14.183 47.685 13.761 47.5268 13.6555C47.3405 13.5313 47.4213 14.3413 47.052 15.6601C46.9566 16.0009 46.3018 16.1483 45.9969 15.8712C45.4166 15.3436 45.7331 13.8665 45.9441 13.3917C46.314 12.5595 47.176 12.4606 47.5795 12.8641Z" fill="#221E1F"/>
<path d="M44.4666 20.3555C43.8863 21.3051 43.0949 21.3051 42.8312 21.2523C42.5674 21.1995 41.8288 20.3555 41.8816 21.0413C41.929 21.6569 42.9367 22.3602 44.0445 21.9909C44.7611 21.752 44.7303 20.4082 44.4666 20.3555Z" fill="#221E1F"/>
<path d="M42.4629 25.5254C41.6188 25.5254 41.257 26.4526 41.144 26.9498C40.8802 28.1104 41.2495 29.8513 42.7267 29.8513C44.151 29.8513 44.0455 27.3718 43.9928 26.9498C43.9202 26.3695 43.4125 25.5254 42.4629 25.5254Z" fill="#221E1F"/>
<path d="M42.9373 33.3861C42.6097 33.468 41.9877 33.4916 40.9854 32.8586C41.3546 33.9137 41.9877 34.3225 43.0955 34.2302C44.3617 34.1247 44.7837 33.0168 44.5727 32.4365C44.2034 33.0168 43.5703 33.2278 42.9373 33.3861Z" fill="#221E1F"/>
<path d="M77.8075 39.0833L77.2799 39.0306L76.7524 38.8723L73.2178 40.2967L68.1006 43.9895L70.6856 45.5194L71.6352 46.1525L70.5273 47.4714L69.4195 49.265L68.9974 50.5312L69.2612 51.639L70.8438 52.1138L72.743 51.9028L75.2225 50.9004L77.0689 50.6367L78.546 50.7949L79.8122 50.7422L83.2412 49.7398L83.9798 49.6343L84.9294 50.1091L86.4065 50.8477L87.7782 51.9555L89.3608 53.0634L90.5742 53.3799L91.9458 53.2744L92.3151 52.7469V52.1666L92.0513 51.3752L91.4182 50.5312L90.4159 49.8453L89.6246 49.054L89.0443 48.3682L89.3608 47.8934L89.8883 47.6824L90.5742 47.6296H91.5237L92.9481 47.7879L95.2166 47.9462L96.4299 47.7879L97.274 47.3659L97.6433 46.68L97.485 45.836L96.7992 45.1502L95.5331 44.5699L93.3702 44.1478L89.5191 43.3565L88.7805 43.1455L88.3057 42.8289L88.5167 42.0904L89.0443 41.2463L89.9411 39.9802L91.2072 38.7668L92.5788 37.5535L93.7922 36.2873L94.2142 35.4433L93.7922 34.6519L92.5788 34.4409L90.5214 35.0212L87.9892 36.2873L83.716 38.503L82.3972 38.7668L80.7618 38.8723L79.3901 38.9251L77.8075 39.0833Z" fill="#FEFEFE"/>
<path d="M39.0315 67.8349C38.9361 67.9043 38.715 67.7822 38.3984 67.5712C38.4512 67.5184 39.2561 66.5472 40.0866 65.9885C42.9881 64.0366 42.8298 63.7201 43.9377 61.6626C44.0496 61.4549 42.9714 61.06 42.8298 60.8713C42.6716 60.6603 43.6739 59.9217 43.8322 60.1327C50.5321 63.7728 51.1124 62.978 56.4406 63.9311C56.5461 63.95 56.7044 64.3531 56.5461 64.4059C56.0985 64.5551 55.8075 64.5641 53.0115 64.4059C50.2155 64.2476 47.736 63.2453 46.6282 62.7177C45.5203 62.1902 44.7877 61.8209 44.729 61.9791C43.5157 65.25 41.6522 65.9503 40.5614 66.6216C39.8756 67.0436 39.6118 67.4129 39.0315 67.8349Z" fill="#221E1F"/>
<path d="M72.1631 44.781C72.5429 44.7388 72.3565 45.3964 72.2159 45.7305C72.0576 46.2602 70.1584 48.4738 69.9474 48.9486C68.5758 52.6414 71.3718 51.7973 72.1631 51.7973C72.9544 51.7973 77.8079 49.0013 78.7047 49.4234C79.6015 49.8454 77.9661 50.1092 77.5441 50.3202C77.1221 50.5312 78.7047 50.5312 79.3905 50.5312C80.0763 50.5312 82.292 49.4761 83.5582 49.4234C84.8243 49.3706 87.1982 50.9533 88.7809 52.2194C90.3635 53.4855 91.4186 53.3272 91.8407 53.0635C93.4233 51.6918 89.7832 49.7399 89.4139 49.2651C89.0447 48.7903 88.4644 48.421 88.6226 48.21C89.2029 47.2604 91.3659 47.1549 93.1595 47.4714C94.9532 47.788 96.6729 47.6025 96.9579 47.3132C98.7515 45.4923 94.1619 44.5172 93.265 44.3589C92.3682 44.2006 89.0447 43.3038 88.6226 43.1983C88.2006 43.0928 88.5171 43.5676 88.4644 44.0424C88.4116 44.5172 90.1525 45.3612 88.6226 44.8864C87.0927 44.4117 88.0951 42.618 88.9919 40.8243C89.8887 39.0307 95.006 36.1291 93.6343 34.9685C92.2627 33.8079 85.4573 37.8701 84.3495 38.6614C83.2416 39.4527 80.7621 39.9275 79.8126 39.9275C78.863 39.9275 81.5007 39.2944 81.5535 39.1362C81.6062 38.9779 81.5007 38.7669 79.707 39.2944C77.9134 39.822 77.5441 39.3472 77.6496 39.0834C78.9685 38.7669 77.9134 39.0834 78.2827 38.3976C78.6519 37.7118 79.074 38.1338 79.285 38.5031C79.496 38.8724 81.5535 38.7141 82.8196 38.5031C84.0857 38.2921 89.2557 35.1796 91.3131 34.5465C93.3706 33.9134 94.0564 34.3882 94.5312 35.0213C95.006 35.6544 94.0036 37.026 93.1068 37.3953C92.2099 37.7646 88.9391 41.2991 88.6226 42.2487C88.3061 43.1983 89.5722 43.2511 90.047 43.4093C90.5218 43.5676 95.8893 43.9964 97.3799 45.3085C98.4878 46.2837 98.013 47.5498 97.3799 47.9191C96.4449 48.4645 92.7375 47.8935 90.7856 47.788C88.8336 47.6825 89.2557 48.7903 90.5218 49.5816C91.7879 50.373 92.5265 51.1115 92.632 52.5887C92.7375 54.0658 90.047 53.4327 89.4667 53.2745C88.8864 53.1162 86.2486 50.9005 84.7715 50.1619C83.2944 49.4234 80.7621 50.9533 80.2346 51.1115C79.707 51.2698 77.7024 51.3226 76.5945 51.1115C75.4867 50.9005 75.4867 51.3226 73.1654 52.3249C70.8442 53.3272 68.8923 52.5887 68.6285 51.217C68.3648 49.8454 69.2616 48.8431 69.3143 48.6321C69.3671 48.421 70.7387 46.7329 70.9497 46.4691C71.1608 46.2053 70.3167 45.9943 69.5781 45.5195C68.8395 45.0447 68.5758 44.781 69.1033 44.4117C69.6309 44.0424 71.4773 45.6778 71.6883 45.625C71.8993 45.5723 71.6883 44.8337 72.1631 44.781Z" fill="#221E1F"/>
<path d="M72 27.5003C70.5 28.0003 29 54.5004 29 54.5004C29 54.5004 35.5 66.0004 36 66.0004C36.5 66.0004 76.5 39.5004 77.5 39.0004C76.5 34.5004 73.5 27.0003 72 27.5003Z" fill="url(#paint2_linear_379_163)"/>
<mask id="path-21-outside-1_379_163" maskUnits="userSpaceOnUse" x="22.8008" y="26.8584" width="59" height="40" fill="black">
<rect fill="white" x="22.8008" y="26.8584" width="59" height="40"/>
<path d="M30.5747 63.2214C30.3663 63.9374 29.8032 64.5877 28.8855 65.1723C27.9702 65.7555 27.1428 65.991 26.4035 65.8788C25.6627 65.7643 25.0052 65.2564 24.4309 64.3549C23.8566 63.4535 23.6749 62.644 23.8857 61.9266C24.0965 61.2091 24.6595 60.5588 25.5749 59.9757C26.4926 59.3911 27.3199 59.1556 28.0569 59.2692C28.7962 59.3814 29.453 59.8882 30.0273 60.7896C30.6016 61.6911 30.7841 62.5017 30.5747 63.2214ZM27.5752 60.6072C27.164 60.4782 26.6965 60.5806 26.1728 60.9142C25.6514 61.2464 25.3611 61.6268 25.3019 62.0555C25.245 62.4827 25.3922 62.972 25.7436 63.5235C26.0935 64.0727 26.474 64.4118 26.8852 64.5408C27.2973 64.666 27.764 64.5625 28.2854 64.2303C28.8091 63.8967 29.1002 63.5174 29.1585 63.0926C29.2154 62.6654 29.0689 62.1772 28.7191 61.628C28.3677 61.0764 27.9864 60.7362 27.5752 60.6072Z"/>
<path d="M31.6232 61.806C31.6082 61.7952 31.5942 61.7796 31.5813 61.7594C31.5674 61.7376 31.5638 61.7064 31.5704 61.6655L31.6884 60.1823L30.347 59.635C30.2619 59.6037 30.2249 59.5519 30.2359 59.4797C30.2404 59.4484 30.2585 59.4226 30.2904 59.4023L30.7618 59.1019C30.9023 59.0124 31.0559 59.0042 31.2225 59.0772L31.9319 59.3949L31.9438 58.6177C31.9481 58.4358 32.0204 58.3001 32.1609 58.2106L32.6324 57.9103C32.6642 57.89 32.6953 57.8844 32.7256 57.8936C32.7957 57.9141 32.8269 57.9696 32.8193 58.0599L32.7485 59.5069L34.1426 60.0268C34.1824 60.0381 34.2097 60.0554 34.2244 60.0785C34.2383 60.1003 34.246 60.1188 34.2476 60.134C34.2646 60.1863 34.2478 60.2286 34.1971 60.2609L33.7343 60.5557C33.6011 60.6406 33.4475 60.6488 33.2736 60.5804L32.4966 60.2813L32.4372 61.1133C32.4271 61.2989 32.3555 61.4341 32.2222 61.519L31.7595 61.8138C31.7088 61.8461 31.6634 61.8435 31.6232 61.806Z"/>
<path d="M34.8898 59.4408C34.531 59.3762 34.2224 59.1411 33.9641 58.7356C33.7048 58.3286 33.6222 57.9496 33.7162 57.5985C33.8092 57.246 34.0672 56.9351 34.4902 56.6656C34.9145 56.3953 35.3061 56.2924 35.6649 56.3571C36.0228 56.4202 36.3314 56.6553 36.5907 57.0623C36.849 57.4678 36.9317 57.8468 36.8386 58.1993C36.7455 58.5518 36.4868 58.8633 36.0624 59.1336C35.6395 59.403 35.2486 59.5054 34.8898 59.4408ZM34.4928 57.6047C34.4777 57.7792 34.5523 57.9954 34.7166 58.2532C34.8808 58.511 35.0457 58.6706 35.2111 58.7322C35.3766 58.7938 35.5556 58.7632 35.7482 58.6405C35.9423 58.5168 36.0464 58.367 36.0606 58.191C36.0762 58.0141 36.0018 57.7968 35.8376 57.539C35.6733 57.2812 35.5082 57.1227 35.3422 57.0635C35.1777 57.0034 34.9984 57.0352 34.8043 57.1588C34.6117 57.2815 34.5079 57.4301 34.4928 57.6047Z"/>
<path d="M36.4844 56.0091L36.3197 55.7506C36.2948 55.7115 36.2868 55.6718 36.2957 55.6314C36.3052 55.5888 36.3294 55.555 36.3686 55.5301L38.5085 54.1668C38.5476 54.1419 38.5877 54.1346 38.629 54.145C38.6693 54.1539 38.7019 54.1779 38.7268 54.217L38.8915 54.4756C38.9155 54.5132 38.9235 54.5529 38.9155 54.5947C38.9065 54.635 38.8825 54.6676 38.8434 54.6925L38.1504 55.134L39.2479 56.8568C39.2719 56.8945 39.2792 56.9347 39.2697 56.9773C39.2608 57.0176 39.2368 57.0503 39.1977 57.0752L38.7132 57.3838C38.6741 57.4087 38.6337 57.4172 38.5919 57.4092C38.5507 57.3988 38.5181 57.3748 38.4941 57.3371L37.3965 55.6143L36.7035 56.0558C36.6644 56.0807 36.624 56.0892 36.5822 56.0812C36.541 56.0708 36.5084 56.0467 36.4844 56.0091Z"/>
<path d="M40.6555 55.9601L39.3088 53.8463C39.2839 53.8072 39.2759 53.7675 39.2848 53.7272C39.2943 53.6845 39.3178 53.6512 39.3555 53.6272L39.8421 53.3171C39.8812 53.2922 39.9214 53.285 39.9626 53.2953C40.0029 53.3043 40.0356 53.3283 40.0605 53.3674L40.556 54.1452L41.5075 53.539L41.012 52.7612C40.9871 52.7221 40.9791 52.6824 40.9881 52.6421C40.9975 52.5994 41.0218 52.5656 41.0609 52.5407L41.5454 52.2321C41.5845 52.2071 41.6247 52.1999 41.6659 52.2103C41.7062 52.2192 41.7388 52.2432 41.7637 52.2823L43.1104 54.3962C43.1353 54.4353 43.1433 54.475 43.1344 54.5153C43.1254 54.5556 43.1014 54.5882 43.0623 54.6131L42.5778 54.9218C42.5387 54.9467 42.4983 54.9551 42.4565 54.9471C42.4153 54.9367 42.3827 54.9127 42.3587 54.8751L41.8425 54.0647L40.8909 54.6709L41.4071 55.4813C41.4321 55.5204 41.4393 55.5605 41.4289 55.6018C41.42 55.6421 41.3967 55.6742 41.359 55.6982L40.8724 56.0082C40.8333 56.0332 40.7936 56.0411 40.7533 56.0322C40.713 56.0233 40.6804 55.9992 40.6555 55.9601Z"/>
<path d="M43.9118 53.8856L42.5651 51.7718C42.5402 51.7327 42.5322 51.693 42.5411 51.6527C42.5506 51.61 42.5742 51.5766 42.6118 51.5527L43.0659 51.2634C43.105 51.2385 43.1452 51.2312 43.1864 51.2416C43.2281 51.2496 43.2615 51.2732 43.2864 51.3123L44.1957 52.7396L44.0649 50.8468C44.0595 50.7872 44.0715 50.7276 44.1008 50.6682C44.1292 50.6073 44.1659 50.5626 44.2108 50.534L44.8191 50.1465C44.8582 50.1216 44.8984 50.1143 44.9396 50.1247C44.9814 50.1327 45.0147 50.1562 45.0396 50.1954L46.3863 52.3092C46.4112 52.3483 46.4184 52.3885 46.4081 52.4297C46.3991 52.47 46.3751 52.5026 46.336 52.5275L45.882 52.8168C45.8428 52.8417 45.8031 52.8497 45.7628 52.8408C45.7216 52.8304 45.689 52.8064 45.665 52.7687L44.7571 51.3435L44.885 53.232C44.8886 53.2888 44.8767 53.3483 44.8492 53.4106C44.8208 53.4715 44.7841 53.5162 44.7392 53.5448L44.1287 53.9337C44.0896 53.9586 44.0499 53.9666 44.0096 53.9577C43.9693 53.9488 43.9367 53.9247 43.9118 53.8856Z"/>
<path d="M49.6096 50.3076C49.6502 50.3713 49.6329 50.4272 49.5576 50.4752L49.147 50.7368C49.0079 50.8253 48.8538 50.8279 48.6845 50.7443L48.1221 50.4704C47.8806 50.3534 47.6469 50.3669 47.4209 50.5108L47.9372 51.3212C47.9621 51.3603 47.9694 51.4004 47.959 51.4417C47.95 51.482 47.9267 51.5141 47.8891 51.5381L47.4024 51.8481C47.3633 51.8731 47.3236 51.881 47.2833 51.8721C47.243 51.8632 47.2104 51.8392 47.1855 51.8L45.8388 49.6862C45.8139 49.6471 45.8059 49.6074 45.8149 49.5671C45.8243 49.5244 45.8479 49.4911 45.8855 49.4671L46.3722 49.157C46.4113 49.1321 46.4515 49.1249 46.4927 49.1353C46.533 49.1442 46.5656 49.1682 46.5905 49.2073L47.1054 50.0155C47.3574 49.8549 47.4675 49.6474 47.4356 49.3928L47.3618 48.8167C47.3511 48.736 47.362 48.6588 47.3945 48.5852C47.427 48.5115 47.4758 48.454 47.541 48.4124L47.9516 48.1508C48.024 48.1047 48.0782 48.1099 48.1142 48.1664C48.1345 48.1982 48.1487 48.2462 48.1569 48.3102L48.2531 49.0796C48.2681 49.2086 48.2569 49.3348 48.2196 49.4584C48.1822 49.582 48.1222 49.6843 48.0395 49.7655C48.2518 49.7056 48.4891 49.7377 48.7514 49.8617L49.5013 50.2239C49.5527 50.2502 49.5888 50.2781 49.6096 50.3076Z"/>
<path d="M50.1681 49.8999L48.8214 47.7861C48.7965 47.747 48.7885 47.7073 48.7975 47.667C48.8069 47.6243 48.8305 47.5909 48.8681 47.5669L49.3222 47.2777C49.3613 47.2528 49.4015 47.2455 49.4427 47.2559C49.4844 47.2639 49.5178 47.2875 49.5427 47.3266L50.452 48.7539L50.3213 46.8611C50.3158 46.8015 50.3278 46.7419 50.3571 46.6825C50.3855 46.6216 50.4222 46.5769 50.4671 46.5483L51.0754 46.1608C51.1145 46.1359 51.1547 46.1286 51.1959 46.139C51.2377 46.147 51.271 46.1705 51.2959 46.2097L52.6426 48.3235C52.6675 48.3626 52.6748 48.4028 52.6644 48.444C52.6554 48.4843 52.6314 48.5169 52.5923 48.5418L52.1383 48.8311C52.0991 48.856 52.0594 48.864 52.0191 48.8551C51.9779 48.8447 51.9453 48.8207 51.9213 48.783L51.0134 47.3578L51.1414 49.2463C51.1449 49.3031 51.133 49.3626 51.1055 49.4249C51.0771 49.4858 51.0404 49.5305 50.9955 49.5591L50.385 49.948C50.3459 49.9729 50.3062 49.9809 50.2659 49.972C50.2256 49.963 50.193 49.939 50.1681 49.8999Z"/>
<path d="M54.786 46.2861C54.7611 46.247 54.7531 46.2073 54.762 46.1669C54.7724 46.1257 54.7964 46.0931 54.8341 46.0691L55.16 45.8615C55.2584 45.7988 55.3666 45.7991 55.4844 45.8625C55.6027 45.9236 55.7408 45.9038 55.8986 45.8033L56.3396 45.5223C56.5497 45.3885 56.5998 45.2354 56.49 45.0631C56.3802 44.8907 56.2207 44.8722 56.0116 45.0074L55.4728 45.3506C55.4337 45.3756 55.3933 45.384 55.3516 45.376C55.3103 45.3656 55.2772 45.3409 55.2523 45.3018L55.1084 45.0758C55.0835 45.0367 55.0755 44.997 55.0844 44.9567C55.0939 44.914 55.1182 44.8802 55.1573 44.8553L55.6548 44.5384C55.7504 44.4775 55.8087 44.4108 55.8297 44.3383C55.8513 44.2635 55.8395 44.1906 55.7943 44.1197C55.749 44.0487 55.688 44.0072 55.611 43.9951C55.5356 43.9821 55.45 44.006 55.3545 44.0669L54.9547 44.3216C54.904 44.3539 54.8602 44.4001 54.8232 44.4604C54.7853 44.5191 54.7685 44.5807 54.7729 44.6451C54.7792 44.7796 54.7326 44.8775 54.6332 44.9388L54.3095 45.145C54.2704 45.1699 54.2299 45.1783 54.1882 45.1703C54.1479 45.1614 54.1153 45.1374 54.0904 45.0983C53.9658 44.9027 53.9601 44.6844 54.0732 44.4433C54.1878 44.2013 54.3798 43.9945 54.6492 43.8229L55.0859 43.5447C55.3915 43.35 55.6694 43.2524 55.9195 43.2519C56.1701 43.249 56.3683 43.362 56.5141 43.5908C56.6599 43.8197 56.6615 44.0507 56.519 44.2841C56.8522 44.251 57.1065 44.372 57.2818 44.6472C57.4349 44.8876 57.4611 45.1173 57.3604 45.3363C57.2601 45.5528 57.042 45.7682 56.706 45.9822L56.2215 46.2909C55.9304 46.4763 55.6499 46.5715 55.3802 46.5764C55.1105 46.5813 54.9124 46.4845 54.786 46.2861Z"/>
<path d="M58.3924 44.6269C58.1163 44.6154 57.9008 44.488 57.7458 44.2447C57.5908 44.0014 57.5673 43.7536 57.6755 43.5015C57.7851 43.2484 57.9912 43.0255 58.2939 42.8326L59.013 42.3745C58.9051 42.2051 58.7944 42.1096 58.681 42.0882C58.5676 42.0668 58.4218 42.1128 58.2436 42.2263C58.0669 42.3389 57.9705 42.4624 57.9544 42.5969C57.9388 42.729 57.8788 42.8283 57.7746 42.8947L57.4508 43.1009C57.4117 43.1259 57.3713 43.1343 57.3296 43.1263C57.2883 43.1159 57.2557 43.0919 57.2317 43.0542C56.9669 42.6386 57.2292 42.1793 58.0185 41.6764C58.3632 41.4568 58.6892 41.3581 58.9965 41.3802C59.3029 41.4008 59.5589 41.5727 59.7647 41.8956L60.6214 43.2404C60.6463 43.2795 60.6543 43.3192 60.6454 43.3595C60.6365 43.3998 60.6124 43.4325 60.5733 43.4574L60.154 43.7245C60.1149 43.7494 60.0752 43.7574 60.0349 43.7485C59.9937 43.7381 59.9611 43.714 59.9371 43.6764L59.8942 43.609C59.7696 43.9185 59.557 44.168 59.2562 44.3575C58.9579 44.5476 58.6699 44.6374 58.3924 44.6269ZM58.6602 43.2926C58.5588 43.3572 58.4942 43.433 58.4661 43.5201C58.4396 43.6062 58.4512 43.6884 58.501 43.7666C58.5509 43.8448 58.6223 43.8899 58.7155 43.9018C58.8086 43.9138 58.9109 43.8842 59.0224 43.8132C59.2455 43.6711 59.419 43.4689 59.5431 43.2066L59.3272 42.8677L58.6602 43.2926Z"/>
<path d="M63.2518 41.5647L61.9051 39.4508C61.8802 39.4117 61.8722 39.372 61.8812 39.3317C61.8906 39.289 61.9142 39.2557 61.9519 39.2317L63.5769 38.1964C63.6146 38.1724 63.654 38.1656 63.6952 38.176C63.737 38.184 63.7703 38.2076 63.7952 38.2467L63.9599 38.5052C63.9839 38.5429 63.9912 38.5831 63.9817 38.6257C63.9728 38.666 63.9495 38.6982 63.9118 38.7222L62.906 39.363L64.0035 41.0858C64.0275 41.1235 64.0348 41.1636 64.0253 41.2063C64.0164 41.2466 63.9931 41.2788 63.9554 41.3027L63.4688 41.6128C63.4311 41.6368 63.3914 41.6447 63.3496 41.6367C63.3084 41.6263 63.2758 41.6023 63.2518 41.5647Z"/>
<path d="M66.1881 40.7233L64.375 37.8773C64.3501 37.8382 64.3421 37.7985 64.3511 37.7582C64.3605 37.7155 64.3841 37.6822 64.4217 37.6582L64.841 37.3911C64.8787 37.3671 64.9181 37.3603 64.9594 37.3707C65.0011 37.3787 65.0345 37.4023 65.0594 37.4414L65.1009 37.5065C65.2264 37.1985 65.4405 36.9481 65.7432 36.7553C66.0459 36.5624 66.3669 36.5086 66.7062 36.5938C67.0446 36.6775 67.3407 36.9185 67.5944 37.3168C67.8473 37.7136 67.936 38.0847 67.8607 38.4299C67.7854 38.7752 67.5696 39.0613 67.2133 39.2883C67.0294 39.4055 66.7966 39.5019 66.5149 39.5775L66.9398 40.2444C66.9647 40.2835 66.972 40.3237 66.9616 40.3649C66.9536 40.4067 66.9308 40.4396 66.8931 40.4636L66.4064 40.7736C66.3688 40.7976 66.3286 40.8048 66.2859 40.7954C66.2456 40.7864 66.213 40.7624 66.1881 40.7233ZM66.1952 39.0756C66.4199 39.016 66.5959 38.9456 66.7234 38.8644C66.9218 38.738 67.0263 38.592 67.0369 38.4264C67.0489 38.2599 66.976 38.0528 66.8183 37.8052C66.6605 37.5575 66.5062 37.4033 66.3555 37.3425C66.2054 37.2794 66.0513 37.2981 65.8935 37.3987C65.737 37.4983 65.5968 37.6793 65.4727 37.9416L66.1952 39.0756Z"/>
<path d="M69.5822 38.0357L69.8904 37.8913C70.0946 37.7612 70.1417 37.5204 70.0319 37.169C69.7856 37.3258 69.5329 37.383 69.2737 37.3404C69.0135 37.2964 68.7032 37.1225 68.3427 36.8187L67.3505 35.9756C67.3388 35.9668 67.3283 35.9552 67.3191 35.9407C67.3089 35.9247 67.3056 35.9004 67.3092 35.8676C67.3142 35.8339 67.3343 35.8047 67.3696 35.7802L67.8236 35.491C67.8656 35.4642 67.9147 35.4533 67.9708 35.4583C68.0274 35.4609 68.0749 35.4795 68.1133 35.5141L68.9847 36.254C69.1996 36.4347 69.371 36.5454 69.4987 36.5862C69.628 36.6261 69.7425 36.6141 69.8425 36.5505L69.306 34.7543C69.2908 34.7049 69.2911 34.6558 69.3069 34.6071C69.3232 34.556 69.3523 34.5171 69.3944 34.4903L69.8527 34.1983C69.889 34.1752 69.9231 34.1697 69.9553 34.1818C69.9874 34.1939 70.0086 34.2079 70.0187 34.2239C70.0279 34.2384 70.0343 34.2516 70.0379 34.2636L70.7614 36.6553C70.8888 37.0791 70.9262 37.4157 70.8733 37.6652C70.822 37.9138 70.6782 38.1132 70.4422 38.2636C70.2061 38.414 70.0333 38.5119 69.9237 38.5573C69.8156 38.6017 69.7409 38.6188 69.6997 38.6084C69.6594 38.5994 69.6286 38.5783 69.6074 38.545L69.4551 38.306C69.4302 38.2669 69.4218 38.2265 69.4298 38.1847C69.4387 38.1444 69.4628 38.1118 69.5019 38.0869L69.5822 38.0357Z"/>
<path d="M71.4867 35.6466C71.4618 35.6074 71.4538 35.5677 71.4627 35.5274C71.4731 35.4862 71.4971 35.4536 71.5348 35.4296L71.8607 35.222C71.9591 35.1593 72.0673 35.1596 72.1851 35.223C72.3034 35.2841 72.4414 35.2643 72.5993 35.1637L73.0403 34.8828C73.2503 34.749 73.3004 34.5959 73.1907 34.4236C73.0808 34.2512 72.9214 34.2327 72.7123 34.3679L72.1735 34.7111C72.1344 34.736 72.094 34.7445 72.0522 34.7365C72.011 34.7261 71.9779 34.7014 71.953 34.6623L71.8091 34.4363C71.7842 34.3972 71.7762 34.3575 71.7851 34.3172C71.7946 34.2745 71.8189 34.2407 71.858 34.2158L72.3555 33.8989C72.4511 33.838 72.5094 33.7713 72.5304 33.6988C72.552 33.624 72.5402 33.5511 72.4949 33.4801C72.4497 33.4092 72.3887 33.3677 72.3117 33.3556C72.2363 33.3426 72.1507 33.3665 72.0551 33.4274L71.6554 33.6821C71.6047 33.7144 71.5609 33.7606 71.5239 33.8208C71.486 33.8796 71.4692 33.9412 71.4736 34.0056C71.4799 34.1401 71.4333 34.2379 71.3339 34.2992L71.0102 34.5055C70.9711 34.5304 70.9306 34.5388 70.8889 34.5308C70.8486 34.5219 70.816 34.4979 70.7911 34.4588C70.6665 34.2632 70.6608 34.0449 70.7739 33.8038C70.8885 33.5618 71.0805 33.355 71.3499 33.1834L71.7866 32.9052C72.0922 32.7105 72.37 32.6129 72.6202 32.6124C72.8708 32.6095 73.069 32.7225 73.2148 32.9513C73.3606 33.1801 73.3622 33.4112 73.2197 33.6446C73.5529 33.6115 73.8072 33.7325 73.9825 34.0077C74.1356 34.2481 74.1618 34.4778 74.0611 34.6968C73.9608 34.9133 73.7427 35.1287 73.4067 35.3427L72.9222 35.6514C72.6311 35.8368 72.3506 35.932 72.0809 35.9369C71.8112 35.9417 71.6131 35.845 71.4867 35.6466Z"/>
<path d="M75.0733 33.8412C74.7145 33.7765 74.4059 33.5415 74.1475 33.1359C73.8883 32.7289 73.8056 32.3499 73.8996 31.9989C73.9927 31.6464 74.2507 31.3354 74.6736 31.066C75.098 30.7956 75.4895 30.6928 75.8484 30.7574C76.2062 30.8206 76.5148 31.0556 76.7741 31.4626C77.0325 31.8681 77.1151 32.2472 77.022 32.5997C76.9289 32.9522 76.6702 33.2636 76.2459 33.5339C75.8229 33.8034 75.4321 33.9058 75.0733 33.8412ZM74.6762 32.005C74.6612 32.1795 74.7358 32.3957 74.9 32.6535C75.0642 32.9113 75.2291 33.071 75.3946 33.1325C75.56 33.1941 75.7391 33.1635 75.9317 33.0408C76.1258 32.9171 76.2299 32.7673 76.244 32.5914C76.2596 32.4145 76.1853 32.1971 76.021 31.9393C75.8568 31.6815 75.6917 31.523 75.5257 31.4638C75.3612 31.4037 75.1819 31.4355 74.9878 31.5591C74.7951 31.6819 74.6913 31.8305 74.6762 32.005Z"/>
<path d="M78.117 32.0945L76.7703 29.9807C76.7454 29.9416 76.7374 29.9018 76.7464 29.8615C76.7558 29.8189 76.7794 29.7855 76.817 29.7615L77.5644 29.2854C77.6498 29.231 77.7491 29.2431 77.8623 29.3216L79.2173 30.2787L78.9225 28.6462C78.8991 28.5104 78.9302 28.4153 79.0156 28.3609L79.763 27.8848C79.8021 27.8599 79.8422 27.8526 79.8835 27.863C79.9252 27.871 79.9586 27.8946 79.9835 27.9337L81.3301 30.0475C81.3551 30.0866 81.3623 30.1268 81.3519 30.168C81.343 30.2083 81.319 30.2409 81.2799 30.2658L80.8084 30.5662C80.7693 30.5911 80.7296 30.5991 80.6893 30.5901C80.6481 30.5798 80.6155 30.5557 80.5915 30.5181L79.7265 29.1603L80.0229 30.8528C80.0426 30.9828 80.0061 31.0774 79.9134 31.1364L79.7005 31.272C79.6092 31.3302 79.5089 31.3228 79.3994 31.2501L77.9906 30.2661L78.8557 31.6239C78.8806 31.663 78.8878 31.7032 78.8774 31.7444C78.8685 31.7847 78.8445 31.8174 78.8054 31.8423L78.3339 32.1426C78.2948 32.1675 78.2551 32.1755 78.2148 32.1666C78.1745 32.1576 78.1419 32.1336 78.117 32.0945Z"/>
<path fill-rule="evenodd" clip-rule="evenodd" d="M27.025 65.5762C28.5984 65.5762 30.0273 63.9598 30.0273 62.5321C30.0273 61.1045 28.7519 59.9471 27.1785 59.9471C25.6052 59.9471 24.3298 61.1045 24.3298 62.5321C24.3298 63.9598 25.4517 65.5762 27.025 65.5762ZM26.1728 60.9142C26.6965 60.5806 27.164 60.4782 27.5752 60.6072C27.9864 60.7362 28.3677 61.0764 28.7191 61.628C29.0689 62.1772 29.2154 62.6654 29.1585 63.0926C29.1002 63.5174 28.8091 63.8967 28.2854 64.2303C27.764 64.5625 27.2973 64.666 26.8852 64.5408C26.474 64.4118 26.0935 64.0727 25.7436 63.5235C25.3922 62.972 25.245 62.4827 25.3019 62.0555C25.3611 61.6268 25.6514 61.2464 26.1728 60.9142Z"/>
</mask>
<path d="M30.5747 63.2214C30.3663 63.9374 29.8032 64.5877 28.8855 65.1723C27.9702 65.7555 27.1428 65.991 26.4035 65.8788C25.6627 65.7643 25.0052 65.2564 24.4309 64.3549C23.8566 63.4535 23.6749 62.644 23.8857 61.9266C24.0965 61.2091 24.6595 60.5588 25.5749 59.9757C26.4926 59.3911 27.3199 59.1556 28.0569 59.2692C28.7962 59.3814 29.453 59.8882 30.0273 60.7896C30.6016 61.6911 30.7841 62.5017 30.5747 63.2214ZM27.5752 60.6072C27.164 60.4782 26.6965 60.5806 26.1728 60.9142C25.6514 61.2464 25.3611 61.6268 25.3019 62.0555C25.245 62.4827 25.3922 62.972 25.7436 63.5235C26.0935 64.0727 26.474 64.4118 26.8852 64.5408C27.2973 64.666 27.764 64.5625 28.2854 64.2303C28.8091 63.8967 29.1002 63.5174 29.1585 63.0926C29.2154 62.6654 29.0689 62.1772 28.7191 61.628C28.3677 61.0764 27.9864 60.7362 27.5752 60.6072Z" fill="#FEFEFE"/>
<path d="M31.6232 61.806C31.6082 61.7952 31.5942 61.7796 31.5813 61.7594C31.5674 61.7376 31.5638 61.7064 31.5704 61.6655L31.6884 60.1823L30.347 59.635C30.2619 59.6037 30.2249 59.5519 30.2359 59.4797C30.2404 59.4484 30.2585 59.4226 30.2904 59.4023L30.7618 59.1019C30.9023 59.0124 31.0559 59.0042 31.2225 59.0772L31.9319 59.3949L31.9438 58.6177C31.9481 58.4358 32.0204 58.3001 32.1609 58.2106L32.6324 57.9103C32.6642 57.89 32.6953 57.8844 32.7256 57.8936C32.7957 57.9141 32.8269 57.9696 32.8193 58.0599L32.7485 59.5069L34.1426 60.0268C34.1824 60.0381 34.2097 60.0554 34.2244 60.0785C34.2383 60.1003 34.246 60.1188 34.2476 60.134C34.2646 60.1863 34.2478 60.2286 34.1971 60.2609L33.7343 60.5557C33.6011 60.6406 33.4475 60.6488 33.2736 60.5804L32.4966 60.2813L32.4372 61.1133C32.4271 61.2989 32.3555 61.4341 32.2222 61.519L31.7595 61.8138C31.7088 61.8461 31.6634 61.8435 31.6232 61.806Z" fill="#FEFEFE"/>
<path d="M34.8898 59.4408C34.531 59.3762 34.2224 59.1411 33.9641 58.7356C33.7048 58.3286 33.6222 57.9496 33.7162 57.5985C33.8092 57.246 34.0672 56.9351 34.4902 56.6656C34.9145 56.3953 35.3061 56.2924 35.6649 56.3571C36.0228 56.4202 36.3314 56.6553 36.5907 57.0623C36.849 57.4678 36.9317 57.8468 36.8386 58.1993C36.7455 58.5518 36.4868 58.8633 36.0624 59.1336C35.6395 59.403 35.2486 59.5054 34.8898 59.4408ZM34.4928 57.6047C34.4777 57.7792 34.5523 57.9954 34.7166 58.2532C34.8808 58.511 35.0457 58.6706 35.2111 58.7322C35.3766 58.7938 35.5556 58.7632 35.7482 58.6405C35.9423 58.5168 36.0464 58.367 36.0606 58.191C36.0762 58.0141 36.0018 57.7968 35.8376 57.539C35.6733 57.2812 35.5082 57.1227 35.3422 57.0635C35.1777 57.0034 34.9984 57.0352 34.8043 57.1588C34.6117 57.2815 34.5079 57.4301 34.4928 57.6047Z" fill="#FEFEFE"/>
<path d="M36.4844 56.0091L36.3197 55.7506C36.2948 55.7115 36.2868 55.6718 36.2957 55.6314C36.3052 55.5888 36.3294 55.555 36.3686 55.5301L38.5085 54.1668C38.5476 54.1419 38.5877 54.1346 38.629 54.145C38.6693 54.1539 38.7019 54.1779 38.7268 54.217L38.8915 54.4756C38.9155 54.5132 38.9235 54.5529 38.9155 54.5947C38.9065 54.635 38.8825 54.6676 38.8434 54.6925L38.1504 55.134L39.2479 56.8568C39.2719 56.8945 39.2792 56.9347 39.2697 56.9773C39.2608 57.0176 39.2368 57.0503 39.1977 57.0752L38.7132 57.3838C38.6741 57.4087 38.6337 57.4172 38.5919 57.4092C38.5507 57.3988 38.5181 57.3748 38.4941 57.3371L37.3965 55.6143L36.7035 56.0558C36.6644 56.0807 36.624 56.0892 36.5822 56.0812C36.541 56.0708 36.5084 56.0467 36.4844 56.0091Z" fill="#FEFEFE"/>
<path d="M40.6555 55.9601L39.3088 53.8463C39.2839 53.8072 39.2759 53.7675 39.2848 53.7272C39.2943 53.6845 39.3178 53.6512 39.3555 53.6272L39.8421 53.3171C39.8812 53.2922 39.9214 53.285 39.9626 53.2953C40.0029 53.3043 40.0356 53.3283 40.0605 53.3674L40.556 54.1452L41.5075 53.539L41.012 52.7612C40.9871 52.7221 40.9791 52.6824 40.9881 52.6421C40.9975 52.5994 41.0218 52.5656 41.0609 52.5407L41.5454 52.2321C41.5845 52.2071 41.6247 52.1999 41.6659 52.2103C41.7062 52.2192 41.7388 52.2432 41.7637 52.2823L43.1104 54.3962C43.1353 54.4353 43.1433 54.475 43.1344 54.5153C43.1254 54.5556 43.1014 54.5882 43.0623 54.6131L42.5778 54.9218C42.5387 54.9467 42.4983 54.9551 42.4565 54.9471C42.4153 54.9367 42.3827 54.9127 42.3587 54.8751L41.8425 54.0647L40.8909 54.6709L41.4071 55.4813C41.4321 55.5204 41.4393 55.5605 41.4289 55.6018C41.42 55.6421 41.3967 55.6742 41.359 55.6982L40.8724 56.0082C40.8333 56.0332 40.7936 56.0411 40.7533 56.0322C40.713 56.0233 40.6804 55.9992 40.6555 55.9601Z" fill="#FEFEFE"/>
<path d="M43.9118 53.8856L42.5651 51.7718C42.5402 51.7327 42.5322 51.693 42.5411 51.6527C42.5506 51.61 42.5742 51.5766 42.6118 51.5527L43.0659 51.2634C43.105 51.2385 43.1452 51.2312 43.1864 51.2416C43.2281 51.2496 43.2615 51.2732 43.2864 51.3123L44.1957 52.7396L44.0649 50.8468C44.0595 50.7872 44.0715 50.7276 44.1008 50.6682C44.1292 50.6073 44.1659 50.5626 44.2108 50.534L44.8191 50.1465C44.8582 50.1216 44.8984 50.1143 44.9396 50.1247C44.9814 50.1327 45.0147 50.1562 45.0396 50.1954L46.3863 52.3092C46.4112 52.3483 46.4184 52.3885 46.4081 52.4297C46.3991 52.47 46.3751 52.5026 46.336 52.5275L45.882 52.8168C45.8428 52.8417 45.8031 52.8497 45.7628 52.8408C45.7216 52.8304 45.689 52.8064 45.665 52.7687L44.7571 51.3435L44.885 53.232C44.8886 53.2888 44.8767 53.3483 44.8492 53.4106C44.8208 53.4715 44.7841 53.5162 44.7392 53.5448L44.1287 53.9337C44.0896 53.9586 44.0499 53.9666 44.0096 53.9577C43.9693 53.9488 43.9367 53.9247 43.9118 53.8856Z" fill="#FEFEFE"/>
<path d="M49.6096 50.3076C49.6502 50.3713 49.6329 50.4272 49.5576 50.4752L49.147 50.7368C49.0079 50.8253 48.8538 50.8279 48.6845 50.7443L48.1221 50.4704C47.8806 50.3534 47.6469 50.3669 47.4209 50.5108L47.9372 51.3212C47.9621 51.3603 47.9694 51.4004 47.959 51.4417C47.95 51.482 47.9267 51.5141 47.8891 51.5381L47.4024 51.8481C47.3633 51.8731 47.3236 51.881 47.2833 51.8721C47.243 51.8632 47.2104 51.8392 47.1855 51.8L45.8388 49.6862C45.8139 49.6471 45.8059 49.6074 45.8149 49.5671C45.8243 49.5244 45.8479 49.4911 45.8855 49.4671L46.3722 49.157C46.4113 49.1321 46.4515 49.1249 46.4927 49.1353C46.533 49.1442 46.5656 49.1682 46.5905 49.2073L47.1054 50.0155C47.3574 49.8549 47.4675 49.6474 47.4356 49.3928L47.3618 48.8167C47.3511 48.736 47.362 48.6588 47.3945 48.5852C47.427 48.5115 47.4758 48.454 47.541 48.4124L47.9516 48.1508C48.024 48.1047 48.0782 48.1099 48.1142 48.1664C48.1345 48.1982 48.1487 48.2462 48.1569 48.3102L48.2531 49.0796C48.2681 49.2086 48.2569 49.3348 48.2196 49.4584C48.1822 49.582 48.1222 49.6843 48.0395 49.7655C48.2518 49.7056 48.4891 49.7377 48.7514 49.8617L49.5013 50.2239C49.5527 50.2502 49.5888 50.2781 49.6096 50.3076Z" fill="#FEFEFE"/>
<path d="M50.1681 49.8999L48.8214 47.7861C48.7965 47.747 48.7885 47.7073 48.7975 47.667C48.8069 47.6243 48.8305 47.5909 48.8681 47.5669L49.3222 47.2777C49.3613 47.2528 49.4015 47.2455 49.4427 47.2559C49.4844 47.2639 49.5178 47.2875 49.5427 47.3266L50.452 48.7539L50.3213 46.8611C50.3158 46.8015 50.3278 46.7419 50.3571 46.6825C50.3855 46.6216 50.4222 46.5769 50.4671 46.5483L51.0754 46.1608C51.1145 46.1359 51.1547 46.1286 51.1959 46.139C51.2377 46.147 51.271 46.1705 51.2959 46.2097L52.6426 48.3235C52.6675 48.3626 52.6748 48.4028 52.6644 48.444C52.6554 48.4843 52.6314 48.5169 52.5923 48.5418L52.1383 48.8311C52.0991 48.856 52.0594 48.864 52.0191 48.8551C51.9779 48.8447 51.9453 48.8207 51.9213 48.783L51.0134 47.3578L51.1414 49.2463C51.1449 49.3031 51.133 49.3626 51.1055 49.4249C51.0771 49.4858 51.0404 49.5305 50.9955 49.5591L50.385 49.948C50.3459 49.9729 50.3062 49.9809 50.2659 49.972C50.2256 49.963 50.193 49.939 50.1681 49.8999Z" fill="#FEFEFE"/>
<path d="M54.786 46.2861C54.7611 46.247 54.7531 46.2073 54.762 46.1669C54.7724 46.1257 54.7964 46.0931 54.8341 46.0691L55.16 45.8615C55.2584 45.7988 55.3666 45.7991 55.4844 45.8625C55.6027 45.9236 55.7408 45.9038 55.8986 45.8033L56.3396 45.5223C56.5497 45.3885 56.5998 45.2354 56.49 45.0631C56.3802 44.8907 56.2207 44.8722 56.0116 45.0074L55.4728 45.3506C55.4337 45.3756 55.3933 45.384 55.3516 45.376C55.3103 45.3656 55.2772 45.3409 55.2523 45.3018L55.1084 45.0758C55.0835 45.0367 55.0755 44.997 55.0844 44.9567C55.0939 44.914 55.1182 44.8802 55.1573 44.8553L55.6548 44.5384C55.7504 44.4775 55.8087 44.4108 55.8297 44.3383C55.8513 44.2635 55.8395 44.1906 55.7943 44.1197C55.749 44.0487 55.688 44.0072 55.611 43.9951C55.5356 43.9821 55.45 44.006 55.3545 44.0669L54.9547 44.3216C54.904 44.3539 54.8602 44.4001 54.8232 44.4604C54.7853 44.5191 54.7685 44.5807 54.7729 44.6451C54.7792 44.7796 54.7326 44.8775 54.6332 44.9388L54.3095 45.145C54.2704 45.1699 54.2299 45.1783 54.1882 45.1703C54.1479 45.1614 54.1153 45.1374 54.0904 45.0983C53.9658 44.9027 53.9601 44.6844 54.0732 44.4433C54.1878 44.2013 54.3798 43.9945 54.6492 43.8229L55.0859 43.5447C55.3915 43.35 55.6694 43.2524 55.9195 43.2519C56.1701 43.249 56.3683 43.362 56.5141 43.5908C56.6599 43.8197 56.6615 44.0507 56.519 44.2841C56.8522 44.251 57.1065 44.372 57.2818 44.6472C57.4349 44.8876 57.4611 45.1173 57.3604 45.3363C57.2601 45.5528 57.042 45.7682 56.706 45.9822L56.2215 46.2909C55.9304 46.4763 55.6499 46.5715 55.3802 46.5764C55.1105 46.5813 54.9124 46.4845 54.786 46.2861Z" fill="#FEFEFE"/>
<path d="M58.3924 44.6269C58.1163 44.6154 57.9008 44.488 57.7458 44.2447C57.5908 44.0014 57.5673 43.7536 57.6755 43.5015C57.7851 43.2484 57.9912 43.0255 58.2939 42.8326L59.013 42.3745C58.9051 42.2051 58.7944 42.1096 58.681 42.0882C58.5676 42.0668 58.4218 42.1128 58.2436 42.2263C58.0669 42.3389 57.9705 42.4624 57.9544 42.5969C57.9388 42.729 57.8788 42.8283 57.7746 42.8947L57.4508 43.1009C57.4117 43.1259 57.3713 43.1343 57.3296 43.1263C57.2883 43.1159 57.2557 43.0919 57.2317 43.0542C56.9669 42.6386 57.2292 42.1793 58.0185 41.6764C58.3632 41.4568 58.6892 41.3581 58.9965 41.3802C59.3029 41.4008 59.5589 41.5727 59.7647 41.8956L60.6214 43.2404C60.6463 43.2795 60.6543 43.3192 60.6454 43.3595C60.6365 43.3998 60.6124 43.4325 60.5733 43.4574L60.154 43.7245C60.1149 43.7494 60.0752 43.7574 60.0349 43.7485C59.9937 43.7381 59.9611 43.714 59.9371 43.6764L59.8942 43.609C59.7696 43.9185 59.557 44.168 59.2562 44.3575C58.9579 44.5476 58.6699 44.6374 58.3924 44.6269ZM58.6602 43.2926C58.5588 43.3572 58.4942 43.433 58.4661 43.5201C58.4396 43.6062 58.4512 43.6884 58.501 43.7666C58.5509 43.8448 58.6223 43.8899 58.7155 43.9018C58.8086 43.9138 58.9109 43.8842 59.0224 43.8132C59.2455 43.6711 59.419 43.4689 59.5431 43.2066L59.3272 42.8677L58.6602 43.2926Z" fill="#FEFEFE"/>
<path d="M63.2518 41.5647L61.9051 39.4508C61.8802 39.4117 61.8722 39.372 61.8812 39.3317C61.8906 39.289 61.9142 39.2557 61.9519 39.2317L63.5769 38.1964C63.6146 38.1724 63.654 38.1656 63.6952 38.176C63.737 38.184 63.7703 38.2076 63.7952 38.2467L63.9599 38.5052C63.9839 38.5429 63.9912 38.5831 63.9817 38.6257C63.9728 38.666 63.9495 38.6982 63.9118 38.7222L62.906 39.363L64.0035 41.0858C64.0275 41.1235 64.0348 41.1636 64.0253 41.2063C64.0164 41.2466 63.9931 41.2788 63.9554 41.3027L63.4688 41.6128C63.4311 41.6368 63.3914 41.6447 63.3496 41.6367C63.3084 41.6263 63.2758 41.6023 63.2518 41.5647Z" fill="#FEFEFE"/>
<path d="M66.1881 40.7233L64.375 37.8773C64.3501 37.8382 64.3421 37.7985 64.3511 37.7582C64.3605 37.7155 64.3841 37.6822 64.4217 37.6582L64.841 37.3911C64.8787 37.3671 64.9181 37.3603 64.9594 37.3707C65.0011 37.3787 65.0345 37.4023 65.0594 37.4414L65.1009 37.5065C65.2264 37.1985 65.4405 36.9481 65.7432 36.7553C66.0459 36.5624 66.3669 36.5086 66.7062 36.5938C67.0446 36.6775 67.3407 36.9185 67.5944 37.3168C67.8473 37.7136 67.936 38.0847 67.8607 38.4299C67.7854 38.7752 67.5696 39.0613 67.2133 39.2883C67.0294 39.4055 66.7966 39.5019 66.5149 39.5775L66.9398 40.2444C66.9647 40.2835 66.972 40.3237 66.9616 40.3649C66.9536 40.4067 66.9308 40.4396 66.8931 40.4636L66.4064 40.7736C66.3688 40.7976 66.3286 40.8048 66.2859 40.7954C66.2456 40.7864 66.213 40.7624 66.1881 40.7233ZM66.1952 39.0756C66.4199 39.016 66.5959 38.9456 66.7234 38.8644C66.9218 38.738 67.0263 38.592 67.0369 38.4264C67.0489 38.2599 66.976 38.0528 66.8183 37.8052C66.6605 37.5575 66.5062 37.4033 66.3555 37.3425C66.2054 37.2794 66.0513 37.2981 65.8935 37.3987C65.737 37.4983 65.5968 37.6793 65.4727 37.9416L66.1952 39.0756Z" fill="#FEFEFE"/>
<path d="M69.5822 38.0357L69.8904 37.8913C70.0946 37.7612 70.1417 37.5204 70.0319 37.169C69.7856 37.3258 69.5329 37.383 69.2737 37.3404C69.0135 37.2964 68.7032 37.1225 68.3427 36.8187L67.3505 35.9756C67.3388 35.9668 67.3283 35.9552 67.3191 35.9407C67.3089 35.9247 67.3056 35.9004 67.3092 35.8676C67.3142 35.8339 67.3343 35.8047 67.3696 35.7802L67.8236 35.491C67.8656 35.4642 67.9147 35.4533 67.9708 35.4583C68.0274 35.4609 68.0749 35.4795 68.1133 35.5141L68.9847 36.254C69.1996 36.4347 69.371 36.5454 69.4987 36.5862C69.628 36.6261 69.7425 36.6141 69.8425 36.5505L69.306 34.7543C69.2908 34.7049 69.2911 34.6558 69.3069 34.6071C69.3232 34.556 69.3523 34.5171 69.3944 34.4903L69.8527 34.1983C69.889 34.1752 69.9231 34.1697 69.9553 34.1818C69.9874 34.1939 70.0086 34.2079 70.0187 34.2239C70.0279 34.2384 70.0343 34.2516 70.0379 34.2636L70.7614 36.6553C70.8888 37.0791 70.9262 37.4157 70.8733 37.6652C70.822 37.9138 70.6782 38.1132 70.4422 38.2636C70.2061 38.414 70.0333 38.5119 69.9237 38.5573C69.8156 38.6017 69.7409 38.6188 69.6997 38.6084C69.6594 38.5994 69.6286 38.5783 69.6074 38.545L69.4551 38.306C69.4302 38.2669 69.4218 38.2265 69.4298 38.1847C69.4387 38.1444 69.4628 38.1118 69.5019 38.0869L69.5822 38.0357Z" fill="#FEFEFE"/>
<path d="M71.4867 35.6466C71.4618 35.6074 71.4538 35.5677 71.4627 35.5274C71.4731 35.4862 71.4971 35.4536 71.5348 35.4296L71.8607 35.222C71.9591 35.1593 72.0673 35.1596 72.1851 35.223C72.3034 35.2841 72.4414 35.2643 72.5993 35.1637L73.0403 34.8828C73.2503 34.749 73.3004 34.5959 73.1907 34.4236C73.0808 34.2512 72.9214 34.2327 72.7123 34.3679L72.1735 34.7111C72.1344 34.736 72.094 34.7445 72.0522 34.7365C72.011 34.7261 71.9779 34.7014 71.953 34.6623L71.8091 34.4363C71.7842 34.3972 71.7762 34.3575 71.7851 34.3172C71.7946 34.2745 71.8189 34.2407 71.858 34.2158L72.3555 33.8989C72.4511 33.838 72.5094 33.7713 72.5304 33.6988C72.552 33.624 72.5402 33.5511 72.4949 33.4801C72.4497 33.4092 72.3887 33.3677 72.3117 33.3556C72.2363 33.3426 72.1507 33.3665 72.0551 33.4274L71.6554 33.6821C71.6047 33.7144 71.5609 33.7606 71.5239 33.8208C71.486 33.8796 71.4692 33.9412 71.4736 34.0056C71.4799 34.1401 71.4333 34.2379 71.3339 34.2992L71.0102 34.5055C70.9711 34.5304 70.9306 34.5388 70.8889 34.5308C70.8486 34.5219 70.816 34.4979 70.7911 34.4588C70.6665 34.2632 70.6608 34.0449 70.7739 33.8038C70.8885 33.5618 71.0805 33.355 71.3499 33.1834L71.7866 32.9052C72.0922 32.7105 72.37 32.6129 72.6202 32.6124C72.8708 32.6095 73.069 32.7225 73.2148 32.9513C73.3606 33.1801 73.3622 33.4112 73.2197 33.6446C73.5529 33.6115 73.8072 33.7325 73.9825 34.0077C74.1356 34.2481 74.1618 34.4778 74.0611 34.6968C73.9608 34.9133 73.7427 35.1287 73.4067 35.3427L72.9222 35.6514C72.6311 35.8368 72.3506 35.932 72.0809 35.9369C71.8112 35.9417 71.6131 35.845 71.4867 35.6466Z" fill="#FEFEFE"/>
<path d="M75.0733 33.8412C74.7145 33.7765 74.4059 33.5415 74.1475 33.1359C73.8883 32.7289 73.8056 32.3499 73.8996 31.9989C73.9927 31.6464 74.2507 31.3354 74.6736 31.066C75.098 30.7956 75.4895 30.6928 75.8484 30.7574C76.2062 30.8206 76.5148 31.0556 76.7741 31.4626C77.0325 31.8681 77.1151 32.2472 77.022 32.5997C76.9289 32.9522 76.6702 33.2636 76.2459 33.5339C75.8229 33.8034 75.4321 33.9058 75.0733 33.8412ZM74.6762 32.005C74.6612 32.1795 74.7358 32.3957 74.9 32.6535C75.0642 32.9113 75.2291 33.071 75.3946 33.1325C75.56 33.1941 75.7391 33.1635 75.9317 33.0408C76.1258 32.9171 76.2299 32.7673 76.244 32.5914C76.2596 32.4145 76.1853 32.1971 76.021 31.9393C75.8568 31.6815 75.6917 31.523 75.5257 31.4638C75.3612 31.4037 75.1819 31.4355 74.9878 31.5591C74.7951 31.6819 74.6913 31.8305 74.6762 32.005Z" fill="#FEFEFE"/>
<path d="M78.117 32.0945L76.7703 29.9807C76.7454 29.9416 76.7374 29.9018 76.7464 29.8615C76.7558 29.8189 76.7794 29.7855 76.817 29.7615L77.5644 29.2854C77.6498 29.231 77.7491 29.2431 77.8623 29.3216L79.2173 30.2787L78.9225 28.6462C78.8991 28.5104 78.9302 28.4153 79.0156 28.3609L79.763 27.8848C79.8021 27.8599 79.8422 27.8526 79.8835 27.863C79.9252 27.871 79.9586 27.8946 79.9835 27.9337L81.3301 30.0475C81.3551 30.0866 81.3623 30.1268 81.3519 30.168C81.343 30.2083 81.319 30.2409 81.2799 30.2658L80.8084 30.5662C80.7693 30.5911 80.7296 30.5991 80.6893 30.5901C80.6481 30.5798 80.6155 30.5557 80.5915 30.5181L79.7265 29.1603L80.0229 30.8528C80.0426 30.9828 80.0061 31.0774 79.9134 31.1364L79.7005 31.272C79.6092 31.3302 79.5089 31.3228 79.3994 31.2501L77.9906 30.2661L78.8557 31.6239C78.8806 31.663 78.8878 31.7032 78.8774 31.7444C78.8685 31.7847 78.8445 31.8174 78.8054 31.8423L78.3339 32.1426C78.2948 32.1675 78.2551 32.1755 78.2148 32.1666C78.1745 32.1576 78.1419 32.1336 78.117 32.0945Z" fill="#FEFEFE"/>
<path fill-rule="evenodd" clip-rule="evenodd" d="M27.025 65.5762C28.5984 65.5762 30.0273 63.9598 30.0273 62.5321C30.0273 61.1045 28.7519 59.9471 27.1785 59.9471C25.6052 59.9471 24.3298 61.1045 24.3298 62.5321C24.3298 63.9598 25.4517 65.5762 27.025 65.5762ZM26.1728 60.9142C26.6965 60.5806 27.164 60.4782 27.5752 60.6072C27.9864 60.7362 28.3677 61.0764 28.7191 61.628C29.0689 62.1772 29.2154 62.6654 29.1585 63.0926C29.1002 63.5174 28.8091 63.8967 28.2854 64.2303C27.764 64.5625 27.2973 64.666 26.8852 64.5408C26.474 64.4118 26.0935 64.0727 25.7436 63.5235C25.3922 62.972 25.245 62.4827 25.3019 62.0555C25.3611 61.6268 25.6514 61.2464 26.1728 60.9142Z" fill="#FEFEFE"/>
<path d="M30.5747 63.2214C30.3663 63.9374 29.8032 64.5877 28.8855 65.1723C27.9702 65.7555 27.1428 65.991 26.4035 65.8788C25.6627 65.7643 25.0052 65.2564 24.4309 64.3549C23.8566 63.4535 23.6749 62.644 23.8857 61.9266C24.0965 61.2091 24.6595 60.5588 25.5749 59.9757C26.4926 59.3911 27.3199 59.1556 28.0569 59.2692C28.7962 59.3814 29.453 59.8882 30.0273 60.7896C30.6016 61.6911 30.7841 62.5017 30.5747 63.2214ZM27.5752 60.6072C27.164 60.4782 26.6965 60.5806 26.1728 60.9142C25.6514 61.2464 25.3611 61.6268 25.3019 62.0555C25.245 62.4827 25.3922 62.972 25.7436 63.5235C26.0935 64.0727 26.474 64.4118 26.8852 64.5408C27.2973 64.666 27.764 64.5625 28.2854 64.2303C28.8091 63.8967 29.1002 63.5174 29.1585 63.0926C29.2154 62.6654 29.0689 62.1772 28.7191 61.628C28.3677 61.0764 27.9864 60.7362 27.5752 60.6072Z" stroke="#161616" stroke-width="0.544742" mask="url(#path-21-outside-1_379_163)"/>
<path d="M31.6232 61.806C31.6082 61.7952 31.5942 61.7796 31.5813 61.7594C31.5674 61.7376 31.5638 61.7064 31.5704 61.6655L31.6884 60.1823L30.347 59.635C30.2619 59.6037 30.2249 59.5519 30.2359 59.4797C30.2404 59.4484 30.2585 59.4226 30.2904 59.4023L30.7618 59.1019C30.9023 59.0124 31.0559 59.0042 31.2225 59.0772L31.9319 59.3949L31.9438 58.6177C31.9481 58.4358 32.0204 58.3001 32.1609 58.2106L32.6324 57.9103C32.6642 57.89 32.6953 57.8844 32.7256 57.8936C32.7957 57.9141 32.8269 57.9696 32.8193 58.0599L32.7485 59.5069L34.1426 60.0268C34.1824 60.0381 34.2097 60.0554 34.2244 60.0785C34.2383 60.1003 34.246 60.1188 34.2476 60.134C34.2646 60.1863 34.2478 60.2286 34.1971 60.2609L33.7343 60.5557C33.6011 60.6406 33.4475 60.6488 33.2736 60.5804L32.4966 60.2813L32.4372 61.1133C32.4271 61.2989 32.3555 61.4341 32.2222 61.519L31.7595 61.8138C31.7088 61.8461 31.6634 61.8435 31.6232 61.806Z" stroke="#161616" stroke-width="0.544742" mask="url(#path-21-outside-1_379_163)"/>
<path d="M34.8898 59.4408C34.531 59.3762 34.2224 59.1411 33.9641 58.7356C33.7048 58.3286 33.6222 57.9496 33.7162 57.5985C33.8092 57.246 34.0672 56.9351 34.4902 56.6656C34.9145 56.3953 35.3061 56.2924 35.6649 56.3571C36.0228 56.4202 36.3314 56.6553 36.5907 57.0623C36.849 57.4678 36.9317 57.8468 36.8386 58.1993C36.7455 58.5518 36.4868 58.8633 36.0624 59.1336C35.6395 59.403 35.2486 59.5054 34.8898 59.4408ZM34.4928 57.6047C34.4777 57.7792 34.5523 57.9954 34.7166 58.2532C34.8808 58.511 35.0457 58.6706 35.2111 58.7322C35.3766 58.7938 35.5556 58.7632 35.7482 58.6405C35.9423 58.5168 36.0464 58.367 36.0606 58.191C36.0762 58.0141 36.0018 57.7968 35.8376 57.539C35.6733 57.2812 35.5082 57.1227 35.3422 57.0635C35.1777 57.0034 34.9984 57.0352 34.8043 57.1588C34.6117 57.2815 34.5079 57.4301 34.4928 57.6047Z" stroke="#161616" stroke-width="0.544742" mask="url(#path-21-outside-1_379_163)"/>
<path d="M36.4844 56.0091L36.3197 55.7506C36.2948 55.7115 36.2868 55.6718 36.2957 55.6314C36.3052 55.5888 36.3294 55.555 36.3686 55.5301L38.5085 54.1668C38.5476 54.1419 38.5877 54.1346 38.629 54.145C38.6693 54.1539 38.7019 54.1779 38.7268 54.217L38.8915 54.4756C38.9155 54.5132 38.9235 54.5529 38.9155 54.5947C38.9065 54.635 38.8825 54.6676 38.8434 54.6925L38.1504 55.134L39.2479 56.8568C39.2719 56.8945 39.2792 56.9347 39.2697 56.9773C39.2608 57.0176 39.2368 57.0503 39.1977 57.0752L38.7132 57.3838C38.6741 57.4087 38.6337 57.4172 38.5919 57.4092C38.5507 57.3988 38.5181 57.3748 38.4941 57.3371L37.3965 55.6143L36.7035 56.0558C36.6644 56.0807 36.624 56.0892 36.5822 56.0812C36.541 56.0708 36.5084 56.0467 36.4844 56.0091Z" stroke="#161616" stroke-width="0.544742" mask="url(#path-21-outside-1_379_163)"/>
<path d="M40.6555 55.9601L39.3088 53.8463C39.2839 53.8072 39.2759 53.7675 39.2848 53.7272C39.2943 53.6845 39.3178 53.6512 39.3555 53.6272L39.8421 53.3171C39.8812 53.2922 39.9214 53.285 39.9626 53.2953C40.0029 53.3043 40.0356 53.3283 40.0605 53.3674L40.556 54.1452L41.5075 53.539L41.012 52.7612C40.9871 52.7221 40.9791 52.6824 40.9881 52.6421C40.9975 52.5994 41.0218 52.5656 41.0609 52.5407L41.5454 52.2321C41.5845 52.2071 41.6247 52.1999 41.6659 52.2103C41.7062 52.2192 41.7388 52.2432 41.7637 52.2823L43.1104 54.3962C43.1353 54.4353 43.1433 54.475 43.1344 54.5153C43.1254 54.5556 43.1014 54.5882 43.0623 54.6131L42.5778 54.9218C42.5387 54.9467 42.4983 54.9551 42.4565 54.9471C42.4153 54.9367 42.3827 54.9127 42.3587 54.8751L41.8425 54.0647L40.8909 54.6709L41.4071 55.4813C41.4321 55.5204 41.4393 55.5605 41.4289 55.6018C41.42 55.6421 41.3967 55.6742 41.359 55.6982L40.8724 56.0082C40.8333 56.0332 40.7936 56.0411 40.7533 56.0322C40.713 56.0233 40.6804 55.9992 40.6555 55.9601Z" stroke="#161616" stroke-width="0.544742" mask="url(#path-21-outside-1_379_163)"/>
<path d="M43.9118 53.8856L42.5651 51.7718C42.5402 51.7327 42.5322 51.693 42.5411 51.6527C42.5506 51.61 42.5742 51.5766 42.6118 51.5527L43.0659 51.2634C43.105 51.2385 43.1452 51.2312 43.1864 51.2416C43.2281 51.2496 43.2615 51.2732 43.2864 51.3123L44.1957 52.7396L44.0649 50.8468C44.0595 50.7872 44.0715 50.7276 44.1008 50.6682C44.1292 50.6073 44.1659 50.5626 44.2108 50.534L44.8191 50.1465C44.8582 50.1216 44.8984 50.1143 44.9396 50.1247C44.9814 50.1327 45.0147 50.1562 45.0396 50.1954L46.3863 52.3092C46.4112 52.3483 46.4184 52.3885 46.4081 52.4297C46.3991 52.47 46.3751 52.5026 46.336 52.5275L45.882 52.8168C45.8428 52.8417 45.8031 52.8497 45.7628 52.8408C45.7216 52.8304 45.689 52.8064 45.665 52.7687L44.7571 51.3435L44.885 53.232C44.8886 53.2888 44.8767 53.3483 44.8492 53.4106C44.8208 53.4715 44.7841 53.5162 44.7392 53.5448L44.1287 53.9337C44.0896 53.9586 44.0499 53.9666 44.0096 53.9577C43.9693 53.9488 43.9367 53.9247 43.9118 53.8856Z" stroke="#161616" stroke-width="0.544742" mask="url(#path-21-outside-1_379_163)"/>
<path d="M49.6096 50.3076C49.6502 50.3713 49.6329 50.4272 49.5576 50.4752L49.147 50.7368C49.0079 50.8253 48.8538 50.8279 48.6845 50.7443L48.1221 50.4704C47.8806 50.3534 47.6469 50.3669 47.4209 50.5108L47.9372 51.3212C47.9621 51.3603 47.9694 51.4004 47.959 51.4417C47.95 51.482 47.9267 51.5141 47.8891 51.5381L47.4024 51.8481C47.3633 51.8731 47.3236 51.881 47.2833 51.8721C47.243 51.8632 47.2104 51.8392 47.1855 51.8L45.8388 49.6862C45.8139 49.6471 45.8059 49.6074 45.8149 49.5671C45.8243 49.5244 45.8479 49.4911 45.8855 49.4671L46.3722 49.157C46.4113 49.1321 46.4515 49.1249 46.4927 49.1353C46.533 49.1442 46.5656 49.1682 46.5905 49.2073L47.1054 50.0155C47.3574 49.8549 47.4675 49.6474 47.4356 49.3928L47.3618 48.8167C47.3511 48.736 47.362 48.6588 47.3945 48.5852C47.427 48.5115 47.4758 48.454 47.541 48.4124L47.9516 48.1508C48.024 48.1047 48.0782 48.1099 48.1142 48.1664C48.1345 48.1982 48.1487 48.2462 48.1569 48.3102L48.2531 49.0796C48.2681 49.2086 48.2569 49.3348 48.2196 49.4584C48.1822 49.582 48.1222 49.6843 48.0395 49.7655C48.2518 49.7056 48.4891 49.7377 48.7514 49.8617L49.5013 50.2239C49.5527 50.2502 49.5888 50.2781 49.6096 50.3076Z" stroke="#161616" stroke-width="0.544742" mask="url(#path-21-outside-1_379_163)"/>
<path d="M50.1681 49.8999L48.8214 47.7861C48.7965 47.747 48.7885 47.7073 48.7975 47.667C48.8069 47.6243 48.8305 47.5909 48.8681 47.5669L49.3222 47.2777C49.3613 47.2528 49.4015 47.2455 49.4427 47.2559C49.4844 47.2639 49.5178 47.2875 49.5427 47.3266L50.452 48.7539L50.3213 46.8611C50.3158 46.8015 50.3278 46.7419 50.3571 46.6825C50.3855 46.6216 50.4222 46.5769 50.4671 46.5483L51.0754 46.1608C51.1145 46.1359 51.1547 46.1286 51.1959 46.139C51.2377 46.147 51.271 46.1705 51.2959 46.2097L52.6426 48.3235C52.6675 48.3626 52.6748 48.4028 52.6644 48.444C52.6554 48.4843 52.6314 48.5169 52.5923 48.5418L52.1383 48.8311C52.0991 48.856 52.0594 48.864 52.0191 48.8551C51.9779 48.8447 51.9453 48.8207 51.9213 48.783L51.0134 47.3578L51.1414 49.2463C51.1449 49.3031 51.133 49.3626 51.1055 49.4249C51.0771 49.4858 51.0404 49.5305 50.9955 49.5591L50.385 49.948C50.3459 49.9729 50.3062 49.9809 50.2659 49.972C50.2256 49.963 50.193 49.939 50.1681 49.8999Z" stroke="#161616" stroke-width="0.544742" mask="url(#path-21-outside-1_379_163)"/>
<path d="M54.786 46.2861C54.7611 46.247 54.7531 46.2073 54.762 46.1669C54.7724 46.1257 54.7964 46.0931 54.8341 46.0691L55.16 45.8615C55.2584 45.7988 55.3666 45.7991 55.4844 45.8625C55.6027 45.9236 55.7408 45.9038 55.8986 45.8033L56.3396 45.5223C56.5497 45.3885 56.5998 45.2354 56.49 45.0631C56.3802 44.8907 56.2207 44.8722 56.0116 45.0074L55.4728 45.3506C55.4337 45.3756 55.3933 45.384 55.3516 45.376C55.3103 45.3656 55.2772 45.3409 55.2523 45.3018L55.1084 45.0758C55.0835 45.0367 55.0755 44.997 55.0844 44.9567C55.0939 44.914 55.1182 44.8802 55.1573 44.8553L55.6548 44.5384C55.7504 44.4775 55.8087 44.4108 55.8297 44.3383C55.8513 44.2635 55.8395 44.1906 55.7943 44.1197C55.749 44.0487 55.688 44.0072 55.611 43.9951C55.5356 43.9821 55.45 44.006 55.3545 44.0669L54.9547 44.3216C54.904 44.3539 54.8602 44.4001 54.8232 44.4604C54.7853 44.5191 54.7685 44.5807 54.7729 44.6451C54.7792 44.7796 54.7326 44.8775 54.6332 44.9388L54.3095 45.145C54.2704 45.1699 54.2299 45.1783 54.1882 45.1703C54.1479 45.1614 54.1153 45.1374 54.0904 45.0983C53.9658 44.9027 53.9601 44.6844 54.0732 44.4433C54.1878 44.2013 54.3798 43.9945 54.6492 43.8229L55.0859 43.5447C55.3915 43.35 55.6694 43.2524 55.9195 43.2519C56.1701 43.249 56.3683 43.362 56.5141 43.5908C56.6599 43.8197 56.6615 44.0507 56.519 44.2841C56.8522 44.251 57.1065 44.372 57.2818 44.6472C57.4349 44.8876 57.4611 45.1173 57.3604 45.3363C57.2601 45.5528 57.042 45.7682 56.706 45.9822L56.2215 46.2909C55.9304 46.4763 55.6499 46.5715 55.3802 46.5764C55.1105 46.5813 54.9124 46.4845 54.786 46.2861Z" stroke="#161616" stroke-width="0.544742" mask="url(#path-21-outside-1_379_163)"/>
<path d="M58.3924 44.6269C58.1163 44.6154 57.9008 44.488 57.7458 44.2447C57.5908 44.0014 57.5673 43.7536 57.6755 43.5015C57.7851 43.2484 57.9912 43.0255 58.2939 42.8326L59.013 42.3745C58.9051 42.2051 58.7944 42.1096 58.681 42.0882C58.5676 42.0668 58.4218 42.1128 58.2436 42.2263C58.0669 42.3389 57.9705 42.4624 57.9544 42.5969C57.9388 42.729 57.8788 42.8283 57.7746 42.8947L57.4508 43.1009C57.4117 43.1259 57.3713 43.1343 57.3296 43.1263C57.2883 43.1159 57.2557 43.0919 57.2317 43.0542C56.9669 42.6386 57.2292 42.1793 58.0185 41.6764C58.3632 41.4568 58.6892 41.3581 58.9965 41.3802C59.3029 41.4008 59.5589 41.5727 59.7647 41.8956L60.6214 43.2404C60.6463 43.2795 60.6543 43.3192 60.6454 43.3595C60.6365 43.3998 60.6124 43.4325 60.5733 43.4574L60.154 43.7245C60.1149 43.7494 60.0752 43.7574 60.0349 43.7485C59.9937 43.7381 59.9611 43.714 59.9371 43.6764L59.8942 43.609C59.7696 43.9185 59.557 44.168 59.2562 44.3575C58.9579 44.5476 58.6699 44.6374 58.3924 44.6269ZM58.6602 43.2926C58.5588 43.3572 58.4942 43.433 58.4661 43.5201C58.4396 43.6062 58.4512 43.6884 58.501 43.7666C58.5509 43.8448 58.6223 43.8899 58.7155 43.9018C58.8086 43.9138 58.9109 43.8842 59.0224 43.8132C59.2455 43.6711 59.419 43.4689 59.5431 43.2066L59.3272 42.8677L58.6602 43.2926Z" stroke="#161616" stroke-width="0.544742" mask="url(#path-21-outside-1_379_163)"/>
<path d="M63.2518 41.5647L61.9051 39.4508C61.8802 39.4117 61.8722 39.372 61.8812 39.3317C61.8906 39.289 61.9142 39.2557 61.9519 39.2317L63.5769 38.1964C63.6146 38.1724 63.654 38.1656 63.6952 38.176C63.737 38.184 63.7703 38.2076 63.7952 38.2467L63.9599 38.5052C63.9839 38.5429 63.9912 38.5831 63.9817 38.6257C63.9728 38.666 63.9495 38.6982 63.9118 38.7222L62.906 39.363L64.0035 41.0858C64.0275 41.1235 64.0348 41.1636 64.0253 41.2063C64.0164 41.2466 63.9931 41.2788 63.9554 41.3027L63.4688 41.6128C63.4311 41.6368 63.3914 41.6447 63.3496 41.6367C63.3084 41.6263 63.2758 41.6023 63.2518 41.5647Z" stroke="#161616" stroke-width="0.544742" mask="url(#path-21-outside-1_379_163)"/>
<path d="M66.1881 40.7233L64.375 37.8773C64.3501 37.8382 64.3421 37.7985 64.3511 37.7582C64.3605 37.7155 64.3841 37.6822 64.4217 37.6582L64.841 37.3911C64.8787 37.3671 64.9181 37.3603 64.9594 37.3707C65.0011 37.3787 65.0345 37.4023 65.0594 37.4414L65.1009 37.5065C65.2264 37.1985 65.4405 36.9481 65.7432 36.7553C66.0459 36.5624 66.3669 36.5086 66.7062 36.5938C67.0446 36.6775 67.3407 36.9185 67.5944 37.3168C67.8473 37.7136 67.936 38.0847 67.8607 38.4299C67.7854 38.7752 67.5696 39.0613 67.2133 39.2883C67.0294 39.4055 66.7966 39.5019 66.5149 39.5775L66.9398 40.2444C66.9647 40.2835 66.972 40.3237 66.9616 40.3649C66.9536 40.4067 66.9308 40.4396 66.8931 40.4636L66.4064 40.7736C66.3688 40.7976 66.3286 40.8048 66.2859 40.7954C66.2456 40.7864 66.213 40.7624 66.1881 40.7233ZM66.1952 39.0756C66.4199 39.016 66.5959 38.9456 66.7234 38.8644C66.9218 38.738 67.0263 38.592 67.0369 38.4264C67.0489 38.2599 66.976 38.0528 66.8183 37.8052C66.6605 37.5575 66.5062 37.4033 66.3555 37.3425C66.2054 37.2794 66.0513 37.2981 65.8935 37.3987C65.737 37.4983 65.5968 37.6793 65.4727 37.9416L66.1952 39.0756Z" stroke="#161616" stroke-width="0.544742" mask="url(#path-21-outside-1_379_163)"/>
<path d="M69.5822 38.0357L69.8904 37.8913C70.0946 37.7612 70.1417 37.5204 70.0319 37.169C69.7856 37.3258 69.5329 37.383 69.2737 37.3404C69.0135 37.2964 68.7032 37.1225 68.3427 36.8187L67.3505 35.9756C67.3388 35.9668 67.3283 35.9552 67.3191 35.9407C67.3089 35.9247 67.3056 35.9004 67.3092 35.8676C67.3142 35.8339 67.3343 35.8047 67.3696 35.7802L67.8236 35.491C67.8656 35.4642 67.9147 35.4533 67.9708 35.4583C68.0274 35.4609 68.0749 35.4795 68.1133 35.5141L68.9847 36.254C69.1996 36.4347 69.371 36.5454 69.4987 36.5862C69.628 36.6261 69.7425 36.6141 69.8425 36.5505L69.306 34.7543C69.2908 34.7049 69.2911 34.6558 69.3069 34.6071C69.3232 34.556 69.3523 34.5171 69.3944 34.4903L69.8527 34.1983C69.889 34.1752 69.9231 34.1697 69.9553 34.1818C69.9874 34.1939 70.0086 34.2079 70.0187 34.2239C70.0279 34.2384 70.0343 34.2516 70.0379 34.2636L70.7614 36.6553C70.8888 37.0791 70.9262 37.4157 70.8733 37.6652C70.822 37.9138 70.6782 38.1132 70.4422 38.2636C70.2061 38.414 70.0333 38.5119 69.9237 38.5573C69.8156 38.6017 69.7409 38.6188 69.6997 38.6084C69.6594 38.5994 69.6286 38.5783 69.6074 38.545L69.4551 38.306C69.4302 38.2669 69.4218 38.2265 69.4298 38.1847C69.4387 38.1444 69.4628 38.1118 69.5019 38.0869L69.5822 38.0357Z" stroke="#161616" stroke-width="0.544742" mask="url(#path-21-outside-1_379_163)"/>
<path d="M71.4867 35.6466C71.4618 35.6074 71.4538 35.5677 71.4627 35.5274C71.4731 35.4862 71.4971 35.4536 71.5348 35.4296L71.8607 35.222C71.9591 35.1593 72.0673 35.1596 72.1851 35.223C72.3034 35.2841 72.4414 35.2643 72.5993 35.1637L73.0403 34.8828C73.2503 34.749 73.3004 34.5959 73.1907 34.4236C73.0808 34.2512 72.9214 34.2327 72.7123 34.3679L72.1735 34.7111C72.1344 34.736 72.094 34.7445 72.0522 34.7365C72.011 34.7261 71.9779 34.7014 71.953 34.6623L71.8091 34.4363C71.7842 34.3972 71.7762 34.3575 71.7851 34.3172C71.7946 34.2745 71.8189 34.2407 71.858 34.2158L72.3555 33.8989C72.4511 33.838 72.5094 33.7713 72.5304 33.6988C72.552 33.624 72.5402 33.5511 72.4949 33.4801C72.4497 33.4092 72.3887 33.3677 72.3117 33.3556C72.2363 33.3426 72.1507 33.3665 72.0551 33.4274L71.6554 33.6821C71.6047 33.7144 71.5609 33.7606 71.5239 33.8208C71.486 33.8796 71.4692 33.9412 71.4736 34.0056C71.4799 34.1401 71.4333 34.2379 71.3339 34.2992L71.0102 34.5055C70.9711 34.5304 70.9306 34.5388 70.8889 34.5308C70.8486 34.5219 70.816 34.4979 70.7911 34.4588C70.6665 34.2632 70.6608 34.0449 70.7739 33.8038C70.8885 33.5618 71.0805 33.355 71.3499 33.1834L71.7866 32.9052C72.0922 32.7105 72.37 32.6129 72.6202 32.6124C72.8708 32.6095 73.069 32.7225 73.2148 32.9513C73.3606 33.1801 73.3622 33.4112 73.2197 33.6446C73.5529 33.6115 73.8072 33.7325 73.9825 34.0077C74.1356 34.2481 74.1618 34.4778 74.0611 34.6968C73.9608 34.9133 73.7427 35.1287 73.4067 35.3427L72.9222 35.6514C72.6311 35.8368 72.3506 35.932 72.0809 35.9369C71.8112 35.9417 71.6131 35.845 71.4867 35.6466Z" stroke="#161616" stroke-width="0.544742" mask="url(#path-21-outside-1_379_163)"/>
<path d="M75.0733 33.8412C74.7145 33.7765 74.4059 33.5415 74.1475 33.1359C73.8883 32.7289 73.8056 32.3499 73.8996 31.9989C73.9927 31.6464 74.2507 31.3354 74.6736 31.066C75.098 30.7956 75.4895 30.6928 75.8484 30.7574C76.2062 30.8206 76.5148 31.0556 76.7741 31.4626C77.0325 31.8681 77.1151 32.2472 77.022 32.5997C76.9289 32.9522 76.6702 33.2636 76.2459 33.5339C75.8229 33.8034 75.4321 33.9058 75.0733 33.8412ZM74.6762 32.005C74.6612 32.1795 74.7358 32.3957 74.9 32.6535C75.0642 32.9113 75.2291 33.071 75.3946 33.1325C75.56 33.1941 75.7391 33.1635 75.9317 33.0408C76.1258 32.9171 76.2299 32.7673 76.244 32.5914C76.2596 32.4145 76.1853 32.1971 76.021 31.9393C75.8568 31.6815 75.6917 31.523 75.5257 31.4638C75.3612 31.4037 75.1819 31.4355 74.9878 31.5591C74.7951 31.6819 74.6913 31.8305 74.6762 32.005Z" stroke="#161616" stroke-width="0.544742" mask="url(#path-21-outside-1_379_163)"/>
<path d="M78.117 32.0945L76.7703 29.9807C76.7454 29.9416 76.7374 29.9018 76.7464 29.8615C76.7558 29.8189 76.7794 29.7855 76.817 29.7615L77.5644 29.2854C77.6498 29.231 77.7491 29.2431 77.8623 29.3216L79.2173 30.2787L78.9225 28.6462C78.8991 28.5104 78.9302 28.4153 79.0156 28.3609L79.763 27.8848C79.8021 27.8599 79.8422 27.8526 79.8835 27.863C79.9252 27.871 79.9586 27.8946 79.9835 27.9337L81.3301 30.0475C81.3551 30.0866 81.3623 30.1268 81.3519 30.168C81.343 30.2083 81.319 30.2409 81.2799 30.2658L80.8084 30.5662C80.7693 30.5911 80.7296 30.5991 80.6893 30.5901C80.6481 30.5798 80.6155 30.5557 80.5915 30.5181L79.7265 29.1603L80.0229 30.8528C80.0426 30.9828 80.0061 31.0774 79.9134 31.1364L79.7005 31.272C79.6092 31.3302 79.5089 31.3228 79.3994 31.2501L77.9906 30.2661L78.8557 31.6239C78.8806 31.663 78.8878 31.7032 78.8774 31.7444C78.8685 31.7847 78.8445 31.8174 78.8054 31.8423L78.3339 32.1426C78.2948 32.1675 78.2551 32.1755 78.2148 32.1666C78.1745 32.1576 78.1419 32.1336 78.117 32.0945Z" stroke="#161616" stroke-width="0.544742" mask="url(#path-21-outside-1_379_163)"/>
<path fill-rule="evenodd" clip-rule="evenodd" d="M27.025 65.5762C28.5984 65.5762 30.0273 63.9598 30.0273 62.5321C30.0273 61.1045 28.7519 59.9471 27.1785 59.9471C25.6052 59.9471 24.3298 61.1045 24.3298 62.5321C24.3298 63.9598 25.4517 65.5762 27.025 65.5762ZM26.1728 60.9142C26.6965 60.5806 27.164 60.4782 27.5752 60.6072C27.9864 60.7362 28.3677 61.0764 28.7191 61.628C29.0689 62.1772 29.2154 62.6654 29.1585 63.0926C29.1002 63.5174 28.8091 63.8967 28.2854 64.2303C27.764 64.5625 27.2973 64.666 26.8852 64.5408C26.474 64.4118 26.0935 64.0727 25.7436 63.5235C25.3922 62.972 25.245 62.4827 25.3019 62.0555C25.3611 61.6268 25.6514 61.2464 26.1728 60.9142Z" stroke="#161616" stroke-width="0.544742" mask="url(#path-21-outside-1_379_163)"/>
<defs>
<linearGradient id="paint0_linear_379_163" x1="13.3408" y1="47.4982" x2="95.0054" y2="47.4982" gradientUnits="userSpaceOnUse">
<stop stop-color="#FB3A42"/>
<stop offset="0.51616" stop-color="#B5040B"/>
<stop offset="0.994791" stop-color="#830005"/>
</linearGradient>
<linearGradient id="paint1_linear_379_163" x1="12.3906" y1="27.5097" x2="35.8138" y2="27.5097" gradientUnits="userSpaceOnUse">
<stop stop-color="#FB3A42"/>
<stop offset="0.51616" stop-color="#B5040B"/>
<stop offset="0.994791" stop-color="#830005"/>
</linearGradient>
<linearGradient id="paint2_linear_379_163" x1="28.4998" y1="66" x2="86.9998" y2="28.5" gradientUnits="userSpaceOnUse">
<stop stop-color="#E0262D"/>
<stop offset="0.51616" stop-color="#B5040B"/>
<stop offset="0.994791" stop-color="#9C0209"/>
</linearGradient>
</defs>
</svg>
