<svg width="162" height="160" viewBox="0 0 162 160" fill="none" xmlns="http://www.w3.org/2000/svg">
<path d="M129.948 70.0695L71.5451 107.055L72.8353 107.485L74.1255 108.517L72.5772 111.184L70.4269 114.28L65.3521 117.807L64.75 118.839V119.527L71.5451 123.312L78.3401 125.376L85.5652 127.096L99.8435 125.892L111.369 121.247L116.96 116.689L125.217 107.141L129.948 97.2497L130.722 92.777V90.9707L135.281 89.9385L137.603 89.0784L139.41 89.5085L141.99 90.9707L146.205 93.8091L149.215 95.0993H151.365L152.14 94.2392V92.777L151.107 90.9707L148.871 89.0784L146.979 87.3581L147.237 86.24L149.473 85.5519L153 85.9819L157.386 86.24L160.225 85.5519L161.085 84.0036L160.225 82.5414L157.816 81.2512L151.365 79.703L147.667 78.7568L145.689 78.2407V77.4666L146.635 75.4023L148.097 73.51L151.365 70.4135L154.806 67.231V65.3387L153.86 64.3926L150.935 64.7366L146.635 66.5429L140.442 69.8114L135.281 71.6177H132.873H130.808L130.206 71.1876L129.948 70.0695Z" fill="#FEFEFE"/>
<path d="M103.972 18.0308L97.9515 17.4287L96.7473 18.8909L92.6187 20.5252L89.4362 21.6434L88.9201 24.2238V30.4167L89.4362 35.7496C90.1817 37.2405 92.0682 40.5147 93.3068 41.6845C106.553 44.0929 110.682 46.9313 118.767 53.7263C125.007 58.9705 131.067 79.9604 130.379 92.2603C129.69 104.56 114.896 125.634 91.3285 126.322C78.779 126.688 64.4923 119.383 59.6756 114.796L49.1819 97.0771L48.4078 90.4541L39.4624 93.0345L30.9471 96.647L24.066 95.0988L23.3779 98.5393L25.9583 106.195L29.0548 114.796L33.2695 121.333L40.2366 130.364L46.5155 136.385L52.7085 140.6L59.6756 144.212L66.2986 147.395L77.3943 149.803L85.6516 150.921H95.1991L103.972 149.803L115.928 145.417L125.734 140.6L134.163 134.063L140.7 127.096L146.033 120.387L149.302 112.99L152.914 105.248L155.236 96.819L155.58 90.024L156.527 87.1855V81.2506L154.29 78.8423L155.58 77.036V74.3696L155.236 68.4346L152.828 63.3598L150.162 57.0809L147.581 51.232L144.743 46.7593L142.506 43.6628L138.98 38.846L134.335 34.1153L125.992 28.3524L119.369 24.2238L113.52 21.6434L108.101 19.7511L103.972 18.0308Z" fill="url(#paint0_linear_320_195440)"/>
<path d="M23.7233 68.3481L21.8311 77.1214L25.2716 79.1857L30.1744 81.164L31.8086 79.7878L36.8834 75.0571L42.9043 68.8641L47.6351 62.4991L51.0756 59.8327L49.6134 56.9083L47.6351 53.2097V50.2852V48.0489L52.5378 39.0175L58.5588 30.9322L60.021 24.5672L59.5049 23.6211L55.5483 25.8574L49.7854 29.556L42.9043 35.4049L38.0016 40.1357L33.0988 46.6727L29.1422 53.8118L25.2716 62.4991L23.7233 68.3481Z" fill="url(#paint1_linear_320_195440)"/>
<path d="M71.6305 107.056C70.8736 106.781 63.4306 111.988 60.0187 114.54L59.8467 115.056C61.2229 116.403 64.5258 118.875 64.6634 118.324C64.8355 117.636 68.62 114.798 68.9641 114.54C69.3082 114.282 71.2004 113.163 71.7165 112.819C72.2326 112.475 73.8669 108.777 73.9529 108.605C74.0389 108.433 72.5767 107.4 71.6305 107.056Z" fill="#161616"/>
<path d="M49.1791 97.165C49.2479 97.0962 48.1756 93.2371 47.6309 91.3161C49.0759 89.5959 53.3364 88.5924 55.2861 88.3057C55.8595 89.6245 56.9891 92.3311 56.9203 92.6063C56.8343 92.9504 49.0931 97.2511 49.1791 97.165Z" fill="#161616"/>
<path d="M118.59 53.6416C109.369 44.0769 97.8891 41.7431 93.3018 41.7717C96.3122 45.8144 96.1402 48.9108 96.0542 49.3409C100.699 48.8248 103.722 48.7983 108.268 50.2871C112.311 51.6108 115.665 53.8996 116.697 54.9318C116.984 54.7598 117.764 54.2609 118.59 53.6416Z" fill="#161616" stroke="#161616" stroke-width="0.148028"/>
<path fill-rule="evenodd" clip-rule="evenodd" d="M57.2146 23.4093C60.7258 21.342 86.767 15.2351 102.683 16.8736C104.316 17.0417 105.972 17.3765 106.586 18.4205C106.804 18.4205 106.989 18.414 107.161 18.4079C107.873 18.3828 108.364 18.3656 110.027 18.8505C111.678 19.3322 114.442 20.3701 115.618 20.8289C116.248 21.0009 117.51 21.5858 117.51 22.5491C118.37 22.4631 127.143 25.4736 127.746 28.5701C129.294 28.6561 137.293 33.8169 137.035 36.2252C137.981 36.3113 143.83 40.698 144.69 45.0846C145.808 45.8588 150.539 51.6217 150.453 55.1482C151.141 55.8363 153.169 58.4138 153.341 61.4243C154.46 62.7976 155.836 65.8109 155.199 68.2193C156.782 69.1655 157.728 76.6515 156.732 78.0277C157.986 79.2319 158.502 87.3143 157.162 89.2955C157.027 89.4306 156.943 90.4573 156.827 91.8713C156.574 94.9578 156.169 99.8897 154.754 101.423C154.84 102.025 153.119 112.003 150.625 112.433C150.625 113.379 147.185 122.669 144.69 122.841C144.518 124.045 140.217 131.442 137.121 131.7C136.691 133.076 130.67 139.527 127.918 139.527C127.401 140.732 120.606 145.548 117.768 145.462C117.08 146.408 109.339 150.537 106.758 149.419C105.898 150.107 98.1569 152.601 95.1464 151.569C94.1143 152.171 85.2549 153.117 83.2766 151.569C82.1584 151.999 74.0732 151.741 71.4928 149.419C70.0305 149.591 61.9453 147.957 60.4831 145.376C59.3649 145.376 51.7097 142.71 50.4195 139.613C49.2153 139.355 41.4741 134.625 41.2161 131.786C39.9259 131.442 34.077 125.937 33.7329 122.927C32.6147 122.325 27.3679 116.132 27.798 112.519C26.7658 112.089 22.7232 103.746 23.4113 101.423C19.9346 93.7653 20.8704 93.3373 21.691 73.641C21.7771 71.5767 22.2071 67.4481 23.6694 66.4159C23.3253 65.2977 24.6155 57.5566 27.712 55.3202C27.712 53.772 31.1525 45.3427 33.6469 45.1707C33.7329 43.7944 37.9476 37.1714 41.1301 36.1392C41.3881 35.1931 47.4091 28.312 50.4195 28.5701C50.5916 27.6239 55.0281 24.6965 57.2146 23.4093ZM62.5113 22.8903L60.2749 24.1805C57.4365 25.1266 53.602 28.2948 52.9139 28.5701C52.2258 28.8453 52.9712 30.3477 53.43 31.0644L51.3657 32.4407C51.165 32.2113 50.6088 31.5805 49.9895 30.8924C49.4257 30.266 46.809 32.7874 45.0631 34.4697C44.4117 35.0973 43.8816 35.6082 43.6245 35.7952C42.8676 36.3457 44.2839 37.4008 45.0867 37.8595L42.8503 39.7518C42.5063 39.3791 41.6806 38.5992 41.1301 38.4616C40.5739 38.3225 38.2193 41.5554 36.8828 43.3904C36.5659 43.8256 36.3062 44.1822 36.1413 44.3965C35.4532 45.2911 36.7721 46.0308 37.5175 46.2888L35.7112 48.4392C35.3672 48.1811 34.5586 47.6306 34.077 47.493C33.6198 47.3624 32.2206 50.1077 31.1592 52.1901C30.8227 52.8503 30.5202 53.4439 30.2924 53.858C29.5355 55.2342 30.8945 55.693 31.6686 55.7503L30.4644 58.1587C30.1204 57.9866 29.243 57.6254 28.4861 57.5566C27.8111 57.4952 26.8297 60.8921 26.1665 63.1878C25.9 64.11 25.6849 64.8545 25.5616 65.1257C25.2176 65.8826 26.8518 66.1865 27.712 66.2439L27.0239 68.8243C26.5365 68.6809 25.424 68.377 24.8735 68.3082C24.3533 68.2432 23.9314 71.7675 23.6449 74.1599C23.5525 74.9317 23.4743 75.5858 23.4113 75.9634C23.2049 77.202 24.7589 77.1676 25.5616 76.9956L24.4435 97.2087C24.5295 97.8681 24.7703 99.2386 25.0456 99.4451C25.3208 99.6515 26.5365 99.3591 27.1099 99.187L27.626 101.853C27.2246 101.939 26.2842 102.197 25.7337 102.542C25.0456 102.972 28.2281 109.681 28.6581 110.111C29.0022 110.455 30.063 109.967 30.5504 109.681L31.8406 112.175C31.2959 112.376 30.1032 112.863 29.6903 113.207C29.2932 113.538 31.4929 116.771 32.8419 118.754C33.2463 119.348 33.5742 119.83 33.7329 120.088C34.2834 120.983 35.4532 120.002 35.9693 119.4L37.6895 121.723C37.5462 121.837 37.0358 122.187 36.1413 122.669C35.3422 123.099 37.7937 125.77 39.4777 127.604C40.1501 128.336 40.7002 128.936 40.872 129.206C41.3537 129.963 42.5063 128.89 43.0224 128.26L44.8287 130.152C44.3986 130.496 43.5213 131.304 43.4524 131.786C43.3834 132.27 47.2539 135.195 49.0476 136.55C49.4871 136.882 49.8019 137.12 49.9034 137.205C50.3163 137.549 51.165 136.374 51.5377 135.743L53.516 137.205C53.2006 137.549 52.5699 138.375 52.5699 138.925C52.5699 139.556 58.212 142.285 59.4134 142.866C59.5221 142.919 59.5944 142.954 59.6229 142.968C59.8982 143.105 60.5978 141.878 60.9131 141.248L63.2355 142.452C63.1208 142.825 62.8226 143.708 62.5474 144.258C62.2867 144.78 66.175 145.992 68.5604 146.737C69.3229 146.974 69.9317 147.164 70.2026 147.269C70.6842 147.75 71.2634 146.265 71.4928 145.462L73.6431 146.064C73.6144 146.609 73.5743 147.802 73.6431 148.215C73.7291 148.731 81.2123 149.419 81.9004 149.419C82.4509 149.419 82.2444 148.272 82.0724 147.699L84.8248 147.785C84.7962 148.301 84.7732 149.436 84.9109 149.849C85.0829 150.365 92.566 149.935 93.2542 149.849C93.8046 149.78 93.6555 148.387 93.5122 147.699H96.1786C96.1786 148.186 96.2302 149.264 96.4366 149.677C96.6264 150.057 100.586 149.133 102.94 148.584C103.787 148.386 104.426 148.237 104.608 148.215C105.158 148.146 104.665 146.695 104.35 145.978L106.93 145.29C106.959 145.835 107.154 146.993 107.704 147.269C108.392 147.613 115.36 144.688 115.618 144.086C115.824 143.604 115.188 142.796 114.844 142.452L117.338 141.42C117.481 141.649 117.871 142.28 118.284 142.968C118.8 143.828 125.509 139.355 125.681 138.925C125.819 138.581 125.108 137.578 124.735 137.119L126.971 135.571C127.287 136.058 128.038 137.05 128.52 137.119C129.122 137.205 134.283 132.216 134.627 131.7C134.902 131.287 133.938 130.381 133.422 129.98L135.315 128.174C135.716 128.518 136.639 129.223 137.121 129.292C137.723 129.378 141.852 123.701 142.11 123.099C142.316 122.617 141.221 121.923 140.648 121.637L142.282 119.4C142.683 119.773 143.606 120.536 144.088 120.604C144.69 120.69 148.303 113.551 148.475 113.035C148.612 112.622 147.271 112.232 146.582 112.089L147.615 109.681C148.073 109.853 149.146 110.18 149.765 110.111C150.539 110.025 152.431 102.972 152.517 102.37C152.586 101.888 151.227 101.767 150.539 101.767L151.313 99.187C151.801 99.3591 152.879 99.6515 153.292 99.4451C153.808 99.187 154.754 91.8759 154.582 91.2738C154.444 90.7921 153.32 90.7864 152.775 90.8437L152.947 88.2633C153.521 88.2346 154.737 88.1601 155.012 88.0913C155.286 88.0227 155.232 87.4067 155.199 87.0293C155.191 86.9336 155.184 86.8533 155.184 86.8011C155.184 86.5947 153.959 79.229 154.288 77.0787L152.775 77.2507L152.259 73.2941C152.775 73.2081 153.685 73.2769 154.029 73.2081C154.398 73.1343 154.33 73.6585 153.959 72.1227C153.897 71.8673 153.844 71.6501 153.808 71.4907C153.601 70.5962 152.689 66.4159 152.259 64.4376L151.915 63.4915C151.227 61.6278 149.782 57.8146 149.507 57.4706C149.232 57.1265 148.131 57.7859 147.615 58.1587L146.324 55.7503C146.869 55.4636 148.01 54.8214 148.217 54.5461C148.475 54.2021 144.346 47.579 143.916 47.407C143.572 47.2694 142.568 47.9804 142.11 48.3531L140.734 46.2888C141.135 45.9448 141.972 45.1879 142.11 44.9126C142.282 44.5686 137.551 38.8917 136.949 38.5476C136.467 38.2724 135.544 39.1784 135.143 39.6658L133.422 37.6875C133.738 37.4581 134.437 36.8617 134.713 36.3113C135.057 35.6232 128.434 31.0644 128.09 30.8924C127.814 30.7548 127.115 31.8672 126.799 32.4407L124.649 30.7204C124.85 30.4337 125.303 29.7226 125.509 29.1722C125.767 28.484 119.144 25.0435 118.542 24.8715C118.06 24.7339 117.653 26.0183 117.51 26.6778L114.844 25.4736C115.102 25.0148 115.618 23.977 115.618 23.4953C115.618 23.0122 111.354 21.8645 108.913 21.2076C108.312 21.0459 107.821 20.9138 107.532 20.8289C107.808 21.4482 107.016 22.2337 106.586 22.5491C105.697 22.3771 104.006 21.9986 104.35 21.861C104.78 21.689 104.436 20.0547 104.35 19.7107C104.281 19.4354 99.6765 18.7359 97.3828 18.4205L96.0926 19.7107V20.8289H95.2325L94.8884 20.0547L96.9527 18.4205C93.5621 16.6113 70.3023 22.1161 62.5113 22.8903Z" fill="#161616"/>
<path d="M49.0085 55.7047L54.3414 63.0159L52.019 60.6935L50.6428 60.5215L47.1162 63.0159L43.5037 68.5207L32.58 79.0144L30.0856 81.3367L26.387 79.7025L15.3773 74.3696L9.09831 71.6172L6.17386 71.1011L3.07738 72.4773L2.81934 74.1976L5.31372 75.4018L9.09831 77.2941L10.2165 78.5843L7.12001 80.6486L3.8515 83.401L3.07738 85.3793L5.65778 86.5835L9.61439 86.2395L11.9368 87.3577L10.2165 90.2821L8.15217 93.2066L8.84027 94.7548L12.1088 94.4108L14.0011 93.5506L14.8612 92.1744L15.8074 92.8625L22.4304 95.873L24.4087 96.5611L25.0108 95.4429L26.387 96.131L30.9457 100.862L35.1604 103.442L36.6226 102.238L35.8485 99.0555L35.5904 96.9911L38.945 96.131L42.8156 94.1527L50.8148 88.9919L55.1155 88.1318L56.0616 89.1639L57.4378 92.6045L116.099 55.3607L114.809 54.4145L110.68 52.1782L106.637 50.4579L98.4662 49.9418H95.7138L95.1117 48.9097L94.2516 45.2971L92.1012 41.5985L90.1229 37.8139L89.0908 33.7713L89.3488 29.2126L88.6607 25.342L89.0908 21.8155L91.6712 20.8693L97.348 18.3749L97.9501 16.1386L96.5739 14.8484L93.6495 16.1386H92.3593L90.1229 13.4722L87.9726 10.2897L84.7041 9.60156L81.0915 10.5477L75.2426 13.6442L70.4259 15.7085L65.179 18.3749L61.3945 22.6756L58.556 30.2448L56.3197 34.8895L52.191 39.1042L47.9764 46.5013L47.2022 49.9418L49.0085 55.7047Z" fill="#FEFEFE"/>
<path d="M115.327 55.7055L116.445 54.8453C116.445 54.788 116.359 54.4325 116.015 53.4691C115.585 52.2649 108.445 49.9426 104.919 48.6524C101.392 47.3622 97.6077 48.9964 95.9735 49.4265C96.9196 46.416 92.533 41.1692 91.5868 39.1909C90.659 37.251 89.2645 31.7077 89.7805 30.5896C90.2966 29.4714 89.7805 28.0952 89.2645 25.9448C88.7484 23.7945 89.2645 21.9022 89.7805 21.9022C91.4468 22.2463 96.4036 19.4078 97.8658 18.5477C99.328 17.6876 98.5539 15.7093 97.4357 14.5051C96.5412 13.5417 94.2532 14.9065 93.2211 15.7093C92.9344 15.8239 91.9997 15.3996 90.5547 12.7848C88.7484 9.51629 88.6624 9.43028 84.8778 8.9142C81.0932 8.39812 75.5023 11.8803 74.2121 12.7405C73.122 13.4672 72.7742 14.5051 73.524 14.5051C73.9541 14.5051 70.9436 15.1072 69.4814 15.7093C65.9202 17.1756 62.0842 20.44 60.622 22.5903C59.1598 24.7407 57.6115 30.2455 57.2675 31.7077C56.9234 33.17 54.9451 35.0623 52.2787 37.8147C49.6123 40.5671 47.72 44.6958 46.8599 47.9643C45.9997 51.2328 48.2361 56.6516 49.1822 57.6838C50.1284 58.7159 50.4724 59.4901 50.3004 59.7481C48.4081 59.5761 42.5592 68.1774 42.1291 68.7795C41.6991 69.3816 38.3445 73.2522 37.6564 73.5963C36.9683 73.9403 31.0334 79.2731 30.6033 80.0473C30.1733 80.8214 29.3131 80.3053 28.8831 80.3053C28.453 80.3053 21.3139 76.4347 20.0237 75.8326C18.7335 75.2305 10.3042 71.2739 8.15384 70.6718C6.00351 70.0697 4.36925 70.8438 2.56297 72.048C0.756692 73.2522 2.47696 74.8004 3.33709 75.2305C5.36493 76.2444 9.186 77.8109 9.61607 78.327C9.186 78.327 4.19723 82.4556 3.68115 82.7997C3.16506 83.1437 1.53081 84.606 2.64898 86.1542C3.76716 87.7024 4.97135 87.4444 7.63776 87.1864C10.3042 86.9283 11.0783 87.1864 11.3363 87.7024C11.5944 88.2185 8.15384 91.8311 7.98181 92.3472C7.80979 92.8633 7.03567 93.8954 8.41188 95.1856C9.7881 96.4758 14.0028 93.8954 14.6048 93.8954C15.2069 93.8954 15.0349 92.7772 15.293 92.6912C16.1875 93.6546 21.8013 96.3611 24.4964 97.594C24.5824 97.1639 24.8576 96.2694 25.2705 96.1318C25.7866 95.9597 26.3887 96.5618 30.2593 100.862C34.0972 105.127 35.7563 103.94 36.4351 103.455L36.4522 103.443C38.8606 101.723 36.7963 99.0562 36.4522 97.852C39.5487 97.852 43.7634 94.0674 47.0319 91.6591C50.3004 89.2507 54.9451 88.5626 55.2032 88.5626C55.4096 88.5626 56.436 91.315 56.9234 92.6912L57.8696 92.0031C57.2962 90.9136 56.1149 88.597 55.9773 88.0465C58.1276 88.2185 57.6975 87.4444 57.3535 87.2724C49.2682 87.2724 45.6557 91.315 40.9249 94.5835C39.9624 95.2485 38.5166 95.8737 35.8501 96.1318C36.0508 95.673 36.4178 94.6695 36.2802 94.3255C34.99 94.9276 34.2159 96.5618 34.904 97.852C36.6243 101.551 35.6781 102.66 35.162 102.841C33.4418 103.443 28.0229 97.1639 27.4208 96.5618C26.9618 96.1028 25.1845 94.7555 24.7544 94.7555C24.0663 94.7555 24.2555 95.0308 24.3244 95.7877C23.5674 96.5446 17.3573 93.236 14.3468 91.487V92.7772C13.3146 93.0353 9.96012 94.9276 8.84195 93.9814C7.86582 93.1555 10.3902 90.6269 11.7664 89.4227C12.4329 88.8396 12.0244 87.2724 12.3685 87.7024C12.7126 88.1325 15.1209 89.0787 15.379 88.9066C12.8846 85.2941 9.44404 85.5521 6.43357 85.8102C3.4231 86.0682 3.22512 85.2374 3.68115 84.606C4.79932 83.0577 10.1321 79.2731 10.5622 79.1871C10.9923 79.1011 12.2825 81.1654 12.8846 81.4235C10.8203 75.5746 7.55175 75.5746 4.62729 74.5424C1.70284 73.5102 3.93919 72.5641 6.43357 71.79C8.92796 71.0159 15.551 74.8865 19.5076 76.9508C23.4642 79.0151 30.6033 82.0256 31.3775 82.2836C31.9967 82.49 32.9544 82.1976 33.3558 82.0256C33.0117 81.7962 32.1344 81.2514 31.3775 80.9074C34.2159 79.2731 46.9459 65.683 47.462 64.1348C47.8748 62.8962 50.5584 61.5544 51.8486 61.0383L54.7731 63.9628V62.8446C54.6011 62.5865 52.6228 59.6621 49.1822 54.5013C45.7417 49.3405 51.8486 40.9112 52.4507 39.965C53.0528 39.0189 58.3857 35.0623 59.7619 28.7833C61.1381 22.5043 65.0947 19.8379 67.159 18.2036C69.2233 16.5694 77.3086 15.7093 77.9967 15.7093C78.1687 15.1932 76.3624 15.1072 75.5023 15.1072C74.6422 15.1072 75.5883 14.4191 79.2869 12.3547C82.9855 10.2904 84.8778 10.5485 86.598 10.6345C88.3183 10.7205 89.1784 13.2149 89.2645 13.903C91.1568 17.2575 94.2532 17.6016 94.7693 17.5155C93.3071 16.6398 94.2532 15.9673 95.7155 15.7093C97.1777 15.4512 97.4357 15.1932 97.0057 17.2575C96.5756 19.3218 92.1029 19.8379 90.5547 20.0959C89.0064 20.354 87.9743 21.8162 87.7162 21.9022C87.2345 20.8013 85.9099 20.2393 85.3078 20.0959C86.6841 22.1603 89.2817 26.7878 88.6624 28.7833C87.8882 31.2777 88.3183 34.0301 88.6624 35.5783C88.9958 37.0786 90.3791 39.4673 92.1863 42.5878L92.3609 42.8895C94.2532 46.158 93.9092 45.986 94.4253 50.1146C94.9413 54.2433 88.8344 62.3285 88.8344 62.7586C92.791 60.8663 95.8015 51.1468 95.9735 50.5447C97.9518 49.7706 101.564 50.9747 105.263 51.1468C108.222 51.2844 113.205 54.2432 115.327 55.7055Z" fill="#221E1F" stroke="#242021" stroke-width="0.148028"/>
<path d="M66.9012 25.6012C66.1783 26.9025 65.525 26.1173 65.783 25.2572C66.5056 22.8488 68.3635 22.6768 69.2236 22.6768C68.6215 23.1928 67.7614 24.053 66.9012 25.6012Z" fill="#221E1F"/>
<path d="M79.2889 23.0203C78.5147 22.3322 77.5973 22.6763 77.3105 22.9343C79.0308 25.1706 81.0951 26.1168 81.1811 26.1168C81.2672 26.1168 81.3532 25.6007 81.1811 25.2567C80.8801 24.6546 80.2889 23.9093 79.2889 23.0203Z" fill="#221E1F"/>
<path d="M68.9646 28.0948C69.8247 28.5249 69.9968 29.299 69.8247 29.9871C69.6527 29.557 68.1905 27.8368 68.8786 30.2451C69.5148 32.472 68.7065 33.0836 67.5024 32.9116C66.2982 32.7395 66.3842 30.5032 66.4702 29.643C66.5903 28.4418 67.7928 27.5089 68.9646 28.0948Z" fill="#221E1F"/>
<path d="M79.2009 29.1277C79.717 29.6438 79.975 30.934 79.803 31.5361C79.2009 31.2781 79.3729 30.5899 79.1149 30.4179C78.8113 30.2155 78.9429 31.5361 78.3408 33.6864C78.1852 34.242 77.1176 34.4824 76.6205 34.0305C75.6744 33.1703 76.1904 30.762 76.5345 29.9878C77.1375 28.631 78.543 28.4698 79.2009 29.1277Z" fill="#221E1F"/>
<path d="M74.1292 41.3408C73.183 42.8891 71.8928 42.8891 71.4628 42.803C71.0327 42.717 69.8285 41.3408 69.9145 42.459C69.9918 43.4628 71.6348 44.6093 73.4411 44.0072C74.6094 43.6178 74.5592 41.4268 74.1292 41.3408Z" fill="#221E1F"/>
<path d="M70.8576 49.7695C69.4813 49.7695 68.8914 51.2813 68.7072 52.0919C68.2771 53.9842 68.8792 56.8226 71.2876 56.8226C73.61 56.8226 73.4379 52.78 73.3519 52.0919C73.2337 51.1457 72.4058 49.7695 70.8576 49.7695Z" fill="#221E1F"/>
<path d="M71.6337 62.5883C71.0996 62.7218 70.0854 62.7603 68.4512 61.7281C69.0533 63.4484 70.0854 64.115 71.8917 63.9645C73.956 63.7925 74.6441 61.9862 74.3001 61.04C73.698 61.9862 72.6658 62.3302 71.6337 62.5883Z" fill="#221E1F"/>
<path d="M128.484 71.8758L127.624 71.7898L126.763 71.5318L121.001 73.8541L112.657 79.8751L116.872 82.3694L118.42 83.4016L116.614 85.5519L114.808 88.4764L114.119 90.5407L114.55 92.347L117.13 93.1211L120.226 92.7771L124.269 91.1428L127.279 90.7127L129.688 90.9708L131.752 90.8848L137.343 89.2505L138.547 89.0785L140.095 89.8526L142.504 91.0568L144.74 92.8631L147.321 94.6694L149.299 95.1854L151.535 95.0134L152.137 94.1533V93.2071L151.707 91.9169L150.675 90.5407L149.041 89.4225L147.751 88.1323L146.805 87.0142L147.321 86.2401L148.181 85.896L149.299 85.81H150.847L153.17 86.068L156.868 86.3261L158.846 86.068L160.223 85.3799L160.825 84.2617L160.567 82.8855L159.448 81.7674L157.384 80.8212L153.858 80.1331L147.579 78.8429L146.374 78.4988L145.6 77.9828L145.944 76.7786L146.805 75.4024L148.267 73.338L150.331 71.3597L152.567 69.3814L154.546 67.3171L155.234 65.9409L154.546 64.6507L152.567 64.3066L149.213 65.2528L145.084 67.3171L138.117 70.9297L135.967 71.3597L133.3 71.5318L131.064 71.6178L128.484 71.8758Z" fill="#FEFEFE"/>
<path d="M65.2665 118.754C65.111 118.867 64.7505 118.668 64.2344 118.324C64.3204 118.238 65.6327 116.654 66.9868 115.743C71.7175 112.561 71.4595 112.045 73.2658 108.69C73.4481 108.352 71.6903 107.708 71.4595 107.4C71.2015 107.056 72.8357 105.852 73.0938 106.196C84.0175 112.131 84.9636 110.835 93.6509 112.389C93.823 112.42 94.081 113.077 93.823 113.163C93.0931 113.406 92.6188 113.421 88.0601 113.163C83.5014 112.905 79.4587 111.271 77.6525 110.411C75.8462 109.55 74.6517 108.948 74.556 109.206C72.5777 114.539 69.5394 115.681 67.7609 116.776C66.6427 117.464 66.2127 118.066 65.2665 118.754Z" fill="#221E1F"/>
<path d="M119.282 81.1652C119.902 81.0964 119.598 82.1687 119.368 82.7135C119.11 83.577 116.014 87.1861 115.67 87.9603C113.433 93.9812 117.992 92.605 119.282 92.605C120.573 92.605 128.486 88.0463 129.948 88.7344C131.41 89.4225 128.744 89.8526 128.056 90.1966C127.368 90.5407 129.948 90.5407 131.066 90.5407C132.184 90.5407 135.797 88.8204 137.861 88.7344C139.926 88.6484 143.796 91.2288 146.377 93.2931C148.957 95.3574 150.677 95.0994 151.365 94.6693C153.946 92.433 148.011 89.2505 147.409 88.4763C146.807 87.7022 145.86 87.1001 146.118 86.7561C147.065 85.2078 150.591 85.0358 153.516 85.5519C156.44 86.068 159.244 85.7656 159.709 85.2938C162.633 82.3251 155.15 80.7351 153.688 80.4771C152.225 80.2191 146.807 78.7568 146.118 78.5848C145.43 78.4128 145.946 79.1869 145.86 79.961C145.774 80.7351 148.613 82.1114 146.118 81.3372C143.624 80.5631 145.258 77.6387 146.721 74.7142C148.183 71.7897 156.526 67.059 154.29 65.1667C152.053 63.2744 140.958 69.8974 139.151 71.1877C137.345 72.4779 133.302 73.252 131.754 73.252C130.206 73.252 134.507 72.2198 134.593 71.9618C134.679 71.7037 134.507 71.3597 131.582 72.2198C128.658 73.0799 128.056 72.3058 128.228 71.8758C130.378 71.3597 128.658 71.8758 129.26 70.7576C129.862 69.6394 130.55 70.3275 130.894 70.9296C131.238 71.5317 134.593 71.2737 136.657 70.9296C138.721 70.5856 147.151 65.5108 150.505 64.4786C153.86 63.4465 154.978 64.2206 155.752 65.2527C156.526 66.2849 154.892 68.5212 153.43 69.1233C151.967 69.7254 146.635 75.4883 146.118 77.0366C145.602 78.5848 147.667 78.6708 148.441 78.9289C149.215 79.1869 157.966 79.886 160.397 82.0254C162.203 83.6153 161.429 85.6796 160.397 86.2817C158.872 87.171 152.828 86.24 149.645 86.068C146.463 85.896 147.151 87.7022 149.215 88.9924C151.279 90.2826 152.483 91.4868 152.656 93.8952C152.828 96.3036 148.441 95.2714 147.495 95.0134C146.549 94.7553 142.248 91.1428 139.84 89.9386C137.431 88.7344 133.302 91.2288 132.442 91.4868C131.582 91.7449 128.314 91.8309 126.507 91.4868C124.701 91.1428 124.701 91.8309 120.917 93.4651C117.132 95.0994 113.949 93.8952 113.519 91.6589C113.089 89.4225 114.552 87.7882 114.638 87.4442C114.724 87.1001 116.96 84.3477 117.304 83.9176C117.648 83.4876 116.272 83.1435 115.068 82.3694C113.863 81.5953 113.433 81.1652 114.294 80.5631C115.154 79.961 118.164 82.6274 118.508 82.5414C118.852 82.4554 118.508 81.2512 119.282 81.1652Z" fill="#221E1F"/>
<path d="M119.02 52.99C116.574 53.8052 48.9111 97.0118 48.9111 97.0118C48.9111 97.0118 59.509 115.762 60.3242 115.762C61.1394 115.762 126.357 72.5552 127.987 71.7401C126.357 64.403 121.465 52.1747 119.02 52.99Z" fill="url(#paint2_linear_320_195440)"/>
<mask id="path-21-outside-1_320_195440" maskUnits="userSpaceOnUse" x="39.4336" y="52.5752" width="96" height="64" fill="black">
<rect fill="white" x="39.4336" y="52.5752" width="96" height="64"/>
<path d="M51.4781 111.232C51.1382 112.4 50.2201 113.46 48.7239 114.413C47.2315 115.364 45.8826 115.748 44.6772 115.565C43.4694 115.378 42.3973 114.55 41.461 113.08C40.5246 111.611 40.2283 110.291 40.572 109.121C40.9157 107.951 41.8338 106.891 43.3262 105.94C44.8224 104.987 46.1713 104.603 47.3729 104.788C48.5783 104.971 49.6492 105.798 50.5855 107.267C51.5219 108.737 51.8194 110.059 51.4781 111.232ZM46.5875 106.97C45.9171 106.76 45.1549 106.927 44.301 107.471C43.4509 108.012 42.9776 108.632 42.881 109.331C42.7883 110.028 43.0283 110.826 43.6012 111.725C44.1717 112.62 44.7921 113.173 45.4626 113.383C46.1344 113.588 46.8954 113.419 47.7455 112.877C48.5994 112.333 49.0739 111.715 49.1691 111.022C49.2618 110.326 49.023 109.53 48.4525 108.634C47.8796 107.735 47.258 107.18 46.5875 106.97Z"/>
<path d="M53.1875 108.924C53.163 108.907 53.1402 108.882 53.1192 108.848C53.0966 108.813 53.0907 108.762 53.1014 108.695L53.2938 106.277L51.1068 105.385C50.968 105.334 50.9077 105.249 50.9256 105.132C50.9329 105.081 50.9625 105.039 51.0145 105.005L51.7831 104.516C52.0122 104.37 52.2626 104.356 52.5343 104.475L53.6909 104.993L53.7103 103.726C53.7172 103.43 53.8352 103.208 54.0643 103.063L54.8329 102.573C54.8849 102.54 54.9355 102.531 54.9849 102.546C55.0992 102.579 55.1501 102.67 55.1377 102.817L55.0223 105.176L57.2953 106.024C57.3601 106.042 57.4046 106.07 57.4287 106.108C57.4512 106.143 57.4638 106.174 57.4664 106.199C57.4942 106.284 57.4667 106.353 57.384 106.405L56.6296 106.886C56.4123 107.024 56.1619 107.038 55.8784 106.926L54.6116 106.439L54.5147 107.795C54.4983 108.098 54.3815 108.318 54.1642 108.457L53.4098 108.937C53.3271 108.99 53.253 108.986 53.1875 108.924Z"/>
<path d="M58.5136 105.068C57.9286 104.963 57.4254 104.58 57.0042 103.918C56.5815 103.255 56.4467 102.637 56.6 102.065C56.7517 101.49 57.1724 100.983 57.8619 100.544C58.5538 100.103 59.1923 99.935 59.7773 100.04C60.3608 100.143 60.8639 100.527 61.2867 101.19C61.7079 101.851 61.8426 102.469 61.6909 103.044C61.5391 103.619 61.1173 104.127 60.4254 104.567C59.7359 105.007 59.0986 105.174 58.5136 105.068ZM57.8662 102.075C57.8417 102.359 57.9633 102.712 58.2311 103.132C58.4989 103.552 58.7676 103.813 59.0374 103.913C59.3072 104.013 59.5991 103.963 59.9132 103.763C60.2296 103.562 60.3993 103.317 60.4224 103.031C60.4478 102.742 60.3266 102.388 60.0588 101.967C59.791 101.547 59.5218 101.289 59.2512 101.192C58.9829 101.094 58.6906 101.146 58.3742 101.348C58.0601 101.548 57.8908 101.79 57.8662 102.075Z"/>
<path d="M61.1134 99.4731L60.8448 99.0516C60.8042 98.9878 60.7912 98.9231 60.8057 98.8573C60.8212 98.7878 60.8608 98.7327 60.9245 98.692L64.4135 96.4693C64.4773 96.4287 64.5428 96.4168 64.61 96.4338C64.6757 96.4483 64.7289 96.4875 64.7695 96.5513L65.038 96.9728C65.0772 97.0342 65.0902 97.0989 65.0771 97.167C65.0625 97.2327 65.0234 97.2859 64.9596 97.3265L63.8297 98.0463L65.6192 100.855C65.6583 100.917 65.6701 100.982 65.6547 101.052C65.6401 101.117 65.601 101.171 65.5372 101.211L64.7473 101.714C64.6835 101.755 64.6176 101.769 64.5495 101.756C64.4823 101.739 64.4292 101.7 64.39 101.638L62.6006 98.8294L61.4706 99.5492C61.4069 99.5899 61.3409 99.6036 61.2729 99.5906C61.2056 99.5736 61.1525 99.5345 61.1134 99.4731Z"/>
<path d="M67.914 99.3933L65.7184 95.9468C65.6778 95.883 65.6647 95.8183 65.6793 95.7525C65.6947 95.683 65.7331 95.6286 65.7945 95.5895L66.588 95.084C66.6517 95.0434 66.7172 95.0316 66.7844 95.0485C66.8502 95.0631 66.9033 95.1022 66.944 95.166L67.7518 96.4341L69.3033 95.4457L68.4954 94.1776C68.4548 94.1138 68.4418 94.0491 68.4563 93.9834C68.4718 93.9138 68.5114 93.8587 68.5751 93.8181L69.365 93.3148C69.4288 93.2742 69.4943 93.2624 69.5615 93.2793C69.6272 93.2939 69.6804 93.3331 69.721 93.3968L71.9167 96.8433C71.9573 96.9071 71.9703 96.9718 71.9557 97.0375C71.9412 97.1032 71.902 97.1564 71.8382 97.197L71.0483 97.7003C70.9846 97.7409 70.9187 97.7546 70.8506 97.7416C70.7834 97.7246 70.7302 97.6855 70.6911 97.6241L69.8494 96.3029L68.2979 97.2913L69.1396 98.6125C69.1802 98.6762 69.1921 98.7417 69.1751 98.8089C69.1606 98.8747 69.1226 98.9271 69.0612 98.9662L68.2678 99.4717C68.204 99.5123 68.1393 99.5253 68.0735 99.5107C68.0078 99.4962 67.9547 99.457 67.914 99.3933Z"/>
<path d="M73.2233 96.0109L71.0276 92.5644C70.987 92.5006 70.974 92.4359 70.9885 92.3702C71.004 92.3006 71.0424 92.2463 71.1038 92.2071L71.8441 91.7355C71.9078 91.6949 71.9733 91.683 72.0406 91.7C72.1086 91.713 72.163 91.7515 72.2036 91.8152L73.6862 94.1424L73.473 91.0563C73.4641 90.959 73.4836 90.862 73.5315 90.7651C73.5778 90.6659 73.6376 90.5929 73.7108 90.5463L74.7026 89.9144C74.7663 89.8738 74.8318 89.862 74.8991 89.8789C74.9671 89.892 75.0215 89.9304 75.0621 89.9941L77.2578 93.4406C77.2984 93.5044 77.3102 93.5699 77.2933 93.6371C77.2787 93.7028 77.2396 93.756 77.1758 93.7966L76.4355 94.2682C76.3717 94.3089 76.307 94.3219 76.2413 94.3073C76.1741 94.2904 76.1209 94.2512 76.0818 94.1898L74.6015 91.8662L74.8101 94.9452C74.816 95.0377 74.7965 95.1348 74.7516 95.2364C74.7053 95.3356 74.6455 95.4086 74.5723 95.4552L73.577 96.0893C73.5132 96.1299 73.4485 96.143 73.3828 96.1284C73.3171 96.1138 73.2639 96.0747 73.2233 96.0109Z"/>
<path d="M82.5133 90.1772C82.5795 90.2811 82.5512 90.3721 82.4284 90.4504L81.7589 90.8769C81.5322 91.0213 81.2809 91.0254 81.0048 90.8892L80.0879 90.4425C79.6941 90.2518 79.3131 90.2738 78.9447 90.5085L79.7864 91.8297C79.827 91.8935 79.8389 91.959 79.822 92.0262C79.8074 92.0919 79.7694 92.1443 79.708 92.1834L78.9146 92.6889C78.8508 92.7295 78.7861 92.7425 78.7204 92.728C78.6546 92.7134 78.6015 92.6742 78.5608 92.6105L76.3652 89.164C76.3246 89.1002 76.3115 89.0355 76.3261 88.9698C76.3415 88.9002 76.3799 88.8458 76.4413 88.8067L77.2348 88.3013C77.2985 88.2606 77.364 88.2488 77.4313 88.2657C77.497 88.2803 77.5501 88.3195 77.5908 88.3832L78.4302 89.7009C78.8411 89.4391 79.0206 89.1007 78.9686 88.6856L78.8483 87.7464C78.8308 87.6148 78.8486 87.4889 78.9016 87.3689C78.9546 87.2488 79.0342 87.1549 79.1405 87.0872L79.8099 86.6607C79.928 86.5855 80.0164 86.5939 80.075 86.686C80.1081 86.738 80.1314 86.8161 80.1447 86.9205L80.3016 88.175C80.326 88.3853 80.3077 88.5911 80.2468 88.7926C80.1859 88.994 80.0881 89.1609 79.9533 89.2933C80.2994 89.1956 80.6863 89.2479 81.114 89.4502L82.3367 90.0407C82.4204 90.0836 82.4793 90.1291 82.5133 90.1772Z"/>
<path d="M83.4238 89.5125L81.2281 86.066C81.1875 86.0022 81.1745 85.9375 81.189 85.8717C81.2045 85.8022 81.2429 85.7478 81.3043 85.7087L82.0446 85.2371C82.1083 85.1965 82.1738 85.1846 82.2411 85.2015C82.3091 85.2146 82.3635 85.253 82.4041 85.3168L83.8867 87.644L83.6735 84.5579C83.6646 84.4606 83.6841 84.3635 83.732 84.2667C83.7783 84.1674 83.8381 84.0945 83.9113 84.0479L84.9031 83.416C84.9668 83.3754 85.0323 83.3635 85.0996 83.3805C85.1676 83.3935 85.222 83.432 85.2626 83.4957L87.4583 86.9422C87.4989 87.006 87.5107 87.0715 87.4938 87.1387C87.4792 87.2044 87.4401 87.2576 87.3763 87.2982L86.636 87.7698C86.5722 87.8104 86.5075 87.8235 86.4418 87.8089C86.3746 87.792 86.3214 87.7528 86.2823 87.6914L84.802 85.3678L85.0106 88.4468C85.0165 88.5393 84.997 88.6364 84.9521 88.738C84.9058 88.8372 84.846 88.9101 84.7728 88.9568L83.7775 89.5909C83.7137 89.6315 83.649 89.6445 83.5833 89.63C83.5176 89.6154 83.4644 89.5762 83.4238 89.5125Z"/>
<path d="M90.953 83.6203C90.9123 83.5565 90.8993 83.4918 90.9139 83.4261C90.9308 83.3589 90.97 83.3057 91.0314 83.2666L91.5627 82.9281C91.7233 82.8258 91.8996 82.8263 92.0916 82.9298C92.2845 83.0293 92.5096 82.9971 92.767 82.8331L93.4861 82.375C93.8285 82.1569 93.9102 81.9073 93.7312 81.6263C93.5521 81.3453 93.2922 81.315 92.9513 81.5355L92.0728 82.0952C92.0091 82.1358 91.9431 82.1496 91.8751 82.1365C91.8078 82.1196 91.7539 82.0792 91.7133 82.0155L91.4786 81.6471C91.438 81.5833 91.425 81.5186 91.4395 81.4529C91.455 81.3833 91.4946 81.3282 91.5583 81.2876L92.3695 80.7708C92.5253 80.6715 92.6204 80.5628 92.6547 80.4447C92.6899 80.3227 92.6706 80.2038 92.5969 80.0881C92.5232 79.9724 92.4236 79.9047 92.2982 79.885C92.1751 79.8638 92.0356 79.9029 91.8798 80.0022L91.228 80.4174C91.1454 80.47 91.0739 80.5454 91.0136 80.6436C90.9518 80.7394 90.9245 80.8398 90.9316 80.9448C90.9418 81.1641 90.8659 81.3237 90.7038 81.4236L90.176 81.7598C90.1123 81.8005 90.0464 81.8142 89.9783 81.8012C89.9126 81.7866 89.8594 81.7474 89.8188 81.6837C89.6157 81.3649 89.6064 81.0089 89.7909 80.6159C89.9777 80.2213 90.2907 79.8841 90.73 79.6043L91.4419 79.1507C91.9402 78.8333 92.3932 78.6741 92.801 78.6733C93.2097 78.6686 93.5329 78.8528 93.7705 79.2259C94.0082 79.599 94.0109 79.9757 93.7785 80.3562C94.3218 80.3022 94.7364 80.4996 95.0222 80.9482C95.2719 81.3402 95.3146 81.7147 95.1503 82.0717C94.9869 82.4248 94.6312 82.7759 94.0833 83.1249L93.2935 83.6281C92.8188 83.9305 92.3616 84.0857 91.9218 84.0936C91.482 84.1016 91.1591 83.9438 90.953 83.6203Z"/>
<path d="M96.833 80.9151C96.3829 80.8964 96.0315 80.6887 95.7787 80.292C95.526 79.8953 95.4878 79.4914 95.6641 79.0802C95.8428 78.6676 96.1789 78.3041 96.6724 77.9897L97.8448 77.2428C97.6688 76.9665 97.4884 76.8109 97.3035 76.776C97.1185 76.7411 96.8809 76.8161 96.5904 77.0012C96.3023 77.1847 96.1451 77.3861 96.1188 77.6054C96.0934 77.8208 95.9956 77.9826 95.8256 78.0909L95.2978 78.4272C95.2341 78.4678 95.1682 78.4816 95.1001 78.4685C95.0328 78.4516 94.9797 78.4124 94.9406 78.351C94.5088 77.6733 94.9364 76.9245 96.2234 76.1046C96.7854 75.7465 97.3169 75.5855 97.8179 75.6216C98.3175 75.6553 98.7349 75.9354 99.0704 76.462L100.467 78.6546C100.508 78.7183 100.521 78.7831 100.506 78.8488C100.492 78.9145 100.453 78.9677 100.389 79.0083L99.7052 79.4438C99.6414 79.4844 99.5767 79.4975 99.511 79.4829C99.4438 79.466 99.3906 79.4268 99.3515 79.3654L99.2815 79.2556C99.0784 79.7601 98.7317 80.1669 98.2414 80.476C97.7549 80.7859 97.2855 80.9322 96.833 80.9151ZM97.2697 78.7396C97.1044 78.8449 96.9989 78.9685 96.9532 79.1105C96.9099 79.251 96.9289 79.385 97.0101 79.5125C97.0913 79.64 97.2079 79.7135 97.3597 79.733C97.5115 79.7524 97.6784 79.7042 97.8602 79.5884C98.2239 79.3567 98.5068 79.0271 98.7091 78.5994L98.3571 78.0468L97.2697 78.7396Z"/>
<path d="M104.756 75.9224L102.56 72.4759C102.52 72.4121 102.507 72.3474 102.521 72.2817C102.537 72.2121 102.575 72.1577 102.636 72.1186L105.286 70.4307C105.347 70.3916 105.412 70.3805 105.479 70.3974C105.547 70.4105 105.601 70.4489 105.642 70.5126L105.91 70.9342C105.95 70.9956 105.961 71.0611 105.946 71.1306C105.931 71.1964 105.893 71.2488 105.832 71.2879L104.192 72.3327L105.982 75.1416C106.021 75.203 106.032 75.2685 106.017 75.3381C106.002 75.4038 105.964 75.4562 105.903 75.4953L105.11 76.0008C105.048 76.0399 104.984 76.0529 104.915 76.0399C104.848 76.0229 104.795 75.9838 104.756 75.9224Z"/>
<path d="M109.543 74.5506L106.587 69.9104C106.547 69.8467 106.534 69.7819 106.548 69.7162C106.564 69.6466 106.602 69.5923 106.663 69.5531L107.347 69.1176C107.408 69.0785 107.473 69.0674 107.54 69.0844C107.608 69.0974 107.662 69.1358 107.703 69.1996L107.771 69.3059C107.975 68.8037 108.324 68.3954 108.818 68.081C109.311 67.7665 109.835 67.6788 110.388 67.8176C110.94 67.9542 111.423 68.3471 111.836 68.9965C112.249 69.6435 112.393 70.2485 112.27 70.8114C112.148 71.3743 111.796 71.8408 111.215 72.2109C110.915 72.4019 110.535 72.5591 110.076 72.6824L110.769 73.7698C110.81 73.8336 110.821 73.8991 110.804 73.9663C110.791 74.0344 110.754 74.088 110.693 74.1271L109.899 74.6326C109.838 74.6717 109.772 74.6835 109.703 74.6681C109.637 74.6535 109.584 74.6144 109.543 74.5506ZM109.555 71.8642C109.921 71.7669 110.208 71.6521 110.416 71.5197C110.74 71.3136 110.91 71.0756 110.927 70.8056C110.947 70.5342 110.828 70.1966 110.571 69.7928C110.314 69.389 110.062 69.1375 109.816 69.0384C109.571 68.9355 109.32 68.966 109.063 69.13C108.808 69.2924 108.579 69.5875 108.377 70.0152L109.555 71.8642Z"/>
<path d="M115.077 70.1686L115.58 69.9332C115.913 69.7211 115.99 69.3285 115.81 68.7554C115.409 69.0112 114.997 69.1044 114.574 69.035C114.15 68.9633 113.644 68.6798 113.056 68.1844L111.439 66.8098C111.419 66.7954 111.402 66.7764 111.387 66.7528C111.371 66.7269 111.365 66.6871 111.371 66.6337C111.379 66.5787 111.412 66.5312 111.47 66.4912L112.21 66.0196C112.278 65.976 112.358 65.9582 112.45 65.9663C112.542 65.9706 112.62 66.0009 112.682 66.0574L114.103 67.2636C114.453 67.5583 114.733 67.7389 114.941 67.8053C115.152 67.8703 115.339 67.8509 115.502 67.7471L114.627 64.8185C114.602 64.738 114.603 64.658 114.628 64.5785C114.655 64.4952 114.702 64.4317 114.771 64.3881L115.518 63.9119C115.577 63.8743 115.633 63.8654 115.686 63.8851C115.738 63.9049 115.772 63.9277 115.789 63.9537C115.804 63.9773 115.814 63.9989 115.82 64.0184L117 67.918C117.208 68.6089 117.268 69.1578 117.182 69.5646C117.099 69.9698 116.864 70.2951 116.479 70.5403C116.094 70.7855 115.813 70.9451 115.634 71.019C115.458 71.0915 115.336 71.1193 115.269 71.1023C115.203 71.0878 115.153 71.0533 115.118 70.999L114.87 70.6094C114.829 70.5456 114.816 70.4797 114.829 70.4116C114.843 70.3459 114.882 70.2927 114.946 70.2521L115.077 70.1686Z"/>
<path d="M118.182 66.2733C118.142 66.2095 118.129 66.1448 118.143 66.0791C118.16 66.0118 118.199 65.9587 118.261 65.9195L118.792 65.5811C118.953 65.4788 119.129 65.4793 119.321 65.5827C119.514 65.6823 119.739 65.6501 119.996 65.4861L120.715 65.028C121.058 64.8099 121.14 64.5603 120.961 64.2793C120.782 63.9983 120.522 63.968 120.181 64.1885L119.302 64.7481C119.238 64.7888 119.173 64.8025 119.104 64.7895C119.037 64.7725 118.983 64.7322 118.943 64.6684L118.708 64.3001C118.667 64.2363 118.654 64.1716 118.669 64.1058C118.684 64.0362 118.724 63.9811 118.788 63.9405L119.599 63.4238C119.755 63.3245 119.85 63.2158 119.884 63.0976C119.919 62.9757 119.9 62.8568 119.826 62.7411C119.753 62.6254 119.653 62.5577 119.528 62.538C119.405 62.5168 119.265 62.5558 119.109 62.6551L118.457 63.0703C118.375 63.123 118.303 63.1984 118.243 63.2966C118.181 63.3924 118.154 63.4928 118.161 63.5978C118.171 63.817 118.095 63.9766 117.933 64.0766L117.405 64.4128C117.342 64.4534 117.276 64.4672 117.208 64.4541C117.142 64.4396 117.089 64.4004 117.048 64.3366C116.845 64.0178 116.836 63.6619 117.02 63.2688C117.207 62.8743 117.52 62.5371 117.959 62.2572L118.671 61.8037C119.17 61.4862 119.623 61.3271 120.03 61.3263C120.439 61.3215 120.762 61.5057 121 61.8788C121.238 62.2519 121.24 62.6287 121.008 63.0091C121.551 62.9552 121.966 63.1525 122.252 63.6012C122.501 63.9932 122.544 64.3677 122.38 64.7247C122.216 65.0778 121.861 65.4289 121.313 65.7779L120.523 66.2811C120.048 66.5835 119.591 66.7387 119.151 66.7466C118.711 66.7546 118.388 66.5968 118.182 66.2733Z"/>
<path d="M124.03 63.3297C123.445 63.2243 122.942 62.841 122.521 62.1799C122.098 61.5163 121.963 60.8983 122.116 60.326C122.268 59.7512 122.689 59.2442 123.378 58.8049C124.07 58.3642 124.709 58.1964 125.294 58.3018C125.877 58.4048 126.38 58.7881 126.803 59.4516C127.224 60.1128 127.359 60.7308 127.207 61.3055C127.056 61.8803 126.634 62.388 125.942 62.8288C125.252 63.2681 124.615 63.435 124.03 63.3297ZM123.383 60.336C123.358 60.6205 123.48 60.9729 123.748 61.3933C124.015 61.8136 124.284 62.074 124.554 62.1743C124.824 62.2747 125.116 62.2248 125.43 62.0247C125.746 61.8232 125.916 61.5789 125.939 61.292C125.964 61.0036 125.843 60.6492 125.575 60.2289C125.308 59.8085 125.038 59.5501 124.768 59.4536C124.499 59.3556 124.207 59.4074 123.891 59.609C123.577 59.8091 123.407 60.0514 123.383 60.336Z"/>
<path d="M128.993 60.4819L126.797 57.0354C126.756 56.9716 126.743 56.9069 126.758 56.8412C126.773 56.7716 126.812 56.7172 126.873 56.6781L128.092 55.9019C128.231 55.8131 128.393 55.8328 128.577 55.9609L130.787 57.5214L130.306 54.8597C130.268 54.6383 130.318 54.4832 130.458 54.3945L131.676 53.6182C131.74 53.5776 131.806 53.5657 131.873 53.5827C131.941 53.5957 131.995 53.6341 132.036 53.6979L134.231 57.1444C134.272 57.2082 134.284 57.2736 134.267 57.3409C134.252 57.4066 134.213 57.4598 134.15 57.5004L133.381 57.9901C133.317 58.0307 133.252 58.0437 133.187 58.0291C133.119 58.0122 133.066 57.973 133.027 57.9116L131.617 55.6978L132.1 58.4574C132.132 58.6694 132.073 58.8235 131.922 58.9198L131.574 59.1409C131.426 59.2357 131.262 59.2238 131.083 59.1051L128.787 57.5008L130.197 59.7147C130.238 59.7784 130.249 59.8439 130.232 59.9111C130.218 59.9768 130.179 60.03 130.115 60.0706L129.346 60.5603C129.283 60.6009 129.218 60.614 129.152 60.5994C129.086 60.5848 129.033 60.5457 128.993 60.4819Z"/>
<path fill-rule="evenodd" clip-rule="evenodd" d="M45.6905 115.072C48.2557 115.072 50.5855 112.436 50.5855 110.108C50.5855 107.781 48.506 105.894 45.9408 105.894C43.3756 105.894 41.2961 107.781 41.2961 110.108C41.2961 112.436 43.1253 115.072 45.6905 115.072ZM44.301 107.471C45.1549 106.927 45.9171 106.76 46.5875 106.97C47.258 107.18 47.8796 107.735 48.4525 108.634C49.023 109.53 49.2618 110.326 49.1691 111.022C49.0739 111.715 48.5994 112.333 47.7455 112.877C46.8954 113.419 46.1344 113.588 45.4626 113.383C44.7921 113.173 44.1717 112.62 43.6012 111.725C43.0283 110.826 42.7883 110.028 42.881 109.331C42.9776 108.632 43.4509 108.012 44.301 107.471Z"/>
</mask>
<path d="M51.4781 111.232C51.1382 112.4 50.2201 113.46 48.7239 114.413C47.2315 115.364 45.8826 115.748 44.6772 115.565C43.4694 115.378 42.3973 114.55 41.461 113.08C40.5246 111.611 40.2283 110.291 40.572 109.121C40.9157 107.951 41.8338 106.891 43.3262 105.94C44.8224 104.987 46.1713 104.603 47.3729 104.788C48.5783 104.971 49.6492 105.798 50.5855 107.267C51.5219 108.737 51.8194 110.059 51.4781 111.232ZM46.5875 106.97C45.9171 106.76 45.1549 106.927 44.301 107.471C43.4509 108.012 42.9776 108.632 42.881 109.331C42.7883 110.028 43.0283 110.826 43.6012 111.725C44.1717 112.62 44.7921 113.173 45.4626 113.383C46.1344 113.588 46.8954 113.419 47.7455 112.877C48.5994 112.333 49.0739 111.715 49.1691 111.022C49.2618 110.326 49.023 109.53 48.4525 108.634C47.8796 107.735 47.258 107.18 46.5875 106.97Z" fill="#FEFEFE"/>
<path d="M53.1875 108.924C53.163 108.907 53.1402 108.882 53.1192 108.848C53.0966 108.813 53.0907 108.762 53.1014 108.695L53.2938 106.277L51.1068 105.385C50.968 105.334 50.9077 105.249 50.9256 105.132C50.9329 105.081 50.9625 105.039 51.0145 105.005L51.7831 104.516C52.0122 104.37 52.2626 104.356 52.5343 104.475L53.6909 104.993L53.7103 103.726C53.7172 103.43 53.8352 103.208 54.0643 103.063L54.8329 102.573C54.8849 102.54 54.9355 102.531 54.9849 102.546C55.0992 102.579 55.1501 102.67 55.1377 102.817L55.0223 105.176L57.2953 106.024C57.3601 106.042 57.4046 106.07 57.4287 106.108C57.4512 106.143 57.4638 106.174 57.4664 106.199C57.4942 106.284 57.4667 106.353 57.384 106.405L56.6296 106.886C56.4123 107.024 56.1619 107.038 55.8784 106.926L54.6116 106.439L54.5147 107.795C54.4983 108.098 54.3815 108.318 54.1642 108.457L53.4098 108.937C53.3271 108.99 53.253 108.986 53.1875 108.924Z" fill="#FEFEFE"/>
<path d="M58.5136 105.068C57.9286 104.963 57.4254 104.58 57.0042 103.918C56.5815 103.255 56.4467 102.637 56.6 102.065C56.7517 101.49 57.1724 100.983 57.8619 100.544C58.5538 100.103 59.1923 99.935 59.7773 100.04C60.3608 100.143 60.8639 100.527 61.2867 101.19C61.7079 101.851 61.8426 102.469 61.6909 103.044C61.5391 103.619 61.1173 104.127 60.4254 104.567C59.7359 105.007 59.0986 105.174 58.5136 105.068ZM57.8662 102.075C57.8417 102.359 57.9633 102.712 58.2311 103.132C58.4989 103.552 58.7676 103.813 59.0374 103.913C59.3072 104.013 59.5991 103.963 59.9132 103.763C60.2296 103.562 60.3993 103.317 60.4224 103.031C60.4478 102.742 60.3266 102.388 60.0588 101.967C59.791 101.547 59.5218 101.289 59.2512 101.192C58.9829 101.094 58.6906 101.146 58.3742 101.348C58.0601 101.548 57.8908 101.79 57.8662 102.075Z" fill="#FEFEFE"/>
<path d="M61.1134 99.4731L60.8448 99.0516C60.8042 98.9878 60.7912 98.9231 60.8057 98.8573C60.8212 98.7878 60.8608 98.7327 60.9245 98.692L64.4135 96.4693C64.4773 96.4287 64.5428 96.4168 64.61 96.4338C64.6757 96.4483 64.7289 96.4875 64.7695 96.5513L65.038 96.9728C65.0772 97.0342 65.0902 97.0989 65.0771 97.167C65.0625 97.2327 65.0234 97.2859 64.9596 97.3265L63.8297 98.0463L65.6192 100.855C65.6583 100.917 65.6701 100.982 65.6547 101.052C65.6401 101.117 65.601 101.171 65.5372 101.211L64.7473 101.714C64.6835 101.755 64.6176 101.769 64.5495 101.756C64.4823 101.739 64.4292 101.7 64.39 101.638L62.6006 98.8294L61.4706 99.5492C61.4069 99.5899 61.3409 99.6036 61.2729 99.5906C61.2056 99.5736 61.1525 99.5345 61.1134 99.4731Z" fill="#FEFEFE"/>
<path d="M67.914 99.3933L65.7184 95.9468C65.6778 95.883 65.6647 95.8183 65.6793 95.7525C65.6947 95.683 65.7331 95.6286 65.7945 95.5895L66.588 95.084C66.6517 95.0434 66.7172 95.0316 66.7844 95.0485C66.8502 95.0631 66.9033 95.1022 66.944 95.166L67.7518 96.4341L69.3033 95.4457L68.4954 94.1776C68.4548 94.1138 68.4418 94.0491 68.4563 93.9834C68.4718 93.9138 68.5114 93.8587 68.5751 93.8181L69.365 93.3148C69.4288 93.2742 69.4943 93.2624 69.5615 93.2793C69.6272 93.2939 69.6804 93.3331 69.721 93.3968L71.9167 96.8433C71.9573 96.9071 71.9703 96.9718 71.9557 97.0375C71.9412 97.1032 71.902 97.1564 71.8382 97.197L71.0483 97.7003C70.9846 97.7409 70.9187 97.7546 70.8506 97.7416C70.7834 97.7246 70.7302 97.6855 70.6911 97.6241L69.8494 96.3029L68.2979 97.2913L69.1396 98.6125C69.1802 98.6762 69.1921 98.7417 69.1751 98.8089C69.1606 98.8747 69.1226 98.9271 69.0612 98.9662L68.2678 99.4717C68.204 99.5123 68.1393 99.5253 68.0735 99.5107C68.0078 99.4962 67.9547 99.457 67.914 99.3933Z" fill="#FEFEFE"/>
<path d="M73.2233 96.0109L71.0276 92.5644C70.987 92.5006 70.974 92.4359 70.9885 92.3702C71.004 92.3006 71.0424 92.2463 71.1038 92.2071L71.8441 91.7355C71.9078 91.6949 71.9733 91.683 72.0406 91.7C72.1086 91.713 72.163 91.7515 72.2036 91.8152L73.6862 94.1424L73.473 91.0563C73.4641 90.959 73.4836 90.862 73.5315 90.7651C73.5778 90.6659 73.6376 90.5929 73.7108 90.5463L74.7026 89.9144C74.7663 89.8738 74.8318 89.862 74.8991 89.8789C74.9671 89.892 75.0215 89.9304 75.0621 89.9941L77.2578 93.4406C77.2984 93.5044 77.3102 93.5699 77.2933 93.6371C77.2787 93.7028 77.2396 93.756 77.1758 93.7966L76.4355 94.2682C76.3717 94.3089 76.307 94.3219 76.2413 94.3073C76.1741 94.2904 76.1209 94.2512 76.0818 94.1898L74.6015 91.8662L74.8101 94.9452C74.816 95.0377 74.7965 95.1348 74.7516 95.2364C74.7053 95.3356 74.6455 95.4086 74.5723 95.4552L73.577 96.0893C73.5132 96.1299 73.4485 96.143 73.3828 96.1284C73.3171 96.1138 73.2639 96.0747 73.2233 96.0109Z" fill="#FEFEFE"/>
<path d="M82.5133 90.1772C82.5795 90.2811 82.5512 90.3721 82.4284 90.4504L81.7589 90.8769C81.5322 91.0213 81.2809 91.0254 81.0048 90.8892L80.0879 90.4425C79.6941 90.2518 79.3131 90.2738 78.9447 90.5085L79.7864 91.8297C79.827 91.8935 79.8389 91.959 79.822 92.0262C79.8074 92.0919 79.7694 92.1443 79.708 92.1834L78.9146 92.6889C78.8508 92.7295 78.7861 92.7425 78.7204 92.728C78.6546 92.7134 78.6015 92.6742 78.5608 92.6105L76.3652 89.164C76.3246 89.1002 76.3115 89.0355 76.3261 88.9698C76.3415 88.9002 76.3799 88.8458 76.4413 88.8067L77.2348 88.3013C77.2985 88.2606 77.364 88.2488 77.4313 88.2657C77.497 88.2803 77.5501 88.3195 77.5908 88.3832L78.4302 89.7009C78.8411 89.4391 79.0206 89.1007 78.9686 88.6856L78.8483 87.7464C78.8308 87.6148 78.8486 87.4889 78.9016 87.3689C78.9546 87.2488 79.0342 87.1549 79.1405 87.0872L79.8099 86.6607C79.928 86.5855 80.0164 86.5939 80.075 86.686C80.1081 86.738 80.1314 86.8161 80.1447 86.9205L80.3016 88.175C80.326 88.3853 80.3077 88.5911 80.2468 88.7926C80.1859 88.994 80.0881 89.1609 79.9533 89.2933C80.2994 89.1956 80.6863 89.2479 81.114 89.4502L82.3367 90.0407C82.4204 90.0836 82.4793 90.1291 82.5133 90.1772Z" fill="#FEFEFE"/>
<path d="M83.4238 89.5125L81.2281 86.066C81.1875 86.0022 81.1745 85.9375 81.189 85.8717C81.2045 85.8022 81.2429 85.7478 81.3043 85.7087L82.0446 85.2371C82.1083 85.1965 82.1738 85.1846 82.2411 85.2015C82.3091 85.2146 82.3635 85.253 82.4041 85.3168L83.8867 87.644L83.6735 84.5579C83.6646 84.4606 83.6841 84.3635 83.732 84.2667C83.7783 84.1674 83.8381 84.0945 83.9113 84.0479L84.9031 83.416C84.9668 83.3754 85.0323 83.3635 85.0996 83.3805C85.1676 83.3935 85.222 83.432 85.2626 83.4957L87.4583 86.9422C87.4989 87.006 87.5107 87.0715 87.4938 87.1387C87.4792 87.2044 87.4401 87.2576 87.3763 87.2982L86.636 87.7698C86.5722 87.8104 86.5075 87.8235 86.4418 87.8089C86.3746 87.792 86.3214 87.7528 86.2823 87.6914L84.802 85.3678L85.0106 88.4468C85.0165 88.5393 84.997 88.6364 84.9521 88.738C84.9058 88.8372 84.846 88.9101 84.7728 88.9568L83.7775 89.5909C83.7137 89.6315 83.649 89.6445 83.5833 89.63C83.5176 89.6154 83.4644 89.5762 83.4238 89.5125Z" fill="#FEFEFE"/>
<path d="M90.953 83.6203C90.9123 83.5565 90.8993 83.4918 90.9139 83.4261C90.9308 83.3589 90.97 83.3057 91.0314 83.2666L91.5627 82.9281C91.7233 82.8258 91.8996 82.8263 92.0916 82.9298C92.2845 83.0293 92.5096 82.9971 92.767 82.8331L93.4861 82.375C93.8285 82.1569 93.9102 81.9073 93.7312 81.6263C93.5521 81.3453 93.2922 81.315 92.9513 81.5355L92.0728 82.0952C92.0091 82.1358 91.9431 82.1496 91.8751 82.1365C91.8078 82.1196 91.7539 82.0792 91.7133 82.0155L91.4786 81.6471C91.438 81.5833 91.425 81.5186 91.4395 81.4529C91.455 81.3833 91.4946 81.3282 91.5583 81.2876L92.3695 80.7708C92.5253 80.6715 92.6204 80.5628 92.6547 80.4447C92.6899 80.3227 92.6706 80.2038 92.5969 80.0881C92.5232 79.9724 92.4236 79.9047 92.2982 79.885C92.1751 79.8638 92.0356 79.9029 91.8798 80.0022L91.228 80.4174C91.1454 80.47 91.0739 80.5454 91.0136 80.6436C90.9518 80.7394 90.9245 80.8398 90.9316 80.9448C90.9418 81.1641 90.8659 81.3237 90.7038 81.4236L90.176 81.7598C90.1123 81.8005 90.0464 81.8142 89.9783 81.8012C89.9126 81.7866 89.8594 81.7474 89.8188 81.6837C89.6157 81.3649 89.6064 81.0089 89.7909 80.6159C89.9777 80.2213 90.2907 79.8841 90.73 79.6043L91.4419 79.1507C91.9402 78.8333 92.3932 78.6741 92.801 78.6733C93.2097 78.6686 93.5329 78.8528 93.7705 79.2259C94.0082 79.599 94.0109 79.9757 93.7785 80.3562C94.3218 80.3022 94.7364 80.4996 95.0222 80.9482C95.2719 81.3402 95.3146 81.7147 95.1503 82.0717C94.9869 82.4248 94.6312 82.7759 94.0833 83.1249L93.2935 83.6281C92.8188 83.9305 92.3616 84.0857 91.9218 84.0936C91.482 84.1016 91.1591 83.9438 90.953 83.6203Z" fill="#FEFEFE"/>
<path d="M96.833 80.9151C96.3829 80.8964 96.0315 80.6887 95.7787 80.292C95.526 79.8953 95.4878 79.4914 95.6641 79.0802C95.8428 78.6676 96.1789 78.3041 96.6724 77.9897L97.8448 77.2428C97.6688 76.9665 97.4884 76.8109 97.3035 76.776C97.1185 76.7411 96.8809 76.8161 96.5904 77.0012C96.3023 77.1847 96.1451 77.3861 96.1188 77.6054C96.0934 77.8208 95.9956 77.9826 95.8256 78.0909L95.2978 78.4272C95.2341 78.4678 95.1682 78.4816 95.1001 78.4685C95.0328 78.4516 94.9797 78.4124 94.9406 78.351C94.5088 77.6733 94.9364 76.9245 96.2234 76.1046C96.7854 75.7465 97.3169 75.5855 97.8179 75.6216C98.3175 75.6553 98.7349 75.9354 99.0704 76.462L100.467 78.6546C100.508 78.7183 100.521 78.7831 100.506 78.8488C100.492 78.9145 100.453 78.9677 100.389 79.0083L99.7052 79.4438C99.6414 79.4844 99.5767 79.4975 99.511 79.4829C99.4438 79.466 99.3906 79.4268 99.3515 79.3654L99.2815 79.2556C99.0784 79.7601 98.7317 80.1669 98.2414 80.476C97.7549 80.7859 97.2855 80.9322 96.833 80.9151ZM97.2697 78.7396C97.1044 78.8449 96.9989 78.9685 96.9532 79.1105C96.9099 79.251 96.9289 79.385 97.0101 79.5125C97.0913 79.64 97.2079 79.7135 97.3597 79.733C97.5115 79.7524 97.6784 79.7042 97.8602 79.5884C98.2239 79.3567 98.5068 79.0271 98.7091 78.5994L98.3571 78.0468L97.2697 78.7396Z" fill="#FEFEFE"/>
<path d="M104.756 75.9224L102.56 72.4759C102.52 72.4121 102.507 72.3474 102.521 72.2817C102.537 72.2121 102.575 72.1577 102.636 72.1186L105.286 70.4307C105.347 70.3916 105.412 70.3805 105.479 70.3974C105.547 70.4105 105.601 70.4489 105.642 70.5126L105.91 70.9342C105.95 70.9956 105.961 71.0611 105.946 71.1306C105.931 71.1964 105.893 71.2488 105.832 71.2879L104.192 72.3327L105.982 75.1416C106.021 75.203 106.032 75.2685 106.017 75.3381C106.002 75.4038 105.964 75.4562 105.903 75.4953L105.11 76.0008C105.048 76.0399 104.984 76.0529 104.915 76.0399C104.848 76.0229 104.795 75.9838 104.756 75.9224Z" fill="#FEFEFE"/>
<path d="M109.543 74.5506L106.587 69.9104C106.547 69.8467 106.534 69.7819 106.548 69.7162C106.564 69.6466 106.602 69.5923 106.663 69.5531L107.347 69.1176C107.408 69.0785 107.473 69.0674 107.54 69.0844C107.608 69.0974 107.662 69.1358 107.703 69.1996L107.771 69.3059C107.975 68.8037 108.324 68.3954 108.818 68.081C109.311 67.7665 109.835 67.6788 110.388 67.8176C110.94 67.9542 111.423 68.3471 111.836 68.9965C112.249 69.6435 112.393 70.2485 112.27 70.8114C112.148 71.3743 111.796 71.8408 111.215 72.2109C110.915 72.4019 110.535 72.5591 110.076 72.6824L110.769 73.7698C110.81 73.8336 110.821 73.8991 110.804 73.9663C110.791 74.0344 110.754 74.088 110.693 74.1271L109.899 74.6326C109.838 74.6717 109.772 74.6835 109.703 74.6681C109.637 74.6535 109.584 74.6144 109.543 74.5506ZM109.555 71.8642C109.921 71.7669 110.208 71.6521 110.416 71.5197C110.74 71.3136 110.91 71.0756 110.927 70.8056C110.947 70.5342 110.828 70.1966 110.571 69.7928C110.314 69.389 110.062 69.1375 109.816 69.0384C109.571 68.9355 109.32 68.966 109.063 69.13C108.808 69.2924 108.579 69.5875 108.377 70.0152L109.555 71.8642Z" fill="#FEFEFE"/>
<path d="M115.077 70.1686L115.58 69.9332C115.913 69.7211 115.99 69.3285 115.81 68.7554C115.409 69.0112 114.997 69.1044 114.574 69.035C114.15 68.9633 113.644 68.6798 113.056 68.1844L111.439 66.8098C111.419 66.7954 111.402 66.7764 111.387 66.7528C111.371 66.7269 111.365 66.6871 111.371 66.6337C111.379 66.5787 111.412 66.5312 111.47 66.4912L112.21 66.0196C112.278 65.976 112.358 65.9582 112.45 65.9663C112.542 65.9706 112.62 66.0009 112.682 66.0574L114.103 67.2636C114.453 67.5583 114.733 67.7389 114.941 67.8053C115.152 67.8703 115.339 67.8509 115.502 67.7471L114.627 64.8185C114.602 64.738 114.603 64.658 114.628 64.5785C114.655 64.4952 114.702 64.4317 114.771 64.3881L115.518 63.9119C115.577 63.8743 115.633 63.8654 115.686 63.8851C115.738 63.9049 115.772 63.9277 115.789 63.9537C115.804 63.9773 115.814 63.9989 115.82 64.0184L117 67.918C117.208 68.6089 117.268 69.1578 117.182 69.5646C117.099 69.9698 116.864 70.2951 116.479 70.5403C116.094 70.7855 115.813 70.9451 115.634 71.019C115.458 71.0915 115.336 71.1193 115.269 71.1023C115.203 71.0878 115.153 71.0533 115.118 70.999L114.87 70.6094C114.829 70.5456 114.816 70.4797 114.829 70.4116C114.843 70.3459 114.882 70.2927 114.946 70.2521L115.077 70.1686Z" fill="#FEFEFE"/>
<path d="M118.182 66.2733C118.142 66.2095 118.129 66.1448 118.143 66.0791C118.16 66.0118 118.199 65.9587 118.261 65.9195L118.792 65.5811C118.953 65.4788 119.129 65.4793 119.321 65.5827C119.514 65.6823 119.739 65.6501 119.996 65.4861L120.715 65.028C121.058 64.8099 121.14 64.5603 120.961 64.2793C120.782 63.9983 120.522 63.968 120.181 64.1885L119.302 64.7481C119.238 64.7888 119.173 64.8025 119.104 64.7895C119.037 64.7725 118.983 64.7322 118.943 64.6684L118.708 64.3001C118.667 64.2363 118.654 64.1716 118.669 64.1058C118.684 64.0362 118.724 63.9811 118.788 63.9405L119.599 63.4238C119.755 63.3245 119.85 63.2158 119.884 63.0976C119.919 62.9757 119.9 62.8568 119.826 62.7411C119.753 62.6254 119.653 62.5577 119.528 62.538C119.405 62.5168 119.265 62.5558 119.109 62.6551L118.457 63.0703C118.375 63.123 118.303 63.1984 118.243 63.2966C118.181 63.3924 118.154 63.4928 118.161 63.5978C118.171 63.817 118.095 63.9766 117.933 64.0766L117.405 64.4128C117.342 64.4534 117.276 64.4672 117.208 64.4541C117.142 64.4396 117.089 64.4004 117.048 64.3366C116.845 64.0178 116.836 63.6619 117.02 63.2688C117.207 62.8743 117.52 62.5371 117.959 62.2572L118.671 61.8037C119.17 61.4862 119.623 61.3271 120.03 61.3263C120.439 61.3215 120.762 61.5057 121 61.8788C121.238 62.2519 121.24 62.6287 121.008 63.0091C121.551 62.9552 121.966 63.1525 122.252 63.6012C122.501 63.9932 122.544 64.3677 122.38 64.7247C122.216 65.0778 121.861 65.4289 121.313 65.7779L120.523 66.2811C120.048 66.5835 119.591 66.7387 119.151 66.7466C118.711 66.7546 118.388 66.5968 118.182 66.2733Z" fill="#FEFEFE"/>
<path d="M124.03 63.3297C123.445 63.2243 122.942 62.841 122.521 62.1799C122.098 61.5163 121.963 60.8983 122.116 60.326C122.268 59.7512 122.689 59.2442 123.378 58.8049C124.07 58.3642 124.709 58.1964 125.294 58.3018C125.877 58.4048 126.38 58.7881 126.803 59.4516C127.224 60.1128 127.359 60.7308 127.207 61.3055C127.056 61.8803 126.634 62.388 125.942 62.8288C125.252 63.2681 124.615 63.435 124.03 63.3297ZM123.383 60.336C123.358 60.6205 123.48 60.9729 123.748 61.3933C124.015 61.8136 124.284 62.074 124.554 62.1743C124.824 62.2747 125.116 62.2248 125.43 62.0247C125.746 61.8232 125.916 61.5789 125.939 61.292C125.964 61.0036 125.843 60.6492 125.575 60.2289C125.308 59.8085 125.038 59.5501 124.768 59.4536C124.499 59.3556 124.207 59.4074 123.891 59.609C123.577 59.8091 123.407 60.0514 123.383 60.336Z" fill="#FEFEFE"/>
<path d="M128.993 60.4819L126.797 57.0354C126.756 56.9716 126.743 56.9069 126.758 56.8412C126.773 56.7716 126.812 56.7172 126.873 56.6781L128.092 55.9019C128.231 55.8131 128.393 55.8328 128.577 55.9609L130.787 57.5214L130.306 54.8597C130.268 54.6383 130.318 54.4832 130.458 54.3945L131.676 53.6182C131.74 53.5776 131.806 53.5657 131.873 53.5827C131.941 53.5957 131.995 53.6341 132.036 53.6979L134.231 57.1444C134.272 57.2082 134.284 57.2736 134.267 57.3409C134.252 57.4066 134.213 57.4598 134.15 57.5004L133.381 57.9901C133.317 58.0307 133.252 58.0437 133.187 58.0291C133.119 58.0122 133.066 57.973 133.027 57.9116L131.617 55.6978L132.1 58.4574C132.132 58.6694 132.073 58.8235 131.922 58.9198L131.574 59.1409C131.426 59.2357 131.262 59.2238 131.083 59.1051L128.787 57.5008L130.197 59.7147C130.238 59.7784 130.249 59.8439 130.232 59.9111C130.218 59.9768 130.179 60.03 130.115 60.0706L129.346 60.5603C129.283 60.6009 129.218 60.614 129.152 60.5994C129.086 60.5848 129.033 60.5457 128.993 60.4819Z" fill="#FEFEFE"/>
<path fill-rule="evenodd" clip-rule="evenodd" d="M45.6905 115.072C48.2557 115.072 50.5855 112.436 50.5855 110.108C50.5855 107.781 48.506 105.894 45.9408 105.894C43.3756 105.894 41.2961 107.781 41.2961 110.108C41.2961 112.436 43.1253 115.072 45.6905 115.072ZM44.301 107.471C45.1549 106.927 45.9171 106.76 46.5875 106.97C47.258 107.18 47.8796 107.735 48.4525 108.634C49.023 109.53 49.2618 110.326 49.1691 111.022C49.0739 111.715 48.5994 112.333 47.7455 112.877C46.8954 113.419 46.1344 113.588 45.4626 113.383C44.7921 113.173 44.1717 112.62 43.6012 111.725C43.0283 110.826 42.7883 110.028 42.881 109.331C42.9776 108.632 43.4509 108.012 44.301 107.471Z" fill="#FEFEFE"/>
<path d="M51.4781 111.232C51.1382 112.4 50.2201 113.46 48.7239 114.413C47.2315 115.364 45.8826 115.748 44.6772 115.565C43.4694 115.378 42.3973 114.55 41.461 113.08C40.5246 111.611 40.2283 110.291 40.572 109.121C40.9157 107.951 41.8338 106.891 43.3262 105.94C44.8224 104.987 46.1713 104.603 47.3729 104.788C48.5783 104.971 49.6492 105.798 50.5855 107.267C51.5219 108.737 51.8194 110.059 51.4781 111.232ZM46.5875 106.97C45.9171 106.76 45.1549 106.927 44.301 107.471C43.4509 108.012 42.9776 108.632 42.881 109.331C42.7883 110.028 43.0283 110.826 43.6012 111.725C44.1717 112.62 44.7921 113.173 45.4626 113.383C46.1344 113.588 46.8954 113.419 47.7455 112.877C48.5994 112.333 49.0739 111.715 49.1691 111.022C49.2618 110.326 49.023 109.53 48.4525 108.634C47.8796 107.735 47.258 107.18 46.5875 106.97Z" stroke="#161616" stroke-width="0.888166" mask="url(#path-21-outside-1_320_195440)"/>
<path d="M53.1875 108.924C53.163 108.907 53.1402 108.882 53.1192 108.848C53.0966 108.813 53.0907 108.762 53.1014 108.695L53.2938 106.277L51.1068 105.385C50.968 105.334 50.9077 105.249 50.9256 105.132C50.9329 105.081 50.9625 105.039 51.0145 105.005L51.7831 104.516C52.0122 104.37 52.2626 104.356 52.5343 104.475L53.6909 104.993L53.7103 103.726C53.7172 103.43 53.8352 103.208 54.0643 103.063L54.8329 102.573C54.8849 102.54 54.9355 102.531 54.9849 102.546C55.0992 102.579 55.1501 102.67 55.1377 102.817L55.0223 105.176L57.2953 106.024C57.3601 106.042 57.4046 106.07 57.4287 106.108C57.4512 106.143 57.4638 106.174 57.4664 106.199C57.4942 106.284 57.4667 106.353 57.384 106.405L56.6296 106.886C56.4123 107.024 56.1619 107.038 55.8784 106.926L54.6116 106.439L54.5147 107.795C54.4983 108.098 54.3815 108.318 54.1642 108.457L53.4098 108.937C53.3271 108.99 53.253 108.986 53.1875 108.924Z" stroke="#161616" stroke-width="0.888166" mask="url(#path-21-outside-1_320_195440)"/>
<path d="M58.5136 105.068C57.9286 104.963 57.4254 104.58 57.0042 103.918C56.5815 103.255 56.4467 102.637 56.6 102.065C56.7517 101.49 57.1724 100.983 57.8619 100.544C58.5538 100.103 59.1923 99.935 59.7773 100.04C60.3608 100.143 60.8639 100.527 61.2867 101.19C61.7079 101.851 61.8426 102.469 61.6909 103.044C61.5391 103.619 61.1173 104.127 60.4254 104.567C59.7359 105.007 59.0986 105.174 58.5136 105.068ZM57.8662 102.075C57.8417 102.359 57.9633 102.712 58.2311 103.132C58.4989 103.552 58.7676 103.813 59.0374 103.913C59.3072 104.013 59.5991 103.963 59.9132 103.763C60.2296 103.562 60.3993 103.317 60.4224 103.031C60.4478 102.742 60.3266 102.388 60.0588 101.967C59.791 101.547 59.5218 101.289 59.2512 101.192C58.9829 101.094 58.6906 101.146 58.3742 101.348C58.0601 101.548 57.8908 101.79 57.8662 102.075Z" stroke="#161616" stroke-width="0.888166" mask="url(#path-21-outside-1_320_195440)"/>
<path d="M61.1134 99.4731L60.8448 99.0516C60.8042 98.9878 60.7912 98.9231 60.8057 98.8573C60.8212 98.7878 60.8608 98.7327 60.9245 98.692L64.4135 96.4693C64.4773 96.4287 64.5428 96.4168 64.61 96.4338C64.6757 96.4483 64.7289 96.4875 64.7695 96.5513L65.038 96.9728C65.0772 97.0342 65.0902 97.0989 65.0771 97.167C65.0625 97.2327 65.0234 97.2859 64.9596 97.3265L63.8297 98.0463L65.6192 100.855C65.6583 100.917 65.6701 100.982 65.6547 101.052C65.6401 101.117 65.601 101.171 65.5372 101.211L64.7473 101.714C64.6835 101.755 64.6176 101.769 64.5495 101.756C64.4823 101.739 64.4292 101.7 64.39 101.638L62.6006 98.8294L61.4706 99.5492C61.4069 99.5899 61.3409 99.6036 61.2729 99.5906C61.2056 99.5736 61.1525 99.5345 61.1134 99.4731Z" stroke="#161616" stroke-width="0.888166" mask="url(#path-21-outside-1_320_195440)"/>
<path d="M67.914 99.3933L65.7184 95.9468C65.6778 95.883 65.6647 95.8183 65.6793 95.7525C65.6947 95.683 65.7331 95.6286 65.7945 95.5895L66.588 95.084C66.6517 95.0434 66.7172 95.0316 66.7844 95.0485C66.8502 95.0631 66.9033 95.1022 66.944 95.166L67.7518 96.4341L69.3033 95.4457L68.4954 94.1776C68.4548 94.1138 68.4418 94.0491 68.4563 93.9834C68.4718 93.9138 68.5114 93.8587 68.5751 93.8181L69.365 93.3148C69.4288 93.2742 69.4943 93.2624 69.5615 93.2793C69.6272 93.2939 69.6804 93.3331 69.721 93.3968L71.9167 96.8433C71.9573 96.9071 71.9703 96.9718 71.9557 97.0375C71.9412 97.1032 71.902 97.1564 71.8382 97.197L71.0483 97.7003C70.9846 97.7409 70.9187 97.7546 70.8506 97.7416C70.7834 97.7246 70.7302 97.6855 70.6911 97.6241L69.8494 96.3029L68.2979 97.2913L69.1396 98.6125C69.1802 98.6762 69.1921 98.7417 69.1751 98.8089C69.1606 98.8747 69.1226 98.9271 69.0612 98.9662L68.2678 99.4717C68.204 99.5123 68.1393 99.5253 68.0735 99.5107C68.0078 99.4962 67.9547 99.457 67.914 99.3933Z" stroke="#161616" stroke-width="0.888166" mask="url(#path-21-outside-1_320_195440)"/>
<path d="M73.2233 96.0109L71.0276 92.5644C70.987 92.5006 70.974 92.4359 70.9885 92.3702C71.004 92.3006 71.0424 92.2463 71.1038 92.2071L71.8441 91.7355C71.9078 91.6949 71.9733 91.683 72.0406 91.7C72.1086 91.713 72.163 91.7515 72.2036 91.8152L73.6862 94.1424L73.473 91.0563C73.4641 90.959 73.4836 90.862 73.5315 90.7651C73.5778 90.6659 73.6376 90.5929 73.7108 90.5463L74.7026 89.9144C74.7663 89.8738 74.8318 89.862 74.8991 89.8789C74.9671 89.892 75.0215 89.9304 75.0621 89.9941L77.2578 93.4406C77.2984 93.5044 77.3102 93.5699 77.2933 93.6371C77.2787 93.7028 77.2396 93.756 77.1758 93.7966L76.4355 94.2682C76.3717 94.3089 76.307 94.3219 76.2413 94.3073C76.1741 94.2904 76.1209 94.2512 76.0818 94.1898L74.6015 91.8662L74.8101 94.9452C74.816 95.0377 74.7965 95.1348 74.7516 95.2364C74.7053 95.3356 74.6455 95.4086 74.5723 95.4552L73.577 96.0893C73.5132 96.1299 73.4485 96.143 73.3828 96.1284C73.3171 96.1138 73.2639 96.0747 73.2233 96.0109Z" stroke="#161616" stroke-width="0.888166" mask="url(#path-21-outside-1_320_195440)"/>
<path d="M82.5133 90.1772C82.5795 90.2811 82.5512 90.3721 82.4284 90.4504L81.7589 90.8769C81.5322 91.0213 81.2809 91.0254 81.0048 90.8892L80.0879 90.4425C79.6941 90.2518 79.3131 90.2738 78.9447 90.5085L79.7864 91.8297C79.827 91.8935 79.8389 91.959 79.822 92.0262C79.8074 92.0919 79.7694 92.1443 79.708 92.1834L78.9146 92.6889C78.8508 92.7295 78.7861 92.7425 78.7204 92.728C78.6546 92.7134 78.6015 92.6742 78.5608 92.6105L76.3652 89.164C76.3246 89.1002 76.3115 89.0355 76.3261 88.9698C76.3415 88.9002 76.3799 88.8458 76.4413 88.8067L77.2348 88.3013C77.2985 88.2606 77.364 88.2488 77.4313 88.2657C77.497 88.2803 77.5501 88.3195 77.5908 88.3832L78.4302 89.7009C78.8411 89.4391 79.0206 89.1007 78.9686 88.6856L78.8483 87.7464C78.8308 87.6148 78.8486 87.4889 78.9016 87.3689C78.9546 87.2488 79.0342 87.1549 79.1405 87.0872L79.8099 86.6607C79.928 86.5855 80.0164 86.5939 80.075 86.686C80.1081 86.738 80.1314 86.8161 80.1447 86.9205L80.3016 88.175C80.326 88.3853 80.3077 88.5911 80.2468 88.7926C80.1859 88.994 80.0881 89.1609 79.9533 89.2933C80.2994 89.1956 80.6863 89.2479 81.114 89.4502L82.3367 90.0407C82.4204 90.0836 82.4793 90.1291 82.5133 90.1772Z" stroke="#161616" stroke-width="0.888166" mask="url(#path-21-outside-1_320_195440)"/>
<path d="M83.4238 89.5125L81.2281 86.066C81.1875 86.0022 81.1745 85.9375 81.189 85.8717C81.2045 85.8022 81.2429 85.7478 81.3043 85.7087L82.0446 85.2371C82.1083 85.1965 82.1738 85.1846 82.2411 85.2015C82.3091 85.2146 82.3635 85.253 82.4041 85.3168L83.8867 87.644L83.6735 84.5579C83.6646 84.4606 83.6841 84.3635 83.732 84.2667C83.7783 84.1674 83.8381 84.0945 83.9113 84.0479L84.9031 83.416C84.9668 83.3754 85.0323 83.3635 85.0996 83.3805C85.1676 83.3935 85.222 83.432 85.2626 83.4957L87.4583 86.9422C87.4989 87.006 87.5107 87.0715 87.4938 87.1387C87.4792 87.2044 87.4401 87.2576 87.3763 87.2982L86.636 87.7698C86.5722 87.8104 86.5075 87.8235 86.4418 87.8089C86.3746 87.792 86.3214 87.7528 86.2823 87.6914L84.802 85.3678L85.0106 88.4468C85.0165 88.5393 84.997 88.6364 84.9521 88.738C84.9058 88.8372 84.846 88.9101 84.7728 88.9568L83.7775 89.5909C83.7137 89.6315 83.649 89.6445 83.5833 89.63C83.5176 89.6154 83.4644 89.5762 83.4238 89.5125Z" stroke="#161616" stroke-width="0.888166" mask="url(#path-21-outside-1_320_195440)"/>
<path d="M90.953 83.6203C90.9123 83.5565 90.8993 83.4918 90.9139 83.4261C90.9308 83.3589 90.97 83.3057 91.0314 83.2666L91.5627 82.9281C91.7233 82.8258 91.8996 82.8263 92.0916 82.9298C92.2845 83.0293 92.5096 82.9971 92.767 82.8331L93.4861 82.375C93.8285 82.1569 93.9102 81.9073 93.7312 81.6263C93.5521 81.3453 93.2922 81.315 92.9513 81.5355L92.0728 82.0952C92.0091 82.1358 91.9431 82.1496 91.8751 82.1365C91.8078 82.1196 91.7539 82.0792 91.7133 82.0155L91.4786 81.6471C91.438 81.5833 91.425 81.5186 91.4395 81.4529C91.455 81.3833 91.4946 81.3282 91.5583 81.2876L92.3695 80.7708C92.5253 80.6715 92.6204 80.5628 92.6547 80.4447C92.6899 80.3227 92.6706 80.2038 92.5969 80.0881C92.5232 79.9724 92.4236 79.9047 92.2982 79.885C92.1751 79.8638 92.0356 79.9029 91.8798 80.0022L91.228 80.4174C91.1454 80.47 91.0739 80.5454 91.0136 80.6436C90.9518 80.7394 90.9245 80.8398 90.9316 80.9448C90.9418 81.1641 90.8659 81.3237 90.7038 81.4236L90.176 81.7598C90.1123 81.8005 90.0464 81.8142 89.9783 81.8012C89.9126 81.7866 89.8594 81.7474 89.8188 81.6837C89.6157 81.3649 89.6064 81.0089 89.7909 80.6159C89.9777 80.2213 90.2907 79.8841 90.73 79.6043L91.4419 79.1507C91.9402 78.8333 92.3932 78.6741 92.801 78.6733C93.2097 78.6686 93.5329 78.8528 93.7705 79.2259C94.0082 79.599 94.0109 79.9757 93.7785 80.3562C94.3218 80.3022 94.7364 80.4996 95.0222 80.9482C95.2719 81.3402 95.3146 81.7147 95.1503 82.0717C94.9869 82.4248 94.6312 82.7759 94.0833 83.1249L93.2935 83.6281C92.8188 83.9305 92.3616 84.0857 91.9218 84.0936C91.482 84.1016 91.1591 83.9438 90.953 83.6203Z" stroke="#161616" stroke-width="0.888166" mask="url(#path-21-outside-1_320_195440)"/>
<path d="M96.833 80.9151C96.3829 80.8964 96.0315 80.6887 95.7787 80.292C95.526 79.8953 95.4878 79.4914 95.6641 79.0802C95.8428 78.6676 96.1789 78.3041 96.6724 77.9897L97.8448 77.2428C97.6688 76.9665 97.4884 76.8109 97.3035 76.776C97.1185 76.7411 96.8809 76.8161 96.5904 77.0012C96.3023 77.1847 96.1451 77.3861 96.1188 77.6054C96.0934 77.8208 95.9956 77.9826 95.8256 78.0909L95.2978 78.4272C95.2341 78.4678 95.1682 78.4816 95.1001 78.4685C95.0328 78.4516 94.9797 78.4124 94.9406 78.351C94.5088 77.6733 94.9364 76.9245 96.2234 76.1046C96.7854 75.7465 97.3169 75.5855 97.8179 75.6216C98.3175 75.6553 98.7349 75.9354 99.0704 76.462L100.467 78.6546C100.508 78.7183 100.521 78.7831 100.506 78.8488C100.492 78.9145 100.453 78.9677 100.389 79.0083L99.7052 79.4438C99.6414 79.4844 99.5767 79.4975 99.511 79.4829C99.4438 79.466 99.3906 79.4268 99.3515 79.3654L99.2815 79.2556C99.0784 79.7601 98.7317 80.1669 98.2414 80.476C97.7549 80.7859 97.2855 80.9322 96.833 80.9151ZM97.2697 78.7396C97.1044 78.8449 96.9989 78.9685 96.9532 79.1105C96.9099 79.251 96.9289 79.385 97.0101 79.5125C97.0913 79.64 97.2079 79.7135 97.3597 79.733C97.5115 79.7524 97.6784 79.7042 97.8602 79.5884C98.2239 79.3567 98.5068 79.0271 98.7091 78.5994L98.3571 78.0468L97.2697 78.7396Z" stroke="#161616" stroke-width="0.888166" mask="url(#path-21-outside-1_320_195440)"/>
<path d="M104.756 75.9224L102.56 72.4759C102.52 72.4121 102.507 72.3474 102.521 72.2817C102.537 72.2121 102.575 72.1577 102.636 72.1186L105.286 70.4307C105.347 70.3916 105.412 70.3805 105.479 70.3974C105.547 70.4105 105.601 70.4489 105.642 70.5126L105.91 70.9342C105.95 70.9956 105.961 71.0611 105.946 71.1306C105.931 71.1964 105.893 71.2488 105.832 71.2879L104.192 72.3327L105.982 75.1416C106.021 75.203 106.032 75.2685 106.017 75.3381C106.002 75.4038 105.964 75.4562 105.903 75.4953L105.11 76.0008C105.048 76.0399 104.984 76.0529 104.915 76.0399C104.848 76.0229 104.795 75.9838 104.756 75.9224Z" stroke="#161616" stroke-width="0.888166" mask="url(#path-21-outside-1_320_195440)"/>
<path d="M109.543 74.5506L106.587 69.9104C106.547 69.8467 106.534 69.7819 106.548 69.7162C106.564 69.6466 106.602 69.5923 106.663 69.5531L107.347 69.1176C107.408 69.0785 107.473 69.0674 107.54 69.0844C107.608 69.0974 107.662 69.1358 107.703 69.1996L107.771 69.3059C107.975 68.8037 108.324 68.3954 108.818 68.081C109.311 67.7665 109.835 67.6788 110.388 67.8176C110.94 67.9542 111.423 68.3471 111.836 68.9965C112.249 69.6435 112.393 70.2485 112.27 70.8114C112.148 71.3743 111.796 71.8408 111.215 72.2109C110.915 72.4019 110.535 72.5591 110.076 72.6824L110.769 73.7698C110.81 73.8336 110.821 73.8991 110.804 73.9663C110.791 74.0344 110.754 74.088 110.693 74.1271L109.899 74.6326C109.838 74.6717 109.772 74.6835 109.703 74.6681C109.637 74.6535 109.584 74.6144 109.543 74.5506ZM109.555 71.8642C109.921 71.7669 110.208 71.6521 110.416 71.5197C110.74 71.3136 110.91 71.0756 110.927 70.8056C110.947 70.5342 110.828 70.1966 110.571 69.7928C110.314 69.389 110.062 69.1375 109.816 69.0384C109.571 68.9355 109.32 68.966 109.063 69.13C108.808 69.2924 108.579 69.5875 108.377 70.0152L109.555 71.8642Z" stroke="#161616" stroke-width="0.888166" mask="url(#path-21-outside-1_320_195440)"/>
<path d="M115.077 70.1686L115.58 69.9332C115.913 69.7211 115.99 69.3285 115.81 68.7554C115.409 69.0112 114.997 69.1044 114.574 69.035C114.15 68.9633 113.644 68.6798 113.056 68.1844L111.439 66.8098C111.419 66.7954 111.402 66.7764 111.387 66.7528C111.371 66.7269 111.365 66.6871 111.371 66.6337C111.379 66.5787 111.412 66.5312 111.47 66.4912L112.21 66.0196C112.278 65.976 112.358 65.9582 112.45 65.9663C112.542 65.9706 112.62 66.0009 112.682 66.0574L114.103 67.2636C114.453 67.5583 114.733 67.7389 114.941 67.8053C115.152 67.8703 115.339 67.8509 115.502 67.7471L114.627 64.8185C114.602 64.738 114.603 64.658 114.628 64.5785C114.655 64.4952 114.702 64.4317 114.771 64.3881L115.518 63.9119C115.577 63.8743 115.633 63.8654 115.686 63.8851C115.738 63.9049 115.772 63.9277 115.789 63.9537C115.804 63.9773 115.814 63.9989 115.82 64.0184L117 67.918C117.208 68.6089 117.268 69.1578 117.182 69.5646C117.099 69.9698 116.864 70.2951 116.479 70.5403C116.094 70.7855 115.813 70.9451 115.634 71.019C115.458 71.0915 115.336 71.1193 115.269 71.1023C115.203 71.0878 115.153 71.0533 115.118 70.999L114.87 70.6094C114.829 70.5456 114.816 70.4797 114.829 70.4116C114.843 70.3459 114.882 70.2927 114.946 70.2521L115.077 70.1686Z" stroke="#161616" stroke-width="0.888166" mask="url(#path-21-outside-1_320_195440)"/>
<path d="M118.182 66.2733C118.142 66.2095 118.129 66.1448 118.143 66.0791C118.16 66.0118 118.199 65.9587 118.261 65.9195L118.792 65.5811C118.953 65.4788 119.129 65.4793 119.321 65.5827C119.514 65.6823 119.739 65.6501 119.996 65.4861L120.715 65.028C121.058 64.8099 121.14 64.5603 120.961 64.2793C120.782 63.9983 120.522 63.968 120.181 64.1885L119.302 64.7481C119.238 64.7888 119.173 64.8025 119.104 64.7895C119.037 64.7725 118.983 64.7322 118.943 64.6684L118.708 64.3001C118.667 64.2363 118.654 64.1716 118.669 64.1058C118.684 64.0362 118.724 63.9811 118.788 63.9405L119.599 63.4238C119.755 63.3245 119.85 63.2158 119.884 63.0976C119.919 62.9757 119.9 62.8568 119.826 62.7411C119.753 62.6254 119.653 62.5577 119.528 62.538C119.405 62.5168 119.265 62.5558 119.109 62.6551L118.457 63.0703C118.375 63.123 118.303 63.1984 118.243 63.2966C118.181 63.3924 118.154 63.4928 118.161 63.5978C118.171 63.817 118.095 63.9766 117.933 64.0766L117.405 64.4128C117.342 64.4534 117.276 64.4672 117.208 64.4541C117.142 64.4396 117.089 64.4004 117.048 64.3366C116.845 64.0178 116.836 63.6619 117.02 63.2688C117.207 62.8743 117.52 62.5371 117.959 62.2572L118.671 61.8037C119.17 61.4862 119.623 61.3271 120.03 61.3263C120.439 61.3215 120.762 61.5057 121 61.8788C121.238 62.2519 121.24 62.6287 121.008 63.0091C121.551 62.9552 121.966 63.1525 122.252 63.6012C122.501 63.9932 122.544 64.3677 122.38 64.7247C122.216 65.0778 121.861 65.4289 121.313 65.7779L120.523 66.2811C120.048 66.5835 119.591 66.7387 119.151 66.7466C118.711 66.7546 118.388 66.5968 118.182 66.2733Z" stroke="#161616" stroke-width="0.888166" mask="url(#path-21-outside-1_320_195440)"/>
<path d="M124.03 63.3297C123.445 63.2243 122.942 62.841 122.521 62.1799C122.098 61.5163 121.963 60.8983 122.116 60.326C122.268 59.7512 122.689 59.2442 123.378 58.8049C124.07 58.3642 124.709 58.1964 125.294 58.3018C125.877 58.4048 126.38 58.7881 126.803 59.4516C127.224 60.1128 127.359 60.7308 127.207 61.3055C127.056 61.8803 126.634 62.388 125.942 62.8288C125.252 63.2681 124.615 63.435 124.03 63.3297ZM123.383 60.336C123.358 60.6205 123.48 60.9729 123.748 61.3933C124.015 61.8136 124.284 62.074 124.554 62.1743C124.824 62.2747 125.116 62.2248 125.43 62.0247C125.746 61.8232 125.916 61.5789 125.939 61.292C125.964 61.0036 125.843 60.6492 125.575 60.2289C125.308 59.8085 125.038 59.5501 124.768 59.4536C124.499 59.3556 124.207 59.4074 123.891 59.609C123.577 59.8091 123.407 60.0514 123.383 60.336Z" stroke="#161616" stroke-width="0.888166" mask="url(#path-21-outside-1_320_195440)"/>
<path d="M128.993 60.4819L126.797 57.0354C126.756 56.9716 126.743 56.9069 126.758 56.8412C126.773 56.7716 126.812 56.7172 126.873 56.6781L128.092 55.9019C128.231 55.8131 128.393 55.8328 128.577 55.9609L130.787 57.5214L130.306 54.8597C130.268 54.6383 130.318 54.4832 130.458 54.3945L131.676 53.6182C131.74 53.5776 131.806 53.5657 131.873 53.5827C131.941 53.5957 131.995 53.6341 132.036 53.6979L134.231 57.1444C134.272 57.2082 134.284 57.2736 134.267 57.3409C134.252 57.4066 134.213 57.4598 134.15 57.5004L133.381 57.9901C133.317 58.0307 133.252 58.0437 133.187 58.0291C133.119 58.0122 133.066 57.973 133.027 57.9116L131.617 55.6978L132.1 58.4574C132.132 58.6694 132.073 58.8235 131.922 58.9198L131.574 59.1409C131.426 59.2357 131.262 59.2238 131.083 59.1051L128.787 57.5008L130.197 59.7147C130.238 59.7784 130.249 59.8439 130.232 59.9111C130.218 59.9768 130.179 60.03 130.115 60.0706L129.346 60.5603C129.283 60.6009 129.218 60.614 129.152 60.5994C129.086 60.5848 129.033 60.5457 128.993 60.4819Z" stroke="#161616" stroke-width="0.888166" mask="url(#path-21-outside-1_320_195440)"/>
<path fill-rule="evenodd" clip-rule="evenodd" d="M45.6905 115.072C48.2557 115.072 50.5855 112.436 50.5855 110.108C50.5855 107.781 48.506 105.894 45.9408 105.894C43.3756 105.894 41.2961 107.781 41.2961 110.108C41.2961 112.436 43.1253 115.072 45.6905 115.072ZM44.301 107.471C45.1549 106.927 45.9171 106.76 46.5875 106.97C47.258 107.18 47.8796 107.735 48.4525 108.634C49.023 109.53 49.2618 110.326 49.1691 111.022C49.0739 111.715 48.5994 112.333 47.7455 112.877C46.8954 113.419 46.1344 113.588 45.4626 113.383C44.7921 113.173 44.1717 112.62 43.6012 111.725C43.0283 110.826 42.7883 110.028 42.881 109.331C42.9776 108.632 43.4509 108.012 44.301 107.471Z" stroke="#161616" stroke-width="0.888166" mask="url(#path-21-outside-1_320_195440)"/>
<defs>
<linearGradient id="paint0_linear_320_195440" x1="23.3779" y1="85.5952" x2="156.527" y2="85.5952" gradientUnits="userSpaceOnUse">
<stop stop-color="#FB3A42"/>
<stop offset="0.51616" stop-color="#B5040B"/>
<stop offset="0.994791" stop-color="#830005"/>
</linearGradient>
<linearGradient id="paint1_linear_320_195440" x1="21.8311" y1="53.0047" x2="60.021" y2="53.0047" gradientUnits="userSpaceOnUse">
<stop stop-color="#FB3A42"/>
<stop offset="0.51616" stop-color="#B5040B"/>
<stop offset="0.994791" stop-color="#830005"/>
</linearGradient>
<linearGradient id="paint2_linear_320_195440" x1="48.0955" y1="115.761" x2="143.476" y2="54.6198" gradientUnits="userSpaceOnUse">
<stop stop-color="#E0262D"/>
<stop offset="0.51616" stop-color="#B5040B"/>
<stop offset="0.994791" stop-color="#9C0209"/>
</linearGradient>
</defs>
</svg>
