<svg width="20" height="21" viewBox="0 0 20 21" fill="none" xmlns="http://www.w3.org/2000/svg">
<circle cx="10" cy="10.5" r="8" fill="url(#paint0_linear_320_195478)"/>
<path d="M5 7.91665C5 7.68654 5.18654 7.5 5.41665 7.5H14.5833C14.8135 7.5 15 7.68654 15 7.91665V8.74238C15 8.9002 14.9108 9.04447 14.7697 9.11505L10.1863 11.4066C10.069 11.4652 9.93097 11.4652 9.81368 11.4066L5.23033 9.11505C5.08917 9.04447 5 8.9002 5 8.74238V7.91665Z" fill="#FEFEFE"/>
<path d="M5.44445 14.3748C5.29045 14.3748 5.21884 14.1838 5.33487 14.0826L8.21623 11.5681C8.34892 11.4523 8.54008 11.4324 8.69374 11.5185L9.79643 12.1359C9.92291 12.2068 10.0771 12.2068 10.2036 12.1359L11.3063 11.5185C11.4599 11.4324 11.6511 11.4523 11.7838 11.5681L14.6651 14.0826C14.7812 14.1838 14.7095 14.3748 14.5555 14.3748H5.44445Z" fill="#FEFEFE"/>
<path d="M7.42695 11.534C7.64289 11.3368 7.59389 10.9844 7.33234 10.8536L5.60297 9.98897C5.32594 9.85046 5 10.0519 5 10.3616V12.8051C5 13.1673 5.43014 13.357 5.69758 13.1128L7.42695 11.534Z" fill="#FEFEFE"/>
<path d="M12.5731 11.534C12.3571 11.3368 12.4061 10.9844 12.6677 10.8536L14.397 9.98897C14.6741 9.85046 15 10.0519 15 10.3616V12.8051C15 13.1673 14.5699 13.357 14.3024 13.1128L12.5731 11.534Z" fill="#FEFEFE"/>
<defs>
<linearGradient id="paint0_linear_320_195478" x1="2" y1="10.6702" x2="18" y2="10.6702" gradientUnits="userSpaceOnUse">
<stop stop-color="#FB3A42"/>
<stop offset="0.51616" stop-color="#B5040B"/>
<stop offset="0.994791" stop-color="#830005"/>
</linearGradient>
</defs>
</svg>
