<svg width="41" height="40" viewBox="0 0 41 40" fill="none" xmlns="http://www.w3.org/2000/svg">
<circle cx="20.5" cy="20" r="16" fill="url(#paint0_linear_320_193833)"/>
<path d="M10.5 14.8333C10.5 14.3731 10.8731 14 11.3333 14H29.6667C30.1269 14 30.5 14.3731 30.5 14.8333V16.4848C30.5 16.8004 30.3217 17.0889 30.0393 17.2301L20.8726 21.8131C20.6381 21.9304 20.3619 21.9304 20.1274 21.8131L10.9607 17.2301C10.6783 17.0889 10.5 16.8004 10.5 16.4848V14.8333Z" fill="#FEFEFE"/>
<path d="M11.3889 27.7496C11.0809 27.7496 10.9377 27.3676 11.1697 27.1651L16.9325 22.1362C17.1978 21.9046 17.5802 21.8649 17.8875 22.037L20.0929 23.2719C20.3458 23.4135 20.6542 23.4135 20.9071 23.2719L23.1125 22.037C23.4198 21.8649 23.8022 21.9046 24.0675 22.1362L29.8303 27.1651C30.0623 27.3676 29.9191 27.7496 29.6111 27.7496H11.3889Z" fill="#FEFEFE"/>
<path d="M15.3539 22.0679C15.7858 21.6736 15.6878 20.9687 15.1647 20.7072L11.7059 18.9779C11.1519 18.7009 10.5 19.1038 10.5 19.7233V24.6103C10.5 25.3345 11.3603 25.714 11.8952 25.2257L15.3539 22.0679Z" fill="#FEFEFE"/>
<path d="M25.6461 22.0679C25.2142 21.6736 25.3122 20.9687 25.8353 20.7072L29.2941 18.9779C29.8481 18.7009 30.5 19.1038 30.5 19.7233V24.6103C30.5 25.3345 29.6397 25.714 29.1048 25.2257L25.6461 22.0679Z" fill="#FEFEFE"/>
<defs>
<linearGradient id="paint0_linear_320_193833" x1="4.5" y1="20.3404" x2="36.5" y2="20.3404" gradientUnits="userSpaceOnUse">
<stop stop-color="#FB3A42"/>
<stop offset="0.51616" stop-color="#B5040B"/>
<stop offset="0.994791" stop-color="#830005"/>
</linearGradient>
</defs>
</svg>
