<svg width="20" height="21" viewBox="0 0 20 21" fill="none" xmlns="http://www.w3.org/2000/svg">
<circle cx="10" cy="10.5" r="8" fill="url(#paint0_linear_320_195475)"/>
<path d="M12.1088 11.4933C11.5581 11.4432 11.2577 12.1942 10.8572 12.3944C10.2063 12.7449 9.00478 11.4933 9.00478 11.4933C9.00478 11.4933 7.75317 10.2917 8.05356 9.6409C8.30388 9.24038 9.05485 8.94 9.00478 8.38929C8.95472 7.88864 7.8533 6.08633 7.3026 6.58697C6.10105 7.68839 6.00092 8.13897 6.00092 9.04012C5.95086 10.5921 7.95343 12.5446 7.95343 12.5446C8.15369 12.7449 9.90594 14.5472 11.4579 14.4971C12.3591 14.4971 12.8097 14.397 13.9111 13.1955C14.4117 12.6448 12.6595 11.5433 12.1088 11.4933Z" fill="white"/>
<defs>
<linearGradient id="paint0_linear_320_195475" x1="2" y1="10.6702" x2="18" y2="10.6702" gradientUnits="userSpaceOnUse">
<stop stop-color="#FB3A42"/>
<stop offset="0.51616" stop-color="#B5040B"/>
<stop offset="0.994791" stop-color="#830005"/>
</linearGradient>
</defs>
</svg>
