<svg width="80" height="80" viewBox="0 0 80 80" fill="none" xmlns="http://www.w3.org/2000/svg">
<rect width="80" height="80" rx="40" fill="#C21B22"/>
<path d="M49.2045 44.7472C47.0045 44.5472 45.8045 47.5472 44.2045 48.3472C41.6045 49.7472 36.8045 44.7472 36.8045 44.7472C36.8045 44.7472 31.8045 39.9472 33.0045 37.3472C34.0045 35.7472 37.0045 34.5472 36.8045 32.3472C36.6045 30.3472 32.2045 23.1472 30.0045 25.1472C25.2045 29.5472 24.8045 31.3472 24.8045 34.9472C24.6045 41.1472 32.6045 48.9472 32.6045 48.9472C33.4045 49.7472 40.4045 56.9472 46.6045 56.7472C50.2045 56.7472 52.0045 56.3472 56.4045 51.5472C58.4045 49.3472 51.4045 44.9472 49.2045 44.7472Z" fill="white"/>
<path d="M42.4004 29.2002C50.0004 30.4002 51.2004 30.8002 52.4004 39.2002" stroke="#FEFEFE" stroke-width="2.4" stroke-linecap="round"/>
<path d="M42.4004 22.3994C54.5604 24.3194 56.4804 24.9594 58.4004 38.3994" stroke="#FEFEFE" stroke-width="2.4" stroke-linecap="round"/>
</svg>
