<svg width="40" height="40" viewBox="0 0 40 40" fill="none" xmlns="http://www.w3.org/2000/svg">
<rect x="3" y="3" width="33.33" height="33.33" rx="16.665" fill="url(#paint0_linear_320_195163)"/>
<path d="M23.5012 21.6449C22.5845 21.5616 22.0845 22.8116 21.4179 23.1449C20.3345 23.7283 18.3345 21.6449 18.3345 21.6449C18.3345 21.6449 16.2512 19.6449 16.7512 18.5616C17.1679 17.8949 18.4179 17.3949 18.3345 16.4783C18.2512 15.6449 16.4179 12.6449 15.5012 13.4783C13.5012 15.3116 13.3345 16.0616 13.3345 17.5616C13.2512 20.1449 16.5845 23.3949 16.5845 23.3949C16.9179 23.7283 19.8345 26.7283 22.4179 26.6449C23.9179 26.6449 24.6679 26.4783 26.5012 24.4783C27.3345 23.5616 24.4179 21.7283 23.5012 21.6449Z" fill="white"/>
<defs>
<linearGradient id="paint0_linear_320_195163" x1="3" y1="20.0196" x2="36.33" y2="20.0196" gradientUnits="userSpaceOnUse">
<stop stop-color="#FB3A42"/>
<stop offset="0.51616" stop-color="#B5040B"/>
<stop offset="0.994791" stop-color="#830005"/>
</linearGradient>
</defs>
</svg>
