<svg width="40" height="40" viewBox="0 0 40 40" fill="none" xmlns="http://www.w3.org/2000/svg">
<g id="Icon/Telegram Fill">
<path id="Subtract" fill-rule="evenodd" clip-rule="evenodd" d="M30 20C30 25.5228 25.5228 30 20 30C14.4772 30 10 25.5228 10 20C10 14.4772 14.4772 10 20 10C25.5228 10 30 14.4772 30 20Z" fill="#FEFEFE"/>
<path id="Subtract_2" fill-rule="evenodd" clip-rule="evenodd" d="M36.6663 20.0002C36.6663 29.2049 29.2044 36.6668 19.9997 36.6668C10.7949 36.6668 3.33301 29.2049 3.33301 20.0002C3.33301 10.7954 10.7949 3.3335 19.9997 3.3335C29.2044 3.3335 36.6663 10.7954 36.6663 20.0002ZM20.5969 15.6376C18.9758 16.3118 15.736 17.7074 10.8773 19.8242C10.0883 20.138 9.67502 20.4449 9.63739 20.745C9.5738 21.2523 10.209 21.452 11.0739 21.724C11.1916 21.761 11.3135 21.7993 11.4385 21.8399C12.2894 22.1165 13.4341 22.4401 14.0292 22.453C14.569 22.4647 15.1715 22.2421 15.8367 21.7854C20.3763 18.721 22.7196 17.1721 22.8668 17.1387C22.9705 17.1152 23.1144 17.0856 23.2118 17.1722C23.3093 17.2588 23.2997 17.4228 23.2894 17.4668C23.2265 17.7351 20.7331 20.0531 19.4429 21.2527C19.0406 21.6266 18.7553 21.8919 18.697 21.9524C18.5663 22.0882 18.4332 22.2165 18.3052 22.3399C17.5146 23.102 16.9218 23.6735 18.338 24.6068C19.0186 25.0553 19.5632 25.4262 20.1065 25.7962C20.6999 26.2003 21.2917 26.6033 22.0575 27.1053C22.2525 27.2332 22.4389 27.366 22.6203 27.4954C23.3109 27.9876 23.9312 28.4299 24.6977 28.3594C25.143 28.3184 25.6031 27.8996 25.8367 26.6507C26.3888 23.699 27.4741 17.3036 27.725 14.6682C27.7469 14.4373 27.7193 14.1418 27.6971 14.0121C27.6749 13.8824 27.6285 13.6975 27.4599 13.5607C27.2602 13.3987 26.9519 13.3645 26.8141 13.3668C26.1872 13.378 25.2254 13.7124 20.5969 15.6376Z" fill="url(#paint0_linear_320_195172)"/>
</g>
<defs>
<linearGradient id="paint0_linear_320_195172" x1="3.33301" y1="20.3548" x2="36.6663" y2="20.3548" gradientUnits="userSpaceOnUse">
<stop stop-color="#FB3A42"/>
<stop offset="0.51616" stop-color="#B5040B"/>
<stop offset="0.994791" stop-color="#830005"/>
</linearGradient>
</defs>
</svg>
