<svg width="40" height="40" viewBox="0 0 40 40" fill="none" xmlns="http://www.w3.org/2000/svg">
<rect x="3" y="3" width="33.33" height="33.33" rx="16.665" fill="url(#paint0_linear_320_195173)"/>
<path d="M27.1923 12.2501C26.6838 11.7742 24.6257 10.2568 20.0371 10.2364C20.0371 10.2364 14.6276 9.9069 11.9929 12.364C10.5274 13.853 10.0109 16.0375 9.95481 18.7428C9.89875 21.4481 9.83068 26.5169 14.6396 27.8919H14.6436L14.6396 29.9911C14.6396 29.9911 14.6075 30.8413 15.1601 31.0122C15.8248 31.2237 16.2172 30.5769 16.8538 29.8812C17.2022 29.4988 17.6827 28.9374 18.047 28.5103C21.3384 28.791 23.865 28.1482 24.1532 28.0547C24.8179 27.835 28.5777 27.3468 29.1864 22.278C29.819 17.0464 28.8821 13.7431 27.1923 12.2501ZM27.7489 21.8956C27.2324 26.1264 24.1853 26.3949 23.6247 26.5779C23.3845 26.6552 21.1622 27.2166 18.3714 27.0336C18.3714 27.0336 16.2893 29.5843 15.6406 30.2474C15.4284 30.463 15.1961 30.4426 15.2001 30.0155C15.2001 29.7348 15.2162 26.5291 15.2162 26.5291C15.2122 26.5291 15.2122 26.5291 15.2162 26.5291C11.14 25.3819 11.3803 21.0657 11.4243 18.8079C11.4683 16.5501 11.8888 14.6991 13.13 13.4543C15.3603 11.3999 19.953 11.705 19.953 11.705C23.8329 11.7213 25.6908 12.9092 26.1232 13.3078C27.5527 14.5527 28.2814 17.5305 27.7489 21.8956ZM22.1832 18.6086C22.1993 18.9584 21.6827 18.9828 21.6667 18.633C21.6227 17.738 21.2103 17.3027 20.3614 17.2539C20.017 17.2335 20.0491 16.7088 20.3894 16.7291C21.5066 16.7901 22.1272 17.441 22.1832 18.6086ZM22.9961 19.0682C23.0361 17.3434 21.975 15.9928 19.961 15.8422C19.6206 15.8178 19.6567 15.2931 19.997 15.3175C22.3194 15.4883 23.5566 17.1115 23.5126 19.0805C23.5086 19.4303 22.9881 19.414 22.9961 19.0682ZM24.878 19.6134C24.882 19.9632 24.3615 19.9673 24.3615 19.6174C24.3374 16.3019 22.1632 14.4957 19.5245 14.4754C19.1842 14.4713 19.1842 13.9506 19.5245 13.9506C22.4755 13.9709 24.85 16.0416 24.878 19.6134ZM24.4255 23.6042V23.6123C23.9931 24.3852 23.1843 25.2395 22.3514 24.967L22.3434 24.9548C21.4985 24.7148 19.5085 23.6733 18.2512 22.6563C17.6026 22.1356 17.01 21.5213 16.5535 20.9314C16.1411 20.4066 15.7247 19.7842 15.3203 19.0357C14.4674 17.4695 14.2792 16.7698 14.2792 16.7698C14.0109 15.9236 14.8478 15.1019 15.6126 14.6625H15.6206C15.9889 14.4672 16.3413 14.5323 16.5775 14.8212C16.5775 14.8212 17.074 15.4232 17.2863 15.7202C17.4865 15.9968 17.7547 16.4403 17.8949 16.6884C18.1391 17.1318 17.987 17.5834 17.7467 17.7705L17.2662 18.1611C17.022 18.3604 17.054 18.7306 17.054 18.7306C17.054 18.7306 17.7668 21.4684 20.4295 22.16C20.4295 22.16 20.7938 22.1925 20.99 21.9444L21.3744 21.4562C21.5586 21.2121 22.0031 21.0575 22.4395 21.3057C23.0281 21.6433 23.7769 22.1681 24.2734 22.6441C24.5537 22.876 24.6177 23.2299 24.4255 23.6042Z" fill="#FEFEFE"/>
<defs>
<linearGradient id="paint0_linear_320_195173" x1="3" y1="20.0196" x2="36.33" y2="20.0196" gradientUnits="userSpaceOnUse">
<stop stop-color="#FB3A42"/>
<stop offset="0.51616" stop-color="#B5040B"/>
<stop offset="0.994791" stop-color="#830005"/>
</linearGradient>
</defs>
</svg>
