<svg width="35" height="36" viewBox="0 0 35 36" fill="none" xmlns="http://www.w3.org/2000/svg">
<g id="Icon/arrow-circle-right">
<path id="Vector" d="M29.1663 17.9997C29.1663 24.4163 23.9163 29.6663 17.4997 29.6663C11.083 29.6663 5.83301 24.4163 5.83301 17.9997C5.83301 11.583 11.083 6.33301 17.4997 6.33301C23.9163 6.33301 29.1663 11.583 29.1663 17.9997Z" fill="#FEFEFE"/>
<path id="Vector_2" d="M17.4997 29.6663C23.9163 29.6663 29.1663 24.4163 29.1663 17.9997C29.1663 11.583 23.9163 6.33301 17.4997 6.33301C11.083 6.33301 5.83301 11.583 5.83301 17.9997C5.83301 24.4163 11.083 29.6663 17.4997 29.6663ZM19.833 16.5413L17.9151 14.6234C17.5246 14.2329 17.5246 13.5998 17.9151 13.2092L18.5426 12.5818C18.9331 12.1913 19.5663 12.1913 19.9568 12.5818L24.6676 17.2926C25.0581 17.6831 25.0581 18.3163 24.6676 18.7068L19.9568 23.4176C19.5663 23.8081 18.9331 23.8081 18.5426 23.4176L17.9151 22.7901C17.5246 22.3996 17.5246 21.7664 17.9151 21.3759L19.833 19.458H11.208C10.6557 19.458 10.208 19.0103 10.208 18.458V17.5413C10.208 16.9891 10.6557 16.5413 11.208 16.5413H19.833Z" fill="url(#paint0_linear_320_195245)"/>
</g>
<defs>
<linearGradient id="paint0_linear_320_195245" x1="5.83301" y1="18.2479" x2="29.1663" y2="18.2479" gradientUnits="userSpaceOnUse">
<stop stop-color="#FB3A42"/>
<stop offset="0.51616" stop-color="#B5040B"/>
<stop offset="0.994791" stop-color="#830005"/>
</linearGradient>
</defs>
</svg>
