<svg width="30" height="31" viewBox="0 0 30 31" fill="none" xmlns="http://www.w3.org/2000/svg">
<g clip-path="url(#clip0_320_195212)">
<path d="M29.6864 11.5282L22.1862 4.02805C21.7677 3.60969 21.0893 3.60981 20.671 4.0283C20.4701 4.22918 20.3573 4.50158 20.3573 4.78562V7.99996H12.8571C12.2653 7.99996 11.7856 8.47966 11.7856 9.07142C11.7856 9.66319 12.2653 10.1429 12.8571 10.1429H21.4287C22.0205 10.1429 22.5002 9.66319 22.5002 9.07142V7.37203L27.4139 12.2857L22.5002 17.1994V15.5C22.5002 14.9083 22.0205 14.4286 21.4287 14.4286H9.64278V11.2142C9.64265 10.6225 9.16282 10.1429 8.57112 10.143C8.28708 10.1431 8.01469 10.2559 7.81381 10.4567L0.313727 17.9569C-0.104576 18.3753 -0.104576 19.0535 0.313727 19.4719L7.81387 26.972C8.01476 27.173 8.28723 27.2859 8.57137 27.286C8.7122 27.2864 8.85171 27.2587 8.9817 27.2046C9.17745 27.1234 9.34473 26.986 9.4624 26.8098C9.58007 26.6336 9.64284 26.4264 9.64278 26.2145V23.0002H17.1429C17.7347 23.0002 18.2144 22.5205 18.2144 21.9287C18.2144 21.3369 17.7347 20.8572 17.1429 20.8572H8.57137C7.97961 20.8572 7.49991 21.3369 7.49991 21.9287V23.628L2.58624 18.7144L7.49991 13.8007V15.5C7.49991 16.0918 7.97961 16.5715 8.57137 16.5715H20.3573V19.7858C20.3574 20.3776 20.8372 20.8572 21.4289 20.8571C21.7129 20.857 21.9853 20.7442 22.1862 20.5433L29.6864 13.0432C30.1046 12.6248 30.1046 11.9466 29.6864 11.5282Z" fill="url(#paint0_linear_320_195212)"/>
</g>
<defs>
<linearGradient id="paint0_linear_320_195212" x1="0" y1="15.7509" x2="30" y2="15.7509" gradientUnits="userSpaceOnUse">
<stop stop-color="#FB3A42"/>
<stop offset="0.51616" stop-color="#B5040B"/>
<stop offset="0.994791" stop-color="#830005"/>
</linearGradient>
<clipPath id="clip0_320_195212">
<rect width="30" height="30" fill="white" transform="translate(0 0.5)"/>
</clipPath>
</defs>
</svg>
