<svg width="87" height="78" viewBox="0 0 87 78" fill="none" xmlns="http://www.w3.org/2000/svg">
<g id="Logo">
<path id="&#208;&#164;&#208;&#190;&#208;&#189; &#208;&#186;&#208;&#176;&#209;&#129;&#208;&#191;&#208;&#181;&#209;&#128;&#208;&#176; &#208;&#189;&#208;&#184;&#208;&#183;" d="M69.3075 33.3704L38.1592 53.0962L38.8473 53.3255L39.5354 53.876L38.7097 55.2981L37.5628 56.9496L34.8563 58.8304L34.5352 59.3809V59.7479L38.1592 61.7663L41.7832 62.8673L45.6366 63.7848L53.2517 63.1425L59.3988 60.6654L62.3806 58.234L66.7844 53.142L69.3075 47.8666L69.7204 45.4811V44.5178L72.1517 43.9673L73.3903 43.5086L74.3536 43.7379L75.7298 44.5178L77.9776 46.0316L79.5832 46.7197H80.7301L81.1429 46.261V45.4811L80.5924 44.5178L79.3997 43.5086L78.3905 42.5911L78.5281 41.9947L79.7208 41.6277L81.6017 41.8571L83.9412 41.9947L85.4551 41.6277L85.9138 40.802L85.4551 40.0221L84.1706 39.334L80.7301 38.5083L78.7575 38.0037L77.7024 37.7285V37.3156L78.207 36.2146L78.9869 35.2054L80.7301 33.5539L82.565 31.8566V30.8474L82.0604 30.3428L80.5007 30.5263L78.207 31.4896L74.9041 33.2328L72.1517 34.1962H70.8672H69.7662L69.4451 33.9668L69.3075 33.3704Z" fill="#FEFEFE"/>
<path id="&#208;&#145;&#208;&#147; &#208;&#189;&#208;&#184;&#208;&#183; &#208;&#186;&#208;&#190;&#208;&#187;&#208;&#181;&#209;&#129;&#208;&#176;" d="M55.4535 5.61604L52.2423 5.29492L51.6001 6.07478L49.3981 6.94638L47.7008 7.54274L47.4256 8.91895V12.2219L47.7008 15.066C48.0984 15.8612 49.1045 17.6074 49.7651 18.2313C56.8297 19.5158 59.0316 21.0296 63.3438 24.6537C66.6717 27.4505 69.9037 38.6452 69.5367 45.2051C69.1698 51.7651 61.2795 63.0042 48.71 63.3711C42.0169 63.5666 34.3974 59.6707 31.8285 57.2241L26.2319 47.7741L25.819 44.2418L21.0481 45.618L16.5066 47.5447L12.8367 46.719L12.4697 48.5539L13.8459 52.6367L15.4974 57.2241L17.7452 60.7105L21.461 65.5272L24.8098 68.7384L28.1127 70.9862L31.8285 72.9129L35.3608 74.6102L41.2785 75.8947L45.6824 76.4911H50.7744L55.4535 75.8947L61.8299 73.5551L67.0596 70.9862L71.5552 67.4998L75.0416 63.784L77.8858 60.2059L79.629 56.2607L81.5557 52.1321L82.7943 47.6364L82.9778 44.0124L83.4824 42.4986V39.3333L82.2897 38.0488L82.9778 37.0855V35.6634L82.7943 32.4981L81.5098 29.7915L80.0877 26.4427L78.7115 23.3233L77.1977 20.9379L76.0049 19.2864L74.1241 16.7175L71.6469 14.1944L67.1972 11.1209L63.6649 8.91895L60.5455 7.54274L57.6554 6.53351L55.4535 5.61604Z" fill="url(#paint0_linear_484_7189)"/>
<g id="&#208;&#154;&#208;&#190;&#208;&#187;&#208;&#181;&#209;&#129;&#208;&#190;">
<path id="&#208;&#145;&#208;&#147; &#208;&#178;&#208;&#181;&#209;&#128;&#209;&#133; &#208;&#186;&#208;&#190;&#208;&#187;&#208;&#181;&#209;&#129;&#208;&#176;" d="M12.6528 32.454L11.6436 37.1331L13.4785 38.2341L16.0933 39.2892L16.9649 38.5552L19.6715 36.0321L22.8826 32.7292L25.4057 29.3346L27.2406 27.9125L26.4608 26.3528L25.4057 24.3802V22.8205V21.6278L28.0205 16.811L31.2317 12.4989L32.0115 9.10422L31.7363 8.59961L29.6261 9.79233L26.5525 11.7649L22.8826 14.8843L20.2678 17.4074L17.653 20.8938L15.5428 24.7013L13.4785 29.3346L12.6528 32.454Z" fill="url(#paint1_linear_484_7189)"/>
</g>
<g id="&#208;&#167;&#208;&#181;&#209;&#128;&#208;&#189;&#209;&#139;&#208;&#185; &#208;&#177;&#208;&#179;">
<path id="Vector 11" d="M38.2056 53.0964C37.8019 52.9496 33.8323 55.7266 32.0126 57.0875L31.9209 57.3627C32.6549 58.0814 34.4164 59.3995 34.4898 59.1059C34.5816 58.739 36.6 57.2251 36.7835 57.0875C36.967 56.9499 37.9762 56.3535 38.2515 56.17C38.5267 55.9865 39.3983 54.014 39.4442 53.9222C39.4901 53.8305 38.7102 53.2799 38.2056 53.0964Z" fill="#161616"/>
<path id="Vector 3" d="M26.232 47.8207C26.2687 47.784 25.6968 45.7258 25.4062 44.7013C26.1769 43.7838 28.4492 43.2486 29.489 43.0957C29.7948 43.7991 30.3973 45.2426 30.3606 45.3894C30.3147 45.5729 26.1861 47.8666 26.232 47.8207Z" fill="#161616"/>
<path id="Vector 1" d="M63.2515 24.6081C58.3339 19.5069 52.2113 18.2622 49.7646 18.2775C51.3702 20.4335 51.2785 22.085 51.2326 22.3144C53.7098 22.0391 55.3219 22.025 57.7467 22.819C59.9028 23.525 61.6918 24.7457 62.2423 25.2962C62.3952 25.2044 62.8112 24.9384 63.2515 24.6081Z" fill="#161616" stroke="#161616" stroke-width="0.0789481"/>
</g>
<path id="&#208;&#158;&#208;&#177;&#208;&#178;&#208;&#190;&#208;&#180;&#208;&#186;&#208;&#176;" fill-rule="evenodd" clip-rule="evenodd" d="M30.5161 8.48442C32.3888 7.38189 46.2774 4.12486 54.7658 4.99872C55.6369 5.0884 56.5202 5.26695 56.8477 5.82373C56.9637 5.82373 57.0623 5.82026 57.1541 5.81703C57.534 5.80366 57.7958 5.79445 58.6826 6.0531C59.5634 6.31 61.0375 6.86354 61.6644 7.1082C62.0008 7.19995 62.6737 7.51189 62.6737 8.02568C63.1324 7.97981 67.8115 9.58539 68.1326 11.2368C68.9584 11.2827 73.2246 14.0351 73.087 15.3196C73.5916 15.3655 76.711 17.7051 77.1698 20.0446C77.7661 20.4575 80.2892 23.531 80.2433 25.4118C80.6103 25.7788 81.692 27.1535 81.7838 28.7591C82.3801 29.4915 83.1141 31.0986 82.7746 32.3831C83.6187 32.8877 84.1233 36.8803 83.5921 37.6143C84.2609 38.2565 84.5362 42.5671 83.8215 43.6237C83.7494 43.6958 83.7045 44.2434 83.6427 44.9975C83.5077 46.6436 83.2921 49.274 82.537 50.0919C82.5829 50.4131 81.6654 55.7344 80.3351 55.9638C80.3351 56.4684 78.5001 61.4228 77.1698 61.5145C77.078 62.1568 74.7843 66.1019 73.1329 66.2395C72.9035 66.9735 69.6923 70.4141 68.2244 70.4141C67.9491 71.0563 64.3251 73.6252 62.8113 73.5793C62.4443 74.084 58.3156 76.2859 56.9394 75.6895C56.4807 76.0565 52.352 77.3869 50.7465 76.8364C50.196 77.1575 45.471 77.6621 44.4159 76.8364C43.8195 77.0658 39.5074 76.9281 38.1312 75.6895C37.3513 75.7813 33.0392 74.9097 32.2593 73.5335C31.663 73.5335 27.5802 72.1114 26.8921 70.4599C26.2499 70.3223 22.1212 67.7992 21.9836 66.2854C21.2955 66.1019 18.1761 63.166 17.9926 61.5604C17.3962 61.2393 14.5979 57.9364 14.8273 56.0097C14.2768 55.7803 12.1207 51.3305 12.4877 50.0919C10.6335 46.0076 11.1326 45.7794 11.5702 35.2747C11.6161 34.1737 11.8455 31.9718 12.6253 31.4213C12.4419 30.8249 13.13 26.6963 14.7814 25.5036C14.7814 24.6779 16.6164 20.1822 17.9467 20.0905C17.9926 19.3565 20.2404 15.8242 21.9377 15.2737C22.0754 14.7691 25.2865 11.0992 26.8921 11.2368C26.9839 10.7322 29.35 9.17097 30.5161 8.48442ZM33.341 8.20761L32.1483 8.89572C30.6345 9.40033 28.5894 11.09 28.2224 11.2368C27.8555 11.3836 28.253 12.1849 28.4977 12.5672L27.3967 13.3012C27.2897 13.1788 26.993 12.8424 26.6627 12.4754C26.3621 12.1413 24.9665 13.4861 24.0354 14.3833C23.688 14.7181 23.4052 14.9905 23.2681 15.0902C22.8644 15.3838 23.6198 15.9466 24.0479 16.1912L22.8552 17.2004C22.6717 17.0017 22.2313 16.5857 21.9377 16.5123C21.6411 16.4382 20.3853 18.1624 19.6725 19.1411C19.5035 19.3731 19.365 19.5633 19.277 19.6776C18.9101 20.1547 19.6135 20.5492 20.011 20.6868L19.0477 21.8337C18.8642 21.6961 18.433 21.4025 18.1761 21.3291C17.9323 21.2594 17.186 22.7236 16.6199 23.8342C16.4405 24.1863 16.2791 24.5029 16.1576 24.7237C15.7539 25.4577 16.4787 25.7024 16.8916 25.733L16.2494 27.0174C16.0659 26.9257 15.598 26.733 15.1943 26.6963C14.8343 26.6636 14.3109 28.4753 13.9571 29.6996C13.815 30.1915 13.7003 30.5886 13.6346 30.7332C13.4511 31.1369 14.3227 31.299 14.7814 31.3295L14.4144 32.7058C14.1545 32.6293 13.5612 32.4672 13.2676 32.4305C12.9901 32.3958 12.7651 34.2755 12.6123 35.5514C12.5631 35.9631 12.5213 36.3119 12.4877 36.5133C12.3776 37.1739 13.2064 37.1555 13.6346 37.0638L13.0382 47.8441C13.0841 48.1958 13.2125 48.9268 13.3593 49.0368C13.5061 49.1469 14.1545 48.991 14.4603 48.8992L14.7355 50.3213C14.5215 50.3672 14.0199 50.5048 13.7263 50.6883C13.3593 50.9177 15.0567 54.4958 15.286 54.7252C15.4695 54.9087 16.0353 54.6488 16.2953 54.4958L16.9834 55.8262C16.6928 55.9332 16.0567 56.1932 15.8365 56.3767C15.6247 56.5531 16.7979 58.2775 17.5174 59.335C17.733 59.652 17.9079 59.909 17.9926 60.0466C18.2862 60.5237 18.9101 60.0007 19.1853 59.6796L20.1028 60.9182C20.0263 60.9793 19.7541 61.1659 19.277 61.4228C18.8509 61.6523 20.1583 63.0765 21.0564 64.0549C21.4151 64.4456 21.7085 64.7652 21.8001 64.9092C22.057 65.3129 22.6717 64.741 22.947 64.4046L23.9103 65.4138C23.6809 65.5973 23.213 66.0285 23.1763 66.2854C23.1395 66.5433 25.2038 68.1034 26.1604 68.8263C26.3948 69.0034 26.5627 69.1303 26.6169 69.1755C26.8371 69.359 27.2897 68.732 27.4885 68.3956L28.5436 69.1755C28.3754 69.359 28.0389 69.7993 28.0389 70.0929C28.0389 70.4295 31.0481 71.8848 31.6888 72.1947C31.7468 72.2227 31.7854 72.2414 31.8006 72.249C31.9474 72.3224 32.3205 71.6679 32.4887 71.3315L33.7273 71.9738C33.6661 72.1725 33.5071 72.6435 33.3603 72.9371C33.2213 73.2152 35.295 73.8621 36.5673 74.259C36.9739 74.3858 37.2986 74.4871 37.4431 74.5427C37.6999 74.7996 38.0088 74.0075 38.1312 73.5793L39.278 73.9005C39.2627 74.191 39.2413 74.8271 39.278 75.0473C39.3239 75.3225 43.3149 75.6895 43.6819 75.6895C43.9755 75.6895 43.8654 75.0779 43.7736 74.7721L45.2416 74.8179C45.2263 75.0932 45.2141 75.6987 45.2875 75.9189C45.3792 76.1942 49.3702 75.9648 49.7372 75.9189C50.0308 75.8822 49.9513 75.1391 49.8749 74.7721H51.2969C51.2969 75.032 51.3245 75.607 51.4346 75.8272C51.5358 76.0296 53.6475 75.5371 54.9033 75.2442C55.3547 75.1389 55.6955 75.0594 55.7926 75.0473C56.0862 75.0106 55.8232 74.2369 55.655 73.8546L57.0312 73.4876C57.0465 73.7781 57.1504 74.3959 57.444 74.5427C57.811 74.7262 61.5268 73.1665 61.6644 72.8454C61.7745 72.5885 61.4351 72.1573 61.2516 71.9738L62.5819 71.4233C62.6584 71.5456 62.8663 71.882 63.0865 72.249C63.3618 72.7077 66.9399 70.3223 67.0317 70.0929C67.1051 69.9094 66.7258 69.3742 66.5271 69.1296L67.7198 68.3039C67.888 68.5638 68.2886 69.0929 68.5455 69.1296C68.8666 69.1755 71.619 66.5148 71.8025 66.2395C71.9493 66.0193 71.4355 65.5361 71.1603 65.3221L72.1695 64.3587C72.3836 64.5422 72.876 64.9184 73.1329 64.9551C73.454 65.0009 75.6559 61.9733 75.7936 61.6522C75.9037 61.3953 75.3195 61.0252 75.0137 60.8723L75.8853 59.6796C76.0994 59.8784 76.5918 60.2851 76.8487 60.3218C77.1698 60.3677 79.0965 56.5602 79.1882 56.2849C79.2616 56.0647 78.546 55.8568 78.179 55.7803L78.7295 54.4958C78.9741 54.5876 79.546 54.7619 79.8763 54.7252C80.2892 54.6793 81.2984 50.9177 81.3443 50.5965C81.381 50.3397 80.6562 50.2754 80.2892 50.2754L80.7021 48.8992C80.962 48.991 81.537 49.1469 81.7572 49.0368C82.0324 48.8992 82.537 44.9999 82.4453 44.6788C82.3719 44.4219 81.7724 44.4189 81.4819 44.4495L81.5737 43.0732C81.8795 43.058 82.5278 43.0182 82.6746 42.9815C82.821 42.9449 82.7922 42.6164 82.7746 42.4151C82.7701 42.3641 82.7664 42.3212 82.7664 42.2934C82.7664 42.1833 82.113 38.255 82.2884 37.1081L81.4819 37.1999L81.2067 35.0897C81.4819 35.0438 81.9673 35.0805 82.1508 35.0438C82.3474 35.0045 82.3111 35.284 82.113 34.4649C82.08 34.3287 82.052 34.2129 82.0324 34.1279C81.9223 33.6508 81.436 31.4213 81.2067 30.3662L81.0232 29.8616C80.6562 28.8677 79.8855 26.8339 79.7387 26.6504C79.5919 26.4669 79.0047 26.8186 78.7295 27.0174L78.0414 25.733C78.3319 25.5801 78.9405 25.2375 79.0506 25.0907C79.1882 24.9072 76.9863 21.375 76.7569 21.2832C76.5734 21.2098 76.0382 21.589 75.7936 21.7878L75.0596 20.6868C75.2737 20.5034 75.7202 20.0997 75.7936 19.9529C75.8853 19.7694 73.3622 16.7417 73.0411 16.5582C72.7842 16.4114 72.2919 16.8946 72.0778 17.1546L71.1603 16.0995C71.3285 15.9771 71.7016 15.6591 71.8484 15.3655C72.0319 14.9985 68.4996 12.5672 68.3161 12.4754C68.1693 12.402 67.7962 12.9953 67.628 13.3012L66.4812 12.3837C66.5882 12.2308 66.8298 11.8516 66.9399 11.558C67.0775 11.191 63.5453 9.35602 63.2241 9.26427C62.9672 9.19087 62.7501 9.87592 62.6737 10.2276L61.2516 9.58539C61.3892 9.34073 61.6644 8.78719 61.6644 8.53029C61.6644 8.27263 59.3902 7.66055 58.0886 7.31021C57.768 7.22393 57.5064 7.15353 57.3523 7.1082C57.4991 7.43849 57.077 7.85748 56.8477 8.02568C56.3736 7.93393 55.4715 7.73209 55.655 7.65869C55.8843 7.56694 55.7008 6.69534 55.655 6.51184C55.6183 6.36505 53.1625 5.99194 51.9392 5.82373L51.2511 6.51184V7.1082H50.7923L50.6088 6.69534L51.7098 5.82373C49.9015 4.85883 37.4963 7.79475 33.341 8.20761Z" fill="#161616"/>
<path id="&#208;&#164;&#208;&#190;&#208;&#189; &#208;&#186;&#208;&#176;&#209;&#129;&#208;&#191;&#208;&#181;&#209;&#128;&#208;&#176;" d="M26.1391 25.7085L28.9833 29.6077L27.7447 28.3692L27.0107 28.2774L25.1299 29.6077L23.2032 32.5437L17.3772 38.1403L16.0469 39.3789L14.0743 38.5073L8.20246 35.6631L4.85367 34.1951L3.29396 33.9199L1.6425 34.6539L1.50488 35.5713L2.83522 36.2136L4.85367 37.2228L5.45003 37.9109L3.79857 39.0119L2.05537 40.4798L1.6425 41.5349L3.01872 42.1772L5.12891 41.9937L6.36751 42.59L5.45003 44.1497L4.34906 45.7095L4.71605 46.5352L6.45925 46.3517L7.46848 45.8929L7.92722 45.159L8.43183 45.526L11.9641 47.1315L13.0192 47.4985L13.3403 46.9022L14.0743 47.2692L16.5056 49.7922L18.7534 51.1684L19.5333 50.5262L19.1204 48.8289L18.9828 47.7279L20.7719 47.2692L22.8362 46.2141L27.1025 43.4616L29.3962 43.0029L29.9008 43.5534L30.6347 45.3883L61.9207 25.525L61.2326 25.0204L59.0306 23.8277L56.8746 22.9102L52.5166 22.6349H51.0486L50.7275 22.0844L50.2687 20.1577L49.1219 18.1852L48.0668 16.1667L47.5163 14.0107L47.6539 11.5793L47.2869 9.51502L47.5163 7.6342L48.8925 7.12959L51.9202 5.79924L52.2413 4.60653L51.5073 3.91842L49.9476 4.60653H49.2595L48.0668 3.18444L46.9199 1.48711L45.1767 1.12012L43.25 1.62473L40.1306 3.27619L37.5617 4.37716L34.7634 5.79924L32.7449 8.09294L31.2311 12.1298L30.0384 14.607L27.8364 16.8548L25.5886 20.8L25.1758 22.6349L26.1391 25.7085Z" fill="#FEFEFE"/>
<path id="&#208;&#158;&#208;&#177;&#208;&#178;&#208;&#190;&#208;&#180;&#208;&#186;&#208;&#176; &#208;&#186;&#208;&#176;&#209;&#129;&#208;&#191;&#208;&#181;&#209;&#128;&#208;&#176; &#208;&#178;&#208;&#181;&#209;&#128;&#209;&#133;" d="M61.5086 25.7096L62.1049 25.2508C62.1049 25.2203 62.0591 25.0306 61.8756 24.5169C61.6462 23.8746 57.8387 22.636 55.9578 21.9479C54.077 21.2598 52.0586 22.1314 51.187 22.3608C51.6916 20.7552 49.352 17.9569 48.8474 16.9018C48.3526 15.8672 47.6088 12.9108 47.8841 12.3144C48.1593 11.7181 47.8841 10.9841 47.6088 9.83725C47.3336 8.69041 47.6088 7.68119 47.8841 7.68119C48.7727 7.86468 51.4163 6.35084 52.1962 5.8921C52.976 5.43337 52.5632 4.37827 51.9668 3.73604C51.4897 3.22225 50.2695 3.95012 49.719 4.37827C49.5661 4.43944 49.0676 4.21312 48.2969 2.81856C47.3336 1.07536 47.2877 1.02948 45.2692 0.754242C43.2508 0.478999 40.269 2.33618 39.5809 2.79492C38.9995 3.18251 38.814 3.73604 39.2139 3.73604C39.4433 3.73604 37.8377 4.05716 37.0578 4.37827C35.1585 5.16034 33.1127 6.90133 32.3328 8.04818C31.553 9.19502 30.7273 12.1309 30.5438 12.9108C30.3603 13.6907 29.3052 14.6999 27.8831 16.1678C26.461 17.6358 25.4518 19.8377 24.993 21.5809C24.5343 23.3242 25.727 26.2142 26.2316 26.7647C26.7362 27.3152 26.9197 27.728 26.828 27.8657C25.8188 27.7739 22.6993 32.3613 22.47 32.6824C22.2406 33.0035 20.4515 35.0678 20.0845 35.2513C19.7175 35.4348 16.5523 38.279 16.3229 38.6919C16.0935 39.1047 15.6348 38.8295 15.4054 38.8295C15.176 38.8295 11.3685 36.7652 10.6804 36.4441C9.9923 36.1229 5.49667 34.0127 4.34982 33.6916C3.20298 33.3705 2.33138 33.7834 1.36803 34.4256C0.404676 35.0678 1.32215 35.8936 1.78089 36.1229C2.8624 36.6637 4.90031 37.4991 5.12968 37.7744C4.90031 37.7744 2.23963 39.9763 1.96438 40.1598C1.68914 40.3433 0.817539 41.1232 1.4139 41.9489C2.01026 42.7746 2.65249 42.637 4.07458 42.4994C5.49667 42.3618 5.90953 42.4994 6.04715 42.7746C6.18477 43.0499 4.34982 44.9766 4.25807 45.2518C4.16633 45.5271 3.75346 46.0775 4.48744 46.7657C5.22142 47.4538 7.46924 46.0775 7.79036 46.0775C8.11147 46.0775 8.01973 45.4812 8.15735 45.4353C8.63444 45.9491 11.6285 47.3926 13.0658 48.0501C13.1117 47.8208 13.2585 47.3437 13.4787 47.2703C13.754 47.1785 14.0751 47.4996 16.1394 49.7933C18.1863 52.0676 19.0711 51.4349 19.4332 51.1761L19.4423 51.1695C20.7268 50.2521 19.6258 48.83 19.4423 48.1877C21.0938 48.1877 23.3416 46.1693 25.0848 44.8848C26.828 43.6004 29.3052 43.2334 29.4428 43.2334C29.5529 43.2334 30.1003 44.7013 30.3603 45.4353L30.8649 45.0683C30.5591 44.4873 29.9291 43.2517 29.8557 42.9581C31.0025 43.0499 30.7731 42.637 30.5896 42.5453C26.2775 42.5453 24.3508 44.7013 21.8277 46.4445C21.3144 46.7992 20.5433 47.1326 19.1212 47.2703C19.2282 47.0256 19.424 46.4904 19.3506 46.3069C18.6624 46.628 18.2496 47.4996 18.6166 48.1877C19.534 50.1603 19.0294 50.7521 18.7542 50.8484C17.8367 51.1695 14.9467 47.8208 14.6256 47.4996C14.3807 47.2548 13.4328 46.5363 13.2035 46.5363C12.8365 46.5363 12.9374 46.6831 12.9741 47.0868C12.5704 47.4905 9.25832 45.7258 7.65274 44.7931V45.4812C7.10225 45.6188 5.31317 46.628 4.71681 46.1234C4.19621 45.6829 5.54254 44.3343 6.27652 43.6921C6.63196 43.3811 6.41414 42.5453 6.59764 42.7746C6.78113 43.004 8.0656 43.5086 8.20322 43.4169C6.87288 41.4902 5.03793 41.6278 3.43235 41.7654C1.82676 41.903 1.72117 41.4599 1.96438 41.1232C2.56074 40.2974 5.40492 38.279 5.63429 38.2331C5.86366 38.1873 6.55176 39.2882 6.87288 39.4258C5.77191 36.3064 4.02871 36.3064 2.469 35.7559C0.909287 35.2055 2.10201 34.7008 3.43235 34.288C4.76269 33.8751 8.29497 35.9394 10.4052 37.0404C12.5154 38.1414 16.3229 39.747 16.7357 39.8846C17.066 39.9947 17.5768 39.8387 17.7908 39.747C17.6073 39.6246 17.1394 39.3341 16.7357 39.1506C18.2496 38.279 25.0389 31.0309 25.3141 30.2052C25.5343 29.5446 26.9656 28.829 27.6537 28.5538L29.2134 30.1135V29.5171C29.1217 29.3795 28.0666 27.8198 26.2316 25.0674C24.3967 22.3149 27.6537 17.8193 27.9748 17.3147C28.2959 16.8101 31.1401 14.6999 31.8741 11.3511C32.6081 8.0023 34.7183 6.58021 35.8192 5.70861C36.9202 4.83701 41.2324 4.37827 41.5993 4.37827C41.6911 4.10303 40.7277 4.05716 40.269 4.05716C39.8103 4.05716 40.3149 3.69016 42.2875 2.58919C44.26 1.48822 45.2693 1.62584 46.1867 1.67172C47.1042 1.71759 47.5629 3.04793 47.6088 3.41492C48.618 5.204 50.2695 5.3875 50.5447 5.34162C49.7649 4.87453 50.2695 4.51589 51.0493 4.37827C51.8292 4.24065 51.9668 4.10303 51.7375 5.204C51.5081 6.30497 49.1227 6.58021 48.2969 6.71784C47.4712 6.85546 46.9207 7.63531 46.7831 7.68119C46.5262 7.094 45.8197 6.79429 45.4986 6.71784C46.2326 7.81881 47.618 10.2868 47.2877 11.3511C46.8748 12.6814 47.1042 14.1494 47.2877 14.9751C47.4655 15.7753 48.2033 17.0492 49.1671 18.7135L49.2603 18.8744C50.2695 20.6176 50.086 20.5258 50.3612 22.7278C50.6365 24.9297 47.3794 29.2419 47.3794 29.4712C49.4896 28.462 51.0952 23.2783 51.187 22.9572C52.2421 22.5443 54.1688 23.1865 56.1413 23.2783C57.7194 23.3517 60.377 24.9297 61.5086 25.7096Z" fill="#221E1F" stroke="#242021" stroke-width="0.0789481"/>
<g id="&#208;&#155;&#208;&#184;&#209;&#134;&#208;&#190;">
<path id="Vector 4" d="M35.6807 9.65348C35.2952 10.3475 34.9467 9.92873 35.0844 9.46998C35.4697 8.18552 36.4606 8.09375 36.9193 8.09375C36.5982 8.36899 36.1395 8.82773 35.6807 9.65348Z" fill="#221E1F"/>
<path id="Vector 5" d="M42.2875 8.27705C41.8747 7.91004 41.3853 8.09355 41.2324 8.23117C42.1499 9.42387 43.2509 9.9285 43.2967 9.9285C43.3426 9.9285 43.3885 9.65326 43.2967 9.46977C43.1362 9.14865 42.8209 8.75117 42.2875 8.27705Z" fill="#221E1F"/>
<path id="Vector 6" d="M36.7818 10.9836C37.2405 11.2129 37.3323 11.6258 37.2405 11.9928C37.1488 11.7634 36.3689 10.846 36.7359 12.1304C37.0752 13.3181 36.6441 13.6443 36.0019 13.5525C35.3597 13.4608 35.4055 12.268 35.4514 11.8093C35.5155 11.1686 36.1568 10.6711 36.7818 10.9836Z" fill="#221E1F"/>
<path id="Vector 7" d="M42.2411 11.5339C42.5163 11.8091 42.6539 12.4972 42.5622 12.8183C42.2411 12.6807 42.3328 12.3137 42.1952 12.222C42.0333 12.114 42.1034 12.8183 41.7823 13.9652C41.6994 14.2615 41.13 14.3897 40.8649 14.1487C40.3602 13.6899 40.6355 12.4055 40.819 11.9926C41.1406 11.269 41.8902 11.183 42.2411 11.5339Z" fill="#221E1F"/>
<path id="Vector 8" d="M39.5353 18.0479C39.0307 18.8736 38.3426 18.8736 38.1132 18.8277C37.8839 18.7818 37.2416 18.0479 37.2875 18.6442C37.3287 19.1796 38.205 19.7911 39.1683 19.4699C39.7914 19.2622 39.7647 18.0937 39.5353 18.0479Z" fill="#221E1F"/>
<path id="Vector 9" d="M37.7904 22.5439C37.0564 22.5439 36.7418 23.3502 36.6435 23.7825C36.4141 24.7918 36.7353 26.3056 38.0197 26.3056C39.2583 26.3056 39.1666 24.1495 39.1207 23.7825C39.0576 23.2779 38.6161 22.5439 37.7904 22.5439Z" fill="#221E1F"/>
<path id="Vector 10" d="M38.2051 29.3794C37.9203 29.4506 37.3794 29.4712 36.5078 28.9207C36.8289 29.8382 37.3794 30.1937 38.3428 30.1134C39.4437 30.0217 39.8107 29.0583 39.6272 28.5537C39.3061 29.0583 38.7556 29.2418 38.2051 29.3794Z" fill="#221E1F"/>
</g>
<path id="&#208;&#160;&#209;&#131;&#208;&#186;&#208;&#176; &#208;&#177;&#208;&#181;&#208;&#187;&#209;&#139;&#208;&#185;" d="M68.5257 34.3338L68.067 34.2879L67.6083 34.1503L64.5347 35.3889L60.085 38.6L62.3328 39.9304L63.1585 40.4809L62.1952 41.6277L61.2318 43.1874L60.8648 44.2884L61.0942 45.2517L62.4704 45.6646L64.1219 45.4811L66.2779 44.6095L67.8835 44.3801L69.168 44.5178L70.2689 44.4719L73.2507 43.6003L73.893 43.5085L74.7187 43.9214L76.0032 44.5636L77.1959 45.527L78.5721 46.4903L79.6272 46.7656L80.8199 46.6738L81.141 46.2151V45.7105L80.9117 45.0224L80.3612 44.2884L79.4896 43.692L78.8015 43.0039L78.2969 42.4076L78.5721 41.9947L79.0308 41.8112L79.6272 41.7653H80.4529L81.6915 41.9029L83.6641 42.0406L84.7192 41.9029L85.4532 41.536L85.7743 40.9396L85.6367 40.2056L85.0403 39.6093L83.9393 39.1046L82.0585 38.7377L78.7097 38.0495L78.0675 37.8661L77.6546 37.5908L77.8381 36.9486L78.2969 36.2146L79.0767 35.1136L80.1777 34.0585L81.3704 33.0034L82.4255 31.9025L82.7925 31.1685L82.4255 30.4804L81.3704 30.2969L79.5813 30.8015L77.3794 31.9025L73.6636 33.8292L72.5168 34.0585L71.0947 34.1503L69.902 34.1961L68.5257 34.3338Z" fill="#FEFEFE"/>
<path id="&#208;&#158;&#208;&#177;&#208;&#178;&#208;&#190;&#208;&#180;&#208;&#186;&#208;&#176; &#208;&#186;&#208;&#176;&#209;&#129;&#208;&#191;&#208;&#181;&#209;&#128;&#208;&#176; &#208;&#189;&#208;&#184;&#208;&#183;" d="M34.8103 59.3347C34.7273 59.395 34.535 59.2888 34.2598 59.1053C34.3056 59.0594 35.0055 58.2149 35.7277 57.7291C38.2508 56.0318 38.1132 55.7565 39.0765 53.9675C39.1738 53.7868 38.2363 53.4435 38.1132 53.2794C37.9755 53.0958 38.8471 52.4536 38.9848 52.6371C44.8107 55.8024 45.3154 55.1113 49.9486 55.94C50.0404 55.9564 50.178 56.307 50.0404 56.3529C49.6511 56.4826 49.3981 56.4905 46.9668 56.3529C44.5355 56.2153 42.3794 55.3437 41.4161 54.8849C40.4527 54.4262 39.8157 54.1051 39.7646 54.2427C38.7095 57.0869 37.0891 57.6959 36.1406 58.2796C35.5442 58.6466 35.3149 58.9677 34.8103 59.3347Z" fill="#221E1F"/>
<path id="&#208;&#158;&#208;&#177;&#208;&#178;&#208;&#190;&#208;&#180;&#208;&#186;&#208;&#176; &#208;&#186;&#208;&#176;&#209;&#129;&#208;&#191;&#208;&#181;&#209;&#128;&#208;&#176; &#209;&#128;&#209;&#131;&#208;&#186;&#208;&#176;" d="M63.6186 39.2884C63.9489 39.2517 63.7868 39.8236 63.6645 40.1141C63.5269 40.5746 61.8754 42.4995 61.6919 42.9124C60.4992 46.1236 62.9305 45.3896 63.6186 45.3896C64.3067 45.3896 68.5271 42.9583 69.307 43.3253C70.0868 43.6923 68.6647 43.9216 68.2977 44.1051C67.9307 44.2886 69.307 44.2886 69.9033 44.2886C70.4997 44.2886 72.4264 43.3711 73.5273 43.3253C74.6283 43.2794 76.6926 44.6556 78.0688 45.7566C79.4451 46.8575 80.3625 46.7199 80.7295 46.4906C82.1057 45.2978 78.9404 43.6005 78.6193 43.1876C78.2982 42.7748 77.7936 42.4537 77.9312 42.2702C78.4358 41.4444 80.3167 41.3527 81.8764 41.6279C83.4361 41.9032 84.9314 41.7419 85.1793 41.4903C86.739 39.907 82.748 39.059 81.9681 38.9214C81.1883 38.7838 78.2982 38.0039 77.9312 37.9122C77.5642 37.8204 77.8395 38.2333 77.7936 38.6461C77.7477 39.059 79.2616 39.793 77.9312 39.3801C76.6009 38.9673 77.4725 37.4075 78.2523 35.8478C79.0322 34.2881 83.482 31.7651 82.2892 30.7558C81.0965 29.7466 75.1788 33.2789 74.2154 33.967C73.2521 34.6551 71.096 35.068 70.2703 35.068C69.4446 35.068 71.7383 34.5175 71.7841 34.3799C71.83 34.2422 71.7383 34.0588 70.1786 34.5175C68.6188 34.9762 68.2977 34.5634 68.3895 34.334C69.5363 34.0588 68.6188 34.334 68.94 33.7376C69.2611 33.1413 69.6281 33.5083 69.8116 33.8294C69.9951 34.1505 71.7841 34.0129 72.8851 33.8294C73.9861 33.6459 78.4817 30.9393 80.2708 30.3889C82.0599 29.8384 82.6562 30.2512 83.0691 30.8017C83.482 31.3522 82.6104 32.5449 81.8305 32.866C81.0506 33.1872 78.2065 36.2607 77.9312 37.0864C77.656 37.9122 78.757 37.958 79.1698 38.0957C79.5827 38.2333 84.2501 38.6061 85.5463 39.7471C86.5096 40.5951 86.0967 41.696 85.5463 42.0172C84.7332 42.4914 81.5094 41.9949 79.8121 41.9032C78.1147 41.8114 78.4817 42.7748 79.5827 43.4629C80.6837 44.151 81.3259 44.7932 81.4176 46.0777C81.5094 47.3622 79.1698 46.8117 78.6652 46.6741C78.1606 46.5364 75.8669 44.6097 74.5824 43.9675C73.298 43.3253 71.096 44.6556 70.6373 44.7932C70.1786 44.9309 68.4353 44.9767 67.472 44.7932C66.5087 44.6097 66.5087 44.9767 64.4902 45.8483C62.4718 46.7199 60.7744 46.0777 60.5451 44.885C60.3157 43.6923 61.0955 42.8207 61.1414 42.6372C61.1873 42.4537 62.38 40.9857 62.5635 40.7563C62.747 40.527 62.013 40.3435 61.3708 39.9306C60.7286 39.5177 60.4992 39.2884 60.9579 38.9673C61.4167 38.6461 63.0222 40.0682 63.2057 40.0224C63.3892 39.9765 63.2057 39.3343 63.6186 39.2884Z" fill="#221E1F"/>
<path id="&#208;&#154;&#209;&#128;&#208;&#176;&#209;&#129;&#208;&#189;&#208;&#176;&#209;&#143; &#208;&#191;&#208;&#190;&#208;&#187;&#208;&#190;&#209;&#129;&#208;&#176;" d="M63.4782 24.2609C62.1739 24.6957 26.0869 47.7392 26.0869 47.7392C26.0869 47.7392 31.7391 57.7392 32.1739 57.7392C32.6087 57.7392 67.3913 34.6957 68.2608 34.261C67.3913 30.3479 64.7826 23.8261 63.4782 24.2609Z" fill="url(#paint2_linear_484_7189)"/>
<g id="Txt">
<mask id="path-21-outside-1_484_7189" maskUnits="userSpaceOnUse" x="20.5664" y="23.5713" width="52" height="35" fill="black">
<rect fill="white" x="20.5664" y="23.5713" width="52" height="35"/>
<path d="M27.4568 55.3218C27.2755 55.9443 26.7859 56.5098 25.9879 57.0182C25.192 57.5253 24.4725 57.73 23.8297 57.6325C23.1855 57.533 22.6137 57.0913 22.1143 56.3074C21.615 55.5235 21.4569 54.8197 21.6402 54.1958C21.8235 53.5719 22.3132 53.0064 23.1091 52.4994C23.9071 51.991 24.6265 51.7862 25.2674 51.885C25.9103 51.9826 26.4814 52.4233 26.9808 53.2071C27.4801 53.991 27.6388 54.6959 27.4568 55.3218ZM24.8485 53.0485C24.4909 52.9364 24.0844 53.0253 23.629 53.3155C23.1756 53.6043 22.9232 53.9351 22.8717 54.3079C22.8222 54.6793 22.9503 55.1049 23.2558 55.5845C23.5601 56.062 23.891 56.3569 24.2485 56.469C24.6068 56.5779 25.0127 56.4879 25.4661 56.1991C25.9215 55.9089 26.1746 55.5791 26.2253 55.2097C26.2748 54.8382 26.1474 54.4137 25.8432 53.9361C25.5376 53.4565 25.2061 53.1607 24.8485 53.0485Z"/>
<path d="M28.3685 54.0909C28.3554 54.0815 28.3433 54.068 28.3321 54.0504C28.32 54.0315 28.3169 54.0043 28.3226 53.9688L28.4252 52.6791L27.2588 52.2031C27.1848 52.1759 27.1526 52.1309 27.1622 52.0681C27.166 52.0409 27.1818 52.0184 27.2095 52.0007L27.6195 51.7396C27.7417 51.6618 27.8752 51.6546 28.0201 51.7181L28.637 51.9944L28.6473 51.3185C28.651 51.1603 28.7139 51.0423 28.8361 50.9645L29.246 50.7034C29.2737 50.6857 29.3008 50.6809 29.3271 50.6889C29.3881 50.7067 29.4152 50.7549 29.4086 50.8335L29.3471 52.0918L30.5593 52.5438C30.5939 52.5537 30.6176 52.5686 30.6304 52.5888C30.6425 52.6077 30.6492 52.6238 30.6506 52.6371C30.6654 52.6825 30.6507 52.7193 30.6066 52.7474L30.2043 53.0037C30.0884 53.0775 29.9549 53.0847 29.8036 53.0252L29.128 52.7651L29.0763 53.4886C29.0676 53.65 29.0053 53.7676 28.8894 53.8414L28.487 54.0977C28.443 54.1258 28.4034 54.1235 28.3685 54.0909Z"/>
<path d="M31.2091 52.0343C30.8971 51.9781 30.6287 51.7737 30.4041 51.421C30.1786 51.0671 30.1067 50.7375 30.1885 50.4323C30.2694 50.1258 30.4938 49.8554 30.8615 49.6211C31.2305 49.386 31.571 49.2965 31.883 49.3527C32.1942 49.4077 32.4626 49.6121 32.688 49.966C32.9127 50.3186 32.9846 50.6482 32.9036 50.9547C32.8227 51.2612 32.5977 51.532 32.2287 51.7671C31.861 52.0014 31.5211 52.0905 31.2091 52.0343ZM30.8638 50.4376C30.8507 50.5894 30.9156 50.7773 31.0584 51.0015C31.2012 51.2257 31.3446 51.3645 31.4884 51.4181C31.6323 51.4716 31.788 51.445 31.9555 51.3383C32.1243 51.2308 32.2148 51.1005 32.2271 50.9475C32.2406 50.7937 32.176 50.6047 32.0332 50.3805C31.8904 50.1563 31.7468 50.0185 31.6025 49.967C31.4594 49.9148 31.3035 49.9424 31.1347 50.0499C30.9672 50.1566 30.8769 50.2859 30.8638 50.4376Z"/>
<path d="M32.5956 49.0502L32.4524 48.8253C32.4307 48.7913 32.4238 48.7568 32.4316 48.7218C32.4398 48.6847 32.4609 48.6553 32.4949 48.6336L34.3557 47.4481C34.3897 47.4265 34.4246 47.4202 34.4605 47.4292C34.4955 47.437 34.5239 47.4578 34.5456 47.4919L34.6888 47.7167C34.7096 47.7494 34.7166 47.7839 34.7096 47.8202C34.7018 47.8553 34.681 47.8836 34.647 47.9053L34.0443 48.2892L34.9987 49.7873C35.0196 49.8201 35.0259 49.855 35.0177 49.8921C35.0099 49.9272 34.989 49.9555 34.955 49.9772L34.5337 50.2456C34.4997 50.2672 34.4646 50.2746 34.4282 50.2676C34.3924 50.2586 34.364 50.2377 34.3432 50.2049L33.3888 48.7069L32.7862 49.0908C32.7521 49.1124 32.717 49.1198 32.6807 49.1128C32.6448 49.1038 32.6165 49.0829 32.5956 49.0502Z"/>
<path d="M36.2226 49.0076L35.0516 47.1695C35.03 47.1355 35.023 47.1009 35.0308 47.0659C35.039 47.0288 35.0595 46.9998 35.0922 46.9789L35.5154 46.7093C35.5494 46.6877 35.5843 46.6813 35.6202 46.6904C35.6552 46.6981 35.6836 46.719 35.7053 46.753L36.1361 47.4294L36.9636 46.9022L36.5327 46.2259C36.511 46.1919 36.5041 46.1574 36.5119 46.1223C36.5201 46.0852 36.5412 46.0558 36.5752 46.0342L36.9965 45.7658C37.0305 45.7441 37.0654 45.7378 37.1013 45.7468C37.1363 45.7546 37.1647 45.7755 37.1863 45.8095L38.3574 47.6476C38.379 47.6816 38.386 47.7161 38.3782 47.7512C38.3704 47.7862 38.3496 47.8146 38.3155 47.8363L37.8943 48.1047C37.8603 48.1263 37.8251 48.1337 37.7888 48.1267C37.7529 48.1177 37.7246 48.0968 37.7037 48.064L37.2548 47.3594L36.4274 47.8865L36.8763 48.5912C36.8979 48.6252 36.9043 48.6601 36.8952 48.696C36.8875 48.731 36.8672 48.759 36.8345 48.7798L36.4113 49.0494C36.3773 49.0711 36.3428 49.078 36.3077 49.0703C36.2727 49.0625 36.2443 49.0416 36.2226 49.0076Z"/>
<path d="M39.0542 47.2037L37.8832 45.3655C37.8616 45.3315 37.8546 45.297 37.8624 45.262C37.8706 45.2248 37.8911 45.1959 37.9238 45.175L38.3187 44.9235C38.3527 44.9018 38.3876 44.8955 38.4235 44.9045C38.4598 44.9115 38.4887 44.932 38.5104 44.966L39.3011 46.2071L39.1874 44.5612C39.1827 44.5093 39.1931 44.4576 39.2186 44.4059C39.2433 44.353 39.2752 44.3141 39.3142 44.2892L39.8432 43.9522C39.8772 43.9306 39.9121 43.9242 39.948 43.9333C39.9843 43.9402 40.0133 43.9607 40.0349 43.9947L41.206 45.8329C41.2276 45.8669 41.2339 45.9018 41.2249 45.9376C41.2171 45.9727 41.1963 46.0011 41.1623 46.0227L40.7674 46.2743C40.7334 46.2959 40.6989 46.3029 40.6638 46.2951C40.628 46.2861 40.5996 46.2652 40.5788 46.2324L39.7893 44.9932L39.9006 46.6353C39.9037 46.6846 39.8933 46.7364 39.8694 46.7906C39.8447 46.8435 39.8128 46.8824 39.7737 46.9073L39.2429 47.2455C39.2089 47.2672 39.1744 47.2741 39.1393 47.2663C39.1043 47.2586 39.0759 47.2377 39.0542 47.2037Z"/>
<path d="M44.0089 44.0923C44.0442 44.1478 44.0291 44.1963 43.9636 44.2381L43.6066 44.4655C43.4857 44.5425 43.3516 44.5447 43.2044 44.4721L42.7154 44.2339C42.5054 44.1322 42.3021 44.1439 42.1057 44.269L42.5546 44.9737C42.5762 45.0077 42.5826 45.0426 42.5735 45.0785C42.5658 45.1135 42.5455 45.1415 42.5128 45.1623L42.0896 45.4319C42.0556 45.4536 42.0211 45.4605 41.986 45.4528C41.951 45.445 41.9226 45.4241 41.9009 45.3901L40.7299 43.552C40.7083 43.518 40.7013 43.4834 40.7091 43.4484C40.7173 43.4113 40.7378 43.3823 40.7705 43.3614L41.1937 43.0919C41.2277 43.0702 41.2626 43.0639 41.2985 43.0729C41.3335 43.0807 41.3619 43.1016 41.3836 43.1356L41.8313 43.8383C42.0504 43.6987 42.1461 43.5182 42.1184 43.2969L42.0543 42.7959C42.0449 42.7257 42.0544 42.6586 42.0827 42.5946C42.1109 42.5305 42.1534 42.4805 42.2101 42.4444L42.5671 42.2169C42.6301 42.1768 42.6772 42.1813 42.7085 42.2304C42.7262 42.2581 42.7385 42.2998 42.7457 42.3554L42.8293 43.0245C42.8423 43.1367 42.8326 43.2464 42.8001 43.3539C42.7676 43.4613 42.7155 43.5504 42.6436 43.6209C42.8282 43.5688 43.0345 43.5968 43.2626 43.7046L43.9147 44.0196C43.9594 44.0424 43.9908 44.0667 44.0089 44.0923Z"/>
<path d="M44.4945 43.7378L43.3235 41.8997C43.3018 41.8657 43.2949 41.8312 43.3026 41.7961C43.3109 41.759 43.3314 41.73 43.3641 41.7092L43.7589 41.4576C43.7929 41.436 43.8279 41.4296 43.8637 41.4387C43.9 41.4456 43.929 41.4661 43.9507 41.5001L44.7414 42.7413L44.6277 41.0954C44.623 41.0435 44.6334 40.9917 44.6589 40.9401C44.6836 40.8871 44.7155 40.8482 44.7545 40.8234L45.2835 40.4864C45.3175 40.4647 45.3524 40.4584 45.3883 40.4674C45.4246 40.4744 45.4535 40.4949 45.4752 40.5289L46.6462 42.367C46.6679 42.401 46.6742 42.436 46.6652 42.4718C46.6574 42.5069 46.6365 42.5352 46.6025 42.5569L46.2077 42.8084C46.1737 42.8301 46.1392 42.837 46.1041 42.8293C46.0683 42.8202 46.0399 42.7993 46.019 42.7666L45.2295 41.5273L45.3408 43.1695C45.3439 43.2188 45.3335 43.2706 45.3096 43.3248C45.2849 43.3777 45.253 43.4166 45.214 43.4415L44.6832 43.7797C44.6492 43.8013 44.6146 43.8083 44.5796 43.8005C44.5445 43.7927 44.5162 43.7718 44.4945 43.7378Z"/>
<path d="M48.5101 40.5953C48.4884 40.5613 48.4815 40.5268 48.4892 40.4918C48.4983 40.4559 48.5191 40.4276 48.5519 40.4067L48.8353 40.2262C48.9209 40.1716 49.0149 40.1719 49.1173 40.2271C49.2202 40.2801 49.3403 40.263 49.4776 40.1755L49.8611 39.9312C50.0437 39.8149 50.0873 39.6818 49.9918 39.5319C49.8963 39.382 49.7577 39.3659 49.5758 39.4835L49.1073 39.7819C49.0733 39.8036 49.0382 39.811 49.0019 39.804C48.966 39.795 48.9372 39.7734 48.9156 39.7394L48.7904 39.543C48.7688 39.509 48.7618 39.4744 48.7696 39.4394C48.7778 39.4023 48.7989 39.3729 48.8329 39.3512L49.2655 39.0756C49.3487 39.0227 49.3994 38.9647 49.4177 38.9017C49.4364 38.8366 49.4261 38.7732 49.3868 38.7115C49.3475 38.6498 49.2944 38.6137 49.2275 38.6032C49.1619 38.5919 49.0875 38.6127 49.0044 38.6657L48.6568 38.8871C48.6127 38.9152 48.5746 38.9554 48.5424 39.0078C48.5095 39.0589 48.4949 39.1124 48.4987 39.1684C48.5041 39.2854 48.4636 39.3705 48.3772 39.4238L48.0957 39.6031C48.0617 39.6248 48.0266 39.6321 47.9902 39.6251C47.9552 39.6174 47.9268 39.5965 47.9052 39.5625C47.7969 39.3925 47.7919 39.2026 47.8903 38.993C47.9899 38.7825 48.1569 38.6027 48.3911 38.4535L48.7709 38.2116C49.0366 38.0423 49.2782 37.9574 49.4957 37.9569C49.7137 37.9544 49.886 38.0527 50.0128 38.2517C50.1396 38.4506 50.141 38.6516 50.017 38.8545C50.3068 38.8257 50.5279 38.931 50.6803 39.1702C50.8135 39.3793 50.8363 39.579 50.7487 39.7694C50.6615 39.9578 50.4718 40.145 50.1796 40.3311L49.7583 40.5995C49.5052 40.7608 49.2613 40.8436 49.0268 40.8478C48.7922 40.852 48.62 40.7679 48.5101 40.5953Z"/>
<path d="M51.6461 39.1526C51.406 39.1426 51.2186 39.0318 51.0838 38.8202C50.949 38.6087 50.9286 38.3932 51.0227 38.174C51.118 37.9539 51.2972 37.76 51.5604 37.5924L52.1857 37.194C52.0919 37.0466 51.9956 36.9637 51.897 36.945C51.7984 36.9264 51.6716 36.9665 51.5167 37.0651C51.3631 37.163 51.2792 37.2704 51.2652 37.3874C51.2516 37.5023 51.1995 37.5886 51.1088 37.6464L50.8273 37.8257C50.7933 37.8473 50.7582 37.8547 50.7219 37.8477C50.686 37.8387 50.6577 37.8178 50.6368 37.7851C50.4065 37.4236 50.6346 37.0242 51.321 36.587C51.6207 36.396 51.9042 36.3101 52.1714 36.3294C52.4378 36.3473 52.6605 36.4967 52.8394 36.7776L53.5844 37.947C53.606 37.981 53.613 38.0155 53.6052 38.0505C53.5974 38.0856 53.5765 38.1139 53.5425 38.1356L53.1779 38.3679C53.1439 38.3895 53.1094 38.3965 53.0744 38.3887C53.0385 38.3797 53.0101 38.3588 52.9893 38.3261L52.952 38.2675C52.8436 38.5366 52.6587 38.7535 52.3972 38.9184C52.1378 39.0836 51.8874 39.1617 51.6461 39.1526ZM51.879 37.9923C51.7908 38.0485 51.7346 38.1144 51.7102 38.1901C51.6871 38.265 51.6972 38.3365 51.7405 38.4045C51.7839 38.4725 51.846 38.5117 51.927 38.5221C52.008 38.5325 52.097 38.5068 52.1939 38.445C52.3879 38.3214 52.5388 38.1456 52.6467 37.9175L52.4589 37.6228L51.879 37.9923Z"/>
<path d="M55.8717 36.4898L54.7006 34.6517C54.679 34.6177 54.672 34.5831 54.6798 34.5481C54.688 34.511 54.7085 34.482 54.7413 34.4611L56.1543 33.5609C56.1871 33.54 56.2214 33.5341 56.2572 33.5431C56.2935 33.5501 56.3225 33.5706 56.3442 33.6046L56.4874 33.8294C56.5083 33.8622 56.5146 33.8971 56.5064 33.9342C56.4986 33.9692 56.4783 33.9972 56.4456 34.0181L55.5709 34.5753L56.5253 36.0734C56.5462 36.1061 56.5525 36.141 56.5442 36.1782C56.5365 36.2132 56.5162 36.2412 56.4835 36.262L56.0603 36.5316C56.0276 36.5525 55.993 36.5594 55.9567 36.5525C55.9209 36.5434 55.8925 36.5225 55.8717 36.4898Z"/>
<path d="M58.425 35.7582L56.8484 33.2834C56.8267 33.2494 56.8197 33.2149 56.8275 33.1798C56.8357 33.1427 56.8562 33.1137 56.889 33.0929L57.2536 32.8606C57.2863 32.8397 57.3206 32.8338 57.3565 32.8428C57.3928 32.8498 57.4218 32.8703 57.4434 32.9043L57.4795 32.961C57.5887 32.6931 57.7748 32.4754 58.0381 32.3077C58.3013 32.14 58.5804 32.0932 58.8755 32.1673C59.1698 32.2401 59.4272 32.4496 59.6479 32.796C59.8677 33.1411 59.9449 33.4637 59.8794 33.7639C59.8139 34.0642 59.6263 34.3129 59.3165 34.5103C59.1565 34.6122 58.9541 34.696 58.7091 34.7618L59.0786 35.3418C59.1003 35.3758 59.1066 35.4107 59.0976 35.4465C59.0906 35.4829 59.0707 35.5114 59.038 35.5323L58.6148 35.8019C58.5821 35.8227 58.5471 35.8291 58.51 35.8208C58.475 35.8131 58.4466 35.7922 58.425 35.7582ZM58.4311 34.3254C58.6265 34.2735 58.7796 34.2123 58.8904 34.1417C59.0629 34.0318 59.1538 33.9048 59.163 33.7609C59.1735 33.6161 59.1101 33.436 58.9729 33.2207C58.8357 33.0053 58.7016 32.8712 58.5705 32.8183C58.4399 32.7634 58.306 32.7797 58.1687 32.8672C58.0327 32.9538 57.9108 33.1112 57.8029 33.3393L58.4311 34.3254Z"/>
<path d="M61.3764 33.4211L61.6443 33.2956C61.8219 33.1824 61.8629 32.9731 61.7673 32.6674C61.5532 32.8038 61.3335 32.8535 61.1081 32.8165C60.8819 32.7783 60.612 32.6271 60.2985 32.3629L59.4357 31.6298C59.4255 31.6221 59.4164 31.612 59.4084 31.5994C59.3996 31.5855 59.3967 31.5643 59.3998 31.5358C59.4041 31.5065 59.4216 31.4812 59.4523 31.4598L59.8471 31.2083C59.8837 31.185 59.9263 31.1756 59.9751 31.1799C60.0244 31.1822 60.0657 31.1983 60.099 31.2285L60.8568 31.8718C61.0437 32.0289 61.1926 32.1252 61.3038 32.1607C61.4161 32.1953 61.5158 32.185 61.6027 32.1296L61.1361 30.5677C61.123 30.5248 61.1232 30.4821 61.1369 30.4397C61.1511 30.3953 61.1765 30.3614 61.213 30.3382L61.6116 30.0842C61.6431 30.0642 61.6728 30.0594 61.7008 30.0699C61.7287 30.0804 61.7471 30.0926 61.7559 30.1065C61.7639 30.1191 61.7695 30.1306 61.7726 30.141L62.4017 32.2208C62.5126 32.5893 62.545 32.882 62.4991 33.0989C62.4544 33.3151 62.3294 33.4886 62.1241 33.6193C61.9188 33.7501 61.7686 33.8352 61.6733 33.8747C61.5793 33.9133 61.5144 33.9281 61.4785 33.9191C61.4434 33.9113 61.4167 33.893 61.3982 33.864L61.2659 33.6562C61.2442 33.6222 61.2368 33.587 61.2438 33.5507C61.2516 33.5157 61.2725 33.4873 61.3065 33.4656L61.3764 33.4211Z"/>
<path d="M63.0324 31.3436C63.0107 31.3096 63.0038 31.2751 63.0116 31.24C63.0206 31.2042 63.0415 31.1758 63.0742 31.1549L63.3576 30.9744C63.4432 30.9199 63.5373 30.9202 63.6397 30.9753C63.7426 31.0284 63.8626 31.0112 63.9999 30.9238L64.3834 30.6794C64.566 30.5631 64.6096 30.43 64.5141 30.2801C64.4186 30.1303 64.28 30.1141 64.0982 30.2317L63.6297 30.5302C63.5957 30.5519 63.5605 30.5592 63.5242 30.5522C63.4883 30.5432 63.4596 30.5217 63.4379 30.4877L63.3128 30.2912C63.2911 30.2572 63.2842 30.2227 63.2919 30.1876C63.3002 30.1505 63.3213 30.1211 63.3553 30.0995L63.7879 29.8239C63.871 29.7709 63.9217 29.7129 63.94 29.6499C63.9588 29.5849 63.9485 29.5215 63.9092 29.4598C63.8698 29.3981 63.8167 29.3619 63.7499 29.3514C63.6842 29.3401 63.6098 29.361 63.5267 29.4139L63.1791 29.6354C63.135 29.6634 63.0969 29.7037 63.0648 29.756C63.0318 29.8071 63.0172 29.8607 63.021 29.9167C63.0265 30.0336 62.986 30.1187 62.8995 30.172L62.6181 30.3513C62.5841 30.373 62.5489 30.3804 62.5126 30.3734C62.4775 30.3656 62.4492 30.3447 62.4275 30.3107C62.3192 30.1407 62.3142 29.9509 62.4126 29.7412C62.5123 29.5308 62.6792 29.351 62.9135 29.2017L63.2932 28.9598C63.5589 28.7905 63.8006 28.7056 64.018 28.7052C64.236 28.7027 64.4084 28.8009 64.5351 28.9999C64.6619 29.1989 64.6633 29.3998 64.5394 29.6027C64.8291 29.5739 65.0502 29.6792 65.2027 29.9185C65.3358 30.1276 65.3586 30.3273 65.271 30.5177C65.1838 30.706 64.9941 30.8933 64.702 31.0794L64.2807 31.3478C64.0275 31.509 63.7837 31.5918 63.5491 31.596C63.3146 31.6003 63.1423 31.5161 63.0324 31.3436Z"/>
<path d="M66.1512 29.7737C65.8392 29.7175 65.5709 29.5131 65.3462 29.1604C65.1207 28.8065 65.0489 28.477 65.1306 28.1717C65.2115 27.8652 65.4359 27.5948 65.8036 27.3605C66.1726 27.1254 66.5132 27.036 66.8252 27.0921C67.1364 27.1471 67.4047 27.3515 67.6302 27.7054C67.8548 28.058 67.9267 28.3876 67.8457 28.6941C67.7648 29.0007 67.5398 29.2715 67.1708 29.5065C66.8031 29.7408 66.4632 29.8299 66.1512 29.7737ZM65.8059 28.177C65.7928 28.3288 65.8577 28.5168 66.0005 28.7409C66.1433 28.9651 66.2867 29.104 66.4306 29.1575C66.5744 29.211 66.7301 29.1844 66.8976 29.0777C67.0664 28.9702 67.1569 28.8399 67.1692 28.6869C67.1828 28.5331 67.1181 28.3441 66.9753 28.1199C66.8325 27.8957 66.6889 27.7579 66.5446 27.7065C66.4015 27.6542 66.2456 27.6818 66.0768 27.7893C65.9093 27.896 65.819 28.0253 65.8059 28.177Z"/>
<path d="M68.7979 28.2549L67.6269 26.4167C67.6052 26.3827 67.5983 26.3482 67.606 26.3131C67.6143 26.276 67.6348 26.2471 67.6675 26.2262L68.3174 25.8122C68.3917 25.7648 68.478 25.7753 68.5764 25.8437L69.7547 26.6759L69.4983 25.2563C69.478 25.1383 69.505 25.0556 69.5793 25.0082L70.2292 24.5942C70.2632 24.5726 70.2981 24.5662 70.334 24.5753C70.3703 24.5822 70.3993 24.6027 70.4209 24.6367L71.5919 26.4749C71.6136 26.5089 71.6199 26.5438 71.6109 26.5797C71.6031 26.6147 71.5822 26.6431 71.5482 26.6647L71.1383 26.9259C71.1043 26.9475 71.0698 26.9545 71.0347 26.9467C70.9989 26.9377 70.9705 26.9168 70.9496 26.8841L70.1974 25.7033L70.4552 27.1752C70.4723 27.2882 70.4406 27.3704 70.36 27.4217L70.1748 27.5397C70.0955 27.5902 70.0082 27.5839 69.913 27.5206L68.688 26.665L69.4402 27.8457C69.4619 27.8797 69.4682 27.9146 69.4592 27.9505C69.4514 27.9855 69.4305 28.0139 69.3965 28.0355L68.9866 28.2967C68.9525 28.3183 68.918 28.3253 68.883 28.3175C68.8479 28.3098 68.8196 28.2889 68.7979 28.2549Z"/>
<path fill-rule="evenodd" clip-rule="evenodd" d="M24.3701 57.3694C25.7382 57.3694 26.9808 55.9638 26.9808 54.7224C26.9808 53.4809 25.8717 52.4745 24.5036 52.4745C23.1355 52.4745 22.0264 53.4809 22.0264 54.7224C22.0264 55.9638 23.002 57.3694 24.3701 57.3694ZM23.629 53.3155C24.0844 53.0253 24.4909 52.9364 24.8485 53.0485C25.2061 53.1607 25.5376 53.4565 25.8432 53.9361C26.1474 54.4137 26.2748 54.8382 26.2253 55.2097C26.1746 55.5791 25.9215 55.9089 25.4661 56.1991C25.0127 56.4879 24.6068 56.5779 24.2485 56.469C23.891 56.3569 23.5601 56.062 23.2558 55.5845C22.9503 55.1049 22.8222 54.6793 22.8717 54.3079C22.9232 53.9351 23.1756 53.6043 23.629 53.3155Z"/>
</mask>
<path d="M27.4568 55.3218C27.2755 55.9443 26.7859 56.5098 25.9879 57.0182C25.192 57.5253 24.4725 57.73 23.8297 57.6325C23.1855 57.533 22.6137 57.0913 22.1143 56.3074C21.615 55.5235 21.4569 54.8197 21.6402 54.1958C21.8235 53.5719 22.3132 53.0064 23.1091 52.4994C23.9071 51.991 24.6265 51.7862 25.2674 51.885C25.9103 51.9826 26.4814 52.4233 26.9808 53.2071C27.4801 53.991 27.6388 54.6959 27.4568 55.3218ZM24.8485 53.0485C24.4909 52.9364 24.0844 53.0253 23.629 53.3155C23.1756 53.6043 22.9232 53.9351 22.8717 54.3079C22.8222 54.6793 22.9503 55.1049 23.2558 55.5845C23.5601 56.062 23.891 56.3569 24.2485 56.469C24.6068 56.5779 25.0127 56.4879 25.4661 56.1991C25.9215 55.9089 26.1746 55.5791 26.2253 55.2097C26.2748 54.8382 26.1474 54.4137 25.8432 53.9361C25.5376 53.4565 25.2061 53.1607 24.8485 53.0485Z" fill="#FEFEFE"/>
<path d="M28.3685 54.0909C28.3554 54.0815 28.3433 54.068 28.3321 54.0504C28.32 54.0315 28.3169 54.0043 28.3226 53.9688L28.4252 52.6791L27.2588 52.2031C27.1848 52.1759 27.1526 52.1309 27.1622 52.0681C27.166 52.0409 27.1818 52.0184 27.2095 52.0007L27.6195 51.7396C27.7417 51.6618 27.8752 51.6546 28.0201 51.7181L28.637 51.9944L28.6473 51.3185C28.651 51.1603 28.7139 51.0423 28.8361 50.9645L29.246 50.7034C29.2737 50.6857 29.3008 50.6809 29.3271 50.6889C29.3881 50.7067 29.4152 50.7549 29.4086 50.8335L29.3471 52.0918L30.5593 52.5438C30.5939 52.5537 30.6176 52.5686 30.6304 52.5888C30.6425 52.6077 30.6492 52.6238 30.6506 52.6371C30.6654 52.6825 30.6507 52.7193 30.6066 52.7474L30.2043 53.0037C30.0884 53.0775 29.9549 53.0847 29.8036 53.0252L29.128 52.7651L29.0763 53.4886C29.0676 53.65 29.0053 53.7676 28.8894 53.8414L28.487 54.0977C28.443 54.1258 28.4034 54.1235 28.3685 54.0909Z" fill="#FEFEFE"/>
<path d="M31.2091 52.0343C30.8971 51.9781 30.6287 51.7737 30.4041 51.421C30.1786 51.0671 30.1067 50.7375 30.1885 50.4323C30.2694 50.1258 30.4938 49.8554 30.8615 49.6211C31.2305 49.386 31.571 49.2965 31.883 49.3527C32.1942 49.4077 32.4626 49.6121 32.688 49.966C32.9127 50.3186 32.9846 50.6482 32.9036 50.9547C32.8227 51.2612 32.5977 51.532 32.2287 51.7671C31.861 52.0014 31.5211 52.0905 31.2091 52.0343ZM30.8638 50.4376C30.8507 50.5894 30.9156 50.7773 31.0584 51.0015C31.2012 51.2257 31.3446 51.3645 31.4884 51.4181C31.6323 51.4716 31.788 51.445 31.9555 51.3383C32.1243 51.2308 32.2148 51.1005 32.2271 50.9475C32.2406 50.7937 32.176 50.6047 32.0332 50.3805C31.8904 50.1563 31.7468 50.0185 31.6025 49.967C31.4594 49.9148 31.3035 49.9424 31.1347 50.0499C30.9672 50.1566 30.8769 50.2859 30.8638 50.4376Z" fill="#FEFEFE"/>
<path d="M32.5956 49.0502L32.4524 48.8253C32.4307 48.7913 32.4238 48.7568 32.4316 48.7218C32.4398 48.6847 32.4609 48.6553 32.4949 48.6336L34.3557 47.4481C34.3897 47.4265 34.4246 47.4202 34.4605 47.4292C34.4955 47.437 34.5239 47.4578 34.5456 47.4919L34.6888 47.7167C34.7096 47.7494 34.7166 47.7839 34.7096 47.8202C34.7018 47.8553 34.681 47.8836 34.647 47.9053L34.0443 48.2892L34.9987 49.7873C35.0196 49.8201 35.0259 49.855 35.0177 49.8921C35.0099 49.9272 34.989 49.9555 34.955 49.9772L34.5337 50.2456C34.4997 50.2672 34.4646 50.2746 34.4282 50.2676C34.3924 50.2586 34.364 50.2377 34.3432 50.2049L33.3888 48.7069L32.7862 49.0908C32.7521 49.1124 32.717 49.1198 32.6807 49.1128C32.6448 49.1038 32.6165 49.0829 32.5956 49.0502Z" fill="#FEFEFE"/>
<path d="M36.2226 49.0076L35.0516 47.1695C35.03 47.1355 35.023 47.1009 35.0308 47.0659C35.039 47.0288 35.0595 46.9998 35.0922 46.9789L35.5154 46.7093C35.5494 46.6877 35.5843 46.6813 35.6202 46.6904C35.6552 46.6981 35.6836 46.719 35.7053 46.753L36.1361 47.4294L36.9636 46.9022L36.5327 46.2259C36.511 46.1919 36.5041 46.1574 36.5119 46.1223C36.5201 46.0852 36.5412 46.0558 36.5752 46.0342L36.9965 45.7658C37.0305 45.7441 37.0654 45.7378 37.1013 45.7468C37.1363 45.7546 37.1647 45.7755 37.1863 45.8095L38.3574 47.6476C38.379 47.6816 38.386 47.7161 38.3782 47.7512C38.3704 47.7862 38.3496 47.8146 38.3155 47.8363L37.8943 48.1047C37.8603 48.1263 37.8251 48.1337 37.7888 48.1267C37.7529 48.1177 37.7246 48.0968 37.7037 48.064L37.2548 47.3594L36.4274 47.8865L36.8763 48.5912C36.8979 48.6252 36.9043 48.6601 36.8952 48.696C36.8875 48.731 36.8672 48.759 36.8345 48.7798L36.4113 49.0494C36.3773 49.0711 36.3428 49.078 36.3077 49.0703C36.2727 49.0625 36.2443 49.0416 36.2226 49.0076Z" fill="#FEFEFE"/>
<path d="M39.0542 47.2037L37.8832 45.3655C37.8616 45.3315 37.8546 45.297 37.8624 45.262C37.8706 45.2248 37.8911 45.1959 37.9238 45.175L38.3187 44.9235C38.3527 44.9018 38.3876 44.8955 38.4235 44.9045C38.4598 44.9115 38.4887 44.932 38.5104 44.966L39.3011 46.2071L39.1874 44.5612C39.1827 44.5093 39.1931 44.4576 39.2186 44.4059C39.2433 44.353 39.2752 44.3141 39.3142 44.2892L39.8432 43.9522C39.8772 43.9306 39.9121 43.9242 39.948 43.9333C39.9843 43.9402 40.0133 43.9607 40.0349 43.9947L41.206 45.8329C41.2276 45.8669 41.2339 45.9018 41.2249 45.9376C41.2171 45.9727 41.1963 46.0011 41.1623 46.0227L40.7674 46.2743C40.7334 46.2959 40.6989 46.3029 40.6638 46.2951C40.628 46.2861 40.5996 46.2652 40.5788 46.2324L39.7893 44.9932L39.9006 46.6353C39.9037 46.6846 39.8933 46.7364 39.8694 46.7906C39.8447 46.8435 39.8128 46.8824 39.7737 46.9073L39.2429 47.2455C39.2089 47.2672 39.1744 47.2741 39.1393 47.2663C39.1043 47.2586 39.0759 47.2377 39.0542 47.2037Z" fill="#FEFEFE"/>
<path d="M44.0089 44.0923C44.0442 44.1478 44.0291 44.1963 43.9636 44.2381L43.6066 44.4655C43.4857 44.5425 43.3516 44.5447 43.2044 44.4721L42.7154 44.2339C42.5054 44.1322 42.3021 44.1439 42.1057 44.269L42.5546 44.9737C42.5762 45.0077 42.5826 45.0426 42.5735 45.0785C42.5658 45.1135 42.5455 45.1415 42.5128 45.1623L42.0896 45.4319C42.0556 45.4536 42.0211 45.4605 41.986 45.4528C41.951 45.445 41.9226 45.4241 41.9009 45.3901L40.7299 43.552C40.7083 43.518 40.7013 43.4834 40.7091 43.4484C40.7173 43.4113 40.7378 43.3823 40.7705 43.3614L41.1937 43.0919C41.2277 43.0702 41.2626 43.0639 41.2985 43.0729C41.3335 43.0807 41.3619 43.1016 41.3836 43.1356L41.8313 43.8383C42.0504 43.6987 42.1461 43.5182 42.1184 43.2969L42.0543 42.7959C42.0449 42.7257 42.0544 42.6586 42.0827 42.5946C42.1109 42.5305 42.1534 42.4805 42.2101 42.4444L42.5671 42.2169C42.6301 42.1768 42.6772 42.1813 42.7085 42.2304C42.7262 42.2581 42.7385 42.2998 42.7457 42.3554L42.8293 43.0245C42.8423 43.1367 42.8326 43.2464 42.8001 43.3539C42.7676 43.4613 42.7155 43.5504 42.6436 43.6209C42.8282 43.5688 43.0345 43.5968 43.2626 43.7046L43.9147 44.0196C43.9594 44.0424 43.9908 44.0667 44.0089 44.0923Z" fill="#FEFEFE"/>
<path d="M44.4945 43.7378L43.3235 41.8997C43.3018 41.8657 43.2949 41.8312 43.3026 41.7961C43.3109 41.759 43.3314 41.73 43.3641 41.7092L43.7589 41.4576C43.7929 41.436 43.8279 41.4296 43.8637 41.4387C43.9 41.4456 43.929 41.4661 43.9507 41.5001L44.7414 42.7413L44.6277 41.0954C44.623 41.0435 44.6334 40.9917 44.6589 40.9401C44.6836 40.8871 44.7155 40.8482 44.7545 40.8234L45.2835 40.4864C45.3175 40.4647 45.3524 40.4584 45.3883 40.4674C45.4246 40.4744 45.4535 40.4949 45.4752 40.5289L46.6462 42.367C46.6679 42.401 46.6742 42.436 46.6652 42.4718C46.6574 42.5069 46.6365 42.5352 46.6025 42.5569L46.2077 42.8084C46.1737 42.8301 46.1392 42.837 46.1041 42.8293C46.0683 42.8202 46.0399 42.7993 46.019 42.7666L45.2295 41.5273L45.3408 43.1695C45.3439 43.2188 45.3335 43.2706 45.3096 43.3248C45.2849 43.3777 45.253 43.4166 45.214 43.4415L44.6832 43.7797C44.6492 43.8013 44.6146 43.8083 44.5796 43.8005C44.5445 43.7927 44.5162 43.7718 44.4945 43.7378Z" fill="#FEFEFE"/>
<path d="M48.5101 40.5953C48.4884 40.5613 48.4815 40.5268 48.4892 40.4918C48.4983 40.4559 48.5191 40.4276 48.5519 40.4067L48.8353 40.2262C48.9209 40.1716 49.0149 40.1719 49.1173 40.2271C49.2202 40.2801 49.3403 40.263 49.4776 40.1755L49.8611 39.9312C50.0437 39.8149 50.0873 39.6818 49.9918 39.5319C49.8963 39.382 49.7577 39.3659 49.5758 39.4835L49.1073 39.7819C49.0733 39.8036 49.0382 39.811 49.0019 39.804C48.966 39.795 48.9372 39.7734 48.9156 39.7394L48.7904 39.543C48.7688 39.509 48.7618 39.4744 48.7696 39.4394C48.7778 39.4023 48.7989 39.3729 48.8329 39.3512L49.2655 39.0756C49.3487 39.0227 49.3994 38.9647 49.4177 38.9017C49.4364 38.8366 49.4261 38.7732 49.3868 38.7115C49.3475 38.6498 49.2944 38.6137 49.2275 38.6032C49.1619 38.5919 49.0875 38.6127 49.0044 38.6657L48.6568 38.8871C48.6127 38.9152 48.5746 38.9554 48.5424 39.0078C48.5095 39.0589 48.4949 39.1124 48.4987 39.1684C48.5041 39.2854 48.4636 39.3705 48.3772 39.4238L48.0957 39.6031C48.0617 39.6248 48.0266 39.6321 47.9902 39.6251C47.9552 39.6174 47.9268 39.5965 47.9052 39.5625C47.7969 39.3925 47.7919 39.2026 47.8903 38.993C47.9899 38.7825 48.1569 38.6027 48.3911 38.4535L48.7709 38.2116C49.0366 38.0423 49.2782 37.9574 49.4957 37.9569C49.7137 37.9544 49.886 38.0527 50.0128 38.2517C50.1396 38.4506 50.141 38.6516 50.017 38.8545C50.3068 38.8257 50.5279 38.931 50.6803 39.1702C50.8135 39.3793 50.8363 39.579 50.7487 39.7694C50.6615 39.9578 50.4718 40.145 50.1796 40.3311L49.7583 40.5995C49.5052 40.7608 49.2613 40.8436 49.0268 40.8478C48.7922 40.852 48.62 40.7679 48.5101 40.5953Z" fill="#FEFEFE"/>
<path d="M51.6461 39.1526C51.406 39.1426 51.2186 39.0318 51.0838 38.8202C50.949 38.6087 50.9286 38.3932 51.0227 38.174C51.118 37.9539 51.2972 37.76 51.5604 37.5924L52.1857 37.194C52.0919 37.0466 51.9956 36.9637 51.897 36.945C51.7984 36.9264 51.6716 36.9665 51.5167 37.0651C51.3631 37.163 51.2792 37.2704 51.2652 37.3874C51.2516 37.5023 51.1995 37.5886 51.1088 37.6464L50.8273 37.8257C50.7933 37.8473 50.7582 37.8547 50.7219 37.8477C50.686 37.8387 50.6577 37.8178 50.6368 37.7851C50.4065 37.4236 50.6346 37.0242 51.321 36.587C51.6207 36.396 51.9042 36.3101 52.1714 36.3294C52.4378 36.3473 52.6605 36.4967 52.8394 36.7776L53.5844 37.947C53.606 37.981 53.613 38.0155 53.6052 38.0505C53.5974 38.0856 53.5765 38.1139 53.5425 38.1356L53.1779 38.3679C53.1439 38.3895 53.1094 38.3965 53.0744 38.3887C53.0385 38.3797 53.0101 38.3588 52.9893 38.3261L52.952 38.2675C52.8436 38.5366 52.6587 38.7535 52.3972 38.9184C52.1378 39.0836 51.8874 39.1617 51.6461 39.1526ZM51.879 37.9923C51.7908 38.0485 51.7346 38.1144 51.7102 38.1901C51.6871 38.265 51.6972 38.3365 51.7405 38.4045C51.7839 38.4725 51.846 38.5117 51.927 38.5221C52.008 38.5325 52.097 38.5068 52.1939 38.445C52.3879 38.3214 52.5388 38.1456 52.6467 37.9175L52.4589 37.6228L51.879 37.9923Z" fill="#FEFEFE"/>
<path d="M55.8717 36.4898L54.7006 34.6517C54.679 34.6177 54.672 34.5831 54.6798 34.5481C54.688 34.511 54.7085 34.482 54.7413 34.4611L56.1543 33.5609C56.1871 33.54 56.2214 33.5341 56.2572 33.5431C56.2935 33.5501 56.3225 33.5706 56.3442 33.6046L56.4874 33.8294C56.5083 33.8622 56.5146 33.8971 56.5064 33.9342C56.4986 33.9692 56.4783 33.9972 56.4456 34.0181L55.5709 34.5753L56.5253 36.0734C56.5462 36.1061 56.5525 36.141 56.5442 36.1782C56.5365 36.2132 56.5162 36.2412 56.4835 36.262L56.0603 36.5316C56.0276 36.5525 55.993 36.5594 55.9567 36.5525C55.9209 36.5434 55.8925 36.5225 55.8717 36.4898Z" fill="#FEFEFE"/>
<path d="M58.425 35.7582L56.8484 33.2834C56.8267 33.2494 56.8197 33.2149 56.8275 33.1798C56.8357 33.1427 56.8562 33.1137 56.889 33.0929L57.2536 32.8606C57.2863 32.8397 57.3206 32.8338 57.3565 32.8428C57.3928 32.8498 57.4218 32.8703 57.4434 32.9043L57.4795 32.961C57.5887 32.6931 57.7748 32.4754 58.0381 32.3077C58.3013 32.14 58.5804 32.0932 58.8755 32.1673C59.1698 32.2401 59.4272 32.4496 59.6479 32.796C59.8677 33.1411 59.9449 33.4637 59.8794 33.7639C59.8139 34.0642 59.6263 34.3129 59.3165 34.5103C59.1565 34.6122 58.9541 34.696 58.7091 34.7618L59.0786 35.3418C59.1003 35.3758 59.1066 35.4107 59.0976 35.4465C59.0906 35.4829 59.0707 35.5114 59.038 35.5323L58.6148 35.8019C58.5821 35.8227 58.5471 35.8291 58.51 35.8208C58.475 35.8131 58.4466 35.7922 58.425 35.7582ZM58.4311 34.3254C58.6265 34.2735 58.7796 34.2123 58.8904 34.1417C59.0629 34.0318 59.1538 33.9048 59.163 33.7609C59.1735 33.6161 59.1101 33.436 58.9729 33.2207C58.8357 33.0053 58.7016 32.8712 58.5705 32.8183C58.4399 32.7634 58.306 32.7797 58.1687 32.8672C58.0327 32.9538 57.9108 33.1112 57.8029 33.3393L58.4311 34.3254Z" fill="#FEFEFE"/>
<path d="M61.3764 33.4211L61.6443 33.2956C61.8219 33.1824 61.8629 32.9731 61.7673 32.6674C61.5532 32.8038 61.3335 32.8535 61.1081 32.8165C60.8819 32.7783 60.612 32.6271 60.2985 32.3629L59.4357 31.6298C59.4255 31.6221 59.4164 31.612 59.4084 31.5994C59.3996 31.5855 59.3967 31.5643 59.3998 31.5358C59.4041 31.5065 59.4216 31.4812 59.4523 31.4598L59.8471 31.2083C59.8837 31.185 59.9263 31.1756 59.9751 31.1799C60.0244 31.1822 60.0657 31.1983 60.099 31.2285L60.8568 31.8718C61.0437 32.0289 61.1926 32.1252 61.3038 32.1607C61.4161 32.1953 61.5158 32.185 61.6027 32.1296L61.1361 30.5677C61.123 30.5248 61.1232 30.4821 61.1369 30.4397C61.1511 30.3953 61.1765 30.3614 61.213 30.3382L61.6116 30.0842C61.6431 30.0642 61.6728 30.0594 61.7008 30.0699C61.7287 30.0804 61.7471 30.0926 61.7559 30.1065C61.7639 30.1191 61.7695 30.1306 61.7726 30.141L62.4017 32.2208C62.5126 32.5893 62.545 32.882 62.4991 33.0989C62.4544 33.3151 62.3294 33.4886 62.1241 33.6193C61.9188 33.7501 61.7686 33.8352 61.6733 33.8747C61.5793 33.9133 61.5144 33.9281 61.4785 33.9191C61.4434 33.9113 61.4167 33.893 61.3982 33.864L61.2659 33.6562C61.2442 33.6222 61.2368 33.587 61.2438 33.5507C61.2516 33.5157 61.2725 33.4873 61.3065 33.4656L61.3764 33.4211Z" fill="#FEFEFE"/>
<path d="M63.0324 31.3436C63.0107 31.3096 63.0038 31.2751 63.0116 31.24C63.0206 31.2042 63.0415 31.1758 63.0742 31.1549L63.3576 30.9744C63.4432 30.9199 63.5373 30.9202 63.6397 30.9753C63.7426 31.0284 63.8626 31.0112 63.9999 30.9238L64.3834 30.6794C64.566 30.5631 64.6096 30.43 64.5141 30.2801C64.4186 30.1303 64.28 30.1141 64.0982 30.2317L63.6297 30.5302C63.5957 30.5519 63.5605 30.5592 63.5242 30.5522C63.4883 30.5432 63.4596 30.5217 63.4379 30.4877L63.3128 30.2912C63.2911 30.2572 63.2842 30.2227 63.2919 30.1876C63.3002 30.1505 63.3213 30.1211 63.3553 30.0995L63.7879 29.8239C63.871 29.7709 63.9217 29.7129 63.94 29.6499C63.9588 29.5849 63.9485 29.5215 63.9092 29.4598C63.8698 29.3981 63.8167 29.3619 63.7499 29.3514C63.6842 29.3401 63.6098 29.361 63.5267 29.4139L63.1791 29.6354C63.135 29.6634 63.0969 29.7037 63.0648 29.756C63.0318 29.8071 63.0172 29.8607 63.021 29.9167C63.0265 30.0336 62.986 30.1187 62.8995 30.172L62.6181 30.3513C62.5841 30.373 62.5489 30.3804 62.5126 30.3734C62.4775 30.3656 62.4492 30.3447 62.4275 30.3107C62.3192 30.1407 62.3142 29.9509 62.4126 29.7412C62.5123 29.5308 62.6792 29.351 62.9135 29.2017L63.2932 28.9598C63.5589 28.7905 63.8006 28.7056 64.018 28.7052C64.236 28.7027 64.4084 28.8009 64.5351 28.9999C64.6619 29.1989 64.6633 29.3998 64.5394 29.6027C64.8291 29.5739 65.0502 29.6792 65.2027 29.9185C65.3358 30.1276 65.3586 30.3273 65.271 30.5177C65.1838 30.706 64.9941 30.8933 64.702 31.0794L64.2807 31.3478C64.0275 31.509 63.7837 31.5918 63.5491 31.596C63.3146 31.6003 63.1423 31.5161 63.0324 31.3436Z" fill="#FEFEFE"/>
<path d="M66.1512 29.7737C65.8392 29.7175 65.5709 29.5131 65.3462 29.1604C65.1207 28.8065 65.0489 28.477 65.1306 28.1717C65.2115 27.8652 65.4359 27.5948 65.8036 27.3605C66.1726 27.1254 66.5132 27.036 66.8252 27.0921C67.1364 27.1471 67.4047 27.3515 67.6302 27.7054C67.8548 28.058 67.9267 28.3876 67.8457 28.6941C67.7648 29.0007 67.5398 29.2715 67.1708 29.5065C66.8031 29.7408 66.4632 29.8299 66.1512 29.7737ZM65.8059 28.177C65.7928 28.3288 65.8577 28.5168 66.0005 28.7409C66.1433 28.9651 66.2867 29.104 66.4306 29.1575C66.5744 29.211 66.7301 29.1844 66.8976 29.0777C67.0664 28.9702 67.1569 28.8399 67.1692 28.6869C67.1828 28.5331 67.1181 28.3441 66.9753 28.1199C66.8325 27.8957 66.6889 27.7579 66.5446 27.7065C66.4015 27.6542 66.2456 27.6818 66.0768 27.7893C65.9093 27.896 65.819 28.0253 65.8059 28.177Z" fill="#FEFEFE"/>
<path d="M68.7979 28.2549L67.6269 26.4167C67.6052 26.3827 67.5983 26.3482 67.606 26.3131C67.6143 26.276 67.6348 26.2471 67.6675 26.2262L68.3174 25.8122C68.3917 25.7648 68.478 25.7753 68.5764 25.8437L69.7547 26.6759L69.4983 25.2563C69.478 25.1383 69.505 25.0556 69.5793 25.0082L70.2292 24.5942C70.2632 24.5726 70.2981 24.5662 70.334 24.5753C70.3703 24.5822 70.3993 24.6027 70.4209 24.6367L71.5919 26.4749C71.6136 26.5089 71.6199 26.5438 71.6109 26.5797C71.6031 26.6147 71.5822 26.6431 71.5482 26.6647L71.1383 26.9259C71.1043 26.9475 71.0698 26.9545 71.0347 26.9467C70.9989 26.9377 70.9705 26.9168 70.9496 26.8841L70.1974 25.7033L70.4552 27.1752C70.4723 27.2882 70.4406 27.3704 70.36 27.4217L70.1748 27.5397C70.0955 27.5902 70.0082 27.5839 69.913 27.5206L68.688 26.665L69.4402 27.8457C69.4619 27.8797 69.4682 27.9146 69.4592 27.9505C69.4514 27.9855 69.4305 28.0139 69.3965 28.0355L68.9866 28.2967C68.9525 28.3183 68.918 28.3253 68.883 28.3175C68.8479 28.3098 68.8196 28.2889 68.7979 28.2549Z" fill="#FEFEFE"/>
<path fill-rule="evenodd" clip-rule="evenodd" d="M24.3701 57.3694C25.7382 57.3694 26.9808 55.9638 26.9808 54.7224C26.9808 53.4809 25.8717 52.4745 24.5036 52.4745C23.1355 52.4745 22.0264 53.4809 22.0264 54.7224C22.0264 55.9638 23.002 57.3694 24.3701 57.3694ZM23.629 53.3155C24.0844 53.0253 24.4909 52.9364 24.8485 53.0485C25.2061 53.1607 25.5376 53.4565 25.8432 53.9361C26.1474 54.4137 26.2748 54.8382 26.2253 55.2097C26.1746 55.5791 25.9215 55.9089 25.4661 56.1991C25.0127 56.4879 24.6068 56.5779 24.2485 56.469C23.891 56.3569 23.5601 56.062 23.2558 55.5845C22.9503 55.1049 22.8222 54.6793 22.8717 54.3079C22.9232 53.9351 23.1756 53.6043 23.629 53.3155Z" fill="#FEFEFE"/>
<path d="M27.4568 55.3218C27.2755 55.9443 26.7859 56.5098 25.9879 57.0182C25.192 57.5253 24.4725 57.73 23.8297 57.6325C23.1855 57.533 22.6137 57.0913 22.1143 56.3074C21.615 55.5235 21.4569 54.8197 21.6402 54.1958C21.8235 53.5719 22.3132 53.0064 23.1091 52.4994C23.9071 51.991 24.6265 51.7862 25.2674 51.885C25.9103 51.9826 26.4814 52.4233 26.9808 53.2071C27.4801 53.991 27.6388 54.6959 27.4568 55.3218ZM24.8485 53.0485C24.4909 52.9364 24.0844 53.0253 23.629 53.3155C23.1756 53.6043 22.9232 53.9351 22.8717 54.3079C22.8222 54.6793 22.9503 55.1049 23.2558 55.5845C23.5601 56.062 23.891 56.3569 24.2485 56.469C24.6068 56.5779 25.0127 56.4879 25.4661 56.1991C25.9215 55.9089 26.1746 55.5791 26.2253 55.2097C26.2748 54.8382 26.1474 54.4137 25.8432 53.9361C25.5376 53.4565 25.2061 53.1607 24.8485 53.0485Z" stroke="#161616" stroke-width="0.473688" mask="url(#path-21-outside-1_484_7189)"/>
<path d="M28.3685 54.0909C28.3554 54.0815 28.3433 54.068 28.3321 54.0504C28.32 54.0315 28.3169 54.0043 28.3226 53.9688L28.4252 52.6791L27.2588 52.2031C27.1848 52.1759 27.1526 52.1309 27.1622 52.0681C27.166 52.0409 27.1818 52.0184 27.2095 52.0007L27.6195 51.7396C27.7417 51.6618 27.8752 51.6546 28.0201 51.7181L28.637 51.9944L28.6473 51.3185C28.651 51.1603 28.7139 51.0423 28.8361 50.9645L29.246 50.7034C29.2737 50.6857 29.3008 50.6809 29.3271 50.6889C29.3881 50.7067 29.4152 50.7549 29.4086 50.8335L29.3471 52.0918L30.5593 52.5438C30.5939 52.5537 30.6176 52.5686 30.6304 52.5888C30.6425 52.6077 30.6492 52.6238 30.6506 52.6371C30.6654 52.6825 30.6507 52.7193 30.6066 52.7474L30.2043 53.0037C30.0884 53.0775 29.9549 53.0847 29.8036 53.0252L29.128 52.7651L29.0763 53.4886C29.0676 53.65 29.0053 53.7676 28.8894 53.8414L28.487 54.0977C28.443 54.1258 28.4034 54.1235 28.3685 54.0909Z" stroke="#161616" stroke-width="0.473688" mask="url(#path-21-outside-1_484_7189)"/>
<path d="M31.2091 52.0343C30.8971 51.9781 30.6287 51.7737 30.4041 51.421C30.1786 51.0671 30.1067 50.7375 30.1885 50.4323C30.2694 50.1258 30.4938 49.8554 30.8615 49.6211C31.2305 49.386 31.571 49.2965 31.883 49.3527C32.1942 49.4077 32.4626 49.6121 32.688 49.966C32.9127 50.3186 32.9846 50.6482 32.9036 50.9547C32.8227 51.2612 32.5977 51.532 32.2287 51.7671C31.861 52.0014 31.5211 52.0905 31.2091 52.0343ZM30.8638 50.4376C30.8507 50.5894 30.9156 50.7773 31.0584 51.0015C31.2012 51.2257 31.3446 51.3645 31.4884 51.4181C31.6323 51.4716 31.788 51.445 31.9555 51.3383C32.1243 51.2308 32.2148 51.1005 32.2271 50.9475C32.2406 50.7937 32.176 50.6047 32.0332 50.3805C31.8904 50.1563 31.7468 50.0185 31.6025 49.967C31.4594 49.9148 31.3035 49.9424 31.1347 50.0499C30.9672 50.1566 30.8769 50.2859 30.8638 50.4376Z" stroke="#161616" stroke-width="0.473688" mask="url(#path-21-outside-1_484_7189)"/>
<path d="M32.5956 49.0502L32.4524 48.8253C32.4307 48.7913 32.4238 48.7568 32.4316 48.7218C32.4398 48.6847 32.4609 48.6553 32.4949 48.6336L34.3557 47.4481C34.3897 47.4265 34.4246 47.4202 34.4605 47.4292C34.4955 47.437 34.5239 47.4578 34.5456 47.4919L34.6888 47.7167C34.7096 47.7494 34.7166 47.7839 34.7096 47.8202C34.7018 47.8553 34.681 47.8836 34.647 47.9053L34.0443 48.2892L34.9987 49.7873C35.0196 49.8201 35.0259 49.855 35.0177 49.8921C35.0099 49.9272 34.989 49.9555 34.955 49.9772L34.5337 50.2456C34.4997 50.2672 34.4646 50.2746 34.4282 50.2676C34.3924 50.2586 34.364 50.2377 34.3432 50.2049L33.3888 48.7069L32.7862 49.0908C32.7521 49.1124 32.717 49.1198 32.6807 49.1128C32.6448 49.1038 32.6165 49.0829 32.5956 49.0502Z" stroke="#161616" stroke-width="0.473688" mask="url(#path-21-outside-1_484_7189)"/>
<path d="M36.2226 49.0076L35.0516 47.1695C35.03 47.1355 35.023 47.1009 35.0308 47.0659C35.039 47.0288 35.0595 46.9998 35.0922 46.9789L35.5154 46.7093C35.5494 46.6877 35.5843 46.6813 35.6202 46.6904C35.6552 46.6981 35.6836 46.719 35.7053 46.753L36.1361 47.4294L36.9636 46.9022L36.5327 46.2259C36.511 46.1919 36.5041 46.1574 36.5119 46.1223C36.5201 46.0852 36.5412 46.0558 36.5752 46.0342L36.9965 45.7658C37.0305 45.7441 37.0654 45.7378 37.1013 45.7468C37.1363 45.7546 37.1647 45.7755 37.1863 45.8095L38.3574 47.6476C38.379 47.6816 38.386 47.7161 38.3782 47.7512C38.3704 47.7862 38.3496 47.8146 38.3155 47.8363L37.8943 48.1047C37.8603 48.1263 37.8251 48.1337 37.7888 48.1267C37.7529 48.1177 37.7246 48.0968 37.7037 48.064L37.2548 47.3594L36.4274 47.8865L36.8763 48.5912C36.8979 48.6252 36.9043 48.6601 36.8952 48.696C36.8875 48.731 36.8672 48.759 36.8345 48.7798L36.4113 49.0494C36.3773 49.0711 36.3428 49.078 36.3077 49.0703C36.2727 49.0625 36.2443 49.0416 36.2226 49.0076Z" stroke="#161616" stroke-width="0.473688" mask="url(#path-21-outside-1_484_7189)"/>
<path d="M39.0542 47.2037L37.8832 45.3655C37.8616 45.3315 37.8546 45.297 37.8624 45.262C37.8706 45.2248 37.8911 45.1959 37.9238 45.175L38.3187 44.9235C38.3527 44.9018 38.3876 44.8955 38.4235 44.9045C38.4598 44.9115 38.4887 44.932 38.5104 44.966L39.3011 46.2071L39.1874 44.5612C39.1827 44.5093 39.1931 44.4576 39.2186 44.4059C39.2433 44.353 39.2752 44.3141 39.3142 44.2892L39.8432 43.9522C39.8772 43.9306 39.9121 43.9242 39.948 43.9333C39.9843 43.9402 40.0133 43.9607 40.0349 43.9947L41.206 45.8329C41.2276 45.8669 41.2339 45.9018 41.2249 45.9376C41.2171 45.9727 41.1963 46.0011 41.1623 46.0227L40.7674 46.2743C40.7334 46.2959 40.6989 46.3029 40.6638 46.2951C40.628 46.2861 40.5996 46.2652 40.5788 46.2324L39.7893 44.9932L39.9006 46.6353C39.9037 46.6846 39.8933 46.7364 39.8694 46.7906C39.8447 46.8435 39.8128 46.8824 39.7737 46.9073L39.2429 47.2455C39.2089 47.2672 39.1744 47.2741 39.1393 47.2663C39.1043 47.2586 39.0759 47.2377 39.0542 47.2037Z" stroke="#161616" stroke-width="0.473688" mask="url(#path-21-outside-1_484_7189)"/>
<path d="M44.0089 44.0923C44.0442 44.1478 44.0291 44.1963 43.9636 44.2381L43.6066 44.4655C43.4857 44.5425 43.3516 44.5447 43.2044 44.4721L42.7154 44.2339C42.5054 44.1322 42.3021 44.1439 42.1057 44.269L42.5546 44.9737C42.5762 45.0077 42.5826 45.0426 42.5735 45.0785C42.5658 45.1135 42.5455 45.1415 42.5128 45.1623L42.0896 45.4319C42.0556 45.4536 42.0211 45.4605 41.986 45.4528C41.951 45.445 41.9226 45.4241 41.9009 45.3901L40.7299 43.552C40.7083 43.518 40.7013 43.4834 40.7091 43.4484C40.7173 43.4113 40.7378 43.3823 40.7705 43.3614L41.1937 43.0919C41.2277 43.0702 41.2626 43.0639 41.2985 43.0729C41.3335 43.0807 41.3619 43.1016 41.3836 43.1356L41.8313 43.8383C42.0504 43.6987 42.1461 43.5182 42.1184 43.2969L42.0543 42.7959C42.0449 42.7257 42.0544 42.6586 42.0827 42.5946C42.1109 42.5305 42.1534 42.4805 42.2101 42.4444L42.5671 42.2169C42.6301 42.1768 42.6772 42.1813 42.7085 42.2304C42.7262 42.2581 42.7385 42.2998 42.7457 42.3554L42.8293 43.0245C42.8423 43.1367 42.8326 43.2464 42.8001 43.3539C42.7676 43.4613 42.7155 43.5504 42.6436 43.6209C42.8282 43.5688 43.0345 43.5968 43.2626 43.7046L43.9147 44.0196C43.9594 44.0424 43.9908 44.0667 44.0089 44.0923Z" stroke="#161616" stroke-width="0.473688" mask="url(#path-21-outside-1_484_7189)"/>
<path d="M44.4945 43.7378L43.3235 41.8997C43.3018 41.8657 43.2949 41.8312 43.3026 41.7961C43.3109 41.759 43.3314 41.73 43.3641 41.7092L43.7589 41.4576C43.7929 41.436 43.8279 41.4296 43.8637 41.4387C43.9 41.4456 43.929 41.4661 43.9507 41.5001L44.7414 42.7413L44.6277 41.0954C44.623 41.0435 44.6334 40.9917 44.6589 40.9401C44.6836 40.8871 44.7155 40.8482 44.7545 40.8234L45.2835 40.4864C45.3175 40.4647 45.3524 40.4584 45.3883 40.4674C45.4246 40.4744 45.4535 40.4949 45.4752 40.5289L46.6462 42.367C46.6679 42.401 46.6742 42.436 46.6652 42.4718C46.6574 42.5069 46.6365 42.5352 46.6025 42.5569L46.2077 42.8084C46.1737 42.8301 46.1392 42.837 46.1041 42.8293C46.0683 42.8202 46.0399 42.7993 46.019 42.7666L45.2295 41.5273L45.3408 43.1695C45.3439 43.2188 45.3335 43.2706 45.3096 43.3248C45.2849 43.3777 45.253 43.4166 45.214 43.4415L44.6832 43.7797C44.6492 43.8013 44.6146 43.8083 44.5796 43.8005C44.5445 43.7927 44.5162 43.7718 44.4945 43.7378Z" stroke="#161616" stroke-width="0.473688" mask="url(#path-21-outside-1_484_7189)"/>
<path d="M48.5101 40.5953C48.4884 40.5613 48.4815 40.5268 48.4892 40.4918C48.4983 40.4559 48.5191 40.4276 48.5519 40.4067L48.8353 40.2262C48.9209 40.1716 49.0149 40.1719 49.1173 40.2271C49.2202 40.2801 49.3403 40.263 49.4776 40.1755L49.8611 39.9312C50.0437 39.8149 50.0873 39.6818 49.9918 39.5319C49.8963 39.382 49.7577 39.3659 49.5758 39.4835L49.1073 39.7819C49.0733 39.8036 49.0382 39.811 49.0019 39.804C48.966 39.795 48.9372 39.7734 48.9156 39.7394L48.7904 39.543C48.7688 39.509 48.7618 39.4744 48.7696 39.4394C48.7778 39.4023 48.7989 39.3729 48.8329 39.3512L49.2655 39.0756C49.3487 39.0227 49.3994 38.9647 49.4177 38.9017C49.4364 38.8366 49.4261 38.7732 49.3868 38.7115C49.3475 38.6498 49.2944 38.6137 49.2275 38.6032C49.1619 38.5919 49.0875 38.6127 49.0044 38.6657L48.6568 38.8871C48.6127 38.9152 48.5746 38.9554 48.5424 39.0078C48.5095 39.0589 48.4949 39.1124 48.4987 39.1684C48.5041 39.2854 48.4636 39.3705 48.3772 39.4238L48.0957 39.6031C48.0617 39.6248 48.0266 39.6321 47.9902 39.6251C47.9552 39.6174 47.9268 39.5965 47.9052 39.5625C47.7969 39.3925 47.7919 39.2026 47.8903 38.993C47.9899 38.7825 48.1569 38.6027 48.3911 38.4535L48.7709 38.2116C49.0366 38.0423 49.2782 37.9574 49.4957 37.9569C49.7137 37.9544 49.886 38.0527 50.0128 38.2517C50.1396 38.4506 50.141 38.6516 50.017 38.8545C50.3068 38.8257 50.5279 38.931 50.6803 39.1702C50.8135 39.3793 50.8363 39.579 50.7487 39.7694C50.6615 39.9578 50.4718 40.145 50.1796 40.3311L49.7583 40.5995C49.5052 40.7608 49.2613 40.8436 49.0268 40.8478C48.7922 40.852 48.62 40.7679 48.5101 40.5953Z" stroke="#161616" stroke-width="0.473688" mask="url(#path-21-outside-1_484_7189)"/>
<path d="M51.6461 39.1526C51.406 39.1426 51.2186 39.0318 51.0838 38.8202C50.949 38.6087 50.9286 38.3932 51.0227 38.174C51.118 37.9539 51.2972 37.76 51.5604 37.5924L52.1857 37.194C52.0919 37.0466 51.9956 36.9637 51.897 36.945C51.7984 36.9264 51.6716 36.9665 51.5167 37.0651C51.3631 37.163 51.2792 37.2704 51.2652 37.3874C51.2516 37.5023 51.1995 37.5886 51.1088 37.6464L50.8273 37.8257C50.7933 37.8473 50.7582 37.8547 50.7219 37.8477C50.686 37.8387 50.6577 37.8178 50.6368 37.7851C50.4065 37.4236 50.6346 37.0242 51.321 36.587C51.6207 36.396 51.9042 36.3101 52.1714 36.3294C52.4378 36.3473 52.6605 36.4967 52.8394 36.7776L53.5844 37.947C53.606 37.981 53.613 38.0155 53.6052 38.0505C53.5974 38.0856 53.5765 38.1139 53.5425 38.1356L53.1779 38.3679C53.1439 38.3895 53.1094 38.3965 53.0744 38.3887C53.0385 38.3797 53.0101 38.3588 52.9893 38.3261L52.952 38.2675C52.8436 38.5366 52.6587 38.7535 52.3972 38.9184C52.1378 39.0836 51.8874 39.1617 51.6461 39.1526ZM51.879 37.9923C51.7908 38.0485 51.7346 38.1144 51.7102 38.1901C51.6871 38.265 51.6972 38.3365 51.7405 38.4045C51.7839 38.4725 51.846 38.5117 51.927 38.5221C52.008 38.5325 52.097 38.5068 52.1939 38.445C52.3879 38.3214 52.5388 38.1456 52.6467 37.9175L52.4589 37.6228L51.879 37.9923Z" stroke="#161616" stroke-width="0.473688" mask="url(#path-21-outside-1_484_7189)"/>
<path d="M55.8717 36.4898L54.7006 34.6517C54.679 34.6177 54.672 34.5831 54.6798 34.5481C54.688 34.511 54.7085 34.482 54.7413 34.4611L56.1543 33.5609C56.1871 33.54 56.2214 33.5341 56.2572 33.5431C56.2935 33.5501 56.3225 33.5706 56.3442 33.6046L56.4874 33.8294C56.5083 33.8622 56.5146 33.8971 56.5064 33.9342C56.4986 33.9692 56.4783 33.9972 56.4456 34.0181L55.5709 34.5753L56.5253 36.0734C56.5462 36.1061 56.5525 36.141 56.5442 36.1782C56.5365 36.2132 56.5162 36.2412 56.4835 36.262L56.0603 36.5316C56.0276 36.5525 55.993 36.5594 55.9567 36.5525C55.9209 36.5434 55.8925 36.5225 55.8717 36.4898Z" stroke="#161616" stroke-width="0.473688" mask="url(#path-21-outside-1_484_7189)"/>
<path d="M58.425 35.7582L56.8484 33.2834C56.8267 33.2494 56.8197 33.2149 56.8275 33.1798C56.8357 33.1427 56.8562 33.1137 56.889 33.0929L57.2536 32.8606C57.2863 32.8397 57.3206 32.8338 57.3565 32.8428C57.3928 32.8498 57.4218 32.8703 57.4434 32.9043L57.4795 32.961C57.5887 32.6931 57.7748 32.4754 58.0381 32.3077C58.3013 32.14 58.5804 32.0932 58.8755 32.1673C59.1698 32.2401 59.4272 32.4496 59.6479 32.796C59.8677 33.1411 59.9449 33.4637 59.8794 33.7639C59.8139 34.0642 59.6263 34.3129 59.3165 34.5103C59.1565 34.6122 58.9541 34.696 58.7091 34.7618L59.0786 35.3418C59.1003 35.3758 59.1066 35.4107 59.0976 35.4465C59.0906 35.4829 59.0707 35.5114 59.038 35.5323L58.6148 35.8019C58.5821 35.8227 58.5471 35.8291 58.51 35.8208C58.475 35.8131 58.4466 35.7922 58.425 35.7582ZM58.4311 34.3254C58.6265 34.2735 58.7796 34.2123 58.8904 34.1417C59.0629 34.0318 59.1538 33.9048 59.163 33.7609C59.1735 33.6161 59.1101 33.436 58.9729 33.2207C58.8357 33.0053 58.7016 32.8712 58.5705 32.8183C58.4399 32.7634 58.306 32.7797 58.1687 32.8672C58.0327 32.9538 57.9108 33.1112 57.8029 33.3393L58.4311 34.3254Z" stroke="#161616" stroke-width="0.473688" mask="url(#path-21-outside-1_484_7189)"/>
<path d="M61.3764 33.4211L61.6443 33.2956C61.8219 33.1824 61.8629 32.9731 61.7673 32.6674C61.5532 32.8038 61.3335 32.8535 61.1081 32.8165C60.8819 32.7783 60.612 32.6271 60.2985 32.3629L59.4357 31.6298C59.4255 31.6221 59.4164 31.612 59.4084 31.5994C59.3996 31.5855 59.3967 31.5643 59.3998 31.5358C59.4041 31.5065 59.4216 31.4812 59.4523 31.4598L59.8471 31.2083C59.8837 31.185 59.9263 31.1756 59.9751 31.1799C60.0244 31.1822 60.0657 31.1983 60.099 31.2285L60.8568 31.8718C61.0437 32.0289 61.1926 32.1252 61.3038 32.1607C61.4161 32.1953 61.5158 32.185 61.6027 32.1296L61.1361 30.5677C61.123 30.5248 61.1232 30.4821 61.1369 30.4397C61.1511 30.3953 61.1765 30.3614 61.213 30.3382L61.6116 30.0842C61.6431 30.0642 61.6728 30.0594 61.7008 30.0699C61.7287 30.0804 61.7471 30.0926 61.7559 30.1065C61.7639 30.1191 61.7695 30.1306 61.7726 30.141L62.4017 32.2208C62.5126 32.5893 62.545 32.882 62.4991 33.0989C62.4544 33.3151 62.3294 33.4886 62.1241 33.6193C61.9188 33.7501 61.7686 33.8352 61.6733 33.8747C61.5793 33.9133 61.5144 33.9281 61.4785 33.9191C61.4434 33.9113 61.4167 33.893 61.3982 33.864L61.2659 33.6562C61.2442 33.6222 61.2368 33.587 61.2438 33.5507C61.2516 33.5157 61.2725 33.4873 61.3065 33.4656L61.3764 33.4211Z" stroke="#161616" stroke-width="0.473688" mask="url(#path-21-outside-1_484_7189)"/>
<path d="M63.0324 31.3436C63.0107 31.3096 63.0038 31.2751 63.0116 31.24C63.0206 31.2042 63.0415 31.1758 63.0742 31.1549L63.3576 30.9744C63.4432 30.9199 63.5373 30.9202 63.6397 30.9753C63.7426 31.0284 63.8626 31.0112 63.9999 30.9238L64.3834 30.6794C64.566 30.5631 64.6096 30.43 64.5141 30.2801C64.4186 30.1303 64.28 30.1141 64.0982 30.2317L63.6297 30.5302C63.5957 30.5519 63.5605 30.5592 63.5242 30.5522C63.4883 30.5432 63.4596 30.5217 63.4379 30.4877L63.3128 30.2912C63.2911 30.2572 63.2842 30.2227 63.2919 30.1876C63.3002 30.1505 63.3213 30.1211 63.3553 30.0995L63.7879 29.8239C63.871 29.7709 63.9217 29.7129 63.94 29.6499C63.9588 29.5849 63.9485 29.5215 63.9092 29.4598C63.8698 29.3981 63.8167 29.3619 63.7499 29.3514C63.6842 29.3401 63.6098 29.361 63.5267 29.4139L63.1791 29.6354C63.135 29.6634 63.0969 29.7037 63.0648 29.756C63.0318 29.8071 63.0172 29.8607 63.021 29.9167C63.0265 30.0336 62.986 30.1187 62.8995 30.172L62.6181 30.3513C62.5841 30.373 62.5489 30.3804 62.5126 30.3734C62.4775 30.3656 62.4492 30.3447 62.4275 30.3107C62.3192 30.1407 62.3142 29.9509 62.4126 29.7412C62.5123 29.5308 62.6792 29.351 62.9135 29.2017L63.2932 28.9598C63.5589 28.7905 63.8006 28.7056 64.018 28.7052C64.236 28.7027 64.4084 28.8009 64.5351 28.9999C64.6619 29.1989 64.6633 29.3998 64.5394 29.6027C64.8291 29.5739 65.0502 29.6792 65.2027 29.9185C65.3358 30.1276 65.3586 30.3273 65.271 30.5177C65.1838 30.706 64.9941 30.8933 64.702 31.0794L64.2807 31.3478C64.0275 31.509 63.7837 31.5918 63.5491 31.596C63.3146 31.6003 63.1423 31.5161 63.0324 31.3436Z" stroke="#161616" stroke-width="0.473688" mask="url(#path-21-outside-1_484_7189)"/>
<path d="M66.1512 29.7737C65.8392 29.7175 65.5709 29.5131 65.3462 29.1604C65.1207 28.8065 65.0489 28.477 65.1306 28.1717C65.2115 27.8652 65.4359 27.5948 65.8036 27.3605C66.1726 27.1254 66.5132 27.036 66.8252 27.0921C67.1364 27.1471 67.4047 27.3515 67.6302 27.7054C67.8548 28.058 67.9267 28.3876 67.8457 28.6941C67.7648 29.0007 67.5398 29.2715 67.1708 29.5065C66.8031 29.7408 66.4632 29.8299 66.1512 29.7737ZM65.8059 28.177C65.7928 28.3288 65.8577 28.5168 66.0005 28.7409C66.1433 28.9651 66.2867 29.104 66.4306 29.1575C66.5744 29.211 66.7301 29.1844 66.8976 29.0777C67.0664 28.9702 67.1569 28.8399 67.1692 28.6869C67.1828 28.5331 67.1181 28.3441 66.9753 28.1199C66.8325 27.8957 66.6889 27.7579 66.5446 27.7065C66.4015 27.6542 66.2456 27.6818 66.0768 27.7893C65.9093 27.896 65.819 28.0253 65.8059 28.177Z" stroke="#161616" stroke-width="0.473688" mask="url(#path-21-outside-1_484_7189)"/>
<path d="M68.7979 28.2549L67.6269 26.4167C67.6052 26.3827 67.5983 26.3482 67.606 26.3131C67.6143 26.276 67.6348 26.2471 67.6675 26.2262L68.3174 25.8122C68.3917 25.7648 68.478 25.7753 68.5764 25.8437L69.7547 26.6759L69.4983 25.2563C69.478 25.1383 69.505 25.0556 69.5793 25.0082L70.2292 24.5942C70.2632 24.5726 70.2981 24.5662 70.334 24.5753C70.3703 24.5822 70.3993 24.6027 70.4209 24.6367L71.5919 26.4749C71.6136 26.5089 71.6199 26.5438 71.6109 26.5797C71.6031 26.6147 71.5822 26.6431 71.5482 26.6647L71.1383 26.9259C71.1043 26.9475 71.0698 26.9545 71.0347 26.9467C70.9989 26.9377 70.9705 26.9168 70.9496 26.8841L70.1974 25.7033L70.4552 27.1752C70.4723 27.2882 70.4406 27.3704 70.36 27.4217L70.1748 27.5397C70.0955 27.5902 70.0082 27.5839 69.913 27.5206L68.688 26.665L69.4402 27.8457C69.4619 27.8797 69.4682 27.9146 69.4592 27.9505C69.4514 27.9855 69.4305 28.0139 69.3965 28.0355L68.9866 28.2967C68.9525 28.3183 68.918 28.3253 68.883 28.3175C68.8479 28.3098 68.8196 28.2889 68.7979 28.2549Z" stroke="#161616" stroke-width="0.473688" mask="url(#path-21-outside-1_484_7189)"/>
<path fill-rule="evenodd" clip-rule="evenodd" d="M24.3701 57.3694C25.7382 57.3694 26.9808 55.9638 26.9808 54.7224C26.9808 53.4809 25.8717 52.4745 24.5036 52.4745C23.1355 52.4745 22.0264 53.4809 22.0264 54.7224C22.0264 55.9638 23.002 57.3694 24.3701 57.3694ZM23.629 53.3155C24.0844 53.0253 24.4909 52.9364 24.8485 53.0485C25.2061 53.1607 25.5376 53.4565 25.8432 53.9361C26.1474 54.4137 26.2748 54.8382 26.2253 55.2097C26.1746 55.5791 25.9215 55.9089 25.4661 56.1991C25.0127 56.4879 24.6068 56.5779 24.2485 56.469C23.891 56.3569 23.5601 56.062 23.2558 55.5845C22.9503 55.1049 22.8222 54.6793 22.8717 54.3079C22.9232 53.9351 23.1756 53.6043 23.629 53.3155Z" stroke="#161616" stroke-width="0.473688" mask="url(#path-21-outside-1_484_7189)"/>
</g>
</g>
<defs>
<linearGradient id="paint0_linear_484_7189" x1="12.4697" y1="41.6504" x2="83.4824" y2="41.6504" gradientUnits="userSpaceOnUse">
<stop stop-color="#FB3A42"/>
<stop offset="0.51616" stop-color="#B5040B"/>
<stop offset="0.994791" stop-color="#830005"/>
</linearGradient>
<linearGradient id="paint1_linear_484_7189" x1="11.6436" y1="24.2709" x2="32.0115" y2="24.2709" gradientUnits="userSpaceOnUse">
<stop stop-color="#FB3A42"/>
<stop offset="0.51616" stop-color="#B5040B"/>
<stop offset="0.994791" stop-color="#830005"/>
</linearGradient>
<linearGradient id="paint2_linear_484_7189" x1="25.6519" y1="57.7389" x2="76.5215" y2="25.1301" gradientUnits="userSpaceOnUse">
<stop stop-color="#E0262D"/>
<stop offset="0.51616" stop-color="#B5040B"/>
<stop offset="0.994791" stop-color="#9C0209"/>
</linearGradient>
</defs>
</svg>
