<svg width="32" height="32" viewBox="0 0 32 32" fill="none" xmlns="http://www.w3.org/2000/svg">
<g id="Frame">
<g id="Group">
<g id="Layer 48">
<path id="Vector" d="M30.8537 3.64656L28.3182 1.11106C28.2239 1.01998 28.0976 0.969583 27.9665 0.970722C27.8354 0.971861 27.71 1.02445 27.6173 1.11715C27.5246 1.20985 27.472 1.33526 27.4709 1.46636C27.4697 1.59746 27.5201 1.72376 27.6112 1.81806L29.2932 3.50006H16.0002C13.5871 3.50002 11.2256 4.19844 9.20078 5.51099C7.17591 6.82355 5.57424 8.69415 4.58912 10.897C3.60399 13.0998 3.27751 15.5407 3.6491 17.9249C4.02069 20.3092 5.07446 22.535 6.68321 24.3336C6.72681 24.3832 6.7798 24.4237 6.83914 24.4527C6.89848 24.4817 6.96297 24.4987 7.02891 24.5026C7.09484 24.5066 7.1609 24.4974 7.22328 24.4757C7.28565 24.454 7.3431 24.4201 7.39231 24.376C7.44152 24.332 7.48152 24.2786 7.50998 24.219C7.53845 24.1594 7.55482 24.0947 7.55816 24.0288C7.5615 23.9628 7.55173 23.8968 7.52943 23.8347C7.50712 23.7725 7.47272 23.7154 7.42821 23.6666C5.94824 22.0118 4.97886 19.9641 4.63707 17.7706C4.29527 15.5771 4.59568 13.3315 5.50203 11.305C6.40838 9.27844 7.88193 7.55754 9.74479 6.35003C11.6077 5.14252 13.7802 4.50001 16.0002 4.50006H29.2932L27.6112 6.18206C27.5634 6.22818 27.5254 6.28336 27.4992 6.34436C27.4729 6.40536 27.4592 6.47097 27.4586 6.53736C27.458 6.60375 27.4707 6.66959 27.4958 6.73104C27.5209 6.79248 27.5581 6.84831 27.605 6.89526C27.652 6.9422 27.7078 6.97933 27.7692 7.00447C27.8307 7.02961 27.8965 7.04226 27.9629 7.04168C28.0293 7.04111 28.0949 7.02731 28.1559 7.00111C28.2169 6.97491 28.2721 6.93681 28.3182 6.88906L30.8537 4.35356C30.9474 4.2598 31.0001 4.13264 31.0001 4.00006C31.0001 3.86748 30.9474 3.74032 30.8537 3.64656Z" fill="url(#paint0_linear_320_195192)"/>
<path id="Vector_2" d="M16 9.5C14.7144 9.5 13.4577 9.88122 12.3888 10.5954C11.3199 11.3097 10.4868 12.3248 9.99479 13.5126C9.50282 14.7003 9.37409 16.0072 9.6249 17.2681C9.8757 18.529 10.4948 19.6872 11.4038 20.5962C12.3128 21.5052 13.471 22.1243 14.7319 22.3751C15.9928 22.6259 17.2997 22.4972 18.4874 22.0052C19.6752 21.5132 20.6903 20.6801 21.4046 19.6112C22.1188 18.5423 22.5 17.2856 22.5 16C22.498 14.2767 21.8126 12.6246 20.594 11.406C19.3754 10.1874 17.7233 9.50198 16 9.5ZM16 15.5C17.682 15.5 19 16.3785 19 17.5C19 18.5075 17.9355 19.3165 16.5 19.471V20.5C16.5 20.6326 16.4473 20.7598 16.3536 20.8536C16.2598 20.9473 16.1326 21 16 21C15.8674 21 15.7402 20.9473 15.6464 20.8536C15.5527 20.7598 15.5 20.6326 15.5 20.5V19.471C14.0645 19.3165 13 18.5075 13 17.5C13 17.3674 13.0527 17.2402 13.1464 17.1464C13.2402 17.0527 13.3674 17 13.5 17C13.6326 17 13.7598 17.0527 13.8536 17.1464C13.9473 17.2402 14 17.3674 14 17.5C14 17.972 14.855 18.5 16 18.5C17.145 18.5 18 17.972 18 17.5C18 17.028 17.145 16.5 16 16.5C14.318 16.5 13 15.6215 13 14.5C13 13.4925 14.0645 12.6835 15.5 12.529V11.5C15.5 11.3674 15.5527 11.2402 15.6464 11.1464C15.7402 11.0527 15.8674 11 16 11C16.1326 11 16.2598 11.0527 16.3536 11.1464C16.4473 11.2402 16.5 11.3674 16.5 11.5V12.529C17.9355 12.6835 19 13.4925 19 14.5C19 14.6326 18.9473 14.7598 18.8536 14.8536C18.7598 14.9473 18.6326 15 18.5 15C18.3674 15 18.2402 14.9473 18.1464 14.8536C18.0527 14.7598 18 14.6326 18 14.5C18 14.028 17.145 13.5 16 13.5C14.855 13.5 14 14.028 14 14.5C14 14.972 14.855 15.5 16 15.5Z" fill="url(#paint1_linear_320_195192)"/>
<path id="Vector_3" d="M16 7C14.22 7 12.4799 7.52784 10.9999 8.51677C9.51983 9.50571 8.36628 10.9113 7.68509 12.5558C7.0039 14.2004 6.82567 16.01 7.17294 17.7558C7.5202 19.5016 8.37737 21.1053 9.63604 22.364C10.8947 23.6226 12.4984 24.4798 14.2442 24.8271C15.99 25.1743 17.7996 24.9961 19.4442 24.3149C21.0887 23.6337 22.4943 22.4802 23.4832 21.0001C24.4722 19.5201 25 17.78 25 16C24.9972 13.6139 24.0481 11.3263 22.3609 9.63911C20.6737 7.95188 18.3861 7.00278 16 7ZM16 23.5C14.5166 23.5 13.0666 23.0601 11.8332 22.236C10.5999 21.4119 9.63856 20.2406 9.07091 18.8701C8.50325 17.4997 8.35473 15.9917 8.64411 14.5368C8.9335 13.082 9.64781 11.7456 10.6967 10.6967C11.7456 9.64781 13.082 8.9335 14.5368 8.64411C15.9917 8.35472 17.4997 8.50325 18.8701 9.0709C20.2406 9.63856 21.4119 10.5999 22.236 11.8332C23.0601 13.0666 23.5 14.5166 23.5 16C23.4978 17.9884 22.7069 19.8948 21.3008 21.3008C19.8948 22.7069 17.9884 23.4977 16 23.5Z" fill="url(#paint2_linear_320_195192)"/>
<path id="Vector_4" d="M24.6109 7.62725C24.5619 7.67105 24.522 7.72408 24.4936 7.78331C24.4651 7.84254 24.4486 7.9068 24.4449 7.97241C24.4413 8.03803 24.4507 8.10372 24.4724 8.16572C24.4942 8.22772 24.528 8.28482 24.5719 8.33375C26.0519 9.98846 27.0212 12.0362 27.363 14.2297C27.7048 16.4232 27.4044 18.6688 26.4981 20.6953C25.5917 22.7219 24.1182 24.4428 22.2553 25.6503C20.3924 26.8578 18.2199 27.5003 15.9999 27.5002H2.70689L4.38889 25.8182C4.47997 25.7239 4.53037 25.5976 4.52923 25.4665C4.52809 25.3354 4.47551 25.21 4.3828 25.1173C4.2901 25.0246 4.16469 24.972 4.03359 24.9709C3.9025 24.9698 3.77619 25.0202 3.68189 25.1112L1.14639 27.6467C1.05266 27.7405 1 27.8677 1 28.0002C1 28.1328 1.05266 28.26 1.14639 28.3537L3.68189 30.8892C3.77619 30.9803 3.9025 31.0307 4.03359 31.0296C4.16469 31.0284 4.2901 30.9759 4.3828 30.8832C4.47551 30.7905 4.52809 30.665 4.52923 30.5339C4.53037 30.4029 4.47997 30.2765 4.38889 30.1822L2.70689 28.5002H15.9999C18.413 28.5003 20.7745 27.8019 22.7993 26.4893C24.8242 25.1768 26.4259 23.3062 27.411 21.1033C28.3961 18.9005 28.7226 16.4596 28.351 14.0754C27.9794 11.6911 26.9256 9.46531 25.3169 7.66675C25.2285 7.56789 25.1045 7.50819 24.9721 7.50078C24.8397 7.49337 24.7098 7.53886 24.6109 7.62725Z" fill="url(#paint3_linear_320_195192)"/>
</g>
</g>
</g>
<defs>
<linearGradient id="paint0_linear_320_195192" x1="3.5" y1="12.9875" x2="31.0001" y2="12.9875" gradientUnits="userSpaceOnUse">
<stop stop-color="#FB3A42"/>
<stop offset="0.51616" stop-color="#B5040B"/>
<stop offset="0.994791" stop-color="#830005"/>
</linearGradient>
<linearGradient id="paint1_linear_320_195192" x1="9.5" y1="16.1383" x2="22.5" y2="16.1383" gradientUnits="userSpaceOnUse">
<stop stop-color="#FB3A42"/>
<stop offset="0.51616" stop-color="#B5040B"/>
<stop offset="0.994791" stop-color="#830005"/>
</linearGradient>
<linearGradient id="paint2_linear_320_195192" x1="7" y1="16.1915" x2="25" y2="16.1915" gradientUnits="userSpaceOnUse">
<stop stop-color="#FB3A42"/>
<stop offset="0.51616" stop-color="#B5040B"/>
<stop offset="0.994791" stop-color="#830005"/>
</linearGradient>
<linearGradient id="paint3_linear_320_195192" x1="1" y1="19.5151" x2="28.5001" y2="19.5151" gradientUnits="userSpaceOnUse">
<stop stop-color="#FB3A42"/>
<stop offset="0.51616" stop-color="#B5040B"/>
<stop offset="0.994791" stop-color="#830005"/>
</linearGradient>
</defs>
</svg>
