<svg width="32" height="32" viewBox="0 0 32 32" fill="none" xmlns="http://www.w3.org/2000/svg">
<g id="Frame" clip-path="url(#clip0_320_195184)">
<g id="Group">
<path id="Vector" d="M27.1755 13.0169C27.1755 17.51 23.533 21.1525 19.0399 21.1525C14.5465 21.1525 10.9043 17.51 10.9043 13.0169C10.9043 8.52386 14.5465 4.88136 19.0399 4.88136C23.533 4.88136 27.1755 8.52386 27.1755 13.0169ZM19.0399 3.25424C18.7401 3.25424 18.4975 3.01139 18.4975 2.71186V0.542373C18.4975 0.398527 18.5547 0.260572 18.6564 0.158857C18.7581 0.0571427 18.896 0 19.0399 0C19.1837 0 19.3217 0.0571427 19.4234 0.158857C19.5251 0.260572 19.5823 0.398527 19.5823 0.542373V2.71186C19.5823 2.85571 19.5251 2.99367 19.4234 3.09538C19.3217 3.19709 19.1837 3.25424 19.0399 3.25424ZM31.5145 13.5593H29.345C29.0452 13.5593 28.8026 13.3165 28.8026 13.0169C28.8026 12.7174 29.0452 12.4746 29.345 12.4746H31.5145C31.6583 12.4746 31.7963 12.5317 31.898 12.6334C31.9997 12.7351 32.0568 12.8731 32.0568 13.0169C32.0568 13.1608 31.9997 13.2988 31.898 13.4005C31.7963 13.5022 31.6583 13.5593 31.5145 13.5593Z" fill="#FDD020"/>
<path id="Vector_2" d="M25.5488 20.0676C25.152 20.0676 24.7562 20.1073 24.3673 20.1857C24.2226 19.4635 23.916 18.7835 23.4706 18.1968C23.0251 17.6102 22.4525 17.1322 21.7957 16.7987C21.1389 16.4653 20.415 16.2852 19.6786 16.2718C18.9421 16.2585 18.2122 16.4123 17.5438 16.7217C16.3181 13.3457 12.5877 11.6026 9.21162 12.8281C5.83555 14.0541 4.09244 17.7845 5.31806 21.1606C2.36084 21.254 0.0247071 23.7016 0.0689783 26.6603C0.113385 29.6188 2.52193 31.9951 5.48098 31.9998H25.5488C28.8436 31.9998 31.5149 29.3288 31.5149 26.0337C31.5149 22.7387 28.8436 20.0676 25.5488 20.0676Z" fill="#A3D4F7"/>
<g id="Group_2">
<path id="Vector_3" d="M11.4472 5.42362L9.27769 3.25413L11.4472 5.42362ZM11.4472 5.966C11.376 5.966 11.3054 5.95197 11.2396 5.9247C11.1738 5.89744 11.1141 5.85747 11.0637 5.80708L8.89423 3.63759C8.82495 3.57071 8.77472 3.4866 8.7487 3.39389C8.72268 3.30119 8.7218 3.20322 8.74616 3.11006C8.77057 3.01693 8.81932 2.93197 8.88742 2.8639C8.95551 2.79583 9.04049 2.74711 9.13364 2.72274C9.22678 2.69837 9.32473 2.69923 9.41744 2.72523C9.51014 2.75123 9.59426 2.80143 9.66115 2.87067L11.8306 5.04016C11.9064 5.11608 11.958 5.21274 11.9789 5.31795C11.9997 5.42316 11.989 5.53219 11.9479 5.63128C11.9069 5.73033 11.8375 5.81499 11.7483 5.87456C11.6592 5.93414 11.5544 5.96596 11.4472 5.966H11.4472ZM26.6336 5.42362L28.8031 3.25413L26.6336 5.42362ZM26.6336 5.966C26.5263 5.96604 26.4215 5.93425 26.3322 5.87467C26.243 5.81508 26.1735 5.73037 26.1324 5.63125C26.0914 5.53213 26.0807 5.42306 26.1016 5.31784C26.1226 5.21263 26.1743 5.11599 26.2502 5.04016L28.4197 2.87067C28.4865 2.80143 28.5706 2.75124 28.6632 2.72527C28.7559 2.69929 28.8538 2.69847 28.9469 2.72288C29.1365 2.77237 29.2848 2.92044 29.3344 3.11006C29.3839 3.29969 29.3275 3.50145 29.1866 3.63759L27.0171 5.80708C26.9154 5.9088 26.7775 5.96596 26.6336 5.966Z" fill="#FDD020"/>
</g>
</g>
</g>
<defs>
<clipPath id="clip0_320_195184">
<rect width="32" height="32" fill="white"/>
</clipPath>
</defs>
</svg>
