<svg width="128" height="40" viewBox="0 0 128 40" fill="none" xmlns="http://www.w3.org/2000/svg">
<g id="&#208;&#146;&#208;&#181;&#208;&#187;&#208;&#189;&#208;&#181;&#209;&#129;&#209;&#130;&#209;&#128;&#208;&#181;&#208;&#185;&#208;&#180;" clip-path="url(#clip0_320_194558)">
<path id="Vector" d="M19.1972 0.00344556C17.2516 0.0301612 15.3489 0.237721 13.7723 0.505905C11.4531 0.935411 9.42286 1.07824 7.82821 1.22158H7.10366C4.92895 1.07824 2.03021 0.649759 0.145531 0.649759H0C1.74018 1.6516 6.37962 3.79707 7.97426 8.51957C10.7275 16.3894 18.9897 39.7142 18.9897 39.7142H20.0048L26.8174 19.5372C27.1074 20.2524 27.253 20.968 27.398 21.6832C29.1376 27.407 30.0067 30.4125 31.0218 32.4162C31.1663 32.8457 31.4574 33.1319 31.6024 33.5614C32.762 35.5645 34.2111 37.4249 35.3707 38.5695C35.8057 38.9985 36.2403 39.4275 36.6753 39.5709L36.8203 39.7147V39.5709L50.7376 1.22158H47.2583L38.851 24.5464C37.981 23.6879 36.6758 21.5409 35.8062 18.8215C35.0812 16.9617 34.6461 14.9586 34.2116 12.9554C33.6315 9.52089 32.617 6.9454 31.0223 4.94173C30.4423 4.08323 29.5732 3.36756 28.8481 2.79523C28.5581 2.36624 28.2681 2.22239 27.9786 1.93622C25.8038 0.41651 22.4406 -0.0417655 19.1972 0.0029318V0.00344556ZM15.2219 1.22106C16.5265 1.22106 17.8306 1.3644 18.8452 1.50723C20.1498 1.65057 21.1649 1.93725 22.0345 2.08059C23.0491 2.36675 23.7747 2.65292 24.2097 2.79574C24.6448 3.08191 25.2243 3.36808 25.6588 3.79758C27.5435 5.22841 29.4282 7.37491 30.7328 11.0951C31.1678 12.5264 31.6024 14.1006 31.8924 16.1032C31.8924 16.3899 32.0369 16.6761 32.0369 16.9622C32.3274 18.3936 32.6175 19.8239 32.907 20.968C34.5016 26.2624 36.9664 28.8389 37.1114 28.9817L35.3717 33.5614C35.5162 33.5614 33.7771 32.5595 31.4579 24.9749C31.0228 23.2579 30.4433 21.3981 29.8632 18.9654C29.7182 18.6792 29.7177 18.3936 29.5727 17.9641C27.1085 6.23025 21.455 2.36675 15.9465 1.36492C15.6569 1.36492 15.5119 1.22106 15.2219 1.22106ZM11.3081 2.65292C11.5981 2.65292 12.0321 2.79677 12.4671 2.79677H12.7577C12.9022 2.79677 13.1922 2.93908 13.4822 2.93908C14.4968 3.08191 15.6569 3.51142 16.816 4.08375C16.816 4.08375 16.9616 4.08375 16.9616 4.2276C17.1061 4.37043 17.2506 4.37043 17.3961 4.51325C20.4404 6.08742 23.6291 9.37858 25.3688 15.6747L20.7299 30.1274L11.3081 2.65292ZM70.5989 3.08242V34.1337C70.5989 36.9954 72.1936 39.8575 76.688 39.8575H78.1376L78.5717 36.4235C75.2379 36.4235 74.8033 35.7084 74.8033 31.7016V3.08191L70.5989 3.08242ZM81.7609 3.08242V34.1337C81.7609 36.9954 83.3556 39.8575 87.85 39.8575H89.2991L89.7347 36.4235C86.4009 36.4235 85.9653 35.7084 85.9653 31.7016V3.08191L81.7609 3.08242ZM95.2432 8.23392C94.0836 8.23392 93.068 9.23473 93.068 10.5227C93.068 11.8107 94.0836 12.8126 95.3882 12.8126C96.5478 12.9559 97.5624 11.8107 97.5624 10.5227C97.5624 9.23473 96.5478 8.23392 95.2432 8.23392ZM123.8 8.52008C121.481 8.52008 119.596 10.3799 119.596 12.8126C119.596 15.2452 121.481 17.1056 123.8 17.1056C126.119 17.1056 128.004 15.1019 128.004 12.8126C128.004 10.5232 126.119 8.52008 123.8 8.52008ZM123.8 9.37807C125.685 9.37807 127.134 10.9522 127.134 12.8126C127.134 14.6724 125.685 16.2466 123.8 16.2466C121.916 16.2466 120.466 14.6729 120.466 12.8126C120.466 10.9527 121.916 9.37755 123.8 9.37755L123.8 9.37807ZM122.351 10.5227V15.1024H123.076V13.3839H123.945L124.96 15.1019H125.829L124.815 13.0982C125.25 12.9549 125.54 12.5259 125.54 11.8107C125.54 10.8089 124.815 10.5222 123.945 10.5222L122.351 10.5227ZM123.076 11.2384H123.8C124.525 11.2384 124.67 11.5246 124.67 11.9536C124.67 12.3826 124.38 12.6692 123.8 12.6692H123.076V11.2384ZM111.189 15.1024C104.811 15.1024 102.491 18.6797 102.491 22.2571C102.491 27.1224 106.55 28.2671 109.74 29.1261C111.623 29.5551 114.378 30.5564 114.378 32.989C114.378 34.9922 112.783 35.9946 109.74 35.9946C106.26 35.9946 103.505 34.4204 102.491 33.5619L101.911 37.711C102.926 38.5695 105.681 39.8575 110.03 39.5714C117.133 39.5714 118.871 35.7079 118.871 32.5595C118.871 27.6942 114.523 26.2639 112.204 25.5487C108.58 24.5469 106.839 23.8307 106.839 21.6847C106.839 19.5382 108.724 18.5369 111.334 18.5369C113.943 18.5369 115.538 19.5387 116.987 20.6829L117.567 16.6761C116.117 15.9609 114.233 15.1029 111.188 15.1029L111.189 15.1024ZM57.1157 15.2447C49.868 15.2447 45.6636 20.8262 45.6636 27.4086C45.6636 34.2776 50.013 40.0009 58.2758 40.0009C61.7541 40.0009 64.3638 38.999 66.1035 38.1411L65.5239 34.706C63.4943 35.5645 61.03 36.2802 58.8553 36.2802C54.3614 36.2802 50.4476 34.1337 49.8675 27.5514H66.9731C67.1176 26.6934 67.117 25.9782 67.117 25.2626C67.117 18.8231 62.9137 15.2452 57.1152 15.2452L57.1157 15.2447ZM93.2109 15.6742V39.4275H97.5598V15.6737L93.2109 15.6742ZM57.1157 18.822C61.03 18.822 63.0587 21.2557 63.0587 24.5469H50.3015C51.0266 21.1129 53.2018 18.822 57.1157 18.822Z" fill="#6D6E71"/>
</g>
<defs>
<clipPath id="clip0_320_194558">
<rect width="128" height="40" fill="white"/>
</clipPath>
</defs>
</svg>
