<svg width="107" height="40" viewBox="0 0 107 40" fill="none" xmlns="http://www.w3.org/2000/svg">
<g clip-path="url(#clip0_320_194547)">
<path d="M20.083 13.5936H25.9689V6.92693C25.9689 5.06507 25.1085 4.12413 23.3486 4.12413H22.6838C20.9435 4.12413 20.0635 5.06507 20.0635 6.92693V13.5936H20.083ZM20.083 17.8579L20.1025 25.1853C20.1025 27.0471 20.9825 27.968 22.723 27.968H23.4856C25.2258 27.968 26.1058 27.0471 26.1058 25.1853V21.5816H30.1145V25.0051C30.1145 29.7096 27.8852 32.1122 23.466 32.1122H22.586C18.1667 32.1122 15.9375 29.7296 15.9375 25.5656V7.64765C15.9375 2.38238 18.1667 0 22.586 0H23.466C27.8852 0 30.1145 2.38238 30.1145 7.08709L30.0949 17.8378H20.083V17.8579Z" fill="black"/>
<path d="M36.9405 26.2868C38.0746 27.3277 39.3849 27.9085 40.7535 27.9085C42.2787 27.9085 43.1587 27.1477 43.1587 25.3459V6.72722C43.1587 4.92542 42.2787 4.16465 40.7535 4.16465C39.3849 4.16465 38.0746 4.74523 36.9405 5.78627V26.2868ZM32.7949 0.360849H36.9405V2.40289C37.9182 1.30179 39.5999 0.0205078 42.0051 0.0205078C45.5444 0.0205078 47.2847 2.52302 47.2847 6.24673V25.9065C47.2847 29.6301 45.5444 32.1326 42.0051 32.1326C39.5999 32.1326 37.9182 30.9114 36.9405 29.8703V40.0005H32.7949V0.360849Z" fill="black"/>
<path d="M59.7012 26.467V16.1166L55.9467 17.6381C54.4215 18.2788 53.9326 19.0995 53.9326 20.9014V25.6661C53.9326 27.1877 54.6366 27.9285 55.9467 27.9285C57.1983 27.9285 58.3519 27.4679 59.7012 26.467ZM49.7872 20.8214C49.7872 16.9174 50.9799 15.3558 54.1477 14.1947L59.7012 12.1526V6.92742C59.7012 5.06556 58.8212 4.08458 57.0809 4.08458H56.4161C54.6758 4.08458 53.7959 5.06556 53.7959 6.92742V11.3719H49.7676V7.1076C49.7676 2.40289 51.9968 0.0205078 56.4161 0.0205078H57.1983C61.6176 0.0205078 63.8468 2.40289 63.8468 7.1076V31.7723H59.7012V29.7903C58.5671 30.9514 57.0224 32.1126 54.6366 32.1126C51.3124 32.1126 49.7872 30.0706 49.7872 26.587V20.8214Z" fill="black"/>
<path d="M80.587 31.7718H76.4415V6.46647C76.4415 4.90491 75.7375 4.2042 74.486 4.2042C73.3518 4.2042 72.1394 4.66467 70.673 5.76576V31.7718H66.5273V0.36036H70.673V2.4024C71.8853 1.18118 73.4497 0 75.7375 0C77.869 0 79.2769 0.940942 80.0395 2.56256C81.5257 1.22122 83.266 0 85.6515 0C88.8584 0 90.5011 2.10211 90.5011 5.52553V31.7518H86.3555V6.46647C86.3555 4.90491 85.6515 4.2042 84.4002 4.2042C83.266 4.2042 82.0536 4.66467 80.587 5.76576V31.7718Z" fill="black"/>
<path d="M0 14.054V18.2983L10.6376 28.9688V23.063L3.67623 16.116L10.6376 9.02895V3.24316L0 14.054Z" fill="black"/>
<path d="M95.7578 9.02895L102.719 16.116L95.7578 23.083V28.9688L106.395 18.2983V14.054L95.7578 3.24316V9.02895Z" fill="black"/>
</g>
<defs>
<clipPath id="clip0_320_194547">
<rect width="107" height="40" fill="white"/>
</clipPath>
</defs>
</svg>
