<svg width="80" height="40" viewBox="0 0 80 40" fill="none" xmlns="http://www.w3.org/2000/svg">
<g id="&#208;&#154;&#208;&#190;&#208;&#188;&#208;&#191;&#208;&#190;&#208;&#183;&#208;&#184;&#209;&#130; &#208;&#165;&#208;&#190;&#209;&#130; &#208;&#161;&#208;&#191;&#208;&#176;" clip-path="url(#clip0_320_194592)">
<g id="&#208;&#161;&#208;&#187;&#208;&#190;&#208;&#185; 2">
<g id="Layer 1">
<path id="Vector" d="M29.8695 24.2113L30.1899 24.1481C30.4909 24.086 30.7868 24.0015 31.0753 23.8953C31.3435 23.794 31.5865 23.6359 31.7878 23.4318C32.0061 23.2035 32.1691 22.9282 32.2642 22.627C32.391 22.218 32.4494 21.7909 32.4371 21.3629C32.4644 21.0586 32.4288 20.7518 32.3323 20.4618C32.2358 20.1719 32.0806 19.9049 31.8763 19.6775C31.4752 19.3134 30.9463 19.1225 30.4049 19.1465H29.9411C29.7852 19.1465 29.6249 19.1718 29.4563 19.1929V29.5458H27.0742V18.0931L27.8879 18.0426L28.807 17.9962C29.1246 17.9962 29.4408 17.9878 29.7556 17.9709H30.6705C31.3051 17.9588 31.9382 18.0369 32.5509 18.2027C33.0303 18.3294 33.4791 18.5516 33.8705 18.8558C34.2102 19.1309 34.4766 19.4855 34.6463 19.8881C34.8208 20.3233 34.9068 20.7888 34.8993 21.2576C34.9031 21.7694 34.8087 22.2772 34.621 22.7534C34.4308 23.223 34.1351 23.6425 33.7567 23.9796C33.3252 24.3594 32.82 24.6462 32.2726 24.8223C31.5762 25.0346 30.8505 25.1356 30.1224 25.1215H30.017L29.8695 24.2113Z" fill="#050007"/>
<path id="Vector_2" d="M48.1523 23.7526C48.162 24.5875 48.0367 25.4184 47.7813 26.2134C47.5547 26.9138 47.1761 27.5555 46.6725 28.0927C46.1529 28.627 45.5186 29.0362 44.8174 29.2894C43.9902 29.5857 43.1158 29.7285 42.2372 29.7107C41.3528 29.7325 40.4721 29.5896 39.6401 29.2894C38.9607 29.035 38.352 28.6218 37.8651 28.0843C37.3933 27.5394 37.0465 26.898 36.849 26.205C36.6213 25.4092 36.5105 24.5845 36.5202 23.7569C36.5098 22.9341 36.6235 22.1145 36.8575 21.3256C37.0599 20.6415 37.4144 20.012 37.8946 19.4842C38.3884 18.9587 38.9995 18.5573 39.678 18.3128C40.5034 18.0208 41.3743 17.8781 42.2498 17.8915C43.1308 17.8792 44.007 18.0219 44.8385 18.3128C45.5308 18.5514 46.1579 18.9479 46.6702 19.4708C47.1825 19.9938 47.5658 20.6288 47.7897 21.3256C48.0425 22.1094 48.165 22.9293 48.1523 23.7526ZM45.6227 23.7526C45.6304 23.1181 45.5653 22.4847 45.4287 21.8649C45.3195 21.357 45.1134 20.8749 44.8216 20.4449C44.5512 20.0653 44.1885 19.7608 43.7676 19.5601C43.2886 19.3437 42.7668 19.2386 42.2414 19.2525C41.7565 19.2506 41.2728 19.3029 40.7995 19.4084C40.4215 19.4844 40.0629 19.6363 39.7455 19.855C39.413 20.1964 39.2115 20.644 39.1763 21.1191C39.0421 21.9917 38.9828 22.8742 38.9992 23.7569C38.9926 24.387 39.0463 25.0162 39.1594 25.6361C39.2472 26.1488 39.4272 26.6413 39.6907 27.0898C39.9309 27.4886 40.2747 27.8147 40.6857 28.0337C41.1654 28.2682 41.695 28.3825 42.2287 28.3666C42.755 28.3785 43.2806 28.3233 43.7929 28.2022C44.1598 28.1165 44.5111 27.9744 44.8343 27.7809C44.9999 27.6565 45.1211 27.4822 45.18 27.2837C45.2924 26.9862 45.3757 26.6786 45.4287 26.3651C45.4996 25.9635 45.5489 25.5584 45.5763 25.1516C45.6185 24.6839 45.6353 24.2246 45.6353 23.7526H45.6227Z" fill="#050007"/>
<path id="Vector_3" d="M50.5586 29.5461V18.0303H52.9407V28.3495H57.3971L57.2748 29.5461H50.5586Z" fill="#050007"/>
<path id="Vector_4" d="M66.5378 29.5459L65.1592 25.6609L60.7407 25.7241L59.3241 29.5459H57.8105L62.4482 18.1269L64.7629 17.7393L69.0843 29.5374L66.5378 29.5459ZM64.7839 24.5738L63.0048 19.6017L61.1708 24.5738H64.7839Z" fill="#050007"/>
<path id="Vector_5" d="M73.6675 24.8011H72.8665V29.5457H70.4844V18.0551C70.965 18.0214 71.5089 17.9919 72.116 17.9666C72.7231 17.9414 73.3049 17.9287 73.8572 17.9287C75.2738 17.9287 76.3532 18.1815 77.0867 18.6914C77.4584 18.9604 77.755 19.32 77.9484 19.736C78.1417 20.152 78.2254 20.6105 78.1914 21.0679C78.1991 21.4965 78.1365 21.9236 78.0059 22.332C77.8916 22.6685 77.7236 22.9844 77.5084 23.2674C77.311 23.5295 77.0716 23.7573 76.8001 23.9416C76.5356 24.1245 76.2531 24.2799 75.9568 24.4051C76.3068 24.995 76.6356 25.5512 76.9561 26.0905C77.2403 26.5697 77.5572 27.0286 77.9047 27.4642C78.1806 27.8188 78.5057 28.1324 78.8702 28.3954C79.175 28.618 79.5424 28.7389 79.92 28.7409H80.0001V29.4741C79.7876 29.5391 79.5705 29.5884 79.3508 29.6215C79.0713 29.6594 78.7896 29.6777 78.5076 29.6763C78.1222 29.6819 77.7375 29.6437 77.3608 29.5625C77.0189 29.471 76.7019 29.304 76.4333 29.0738C76.062 28.7537 75.737 28.3836 75.4678 27.974C75.0503 27.3399 74.6661 26.6845 74.3168 26.0105L73.6675 24.8011ZM73.2965 23.6635C73.6177 23.6629 73.9377 23.6233 74.2493 23.5455C74.5068 23.4872 74.7531 23.3876 74.9787 23.2505C75.0765 23.1861 75.167 23.1112 75.2485 23.0272C75.3467 22.9194 75.4278 22.7972 75.4889 22.6648C75.5716 22.4808 75.6297 22.2867 75.6617 22.0876C75.712 21.7996 75.7346 21.5076 75.7292 21.2153C75.7377 20.8813 75.6907 20.5481 75.59 20.2294C75.5097 19.9807 75.3641 19.758 75.1684 19.5847C74.967 19.4154 74.7288 19.2957 74.4728 19.2349C74.1608 19.1601 73.8407 19.1247 73.52 19.1296H73.1953C73.0851 19.1333 72.9752 19.1445 72.8665 19.1633V23.6635H73.2965Z" fill="#050007"/>
<path id="Vector_6" d="M7.05702 2.81878C6.59747 3.12216 6.96427 2.56596 6.27705 2.53225C5.94916 2.48794 5.61564 2.54841 5.32422 2.70501C5.32422 2.70501 5.41276 2.32157 5.45913 2.19516C5.54864 2.02003 5.68023 1.86984 5.84211 1.75806C6.004 1.64628 6.19111 1.5764 6.38667 1.55469C6.95584 1.55469 7.31842 1.7443 7.41961 2.03926C7.45693 2.19103 7.44135 2.35099 7.37543 2.49272C7.30951 2.63444 7.19719 2.74946 7.05702 2.81878Z" fill="#050007"/>
<path id="Vector_7" d="M9.49027 3.84713C9.82133 3.69526 10.1764 3.60256 10.5395 3.57324C10.6719 3.59408 10.7919 3.66311 10.8766 3.76707C10.9524 3.89769 11.2179 4.35276 10.9482 4.47496C10.6785 4.59715 10.3962 4.32748 9.90742 4.17158C9.41864 4.01567 9.38493 3.96511 9.49027 3.84713Z" fill="#050007"/>
<path id="Vector_8" d="M12.1335 9.08881C11.9904 9.08662 11.8494 9.05521 11.719 8.99652C11.5885 8.93783 11.4715 8.85309 11.375 8.74751C11.6014 8.63523 11.8513 8.57888 12.104 8.58317C12.3577 8.57297 12.6094 8.63119 12.8329 8.75172C12.7462 8.85349 12.6392 8.93603 12.5188 8.99408C12.3983 9.05212 12.2671 9.08439 12.1335 9.08881Z" fill="#050007"/>
<path id="Vector_9" d="M13.5425 8.79428C13.2811 8.79428 12.6992 8.44876 12.1807 8.44876C11.3585 8.44876 11.1519 8.76057 10.7514 8.79428C10.3509 8.82799 9.9082 7.86307 9.9082 7.86307C10.2063 8.0498 10.5301 8.19177 10.8695 8.28443C11.1089 8.29265 11.3458 8.23274 11.5525 8.11167C11.6064 8.07331 11.6505 8.02281 11.6813 7.96425C11.712 7.90569 11.7286 7.84071 11.7295 7.77458C11.7675 7.5344 11.7886 6.93185 11.7886 6.93185L11.4555 6.78859C11.4555 6.78859 10.6123 6.21975 10.7261 5.58349C10.8695 4.83346 12.1048 5.13685 12.1048 5.13685C12.7625 5.13685 13.2684 4.95145 13.5298 5.495C13.7912 6.03856 12.9859 6.59898 12.7709 6.75909L12.48 6.96135L12.4378 7.72402C12.4397 7.83616 12.4782 7.94463 12.5474 8.03288C12.6167 8.12113 12.713 8.18431 12.8215 8.2128C13.2642 8.31392 13.5214 8.38556 13.7237 8.29707C13.915 8.20077 14.0982 8.08947 14.2718 7.96419C14.2718 7.96419 13.884 8.79849 13.5425 8.79428Z" fill="#050007"/>
<path id="Vector_10" d="M14.2537 4.17158C13.765 4.32748 13.4869 4.59294 13.213 4.47496C12.9391 4.35698 13.213 3.89769 13.2846 3.76707C13.3687 3.66248 13.489 3.5933 13.6217 3.57324C13.9775 3.60553 14.3251 3.69815 14.6498 3.84713C14.7552 3.96511 14.7172 4.01989 14.2537 4.17158Z" fill="#050007"/>
<path id="Vector_11" d="M17.1383 2.81878C16.9981 2.74946 16.8858 2.63444 16.8199 2.49272C16.754 2.35099 16.7384 2.19103 16.7757 2.03926C16.8727 1.7443 17.2395 1.55469 17.8087 1.55469C18.0038 1.57596 18.1905 1.64571 18.3518 1.75758C18.5131 1.86945 18.6438 2.01988 18.732 2.19516C18.7826 2.32157 18.8711 2.70501 18.8711 2.70501C18.5787 2.54663 18.2438 2.48469 17.9141 2.52804C17.2311 2.56596 17.5936 3.12216 17.1383 2.81878Z" fill="#050007"/>
<path id="Vector_12" d="M12.1456 24.9486C6.24307 24.9486 1.37772 23.9668 0.559807 22.6859C0.482791 22.7992 0.440319 22.9324 0.43754 23.0693C0.420676 24.5272 5.68234 25.7028 12.1456 25.7028C18.6088 25.7028 23.8494 24.523 23.8494 23.0651C23.8481 22.9285 23.8071 22.7953 23.7313 22.6816C22.9134 23.9668 18.0396 24.9486 12.1456 24.9486Z" fill="#050007"/>
<path id="Vector_13" d="M12.1458 26.7441C6.24326 26.7441 1.60558 25.8635 0.796094 24.5825C0.719851 24.6946 0.677414 24.8263 0.673828 24.9618C0.673828 26.4239 5.68252 27.4899 12.1458 27.4899C18.609 27.4899 23.6093 26.3902 23.6093 24.9281C23.6057 24.7926 23.5632 24.6609 23.487 24.5488C22.6775 25.8298 18.0398 26.7441 12.1458 26.7441Z" fill="#050007"/>
<path id="Vector_14" d="M22.0711 16.8121C22.1133 16.9512 22.1513 17.086 22.1892 17.2335C22.8596 17.4779 23.2306 17.756 23.2306 18.0425C23.2306 19.1001 18.243 19.9555 12.0875 19.9555C5.93202 19.9555 0.940184 19.1128 0.940184 18.0425C0.940184 17.7349 1.36179 17.44 2.12912 17.1998L2.2303 16.8037C0.843215 17.1492 0 17.6043 0 18.0931C0 19.3572 5.40922 20.3727 12.0875 20.3727C18.7657 20.3727 24.1708 19.353 24.1708 18.0931C24.1708 17.6169 23.3992 17.1745 22.0711 16.8121Z" fill="#050007"/>
<path id="Vector_15" d="M12.0879 20.7104C5.64151 20.7104 0.379851 19.8045 0.0214844 18.6289L0.607519 22.4212C1.77115 23.601 6.51002 24.6249 12.1005 24.6249C17.7838 24.6249 22.5438 23.6726 23.602 22.4633L24.1543 18.6289C23.8212 19.8045 18.5511 20.7104 12.0879 20.7104Z" fill="#050007"/>
<path id="Vector_16" d="M1.1875 26.125L1.50371 28.1686C1.50371 29.8246 6.26787 31.1814 12.1409 31.1814C18.0139 31.1814 22.7654 29.8246 22.7654 28.1728L23.0605 26.1292C21.4373 27.1489 17.158 27.861 12.0734 27.861C7.10265 27.861 2.87393 27.1194 1.1875 26.125Z" fill="#050007"/>
<path id="Vector_17" d="M12.0866 19.5386C10.6278 19.5386 9.19859 19.4923 7.84102 19.408H7.70188L7.6808 19.2689C7.63864 18.9529 7.6007 18.6959 7.56275 18.5021C7.52719 18.3555 7.47337 18.2139 7.40254 18.0807C7.3393 17.9627 7.30979 17.9037 7.32665 17.8279C7.42043 17.3107 7.4656 16.786 7.46157 16.2604V15.9654C7.46157 15.7337 7.44049 15.5188 7.41941 15.3376C7.41941 15.2618 7.41941 15.1944 7.3899 15.1311C7.3899 15.1986 7.35195 15.2828 7.33087 15.3798C7.30384 15.5191 7.28413 15.6597 7.27184 15.8011C7.27184 15.8643 7.27184 15.9402 7.27184 16.0244C7.27184 16.1087 7.27184 16.2183 7.27184 16.3236C7.27184 16.6902 7.27184 17.0652 7.27184 17.0694V17.3854L7.00623 17.2085L6.72797 17.0273C7.07395 17.6918 7.27105 18.4237 7.30557 19.172V19.3658H7.11585C5.33416 19.2555 3.56529 18.9918 1.82889 18.5779L1.68555 18.54L1.71084 18.3883C1.7783 17.9669 1.86262 17.5456 1.96802 17.1242L2.06921 16.7281C2.14088 16.4711 2.21256 16.2098 2.29688 15.9402C2.3812 15.6705 2.44866 15.443 2.52876 15.1691C3.29688 13.0739 4.34037 11.0902 5.63179 9.26999C5.43861 8.42041 5.44582 7.53756 5.65287 6.69125C5.82775 6.09294 5.96851 5.4852 6.07448 4.87096C5.65287 4.60129 4.21098 3.50574 4.73798 2.22901C5.30715 0.84694 6.06605 0.703676 7.11163 0.922785C7.51753 1.03034 7.94208 1.0476 8.35538 0.973349C8.57461 0.741599 9.42204 0 9.90689 0C10.2146 0.0307706 10.5167 0.10306 10.8049 0.214895C11.1744 0.363741 11.5664 0.449214 11.9643 0.467713C12.2609 0.431057 12.5514 0.355986 12.8286 0.244391C13.1772 0.0913617 13.5526 0.00832353 13.9332 0C14.4476 0.033709 15.1559 0.547772 15.5353 0.842726C15.6112 0.89329 15.666 0.93964 15.7082 0.964922C15.8664 0.956515 16.024 0.939636 16.1804 0.914358C16.9941 0.809017 18.3517 0.632045 18.8871 1.33572C19.5828 2.23322 19.5406 3.61951 19.1443 4.01138C18.974 4.16722 18.7906 4.30819 18.5962 4.43274C18.4112 4.5351 18.2445 4.66753 18.1029 4.82461C18.1166 4.9596 18.1507 5.09173 18.2041 5.21648C18.3292 5.54958 18.4155 5.89598 18.4613 6.24882C18.5203 6.81766 18.6932 9.02981 18.7227 9.40061C19.8083 10.8146 20.6739 12.3843 21.2903 14.0567C21.3915 14.3376 21.4884 14.6073 21.5812 14.8657L21.9733 15.9612C22.0787 16.2688 22.163 16.5216 22.2347 16.7618C22.2769 16.9051 22.3148 17.0399 22.3527 17.1832C22.4568 17.5722 22.5343 17.9677 22.5846 18.3672V18.5147L22.4413 18.5526C20.6838 18.9785 18.892 19.2478 17.0869 19.3574H16.8634L16.9267 19.0456C17.0742 18.3504 17.2892 17.634 17.4452 17.1368C17.4035 17.1453 17.3605 17.1453 17.3188 17.1368C17.0489 17.0905 16.9857 16.7155 16.9688 16.6186C16.952 16.5216 16.9309 16.4205 16.9182 16.332L16.8676 16.0244C16.8423 15.8475 16.817 15.6494 16.7833 15.3629L16.7496 15.089C16.7162 15.1725 16.6894 15.2584 16.6695 15.346C16.6278 15.5488 16.6025 15.7545 16.5936 15.9612C16.5936 16.0497 16.5936 16.1466 16.5936 16.252C16.5936 16.4753 16.5936 16.7197 16.6273 16.9725C16.6911 17.1753 16.7744 17.3715 16.8761 17.5582L16.9056 17.613V17.6762C16.9056 17.6762 16.6948 18.5905 16.5767 19.2437L16.5514 19.3743L16.4418 19.3827C15.0336 19.4923 13.5791 19.5386 12.0866 19.5386ZM8.00966 19.0751C9.31664 19.1552 10.6911 19.1973 12.095 19.1973C13.499 19.1973 14.9367 19.1552 16.2732 19.0709C16.3743 18.5273 16.5261 17.8742 16.5683 17.6762C16.4563 17.4687 16.3713 17.2478 16.3153 17.0189C16.29 16.7534 16.2774 16.5006 16.2774 16.2688C16.2774 16.1593 16.2774 16.0581 16.2774 15.9612C16.2848 15.7358 16.3131 15.5115 16.3617 15.2913C16.4587 14.8699 16.6315 14.6087 16.8423 14.6213C16.908 14.6275 16.9691 14.6574 17.0142 14.7056C17.0592 14.7537 17.0851 14.8167 17.0869 14.8825L17.1417 15.3376C17.1754 15.6199 17.2007 15.818 17.226 15.9949C17.226 16.0961 17.2555 16.193 17.2724 16.2941C17.2892 16.3952 17.3019 16.4711 17.323 16.5764C17.3609 16.7829 17.4073 16.8208 17.4115 16.8208C17.5288 16.7317 17.6252 16.6181 17.694 16.4879L17.9975 16.627C17.7287 17.4043 17.4994 18.1946 17.3103 18.9951C18.9679 18.8851 20.6135 18.6385 22.2305 18.2577C22.1793 17.9269 22.1104 17.5992 22.0239 17.2759C21.9902 17.1439 21.9522 17.0034 21.9101 16.8545C21.8384 16.6228 21.7583 16.37 21.6529 16.0666C21.5475 15.7632 21.4083 15.3755 21.2608 14.9752C21.1722 14.7224 21.0711 14.457 20.9699 14.1662C20.3676 12.5016 19.5146 10.9386 18.4402 9.53123L18.4065 9.4891V9.43432C18.4065 9.40904 18.2041 6.85558 18.1409 6.2446C18.0985 5.9161 18.0179 5.59367 17.9006 5.28389C17.8197 5.1083 17.7793 4.91677 17.7825 4.72348C17.8162 4.52123 18.0481 4.35689 18.4234 4.10829C18.5999 3.99814 18.7664 3.87265 18.9209 3.73328C19.157 3.49731 19.2581 2.30907 18.6342 1.50427C18.2126 0.964922 16.9477 1.13347 16.2437 1.22195C15.822 1.28094 15.666 1.29358 15.5649 1.22195L15.3498 1.07448C15.0083 0.863794 14.3338 0.3708 13.9122 0.341304C13.5779 0.355405 13.2492 0.431118 12.9425 0.564627C12.6365 0.686262 12.3164 0.768389 11.9896 0.809017C11.5488 0.792783 11.1139 0.701586 10.7037 0.539345C10.4473 0.440861 10.1796 0.374346 9.90689 0.341304C9.61598 0.341304 8.91611 0.889076 8.54088 1.23038L8.51559 1.26409H8.48607C8.00541 1.38015 7.50288 1.36999 7.02731 1.23459C6.09134 1.03655 5.52639 1.15454 5.03733 2.33857C4.54826 3.5226 6.32323 4.60971 6.32323 4.63499L6.41598 4.68977V4.79933C6.31858 5.46513 6.17775 6.12386 5.99437 6.77131C5.80009 7.58719 5.80009 8.43725 5.99437 9.25313L6.01546 9.33319L5.96486 9.3964C4.67112 11.2132 3.63141 13.1978 2.87448 15.2955C2.78594 15.5525 2.70584 15.8011 2.62995 16.0455C2.55406 16.2899 2.47395 16.5638 2.4065 16.8208C2.37277 16.9514 2.33904 17.0821 2.30953 17.2085C2.21677 17.5793 2.14088 17.9416 2.08186 18.2914C3.67663 18.6557 5.29793 18.8925 6.93034 18.9993C6.85813 18.2378 6.613 17.5028 6.21361 16.8503C6.18387 16.8021 6.15847 16.7513 6.13772 16.6986L6.09978 16.5806L6.19675 16.4964C6.28107 16.4289 6.33166 16.391 6.90926 16.7576C6.90926 16.627 6.90926 16.4711 6.90926 16.3152C6.90926 16.1593 6.90926 16.1045 6.90926 16.0118C6.90926 15.9191 6.90926 15.8348 6.90926 15.7674C6.90926 15.6157 6.94721 15.4682 6.9725 15.346C7.12007 14.5918 7.28871 14.575 7.37303 14.5665C7.42422 14.563 7.47505 14.5774 7.51665 14.6075C7.55825 14.6375 7.58799 14.6812 7.6007 14.7309C7.67 14.9238 7.71393 15.1249 7.7314 15.3292C7.75248 15.523 7.76934 15.7506 7.77356 15.9907C7.77356 16.0876 7.77356 16.193 7.77356 16.2941C7.77391 16.8279 7.72878 17.3607 7.63864 17.8869L7.67237 17.9543C7.75891 18.1091 7.82414 18.275 7.86631 18.4473C7.92955 18.599 7.96328 18.8181 8.00966 19.0751Z" fill="#050007"/>
<path id="Vector_18" d="M61.1998 37.7453C60.8108 37.6356 60.447 37.4509 60.1289 37.2017L60.5041 36.5486C60.7978 36.769 61.1272 36.9372 61.4781 37.0458C61.87 37.1742 62.2798 37.2397 62.6923 37.2396C63.1305 37.2727 63.5692 37.1807 63.9571 36.9742C64.087 36.8992 64.1946 36.791 64.2687 36.6606C64.3428 36.5302 64.3808 36.3825 64.3787 36.2326C64.3841 36.1333 64.3673 36.0341 64.3293 35.9423C64.2914 35.8504 64.2333 35.7682 64.1595 35.7016C63.9952 35.5638 63.8022 35.4645 63.5945 35.4109C63.2992 35.3289 62.9994 35.2642 62.6965 35.2171C62.2891 35.1463 61.8864 35.0506 61.4907 34.9306C61.1918 34.8355 60.9229 34.6642 60.7107 34.4333C60.4856 34.1622 60.3712 33.8161 60.3903 33.4642C60.3873 33.217 60.4444 32.9728 60.5568 32.7526C60.6692 32.5324 60.8334 32.3428 61.0354 32.2001C61.5611 31.8448 62.1895 31.6729 62.823 31.7113C63.2258 31.711 63.6269 31.7634 64.0161 31.8672C64.3642 31.9538 64.6959 32.0961 64.9985 32.2886L64.6359 32.9586C64.1018 32.5973 63.4676 32.413 62.823 32.4319C62.4051 32.4036 61.9882 32.5004 61.6256 32.71C61.4977 32.7862 61.3917 32.8941 61.3179 33.0233C61.244 33.1525 61.2048 33.2986 61.204 33.4474C61.199 33.5517 61.2168 33.6558 61.2562 33.7526C61.2955 33.8494 61.3554 33.9364 61.4317 34.0078C61.594 34.1554 61.7891 34.2622 62.0008 34.3196C62.3085 34.4056 62.6211 34.4731 62.9368 34.5218C63.3349 34.5956 63.7289 34.6899 64.1173 34.8041C64.4084 34.8943 64.6703 35.06 64.8762 35.2845C65.0996 35.5432 65.2131 35.8788 65.1924 36.2199C65.1971 36.4744 65.1363 36.7257 65.016 36.95C64.8957 37.1743 64.7198 37.3639 64.5052 37.5009C63.9463 37.8474 63.2942 38.0136 62.6375 37.977C62.149 37.9759 61.6638 37.8977 61.1998 37.7453Z" fill="#050007"/>
<path id="Vector_19" d="M66.1914 31.8596H66.9587V32.9552C67.2285 32.5695 67.5834 32.2509 67.9959 32.024C68.4037 31.8139 68.8568 31.7068 69.3155 31.7122C69.7216 31.7068 70.1244 31.7852 70.4987 31.9426C70.873 32.0999 71.2108 32.3327 71.491 32.6265C71.7821 32.9142 72.0121 33.2577 72.1672 33.6364C72.3222 34.0151 72.3991 34.4211 72.3933 34.8303C72.401 35.2427 72.3258 35.6524 72.1723 36.0353C72.0188 36.4181 71.79 36.7663 71.4994 37.0593C71.2222 37.3537 70.8868 37.5873 70.5145 37.7455C70.1422 37.9036 69.7411 37.9827 69.3366 37.9778C68.8838 37.9833 68.4361 37.8822 68.0296 37.6829C67.6111 37.4679 67.2431 37.1662 66.9503 36.798V40.0046H66.1914V31.8596ZM69.2523 32.4453C68.9382 32.4369 68.6258 32.4945 68.3353 32.6142C68.0448 32.734 67.7827 32.9133 67.5658 33.1406C67.341 33.3683 67.1647 33.6391 67.0473 33.9367C66.9299 34.2344 66.874 34.5526 66.8828 34.8724C66.8766 35.2978 66.9812 35.7174 67.1864 36.0901C67.3919 36.4462 67.6927 36.7381 68.0549 36.9329C68.4199 37.14 68.8325 37.2489 69.2523 37.2489C69.6607 37.2498 70.0617 37.1391 70.4117 36.9286C70.7769 36.7152 71.0772 36.4064 71.2802 36.0354C71.4904 35.6685 71.6009 35.253 71.6006 34.8303C71.6013 34.4088 71.4908 33.9946 71.2802 33.6294C71.079 33.2689 70.7847 32.9689 70.428 32.7606C70.0713 32.5524 69.6653 32.4435 69.2523 32.4453Z" fill="#050007"/>
<path id="Vector_20" d="M79.2066 31.859V37.8213H78.4519V36.7931C78.1585 37.1625 77.789 37.4643 77.3684 37.678C76.7969 37.9509 76.1542 38.0375 75.5308 37.9256C74.9075 37.8137 74.3351 37.5089 73.8944 37.0544C73.6038 36.7615 73.375 36.4133 73.2215 36.0304C73.068 35.6475 72.9928 35.2378 73.0005 34.8254C72.9937 34.4161 73.0702 34.0098 73.2253 33.6309C73.3804 33.2521 73.6109 32.9087 73.9028 32.6216C74.1829 32.3279 74.5208 32.095 74.8951 31.9377C75.2694 31.7803 75.6722 31.7019 76.0783 31.7073C76.5398 31.7014 76.9957 31.8084 77.4063 32.0191C77.824 32.2438 78.1824 32.5644 78.4519 32.9545V31.859H79.2066ZM76.1415 32.4447C75.7267 32.4414 75.3187 32.5506 74.961 32.7607C74.5983 32.9723 74.2997 33.2781 74.0967 33.6456C73.8854 34.0113 73.7742 34.4262 73.7742 34.8486C73.7742 35.2709 73.8854 35.6858 74.0967 36.0515C74.2998 36.4226 74.6 36.7314 74.9652 36.9448C75.3178 37.1566 75.7218 37.2674 76.1331 37.2651C76.5515 37.2652 76.9628 37.1562 77.3262 36.949C77.6885 36.7543 77.9892 36.4624 78.1947 36.1063C78.3999 35.7336 78.5045 35.3139 78.4983 34.8886C78.5072 34.5688 78.4512 34.2505 78.3339 33.9529C78.2165 33.6553 78.0401 33.3845 77.8153 33.1568C77.6011 32.9285 77.3416 32.7472 77.0534 32.6246C76.7652 32.502 76.4547 32.4407 76.1415 32.4447Z" fill="#050007"/>
</g>
</g>
</g>
<defs>
<clipPath id="clip0_320_194592">
<rect width="80" height="40" fill="white"/>
</clipPath>
</defs>
</svg>
