<svg width="230" height="40" viewBox="0 0 230 40" fill="none" xmlns="http://www.w3.org/2000/svg">
<g id="&#208;&#161;&#208;&#181;&#208;&#186;&#209;&#134;&#208;&#184;&#208;&#190;&#208;&#189;&#208;&#189;&#209;&#139;&#208;&#181; &#208;&#186;&#208;&#190;&#208;&#189;&#209;&#129;&#209;&#130;&#209;&#128;&#209;&#131;&#208;&#186;&#209;&#134;&#208;&#184;&#208;&#184;" clip-path="url(#clip0_320_194555)">
<path id="Vector" d="M4.76289 30.8861C3.63839 30.8861 2.68418 31.284 1.90025 32.0805C1.11684 32.8771 0.724609 33.8381 0.724609 34.9635C0.724609 36.1059 1.11684 37.0755 1.90025 37.872C2.68418 38.6685 3.63839 39.0666 4.76289 39.0666H22.3737C25.5601 39.0666 28.2866 37.9155 30.553 35.6127C32.8195 33.3099 33.9524 30.5395 33.9524 27.3021C33.9524 24.0645 32.8195 21.2941 30.553 18.9918C28.2866 16.6891 25.5601 15.5375 22.3737 15.5375H12.3033C11.3322 15.5375 10.5056 15.1915 9.82392 14.4989C9.12538 13.7891 8.77587 12.9407 8.77587 11.954C8.77587 10.9668 9.12538 10.1274 9.82392 9.43481C10.5056 8.72507 11.3322 8.36994 12.3033 8.36994H29.914C31.0217 8.36994 31.976 7.97194 32.7766 7.17543C33.5607 6.37891 33.9524 5.41796 33.9524 4.29255C33.9524 3.16714 33.5607 2.20618 32.7766 1.4102C31.976 0.596547 31.0217 0.189453 29.914 0.189453H12.3033C9.11695 0.189453 6.39034 1.34057 4.12393 3.64333C1.85806 5.94611 0.724609 8.7165 0.724609 11.954C0.724609 15.2086 1.85806 17.979 4.12393 20.264C6.39034 22.5668 9.11695 23.7184 12.3033 23.7184H22.3737C23.3453 23.7184 24.1713 24.0731 24.8531 24.7828C25.5515 25.4755 25.901 26.3153 25.901 27.3021C25.901 28.2892 25.5515 29.1372 24.8531 29.8475C24.1713 30.5395 23.3453 30.8861 22.3737 30.8861H4.76289ZM69.174 39.0666C70.2816 39.0666 71.2358 38.6685 72.0366 37.872C72.8205 37.0755 73.2122 36.1059 73.2122 34.9635C73.2122 33.8381 72.8205 32.8771 72.0366 32.0805C71.2358 31.284 70.2816 30.8861 69.174 30.8861H48.0358V23.7184H64.1387C65.2464 23.7184 66.2005 23.32 67.0013 22.5235C67.7853 21.7275 68.177 20.7666 68.177 19.6411C68.177 18.4981 67.7853 17.5285 67.0013 16.7325C66.2005 15.936 65.2464 15.5375 64.1387 15.5375H48.0358V8.36994H69.174C70.2816 8.36994 71.2358 7.97194 72.0366 7.17543C72.8205 6.37891 73.2122 5.41796 73.2122 4.29255C73.2122 3.16714 72.8205 2.20618 72.0366 1.4102C71.2358 0.596547 70.2816 0.189453 69.174 0.189453H44.0233C42.8982 0.189453 41.9441 0.596547 41.1607 1.4102C40.3768 2.20618 39.9845 3.16714 39.9845 4.29255V34.9635C39.9845 36.1059 40.3768 37.0755 41.1607 37.872C41.9441 38.6685 42.8982 39.0666 44.0233 39.0666H69.174ZM96.3438 39.0666C101.626 39.0666 106.133 37.1708 109.865 33.379C110.649 32.5824 111.041 31.6129 111.041 30.4704C111.041 29.3451 110.649 28.384 109.865 27.588C109.081 26.7915 108.135 26.3931 107.028 26.3931C105.903 26.3931 104.949 26.7915 104.165 27.588C102.001 29.7864 99.3941 30.8861 96.3438 30.8861C93.294 30.8861 90.687 29.7864 88.5229 27.588C86.3588 25.3892 85.2764 22.7398 85.2764 19.6411C85.2764 16.5247 86.3588 13.8668 88.5229 11.6679C90.687 9.46963 93.294 8.36994 96.3438 8.36994C99.3941 8.36994 102.001 9.46963 104.165 11.6679C104.949 12.4821 105.903 12.8887 107.028 12.8887C108.135 12.8887 109.081 12.4821 109.865 11.6679C110.649 10.872 111.041 9.911 111.041 8.78559C111.041 7.66018 110.649 6.69923 109.865 5.90272C106.133 2.09369 101.626 0.189453 96.3438 0.189453C91.0618 0.189453 86.5543 2.09369 82.8229 5.90272C79.091 9.67693 77.2252 14.2568 77.2252 19.6411C77.2252 25.0084 79.091 29.5877 82.8229 33.379C86.5543 37.1708 91.0618 39.0666 96.3438 39.0666ZM133.584 39.0666C138.867 39.0666 143.374 37.1708 147.106 33.379C147.89 32.5824 148.282 31.6129 148.282 30.4704C148.282 29.3451 147.89 28.384 147.106 27.588C146.322 26.7915 145.376 26.3931 144.269 26.3931C143.144 26.3931 142.19 26.7915 141.406 27.588C139.242 29.7864 136.635 30.8861 133.584 30.8861C130.535 30.8861 127.928 29.7864 125.764 27.588C123.599 25.3892 122.517 22.7398 122.517 19.6411C122.517 16.5247 123.599 13.8668 125.764 11.6679C127.928 9.46963 130.535 8.36994 133.584 8.36994C136.635 8.36994 139.242 9.46963 141.406 11.6679C142.19 12.4821 143.144 12.8887 144.269 12.8887C145.376 12.8887 146.322 12.4821 147.106 11.6679C147.89 10.872 148.282 9.911 148.282 8.78559C148.282 7.66018 147.89 6.69923 147.106 5.90272C143.374 2.09369 138.867 0.189453 133.584 0.189453C128.303 0.189453 123.795 2.09369 120.064 5.90272C116.332 9.67693 114.466 14.2568 114.466 19.6411C114.466 25.0084 116.332 29.5877 120.064 33.379C123.795 37.1708 128.303 39.0666 133.584 39.0666ZM181.918 19.6411C181.918 22.7398 180.837 25.3892 178.673 27.588C176.492 29.7864 173.876 30.8861 170.825 30.8861C167.775 30.8861 165.168 29.7864 163.004 27.588C160.84 25.3892 159.758 22.7398 159.758 19.6411C159.758 16.5418 160.84 13.893 163.004 11.6942C165.168 9.4782 167.775 8.36994 170.825 8.36994C173.876 8.36994 176.492 9.4782 178.673 11.6942C180.837 13.893 181.918 16.5418 181.918 19.6411ZM151.707 19.6411C151.707 24.9906 153.572 29.5699 157.304 33.379C161.053 37.1708 165.56 39.0666 170.825 39.0666C176.108 39.0666 180.614 37.1708 184.346 33.379C188.096 29.5699 189.969 24.9906 189.969 19.6411C189.969 14.2739 188.096 9.6946 184.346 5.90272C180.614 2.09369 176.108 0.189453 170.825 0.189453C165.56 0.189453 161.053 2.09369 157.304 5.90272C153.572 9.6946 151.707 14.2739 151.707 19.6411ZM198.66 0.449243C197.859 0.743316 197.22 1.23665 196.744 1.92924C196.249 2.63952 196.002 3.42693 196.002 4.29255V34.9635C196.002 36.1059 196.394 37.0755 197.178 37.872C197.962 38.6685 198.915 39.0666 200.04 39.0666C201.149 39.0666 202.093 38.6685 202.877 37.872C203.661 37.0755 204.053 36.1059 204.053 34.9635V15.5895L222.098 37.5861C222.899 38.5732 223.931 39.0666 225.191 39.0666C225.668 39.0666 226.128 38.9889 226.571 38.8331C227.372 38.5384 228.012 38.0365 228.489 37.3268C228.982 36.6165 229.23 35.8291 229.23 34.9635V4.29255C229.23 3.16714 228.838 2.20618 228.053 1.4102C227.254 0.596547 226.299 0.189453 225.191 0.189453C224.084 0.189453 223.138 0.596547 222.354 1.4102C221.57 2.20618 221.178 3.16714 221.178 4.29255V23.6666L203.133 1.66946C202.588 1.01168 201.907 0.5703 201.088 0.345326C200.27 0.120352 199.462 0.154634 198.66 0.449243Z" fill="url(#paint0_linear_320_194555)"/>
</g>
<defs>
<linearGradient id="paint0_linear_320_194555" x1="0.724609" y1="19.6282" x2="229.23" y2="19.6282" gradientUnits="userSpaceOnUse">
<stop stop-color="#428596"/>
<stop offset="0.490196" stop-color="#3E266E"/>
<stop offset="1" stop-color="#7D2964"/>
</linearGradient>
<clipPath id="clip0_320_194555">
<rect width="230" height="40" fill="white"/>
</clipPath>
</defs>
</svg>
