<svg width="167" height="40" viewBox="0 0 167 40" fill="none" xmlns="http://www.w3.org/2000/svg">
<g id="&#208;&#149;&#208;&#178;&#209;&#128;&#208;&#190;&#208;&#191;&#208;&#181;&#208;&#185;&#209;&#129;&#208;&#186;&#208;&#176;&#209;&#143; &#209;&#141;&#208;&#187;&#208;&#181;&#208;&#186;&#209;&#130;&#209;&#128;&#208;&#190;&#209;&#130;&#208;&#181;&#209;&#133;&#208;&#189;&#208;&#184;&#209;&#135;&#208;&#181;&#209;&#129;&#208;&#186;&#208;&#176;&#209;&#143; &#208;&#186;&#208;&#190;&#208;&#188;&#208;&#191;&#208;&#176;&#208;&#189;&#208;&#184;&#209;&#143;" clip-path="url(#clip0_320_194560)">
<path id="Vector" d="M56.6965 7.08301H53.774V9.24967H57.1975V10.2497H52.5215V3.16634H57.114V4.16634H53.6905V6.16634H56.613V7.08301H56.6965ZM58.1995 10.2497V3.16634H60.621C61.456 3.16634 62.0405 3.33301 62.458 3.66634C62.8755 3.99967 63.126 4.49967 63.126 5.08301C63.126 5.41634 63.0425 5.66634 62.8755 5.99967C62.7085 6.33301 62.458 6.49967 62.124 6.58301C62.5415 6.66634 62.792 6.91634 63.0425 7.16634C63.293 7.41634 63.3765 7.83301 63.3765 8.16634C63.3765 8.83301 63.126 9.33301 62.7085 9.66634C62.291 9.99967 61.7065 10.1663 60.8715 10.1663H58.1995V10.2497ZM59.3685 6.16634H60.621C61.0385 6.16634 61.289 6.08301 61.5395 5.91634C61.79 5.74967 61.8735 5.49967 61.8735 5.16634C61.8735 4.83301 61.79 4.58301 61.5395 4.41634C61.289 4.24967 61.0385 4.16634 60.621 4.16634H59.452V6.16634H59.3685ZM59.3685 6.99967V9.24967H60.7045C61.122 9.24967 61.3725 9.16634 61.623 8.99967C61.8735 8.83301 61.957 8.49967 61.957 8.16634C61.957 7.41634 61.5395 7.08301 60.788 6.99967H59.3685ZM65.7145 7.58301V10.2497H64.462V3.16634H67.2175C68.0525 3.16634 68.637 3.33301 69.138 3.74967C69.639 4.16634 69.806 4.74967 69.806 5.41634C69.806 6.08301 69.5555 6.66634 69.138 7.08301C68.7205 7.49967 68.0525 7.66634 67.2175 7.66634H65.7145V7.58301ZM65.7145 6.58301H67.2175C67.635 6.58301 67.969 6.49967 68.2195 6.24967C68.47 5.99967 68.5535 5.74967 68.5535 5.33301C68.5535 4.91634 68.47 4.66634 68.2195 4.41634C67.969 4.16634 67.635 4.16634 67.2175 4.16634H65.7145V6.58301ZM76.5695 6.91634C76.5695 7.58301 76.486 8.24967 76.2355 8.74967C75.985 9.24967 75.651 9.66634 75.2335 9.99967C74.816 10.333 74.2315 10.4163 73.647 10.4163C73.0625 10.4163 72.5615 10.2497 72.144 9.99967C71.7265 9.74967 71.309 9.33301 71.0585 8.83301C70.808 8.33301 70.7245 7.74967 70.7245 6.99967V6.49967C70.7245 5.83301 70.808 5.16634 71.0585 4.66634C71.309 4.16634 71.643 3.74967 72.0605 3.41634C72.478 3.08301 73.0625 2.99967 73.5635 2.99967C74.0645 2.99967 74.649 3.16634 75.0665 3.41634C75.484 3.66634 75.9015 4.08301 76.0685 4.58301C76.2355 5.08301 76.4025 5.74967 76.4025 6.41634V6.91634H76.5695ZM75.317 6.49967C75.317 5.74967 75.15 5.08301 74.8995 4.66634C74.649 4.24967 74.148 3.99967 73.647 3.99967C73.146 3.99967 72.7285 4.24967 72.3945 4.66634C72.0605 5.08301 71.977 5.66634 71.8935 6.41634V6.83301C71.8935 7.58301 72.0605 8.24967 72.311 8.66634C72.5615 9.08301 73.0625 9.33301 73.5635 9.33301C74.148 9.33301 74.5655 9.08301 74.816 8.66634C75.0665 8.24967 75.2335 7.66634 75.2335 6.83301V6.49967H75.317ZM83.4165 10.2497H82.164V4.16634H78.991V10.2497H77.7385V3.16634H83.333V10.2497H83.4165ZM89.0945 7.08301H86.172V9.24967H89.5955V10.2497H84.9195V3.16634H89.512V4.16634H86.0885V6.16634H89.011V7.08301H89.0945ZM94.9395 3.16634H96.192V10.2497H94.9395V5.16634L91.85 10.2497H90.5975V3.16634H91.85V8.24967L94.9395 3.16634ZM95.023 1.33301C95.023 1.74967 94.856 2.08301 94.6055 2.33301C94.355 2.58301 93.9375 2.74967 93.4365 2.74967C92.9355 2.74967 92.6015 2.58301 92.2675 2.33301C91.9335 2.08301 91.85 1.74967 91.85 1.33301H92.7685C92.7685 1.58301 92.852 1.74967 92.9355 1.83301C93.019 1.91634 93.186 1.99967 93.4365 1.99967C93.687 1.99967 93.854 1.91634 93.9375 1.83301C94.021 1.74967 94.1045 1.58301 94.1045 1.33301H95.023ZM103.122 7.91634C103.039 8.66634 102.788 9.24967 102.287 9.66634C101.786 10.083 101.118 10.333 100.367 10.333C99.7825 10.333 99.2815 10.1663 98.864 9.91634C98.4465 9.66634 98.1125 9.24967 97.862 8.74967C97.6115 8.24967 97.528 7.66634 97.528 6.99967V6.41634C97.528 5.74967 97.6115 5.16634 97.862 4.66634C98.1125 4.16634 98.4465 3.74967 98.864 3.49967C99.2815 3.24967 99.7825 3.08301 100.367 3.08301C101.118 3.08301 101.786 3.33301 102.287 3.74967C102.788 4.16634 103.039 4.74967 103.122 5.58301H101.87C101.786 5.08301 101.703 4.66634 101.452 4.49967C101.202 4.33301 100.868 4.16634 100.367 4.16634C99.866 4.16634 99.4485 4.33301 99.1145 4.74967C98.7805 5.16634 98.697 5.74967 98.697 6.49967V7.16634C98.697 7.91634 98.864 8.49967 99.1145 8.91634C99.365 9.33301 99.7825 9.49967 100.367 9.49967C100.868 9.49967 101.202 9.41634 101.452 9.16634C101.703 8.91634 101.87 8.58301 101.953 8.08301H103.122V7.91634ZM106.296 7.16634H105.461V10.2497H104.208V3.16634H105.461V6.16634H106.128L108.216 3.16634H109.719L107.297 6.58301L109.969 10.2497H108.55L106.296 7.16634ZM114.646 8.58301H111.89L111.306 10.2497H110.053L112.725 3.16634H113.811L116.482 10.2497H115.23L114.646 8.58301ZM112.224 7.58301H114.311L113.309 4.66634L112.224 7.58301ZM120.824 10.2497V7.58301H119.405L118.069 10.2497H116.733L118.319 7.24967C117.484 6.83301 117.067 6.24967 117.067 5.33301C117.067 4.66634 117.317 4.08301 117.735 3.74967C118.152 3.41634 118.82 3.16634 119.572 3.16634H121.993V10.2497H120.824ZM118.403 5.33301C118.403 5.74967 118.486 6.08301 118.737 6.24967C118.987 6.41634 119.321 6.58301 119.739 6.58301H120.908V4.16634H119.739C119.321 4.16634 118.904 4.24967 118.737 4.49967C118.57 4.74967 118.403 4.99967 118.403 5.33301ZM53.5235 21.2497C53.607 21.7497 53.774 22.1663 54.0245 22.333C54.275 22.4997 54.609 22.6663 55.11 22.6663C55.611 22.6663 56.0285 22.4997 56.279 22.083C56.5295 21.6663 56.6965 21.1663 56.6965 20.4997H54.1915V19.4997H56.6965C56.6965 18.833 56.5295 18.2497 56.1955 17.9163C55.8615 17.583 55.5275 17.333 54.943 17.333C54.5255 17.333 54.108 17.4163 53.8575 17.6663C53.607 17.9163 53.44 18.2497 53.44 18.7497H52.1875C52.271 17.9997 52.5215 17.333 53.0225 16.9163C53.5235 16.4997 54.108 16.2497 54.943 16.2497C55.5275 16.2497 56.0285 16.4163 56.446 16.6663C56.8635 16.9163 57.1975 17.333 57.448 17.833C57.6985 18.333 57.782 18.9163 57.782 19.583V20.1663C57.782 20.833 57.6985 21.4163 57.448 21.9163C57.1975 22.4163 56.8635 22.833 56.446 23.083C56.0285 23.333 55.5275 23.4997 54.943 23.4997C54.108 23.4997 53.5235 23.2497 53.0225 22.833C52.5215 22.4163 52.271 21.833 52.1875 21.083H53.5235V21.2497ZM64.629 16.4163V23.4997H63.3765V17.4163H61.2055L61.0385 20.1663C60.955 20.9997 60.8715 21.6663 60.7045 22.1663C60.5375 22.6663 60.287 22.9997 60.0365 23.1663C59.786 23.333 59.285 23.4997 58.784 23.4997H58.45V22.4997H58.617C58.8675 22.4997 59.118 22.333 59.285 22.1663C59.452 21.9997 59.5355 21.7497 59.619 21.4163C59.7025 21.083 59.786 20.583 59.786 19.833L59.953 16.333H64.629V16.4163ZM70.307 20.4163H67.3845V22.583H70.808V23.583H66.132V16.4997H70.7245V17.4997H67.301V19.4997H70.2235V20.4163H70.307ZM73.8975 20.4997H73.0625V23.583H71.81V16.4997H73.0625V19.4997H73.7305L75.818 16.4997H77.321L74.8995 19.9163L77.5715 23.583H76.0685L73.8975 20.4997ZM83.4165 17.4163H81.162V23.4997H79.9095V17.4163H77.7385V16.4163H83.4165V17.4163ZM85.5875 20.9163V23.583H84.335V16.4997H87.0905C87.9255 16.4997 88.51 16.6663 89.011 17.083C89.512 17.4997 89.679 18.083 89.679 18.7497C89.679 19.4163 89.4285 19.9997 89.011 20.4163C88.5935 20.833 87.9255 20.9997 87.0905 20.9997H85.5875V20.9163ZM85.5875 19.9163H87.0905C87.508 19.9163 87.842 19.833 88.0925 19.583C88.343 19.333 88.4265 19.083 88.4265 18.6663C88.4265 18.2497 88.343 17.9997 88.0925 17.7497C87.842 17.4997 87.508 17.4163 87.0905 17.4163H85.5875V19.9163ZM96.359 20.1663C96.359 20.833 96.2755 21.4997 96.025 21.9997C95.7745 22.4997 95.4405 22.9163 95.023 23.2497C94.6055 23.583 94.021 23.6663 93.4365 23.6663C92.852 23.6663 92.351 23.4997 91.9335 23.2497C91.516 22.9997 91.0985 22.583 90.848 22.083C90.5975 21.583 90.514 20.9997 90.514 20.2497V19.833C90.514 19.1663 90.5975 18.4997 90.848 17.9997C91.0985 17.4997 91.4325 17.083 91.85 16.7497C92.2675 16.4163 92.852 16.333 93.353 16.333C93.854 16.333 94.4385 16.4997 94.856 16.7497C95.2735 16.9997 95.691 17.4163 95.858 17.9163C96.025 18.4163 96.192 19.083 96.192 19.7497V20.1663H96.359ZM95.19 19.833C95.19 19.083 95.023 18.4163 94.7725 17.9997C94.522 17.583 94.021 17.333 93.52 17.333C93.019 17.333 92.6015 17.583 92.2675 17.9997C91.9335 18.4163 91.85 18.9997 91.7665 19.7497V20.1663C91.7665 20.9163 91.9335 21.583 92.184 21.9997C92.4345 22.4163 92.9355 22.6663 93.4365 22.6663C94.021 22.6663 94.4385 22.4163 94.689 21.9997C94.9395 21.583 95.1065 20.9997 95.1065 20.1663V19.833H95.19ZM102.371 17.4163H100.117V23.4997H98.864V17.4163H96.693V16.4163H102.371V17.4163ZM107.464 20.4163H104.542V22.583H107.965V23.583H103.289V16.4997H107.882V17.4997H104.458V19.4997H107.381V20.4163H107.464ZM111.389 18.9997L112.892 16.4163H114.311L112.14 19.9163L114.311 23.4997H112.892L111.389 20.9163L109.886 23.4997H108.466L110.637 19.9163L108.466 16.4163H109.886L111.389 18.9997ZM120.991 23.583H119.739V20.4163H116.566V23.583H115.314V16.4997H116.566V19.4997H119.739V16.4997H120.991V23.583ZM126.753 16.4163H128.006V23.4997H126.753V18.4163L123.664 23.4997H122.411V16.4163H123.664V21.4997L126.753 16.4163ZM134.853 16.4163V23.4997H133.6V20.6663C133.099 20.833 132.514 20.833 131.93 20.833C131.095 20.833 130.427 20.6663 130.009 20.2497C129.592 19.9163 129.341 19.333 129.341 18.583V16.333H130.594V18.583C130.594 18.9997 130.677 19.333 130.928 19.583C131.178 19.833 131.513 19.833 132.014 19.833C132.598 19.833 133.099 19.7497 133.684 19.6663V16.333H134.853V16.4163ZM140.447 20.4163H137.524V22.583H140.948V23.583H136.272V16.4997H140.864V17.4997H137.441V19.4997H140.364V20.4163H140.447ZM147.377 21.2497C147.294 21.9997 147.043 22.583 146.542 22.9997C146.041 23.4163 145.373 23.6663 144.622 23.6663C144.037 23.6663 143.536 23.4997 143.119 23.2497C142.701 22.9997 142.367 22.583 142.117 22.083C141.866 21.583 141.783 20.9997 141.783 20.333V19.6663C141.783 18.9997 141.866 18.4163 142.117 17.9163C142.367 17.4163 142.701 16.9997 143.119 16.7497C143.536 16.4997 144.037 16.333 144.622 16.333C145.373 16.333 146.041 16.583 146.542 16.9997C147.043 17.4163 147.294 17.9997 147.377 18.833H146.125C146.041 18.333 145.958 17.9163 145.707 17.7497C145.457 17.583 145.123 17.4163 144.622 17.4163C144.121 17.4163 143.703 17.583 143.369 17.9997C143.035 18.4163 142.952 18.9997 142.952 19.7497V20.4163C142.952 21.1663 143.119 21.7497 143.369 22.1663C143.62 22.583 144.037 22.7497 144.622 22.7497C145.123 22.7497 145.457 22.6663 145.707 22.4163C145.958 22.1663 146.125 21.833 146.209 21.333H147.377V21.2497ZM150.634 20.4997H149.799V23.583H148.546V16.4997H149.799V19.4997H150.467L152.554 16.4997H154.057L151.636 19.9163L154.308 23.583H152.805L150.634 20.4997ZM158.984 21.9163H156.229L155.644 23.583H154.391L157.063 16.4997H158.149L160.821 23.583H159.569L158.984 21.9163ZM156.562 20.9163H158.65L157.648 17.9997L156.562 20.9163ZM165.163 23.583V20.9163H163.743L162.407 23.583H161.071L162.658 20.583C161.823 20.1663 161.406 19.583 161.406 18.6663C161.406 17.9997 161.656 17.4163 162.074 17.083C162.491 16.7497 163.159 16.4997 163.91 16.4997H166.332V23.583H165.163ZM162.658 18.6663C162.658 19.083 162.741 19.4163 162.992 19.583C163.242 19.7497 163.576 19.9163 163.994 19.9163H165.163V17.4163H163.994C163.576 17.4163 163.159 17.4997 162.992 17.7497C162.825 17.9997 162.658 18.2497 162.658 18.6663Z" fill="#343A40"/>
<g id="Group">
<path id="Vector_2" d="M54.609 33.8337H53.774V36.917H52.5215V29.8337H53.774V32.8337H54.442L56.5295 29.8337H58.0325L55.611 33.2503L58.283 36.917H56.78L54.609 33.8337ZM64.462 33.5003C64.462 34.167 64.3785 34.8337 64.128 35.3337C63.8775 35.8337 63.5435 36.2503 63.126 36.5837C62.7085 36.917 62.124 37.0003 61.5395 37.0003C60.955 37.0003 60.454 36.8337 60.0365 36.5837C59.619 36.3337 59.2015 35.917 58.951 35.417C58.7005 34.917 58.617 34.3337 58.617 33.5837V33.167C58.617 32.5003 58.7005 31.8337 58.951 31.3337C59.2015 30.8337 59.5355 30.417 59.953 30.0837C60.3705 29.7503 60.955 29.667 61.456 29.667C61.957 29.667 62.5415 29.8337 62.959 30.0837C63.3765 30.3337 63.794 30.7503 63.961 31.2503C64.128 31.7503 64.295 32.417 64.295 33.0837V33.5003H64.462ZM63.2095 33.167C63.2095 32.417 63.0425 31.7503 62.792 31.3337C62.5415 30.917 62.0405 30.667 61.5395 30.667C61.0385 30.667 60.621 30.917 60.287 31.3337C59.953 31.7503 59.8695 32.3337 59.786 33.0837V33.5003C59.786 34.2503 59.953 34.917 60.2035 35.3337C60.454 35.7503 60.955 36.0003 61.456 36.0003C62.0405 36.0003 62.458 35.7503 62.7085 35.3337C62.959 34.917 63.126 34.3337 63.126 33.5003V33.167H63.2095ZM67.301 29.7503L69.3885 35.167L71.476 29.7503H73.0625V36.8337H71.81V34.5003L71.8935 31.3337L69.806 36.8337H68.8875L66.8 31.417L66.8835 34.5837V36.917H65.631V29.8337H67.301V29.7503ZM80.16 36.917H78.9075V30.8337H75.7345V36.917H74.482V29.8337H80.16V36.917ZM85.5875 35.2503H82.832L82.2475 36.917H80.995L83.667 29.8337H84.7525L87.4245 36.917H86.172L85.5875 35.2503ZM83.166 34.2503H85.2535L84.2515 31.3337L83.166 34.2503ZM93.9375 36.917H92.685V33.7503H89.512V36.917H88.2595V29.8337H89.512V32.8337H92.685V29.8337H93.9375V36.917ZM99.7825 29.7503H101.035V36.8337H99.7825V31.7503L96.693 36.8337H95.4405V29.7503H96.693V34.8337L99.7825 29.7503ZM106.045 36.917V34.2503H104.625L103.289 36.917H101.953L103.54 33.917C102.705 33.5003 102.287 32.917 102.287 32.0003C102.287 31.3337 102.538 30.7503 102.955 30.417C103.373 30.0837 104.041 29.8337 104.792 29.8337H107.214V36.917H106.045ZM103.54 32.0003C103.54 32.417 103.623 32.7503 103.874 32.917C104.124 33.0837 104.458 33.2503 104.876 33.2503H106.045V30.7503H104.876C104.458 30.7503 104.041 30.8337 103.874 31.0837C103.707 31.3337 103.54 31.5837 103.54 32.0003Z" fill="#343A40"/>
</g>
<g id="Group_2">
<path id="Vector_3" d="M17.618 24.5003L21.7095 25.0003C21.0415 27.417 19.8725 29.2503 18.119 30.5837C16.3655 31.917 14.111 32.5837 11.439 32.5837C8.0155 32.5837 5.26 31.5003 3.256 29.417C1.252 27.3337 0.25 24.3337 0.25 20.5837C0.25 16.667 1.252 13.5837 3.256 11.417C5.26 9.25033 7.932 8.16699 11.1885 8.16699C14.3615 8.16699 16.8665 9.25033 18.8705 11.3337C20.8745 13.5003 21.8765 16.417 21.8765 20.3337V21.417H4.425C4.592 24.0003 5.26 25.917 6.596 27.3337C7.932 28.667 9.5185 29.417 11.5225 29.417C12.942 29.417 14.1945 29.0003 15.28 28.2503C16.3655 27.5003 17.0335 26.167 17.618 24.5003ZM4.592 18.0837H17.7015C17.5345 16.0837 17.0335 14.667 16.1985 13.667C14.946 12.167 13.276 11.417 11.272 11.417C9.435 11.417 7.932 12.0003 6.6795 13.2503C5.427 14.417 4.759 16.0837 4.592 18.0837Z" fill="#2C63A5"/>
</g>
<g id="Group_3" opacity="0.7">
<path id="Vector_4" d="M30.9774 24.5003L35.0689 25.0003C34.4009 27.417 33.2319 29.2503 31.4784 30.5837C29.7249 31.917 27.4704 32.5837 24.7984 32.5837C21.3749 32.5837 18.6194 31.5003 16.6154 29.417C14.6114 27.3337 13.6094 24.3337 13.6094 20.5837C13.6094 16.667 14.6114 13.5837 16.6154 11.417C18.6194 9.25033 21.2914 8.16699 24.5479 8.16699C27.7209 8.16699 30.2259 9.25033 32.2299 11.3337C34.2339 13.5003 35.2359 16.417 35.2359 20.3337V21.417H17.7009C17.8679 24.0003 18.5359 25.917 19.8719 27.3337C21.2079 28.667 22.7944 29.417 24.7984 29.417C26.2179 29.417 27.4704 29.0003 28.5559 28.2503C29.6414 27.5003 30.3094 26.167 30.9774 24.5003ZM17.9514 18.0837H31.0609C30.8939 16.0837 30.3929 14.667 29.5579 13.667C28.3054 12.167 26.6354 11.417 24.6314 11.417C22.7944 11.417 21.2914 12.0003 20.0389 13.2503C18.7029 14.417 18.0349 16.0837 17.9514 18.0837Z" fill="#3376B2"/>
</g>
<g id="Group_4" opacity="0.7">
<path id="Vector_5" d="M43.5037 23.4997L47.4282 23.9997C47.0107 26.6663 45.9252 28.7497 44.1717 30.333C42.4182 31.833 40.2472 32.583 37.6587 32.583C34.4857 32.583 31.8972 31.4997 29.8932 29.4163C27.9727 27.333 26.9707 24.333 26.9707 20.4163C26.9707 17.9163 27.3882 15.6663 28.2232 13.7497C29.0582 11.833 30.3107 10.4163 32.0642 9.49967C33.8177 8.58301 35.6547 8.08301 37.6587 8.08301C40.1637 8.08301 42.2512 8.74967 43.9212 9.99967C45.5077 11.2497 46.5932 13.083 47.0107 15.4997L43.1697 16.083C42.8357 14.4997 42.1677 13.333 41.2492 12.4997C40.3307 11.6663 39.1617 11.333 37.8257 11.333C35.8217 11.333 34.2352 12.083 32.9827 13.4997C31.7302 14.9163 31.1457 17.1663 31.1457 20.333C31.1457 23.4997 31.7302 25.7497 32.9827 27.1663C34.1517 28.583 35.7382 29.333 37.7422 29.333C39.3287 29.333 40.5812 28.833 41.6667 27.9163C42.5852 26.9163 43.2532 25.4163 43.5037 23.4997Z" fill="#368EC7"/>
</g>
<path id="Vector_6" d="M14.2799 5.50033L12.7769 6.16699L13.3614 4.66699L12.3594 3.58366L14.0294 3.33366L14.9479 1.91699L15.3654 3.33366L16.9519 3.58366L15.6159 4.66699V6.16699L14.2799 5.50033ZM24.1329 4.00033L22.5464 4.66699L23.1309 3.16699L22.2124 2.00033L23.7989 1.83366L24.7174 0.416992L25.2184 1.83366L26.7214 2.00033L25.3854 3.16699V4.66699L24.1329 4.00033ZM33.9024 5.50033L32.3994 6.16699L32.9004 4.66699L31.9819 3.58366L33.5684 3.33366L34.4869 1.91699L34.9879 3.33366L36.4909 3.58366L35.1549 4.66699V6.16699L33.9024 5.50033ZM14.5304 37.7503L13.0274 38.5003L13.5284 36.917L12.6099 35.8337L14.1964 35.667L15.1149 34.2503L15.6159 35.667L17.1189 35.8337L15.7829 36.917V38.5003L14.5304 37.7503ZM23.8824 39.2503L22.3794 40.0003L22.8804 38.5003L21.9619 37.3337L23.5484 37.167L24.5504 35.7503L24.9679 37.167L26.4709 37.3337L25.2184 38.5003L25.1349 40.0003L23.8824 39.2503ZM34.0694 37.7503L32.5664 38.5003L33.0674 36.917L32.1489 35.8337L33.7354 35.667L34.7374 34.2503L35.1549 35.667L36.6579 35.8337L35.4054 36.917L35.3219 38.5003L34.0694 37.7503Z" fill="#6DAEDB"/>
</g>
<defs>
<clipPath id="clip0_320_194560">
<rect width="167" height="40" fill="white"/>
</clipPath>
</defs>
</svg>
