<svg width="211" height="40" viewBox="0 0 211 40" fill="none" xmlns="http://www.w3.org/2000/svg">
<g id="&#208;&#144;&#208;&#187;&#209;&#140;&#209;&#130;&#208;&#176;&#208;&#179;&#209;&#128;&#208;&#176;&#208;&#188;&#208;&#176;" clip-path="url(#clip0_320_194571)">
<path id="Vector" d="M0 2.29465L38.3256 0L38.535 3.44198L0.209429 5.73664L0 2.29465Z" fill="#CF6E22"/>
<path id="Vector_2" d="M0.208607 6.98828C12.9838 7.30119 25.8113 7.6141 38.5865 7.927C38.5342 9.07433 38.5342 10.2217 38.4818 11.369C25.7066 11.0561 12.9314 10.7432 0.15625 10.4303C0.15625 9.28294 0.208607 8.13561 0.208607 6.98828Z" fill="#C33837"/>
<path id="Vector_3" d="M0.575109 12.3076C13.2979 13.9765 25.9684 15.5931 38.6912 17.262C38.5342 18.4093 38.4295 19.5566 38.2724 20.6518C25.6019 18.983 12.8791 17.3663 0.15625 15.6974C0.313322 14.5501 0.470394 13.4549 0.575109 12.3076Z" fill="#1A1A1A"/>
<path id="Vector_4" d="M0.15625 22.0078C12.9314 22.0078 25.759 22.0078 38.5342 22.0078C38.5342 23.1551 38.5342 24.3025 38.5342 25.4498C25.759 25.4498 12.9314 25.4498 0.15625 25.4498C0.15625 24.3025 0.15625 23.1551 0.15625 22.0078Z" fill="#009147"/>
<path id="Vector_5" d="M0.366056 28.3184C13.1412 28.9442 25.9164 29.6221 38.6916 30.248C38.6393 31.3953 38.5869 32.5426 38.5345 33.6899C25.7594 33.0641 12.9842 32.3862 0.208984 31.7603C0.208984 30.613 0.313699 29.4657 0.366056 28.3184Z" fill="#3F9197"/>
<path id="Vector_6" d="M0.15625 36.6104H38.5865V40.0002H0.15625V36.6104Z" fill="#D9A229"/>
<g id="Group">
<path id="Vector_7" d="M61.1547 8.39648H58.1703L51.9922 24.3026H54.8718L56.4426 20.0784H62.7778L64.2962 24.3026H67.2805L61.1547 8.39648ZM62.0448 17.9923H57.1756L59.6887 11.317L62.0448 17.9923Z" fill="#1A1A1A"/>
<path id="Vector_8" d="M83.04 24.3026V8.39648H72.6208L72.3067 17.6273C72.2543 18.4095 72.202 19.1396 72.1496 19.6612C72.0449 20.2348 71.9402 20.652 71.8355 21.0171C71.6784 21.3821 71.5737 21.6429 71.3643 21.8515C71.2072 22.0601 70.9978 22.1644 70.7883 22.2687C70.5789 22.3209 70.3695 22.373 70.1601 22.373C70.1077 22.373 70.003 22.373 69.8459 22.373C69.7412 22.373 69.5841 22.3209 69.4271 22.3209C69.27 22.2687 69.1653 22.2687 69.0605 22.2166V24.3548C69.27 24.4069 69.5318 24.5112 69.7936 24.5634C70.1077 24.6155 70.4218 24.6677 70.736 24.6677C71.3119 24.6677 71.8355 24.5634 72.3591 24.3026C72.8826 24.094 73.3015 23.7289 73.668 23.2074C74.0345 22.6859 74.3486 22.0601 74.6104 21.2778C74.8199 20.4956 74.9769 19.5568 75.0293 18.4095L75.3434 10.8476H80.265V24.3548H83.04V24.3026Z" fill="#1A1A1A"/>
<path id="Vector_9" d="M98.904 19.4004C98.904 18.3574 98.6946 17.4708 98.2757 16.7407C97.8569 16.0106 97.2286 15.4369 96.4432 15.0718C95.6055 14.7068 94.6631 14.4982 93.4589 14.4982H89.2179V8.39648H86.3906V24.3026H93.4589C94.6107 24.3026 95.6055 24.094 96.4432 23.7289C97.2809 23.3639 97.8569 22.7902 98.2757 22.0601C98.6946 21.33 98.904 20.4434 98.904 19.4004ZM96.1291 19.4525C96.1291 20.3391 95.9197 20.9649 95.4484 21.3821C94.9772 21.7994 94.2966 22.0601 93.3542 22.0601H89.2179V16.7407H93.3018C93.8777 16.7407 94.4013 16.845 94.8202 17.0536C95.239 17.2622 95.5532 17.5751 95.7626 17.9923C96.0244 18.4095 96.1291 18.8789 96.1291 19.4525Z" fill="#1A1A1A"/>
<path id="Vector_10" d="M111.104 8.39648H98.1191V10.7954H103.198V24.3026H106.025V10.7954H111.104V8.39648Z" fill="#1A1A1A"/>
<path id="Vector_11" d="M120.11 8.39648H117.125L110.947 24.3026H113.827L115.398 20.0784H121.733L123.251 24.3026H126.236L120.11 8.39648ZM121 17.9923H116.131L118.644 11.317L121 17.9923Z" fill="#1A1A1A"/>
<path id="Vector_12" d="M131.941 24.3026V10.7954H139.951V8.39648H129.113V24.3026H131.941Z" fill="#1A1A1A"/>
<path id="Vector_13" d="M147.178 8.39648H144.194L138.016 24.3026H140.895L142.466 20.0784H148.801L150.32 24.3026H153.304L147.178 8.39648ZM148.121 17.9923H143.251L145.765 11.317L148.121 17.9923Z" fill="#1A1A1A"/>
<path id="Vector_14" d="M172.989 8.39648H169.063L164.769 20.8606L160.267 8.39648H156.34V24.3026H159.01V12.0471L163.565 24.3026H165.869L170.319 12.0471V24.3026H172.989V8.39648Z" fill="#1A1A1A"/>
<path id="Vector_15" d="M193.095 8.39648H189.221L184.875 20.8606L180.425 8.39648H176.498V24.3026H179.168V12.0471L183.723 24.3026H185.975L190.425 12.0471V24.3026H193.095V8.39648Z" fill="#1A1A1A"/>
<path id="Vector_16" d="M204.561 8.39648H201.577L195.398 24.3026H198.278L199.849 20.0784H206.184L207.702 24.3026H210.687L204.561 8.39648ZM205.451 17.9923H200.582L203.095 11.317L205.451 17.9923Z" fill="#1A1A1A"/>
</g>
</g>
<defs>
<clipPath id="clip0_320_194571">
<rect width="211" height="40" fill="white"/>
</clipPath>
</defs>
</svg>
