<svg width="252" height="40" viewBox="0 0 252 40" fill="none" xmlns="http://www.w3.org/2000/svg">
<g clip-path="url(#clip0_320_194533)">
<mask id="mask0_320_194533" style="mask-type:luminance" maskUnits="userSpaceOnUse" x="0" y="0" width="252" height="40">
<path d="M251.5 0H0.5V40H251.5V0Z" fill="white"/>
</mask>
<g mask="url(#mask0_320_194533)">
<path fill-rule="evenodd" clip-rule="evenodd" d="M28.0619 2.59093V0.33366H8.53837C4.80692 0.18196 0.5 3.84093 0.5 7.62126V14.7936C0.5 18.7863 4.09818 21.9962 8.48991 21.9962H27.977V19.6418H8.62315C5.77612 19.5448 2.89274 17.4452 2.89274 14.6964V7.99139C2.89274 5.63704 5.60651 2.72443 8.02954 2.71229L28.0619 2.59093Z" fill="#009FE3"/>
<path fill-rule="evenodd" clip-rule="evenodd" d="M41.2603 0.133789H59.9418C64.3516 0.133789 67.9559 3.75028 67.9559 8.16771V14.084C67.9559 18.5014 64.3516 22.118 59.9418 22.118H41.2603C36.8503 22.118 33.2461 18.5014 33.2461 14.084V8.16771C33.2461 3.74421 36.8503 0.133789 41.2603 0.133789ZM42.0962 2.5731C38.6676 2.5731 35.8629 5.38256 35.8629 8.82307V13.4225C35.8629 16.857 38.6676 19.6665 42.0962 19.6665H59.0573C62.4858 19.6665 65.2966 16.857 65.2966 13.4225V8.82307C65.2966 5.38863 62.4919 2.5731 59.0573 2.5731H42.0962Z" fill="#009FE3"/>
<path fill-rule="evenodd" clip-rule="evenodd" d="M73.0508 22.1907V3.66521C73.0508 3.66521 73.0205 0.0729886 77.1941 0.309638C80.9676 0.522016 81.5678 2.91886 82.8517 5.15186C84.1357 7.38486 88.3946 17.6761 88.3946 17.6761L94.561 3.9322C94.561 3.9322 95.6213 0.279297 99.0678 0.279297C102.515 0.279297 103.641 2.93706 103.641 4.72709C103.641 6.52321 103.641 22.1239 103.641 22.1239H100.995V4.06569C100.995 4.06569 100.994 2.57298 99.4676 2.57298C97.9415 2.57298 97.6809 3.60452 97.3172 4.36909C96.9536 5.13365 89.5757 22.1421 89.5757 22.1421H87.2258C84.7294 16.3047 82.2339 10.4613 79.7383 4.61787C78.6116 1.98439 75.595 2.40308 75.595 4.21132V22.136L73.0508 22.1907Z" fill="#009FE3"/>
<path fill-rule="evenodd" clip-rule="evenodd" d="M151.823 0.133789H170.504C174.914 0.133789 178.524 3.75028 178.524 8.16771V14.084C178.524 18.5014 174.914 22.118 170.504 22.118H151.823C147.412 22.118 143.809 18.5014 143.809 14.084V8.16771C143.809 3.74421 147.419 0.133789 151.823 0.133789ZM152.664 2.5731C149.236 2.5731 146.431 5.38256 146.431 8.82307V13.4225C146.431 16.857 149.236 19.6665 152.664 19.6665H169.625C173.061 19.6665 175.858 16.857 175.858 13.4225V8.82307C175.858 5.38863 173.054 2.5731 169.625 2.5731H152.664Z" fill="#009FE3"/>
<path fill-rule="evenodd" clip-rule="evenodd" d="M108.602 0.272672V22.0506H111.206L111.255 13.5311L132.002 13.5493C135.648 13.5493 138.629 10.5639 138.629 6.91099C138.629 3.2581 135.648 0.266602 132.002 0.266602H108.602V0.272672ZM111.267 2.62096C118.063 2.62096 124.854 2.59669 131.644 2.59669C134.032 2.59669 135.976 4.55056 135.976 6.93528C135.976 9.31998 134.032 11.2738 131.644 11.2738C124.83 11.2738 118.069 11.292 111.267 11.292V2.62096Z" fill="#009FE3"/>
<path fill-rule="evenodd" clip-rule="evenodd" d="M205.263 10.0489C208.601 10.0489 211.332 12.7794 211.332 16.1229C211.332 19.4663 208.601 22.1969 205.263 22.1969H183.988V20.0368H204.742C206.802 20.0368 208.486 18.3499 208.486 16.2868C208.486 14.2237 206.802 12.5368 204.742 12.5368L189.023 12.5064C185.685 12.5064 182.959 9.76978 182.959 6.4324C182.959 3.08897 185.691 0.358398 189.023 0.358398H209.806V2.54892H189.186C187.126 2.54892 185.442 4.23581 185.442 6.29891C185.442 8.36202 187.126 10.0489 189.186 10.0489C191.246 10.0489 205.263 10.0489 205.263 10.0489Z" fill="#009FE3"/>
<path d="M218.777 0H216.258V22.1783H218.777V0Z" fill="#009FE3"/>
<path fill-rule="evenodd" clip-rule="evenodd" d="M223.285 0.0664062H251.259V2.51785H238.533V22.1719H236.019V2.51785H223.285V0.0664062Z" fill="#009FE3"/>
<path fill-rule="evenodd" clip-rule="evenodd" d="M209.335 30.2861H217.276C219.151 30.2861 220.685 31.8829 220.685 33.836V36.4507C220.685 38.4037 219.151 40.0005 217.276 40.0005H209.335C207.46 40.0005 205.926 38.4037 205.926 36.4507V33.836C205.926 31.8829 207.46 30.2861 209.335 30.2861ZM190.821 30.337V39.9624H191.926L191.945 36.1961L199.757 36.2026C200.209 37.0487 202.054 39.975 202.054 39.975H203.679L201.333 36.1452C202.609 35.8718 203.581 34.6821 203.581 33.2761C203.581 31.6604 202.317 30.3435 200.765 30.3435H190.821V30.337ZM191.957 31.374C194.846 31.374 197.729 31.3677 200.619 31.3677C201.632 31.3677 202.463 32.2329 202.463 33.2826C202.463 34.3386 201.632 35.2038 200.619 35.2038C197.723 35.2038 194.846 35.2101 191.957 35.2101V31.374ZM236.163 30.3435V36.4316C236.163 38.3846 234.806 39.9814 233.145 39.9814H226.103C224.441 39.9814 223.079 38.3846 223.079 36.4316V30.3435H224.068V36.1389C224.068 37.6594 225.125 38.8999 226.419 38.8999H232.816C234.104 38.8999 235.166 37.6594 235.166 36.1389V30.3435H236.163ZM188.592 31.3867V30.318H185.256H180.339C178.446 30.318 176.895 31.9338 176.895 33.906V36.3361C176.895 38.3082 178.446 39.9178 180.339 39.9178H185.22C187.113 39.9178 188.665 38.3082 188.665 36.3361V35.1656H182.66L182.654 36.158L187.596 36.1644C187.553 37.653 186.362 38.8618 184.921 38.8618H180.645C179.172 38.8618 177.963 37.6085 177.963 36.0752V34.1795C177.963 32.6464 179.172 31.3931 180.645 31.3931C182.116 31.3867 188.592 31.3867 188.592 31.3867ZM238.74 30.3244V39.9496H239.846L239.863 36.1835L248.684 36.1898C250.235 36.1898 251.5 34.8729 251.5 33.2571C251.5 31.6412 250.23 30.3244 248.684 30.3244H238.74ZM239.87 31.3612C242.759 31.3612 245.643 31.3549 248.531 31.3549C249.545 31.3549 250.377 32.2201 250.377 33.2698C250.377 34.3258 249.545 35.1847 248.531 35.1847C245.636 35.1847 242.759 35.1974 239.87 35.1974V31.3612ZM209.689 31.3677C208.229 31.3677 207.039 32.6081 207.039 34.1287V36.158C207.039 37.6785 208.229 38.9189 209.689 38.9189H216.896C218.357 38.9189 219.548 37.6785 219.548 36.158V34.1287C219.548 32.6081 218.357 31.3677 216.896 31.3677H209.689Z" fill="#009FE3"/>
</g>
</g>
<defs>
<clipPath id="clip0_320_194533">
<rect width="251" height="40" fill="white" transform="translate(0.5)"/>
</clipPath>
</defs>
</svg>
