<svg width="97" height="40" viewBox="0 0 97 40" fill="none" xmlns="http://www.w3.org/2000/svg">
<g clip-path="url(#clip0_10_106)">
<path fill-rule="evenodd" clip-rule="evenodd" d="M21.0435 40.0001C32.9135 22.8011 32.2193 7.10656 19.1073 13.3315C19.7527 16.9293 20.3579 20.5442 20.9947 24.0874C21.4164 26.3299 23.0457 24.2281 24.5775 22.5915C26.967 20.0159 28.4845 16.154 28.7254 16.8115C29.2819 18.3362 24.6406 27.5904 23.4818 28.937C21.7004 31.0043 17.8308 30.4617 17.0534 26.6572C16.1641 25.0636 15.2434 18.0577 14.7815 15.5166C14.7557 15.3816 14.727 15.2295 14.6983 15.0715C13.9898 15.3989 13.3186 15.7319 12.6961 16.0707C10.6623 17.1819 8.76048 18.3506 7.30901 19.881C6.16447 22.8614 4.69865 26.4189 3.45658 27.3549C2.27474 28.2422 -0.126213 27.2028 0.0114766 24.9201C0.189325 22.0316 1.3769 19.5766 3.14391 17.5179C5.73992 11.0948 9.34566 2.56992 11.8069 0.786845C14.2939 -1.0192 16.4596 0.482488 17.0964 3.26477C17.564 5.30052 17.9857 7.36498 18.3901 9.44667C42.0612 -1.83752 30.6215 28.1646 21.0464 40.0001M13.9267 10.7215C13.6714 9.3232 13.3989 7.87607 13.1436 6.64141C12.2457 8.21488 11.279 10.2851 10.4414 12.1773C11.5917 11.6202 12.7649 11.135 13.9296 10.7244L13.9267 10.7215Z" fill="#ED6D00"/>
<mask id="mask0_10_106" style="mask-type:luminance" maskUnits="userSpaceOnUse" x="13" y="15" width="3" height="5">
<path d="M15.3867 19.0942C15.1228 17.5294 14.9077 16.2201 14.7786 15.5195C14.7528 15.3845 14.7241 15.2352 14.6954 15.0744C14.1734 15.3156 13.68 15.5625 13.2009 15.8066C13.2382 15.7865 13.2755 15.7664 13.3128 15.7434C13.7546 15.5166 14.2164 15.2926 14.6954 15.0715C14.7241 15.2323 14.7528 15.3816 14.7786 15.5166C14.9048 16.2172 15.1228 17.5265 15.3867 19.0913" fill="white"/>
</mask>
<g mask="url(#mask0_10_106)">
<path d="M15.3839 15.0715H13.2009V19.0913H15.3839V15.0715Z" fill="url(#paint0_linear_10_106)"/>
</g>
<mask id="mask1_10_106" style="mask-type:luminance" maskUnits="userSpaceOnUse" x="13" y="13" width="7" height="9">
<path d="M15.7912 21.4628C15.6478 20.6416 15.5101 19.8377 15.3867 19.0911C15.1228 17.5263 14.9077 16.217 14.7786 15.5164C14.7528 15.3814 14.7241 15.2321 14.6954 15.0713C14.2164 15.2924 13.7546 15.5164 13.3128 15.7432C15.2232 14.6722 17.1796 13.8137 19.1072 13.3313C19.3998 14.9651 19.6838 16.6017 19.9678 18.2355C18.7573 19.1744 17.3058 20.2942 15.7912 21.4628Z" fill="white"/>
</mask>
<g mask="url(#mask1_10_106)">
<path d="M19.9678 13.3313H13.3128V21.4628H19.9678V13.3313Z" fill="url(#paint1_linear_10_106)"/>
</g>
<mask id="mask2_10_106" style="mask-type:luminance" maskUnits="userSpaceOnUse" x="3" y="19" width="5" height="9">
<path d="M3.45087 27.3548C4.69294 26.4188 6.16162 22.8613 7.3033 19.878C7.35493 19.8234 7.40656 19.7689 7.46107 19.7172C7.47254 19.7086 7.48688 19.6971 7.49836 19.6885C7.43525 19.7516 7.3664 19.8148 7.3033 19.8809C6.15876 22.8641 4.69294 26.4188 3.45087 27.3577V27.3548Z" fill="white"/>
</mask>
<g mask="url(#mask2_10_106)">
<path d="M7.49836 19.6885H3.45087V27.3548H7.49836V19.6885Z" fill="url(#paint2_linear_10_106)"/>
</g>
<mask id="mask3_10_106" style="mask-type:luminance" maskUnits="userSpaceOnUse" x="0" y="19" width="8" height="9">
<path d="M1.76416 27.5617C1.15316 27.3693 0.576585 26.9185 0.261047 26.2581C1.99937 24.4693 4.53228 22.0258 7.46392 19.7173C7.40942 19.7718 7.35778 19.8235 7.30615 19.8781C6.16161 22.8614 4.69579 26.416 3.45372 27.3549C2.99762 27.6966 2.36655 27.7512 1.76702 27.5617" fill="white"/>
</mask>
<g mask="url(#mask3_10_106)">
<path d="M7.46105 19.7173H0.258179V27.7512H7.46105V19.7173Z" fill="url(#paint3_linear_10_106)"/>
</g>
<path d="M41.9493 9.62744L41.083 10.7645C40.7159 10.2792 40.254 10.0352 39.6918 10.0352C39.2845 10.0352 38.9862 10.1357 38.7997 10.3367C38.6132 10.5376 38.5186 10.7702 38.5186 11.0315C38.5186 11.2612 38.6075 11.4536 38.7854 11.6058C38.9202 11.7321 39.2615 11.8958 39.8066 12.091C40.6499 12.381 41.2236 12.6653 41.5305 12.9467C42.0153 13.3802 42.2591 13.9775 42.2591 14.7355C42.2591 15.571 41.9838 16.2458 41.4359 16.7597C40.888 17.2737 40.1737 17.5321 39.2988 17.5321C38.074 17.5321 37.0958 16.9952 36.3643 15.9242L37.4486 14.8905C37.6351 15.2724 37.8961 15.5595 38.226 15.7462C38.5587 15.9328 38.8944 16.0276 39.2328 16.0276C39.6144 16.0276 39.9299 15.9184 40.1766 15.7031C40.4233 15.4849 40.5466 15.2035 40.5466 14.8532C40.5466 14.5546 40.4348 14.299 40.2139 14.0866C40.0102 13.8999 39.5713 13.6903 38.9001 13.4606C38.2719 13.2481 37.7986 13.0012 37.483 12.7198C37.0327 12.3293 36.8061 11.801 36.8061 11.1349C36.8061 10.4687 37.0413 9.85427 37.5089 9.36615C37.9764 8.87516 38.6534 8.6311 39.5369 8.6311C40.4979 8.6311 41.3011 8.96417 41.9493 9.62744Z" fill="#ED6D00"/>
<path d="M49.5021 17.3427L48.7506 15.5538H45.317L44.5654 17.3427H42.7668L46.4558 8.64551H47.7064L51.2921 17.3427H49.505H49.5021ZM45.839 14.2015H48.2629L47.0639 11.1349L45.839 14.2015Z" fill="#ED6D00"/>
<path d="M57.339 9.62744L56.4727 10.7645C56.1055 10.2792 55.6437 10.0352 55.0815 10.0352C54.6741 10.0352 54.3758 10.1357 54.1893 10.3367C54.0029 10.5376 53.9082 10.7702 53.9082 11.0315C53.9082 11.2612 53.9972 11.4536 54.175 11.6058C54.3098 11.7321 54.6512 11.8958 55.1962 12.091C56.0395 12.381 56.6132 12.6653 56.9202 12.9467C57.405 13.3802 57.6488 13.9775 57.6488 14.7355C57.6488 15.571 57.3734 16.2458 56.8255 16.7597C56.2776 17.2737 55.5634 17.5321 54.6885 17.5321C53.4636 17.5321 52.4854 16.9952 51.754 15.9242L52.8383 14.8905C53.0247 15.2724 53.2858 15.5595 53.6156 15.7462C53.9484 15.9328 54.284 16.0276 54.6225 16.0276C55.004 16.0276 55.3195 15.9184 55.5662 15.7031C55.8129 15.4849 55.9363 15.2035 55.9363 14.8532C55.9363 14.5546 55.8273 14.299 55.6035 14.0866C55.3999 13.8999 54.961 13.6903 54.2897 13.4606C53.6587 13.2481 53.1882 13.0012 52.8727 12.7198C52.4223 12.3293 52.1957 11.801 52.1957 11.1349C52.1957 10.4687 52.4309 9.85427 52.8985 9.36615C53.3661 8.87516 54.0431 8.6311 54.9266 8.6311C55.8875 8.6311 56.6907 8.96417 57.339 9.62744Z" fill="#ED6D00"/>
<path d="M62.6343 8.87524H64.8545C65.5257 8.87524 66.1138 8.93267 66.6158 9.04752C67.1178 9.16237 67.5854 9.38059 68.0185 9.70505C68.5377 10.0955 68.9393 10.5894 69.2233 11.1866C69.5073 11.7839 69.6507 12.4328 69.6507 13.142C69.6507 14.6322 69.0799 15.7778 67.9411 16.5789C67.4821 16.9034 67.0145 17.1187 66.5383 17.2307C66.0622 17.3427 65.4913 17.3972 64.8287 17.3972H62.6343V8.87812V8.87524ZM64.2923 10.3051V15.9645H64.8029C65.6692 15.9645 66.3634 15.7778 66.8826 15.4017C67.2153 15.1634 67.4735 14.8418 67.6599 14.4369C67.8464 14.0321 67.9411 13.6014 67.9411 13.1391C67.9411 12.6768 67.8493 12.2605 67.6657 11.8556C67.4821 11.4508 67.2268 11.1206 66.894 10.8651C66.392 10.4918 65.695 10.3023 64.8029 10.3023H64.2923V10.3051Z" fill="#FEFEFE"/>
<path d="M71.0763 10.1844C70.8928 10.0007 70.801 9.78247 70.801 9.52692C70.801 9.27138 70.8928 9.05316 71.0763 8.86939C71.2599 8.68563 71.4779 8.59375 71.7332 8.59375C71.9885 8.59375 72.2065 8.68563 72.3901 8.86939C72.5737 9.05316 72.6655 9.27138 72.6655 9.52692C72.6655 9.78247 72.5737 10.0007 72.3901 10.1844C72.2065 10.3682 71.9885 10.4601 71.7332 10.4601C71.4779 10.4601 71.2599 10.3682 71.0763 10.1844ZM70.9559 11.8642H72.5135V17.3943H70.9559V11.8642Z" fill="#FEFEFE"/>
<path d="M78.2018 12.5791V11.8642H79.7594V17.1904C79.7594 17.5149 79.7536 17.7618 79.7393 17.9312C79.725 18.1006 79.6705 18.3303 79.5729 18.6203C79.4754 18.9103 79.3291 19.1688 79.1312 19.3985C78.5603 20.0445 77.7916 20.369 76.822 20.369C76.0303 20.369 75.3619 20.1594 74.8112 19.743C74.2633 19.3267 73.942 18.7582 73.8473 18.0432H75.5312C75.5914 18.3591 75.7348 18.6031 75.9643 18.7783C76.1938 18.9534 76.4835 19.0395 76.8335 19.0395C77.0888 19.0395 77.3068 18.9936 77.4904 18.8989C77.674 18.8041 77.8088 18.7007 77.8977 18.5859C77.9866 18.471 78.0555 18.3275 78.1014 18.1581C78.1473 17.9887 78.1759 17.8566 78.1846 17.7676C78.1932 17.6786 78.196 17.5809 78.196 17.4804V16.6506C77.7973 17.2651 77.2293 17.5694 76.4979 17.5694C75.6717 17.5694 75.0005 17.2852 74.4813 16.7138C73.9621 16.1424 73.7039 15.4447 73.7039 14.6178C73.7039 13.7908 73.9535 13.1161 74.4555 12.5418C74.9575 11.9675 75.6258 11.6804 76.4577 11.6804C77.2236 11.6804 77.803 11.979 78.1932 12.5734L78.2018 12.5791ZM77.9465 13.5123C77.6568 13.2137 77.2924 13.0644 76.8478 13.0644C76.4032 13.0644 76.0389 13.2137 75.7492 13.5123C75.4595 13.8109 75.316 14.1813 75.316 14.6235C75.316 15.0657 75.4595 15.4389 75.7492 15.7404C76.0389 16.0419 76.4032 16.1941 76.8478 16.1941C77.2924 16.1941 77.6568 16.0419 77.9465 15.7404C78.2362 15.4389 78.3796 15.0657 78.3796 14.6235C78.3796 14.1813 78.2362 13.8109 77.9465 13.5123Z" fill="#FEFEFE"/>
<path d="M81.36 10.1844C81.1764 10.0007 81.0847 9.78247 81.0847 9.52692C81.0847 9.27138 81.1764 9.05316 81.36 8.86939C81.5436 8.68563 81.7616 8.59375 82.0169 8.59375C82.2722 8.59375 82.4902 8.68563 82.6738 8.86939C82.8574 9.05316 82.9492 9.27138 82.9492 9.52692C82.9492 9.78247 82.8574 10.0007 82.6738 10.1844C82.4902 10.3682 82.2722 10.4601 82.0169 10.4601C81.7616 10.4601 81.5436 10.3682 81.36 10.1844ZM81.2395 11.8642H82.7972V17.3943H81.2395V11.8642Z" fill="#FEFEFE"/>
<path d="M86.9049 13.1936H85.8321V17.3971H84.2744V13.1936H83.6635V11.8642H84.2744V9.97485H85.8321V11.8642H86.9049V13.1936Z" fill="#FEFEFE"/>
<path d="M91.9592 12.5791V11.8642H93.5168V17.3943H91.9592V16.6793C91.5433 17.2766 90.9782 17.5723 90.261 17.5723C89.4263 17.5723 88.7493 17.2881 88.2244 16.7167C87.7023 16.1453 87.4384 15.4476 87.4384 14.6206C87.4384 13.7937 87.6937 13.0874 88.2043 12.5246C88.7149 11.9618 89.3747 11.6804 90.1807 11.6804C90.9868 11.6804 91.572 11.979 91.9535 12.5734L91.9592 12.5791ZM91.6781 13.5123C91.3884 13.2137 91.0241 13.0644 90.5794 13.0644C90.1348 13.0644 89.7705 13.2137 89.4808 13.5123C89.1911 13.8109 89.0477 14.1813 89.0477 14.6235C89.0477 15.0657 89.1911 15.4389 89.4808 15.7404C89.7705 16.0419 90.1348 16.1941 90.5794 16.1941C91.0241 16.1941 91.3884 16.0419 91.6781 15.7404C91.9678 15.4389 92.1112 15.0657 92.1112 14.6235C92.1112 14.1813 91.9678 13.8109 91.6781 13.5123Z" fill="#FEFEFE"/>
<path d="M94.9941 7.83008H96.5517V17.3972H94.9941V7.83008Z" fill="#FEFEFE"/>
<path d="M42.4915 29.9506L41.7399 28.1618H38.3063L37.5547 29.9506H35.7562L39.4451 21.2534H40.6958L44.2814 29.9506H42.4943H42.4915ZM38.8284 26.8094H41.2523L40.0532 23.7428L38.8284 26.8094Z" fill="#FEFEFE"/>
<path d="M49.2555 25.1353V24.4203H50.8131V29.7466C50.8131 30.071 50.8074 30.318 50.793 30.4874C50.7787 30.6568 50.7242 30.8865 50.6266 31.1765C50.5291 31.4665 50.3828 31.7249 50.1878 31.9546C49.6169 32.6007 48.8481 32.9251 47.8786 32.9251C47.0869 32.9251 46.4185 32.7155 45.8677 32.2992C45.3199 31.8828 44.9986 31.3143 44.9039 30.5994H46.5878C46.648 30.9152 46.7914 31.1593 47.0209 31.3344C47.2504 31.5096 47.5401 31.5957 47.8872 31.5957C48.1425 31.5957 48.3605 31.5498 48.5441 31.455C48.7277 31.3603 48.8625 31.2569 48.9514 31.142C49.0403 31.0272 49.1092 30.8836 49.1551 30.7142C49.201 30.5448 49.2297 30.4127 49.2383 30.3237C49.2469 30.2347 49.2497 30.1371 49.2497 30.0366V29.2068C48.851 29.8212 48.283 30.1256 47.5516 30.1256C46.7254 30.1256 46.0542 29.8413 45.535 29.27C45.0158 28.6986 44.7576 28.0008 44.7576 27.1739C44.7576 26.347 45.0072 25.6722 45.5092 25.098C46.0112 24.5237 46.6795 24.2366 47.5114 24.2366C48.2773 24.2366 48.8568 24.5352 49.2469 25.1295L49.2555 25.1353ZM49.0002 26.0685C48.7105 25.7698 48.3462 25.6205 47.9015 25.6205C47.4569 25.6205 47.0926 25.7698 46.8029 26.0685C46.5132 26.3671 46.3697 26.7375 46.3697 27.1796C46.3697 27.6218 46.5132 27.9951 46.8029 28.2966C47.0926 28.5981 47.4569 28.7502 47.9015 28.7502C48.3462 28.7502 48.7105 28.5981 49.0002 28.2966C49.2899 27.9951 49.4333 27.6218 49.4333 27.1796C49.4333 26.7375 49.2899 26.3671 49.0002 26.0685Z" fill="#FEFEFE"/>
<path d="M56.2863 28.1761L57.7148 28.4058C57.6545 28.558 57.5771 28.7102 57.4796 28.8595C57.382 29.0088 57.23 29.1925 57.0263 29.4079C56.8227 29.6261 56.5444 29.7984 56.1973 29.9305C55.8474 30.0625 55.4486 30.1286 54.9983 30.1286C54.1291 30.1286 53.4235 29.8702 52.8813 29.3505C52.3019 28.8049 52.015 28.0871 52.015 27.1912C52.015 26.2954 52.2961 25.5833 52.8584 25.0206C53.3862 24.5008 54.0775 24.2424 54.938 24.2424C55.8732 24.2424 56.5932 24.5439 57.0952 25.1498C57.5369 25.6781 57.7578 26.4016 57.7578 27.3205V27.4468H53.6243C53.6243 27.8229 53.7132 28.133 53.891 28.38C54.1463 28.7303 54.5164 28.9025 55.0012 28.9025C55.5806 28.9025 56.008 28.6585 56.2891 28.1732L56.2863 28.1761ZM53.6702 26.4505H56.2863C56.226 26.0915 56.0711 25.8188 55.8216 25.6264C55.5691 25.434 55.288 25.3393 54.9725 25.3393C54.6569 25.3393 54.3873 25.4369 54.1377 25.6321C53.8853 25.8274 53.7304 26.1002 53.673 26.4505H53.6702Z" fill="#FEFEFE"/>
<path d="M58.9511 29.9506V24.4205H60.5087V25.1354C60.9333 24.5382 61.5041 24.2424 62.2184 24.2424C62.9326 24.2424 63.4862 24.4693 63.8506 24.9201C64.1403 25.279 64.2837 25.7987 64.2837 26.4792V29.9534H62.7261V26.9386C62.7261 26.4189 62.6286 26.0571 62.4335 25.8532C62.2556 25.6666 62.0118 25.5718 61.7049 25.5718C61.2804 25.5718 60.9591 25.7326 60.7468 26.0571C60.5862 26.3126 60.503 26.6687 60.503 27.131V29.9534H58.9454L58.9511 29.9506Z" fill="#FEFEFE"/>
<path d="M69.9261 24.5726V26.1059C69.5761 25.7814 69.1516 25.6207 68.6496 25.6207C68.1476 25.6207 67.7747 25.7728 67.5022 26.0743C67.2297 26.3758 67.0948 26.7462 67.0948 27.1798C67.0948 27.6133 67.2469 28.0067 67.5481 28.3024C67.8493 28.5982 68.2336 28.7504 68.7041 28.7504C69.1745 28.7504 69.5704 28.5896 69.9289 28.2651V29.784C69.47 30.0137 68.9938 30.1286 68.5004 30.1286C67.6399 30.1286 66.9313 29.8616 66.3691 29.3246C65.7811 28.7705 65.4885 28.0641 65.4885 27.2056C65.4885 26.2696 65.8069 25.5202 66.4466 24.9574C66.983 24.4807 67.6456 24.2424 68.4373 24.2424C68.9737 24.2424 69.47 24.3544 69.9318 24.5755L69.9261 24.5726Z" fill="#FEFEFE"/>
<path d="M70.9845 32.9137L73.0126 29.1207L70.385 24.4204H72.1979L73.9076 27.5616L75.4394 24.4204H77.2006L72.7458 32.9137H70.9845Z" fill="#FEFEFE"/>
</g>
<defs>
<linearGradient id="paint0_linear_10_106" x1="15.3695" y1="19.0109" x2="12.4594" y2="13.8106" gradientUnits="userSpaceOnUse">
<stop stop-color="white"/>
<stop offset="0.92" stop-color="#0F0E09"/>
<stop offset="1" stop-color="#0F0E09"/>
</linearGradient>
<linearGradient id="paint1_linear_10_106" x1="17.0247" y1="18.0862" x2="14.1146" y2="12.8858" gradientUnits="userSpaceOnUse">
<stop stop-color="#ED6C00"/>
<stop offset="0.92" stop-color="#0F0E09"/>
<stop offset="1" stop-color="#0F0E09"/>
</linearGradient>
<linearGradient id="paint2_linear_10_106" x1="5.91493" y1="24.3084" x2="3.00197" y2="19.108" gradientUnits="userSpaceOnUse">
<stop stop-color="white"/>
<stop offset="0.92" stop-color="#0F0E09"/>
<stop offset="1" stop-color="#0F0E09"/>
</linearGradient>
<linearGradient id="paint3_linear_10_106" x1="4.59252" y1="25.0493" x2="1.67956" y2="19.8489" gradientUnits="userSpaceOnUse">
<stop stop-color="#ED6C00"/>
<stop offset="0.92" stop-color="#0F0E09"/>
<stop offset="1" stop-color="#0F0E09"/>
</linearGradient>
<clipPath id="clip0_10_106">
<rect width="96.5517" height="40" fill="white"/>
</clipPath>
</defs>
</svg>
